<svg width="36" height="36" viewBox="0 0 36 36" fill="none" xmlns="http://www.w3.org/2000/svg">
<g clip-path="url(#clip0)">
<path d="M25.8942 6.10046L27.5813 9.51877C27.7079 9.77541 27.9527 9.9533 28.236 9.99444L32.0083 10.5426C32.7215 10.6462 33.0063 11.5227 32.4902 12.0258L29.7605 14.6865C29.5556 14.8863 29.4621 15.1742 29.5104 15.4562L30.1549 19.2133C30.2767 19.9236 29.5311 20.4653 28.8932 20.1299L25.5191 18.3561C25.2657 18.2229 24.9631 18.2229 24.7098 18.3561L21.3357 20.1299C20.6977 20.4653 19.9522 19.9236 20.074 19.2133L20.7184 15.4562C20.7668 15.1741 20.6733 14.8863 20.4683 14.6865L17.7386 12.0258C17.2226 11.5227 17.5073 10.6462 18.2206 10.5426L21.9929 9.99444C22.2761 9.9533 22.521 9.77541 22.6476 9.51877L24.3347 6.10046C24.6537 5.45414 25.5753 5.45414 25.8942 6.10046Z" fill="#FDB441"/>
<path d="M29.7603 14.6865C29.5553 14.8865 29.4618 15.1742 29.5104 15.4561L30.1545 19.2139C30.2762 19.9239 29.5313 20.4653 28.8929 20.1304L28.0111 19.6667C28.3741 19.5284 28.6364 19.1501 28.5603 18.7066L27.9162 14.9488C27.8676 14.667 27.9611 14.3793 28.1661 14.1793L30.8957 11.5185C31.2254 11.1975 31.229 10.7236 31.0015 10.3961L32.008 10.5425C32.7217 10.6461 33.0065 11.5229 32.4899 12.0257L29.7603 14.6865Z" fill="#FEA613"/>
<path d="M34.1959 28.8621C30.8886 33.2004 25.6651 36.0002 19.7877 36.0002C9.80149 36.0002 1.67533 27.8708 1.6792 17.8846C1.68272 8.86079 8.28717 1.37968 16.9267 0.00845007C17.5127 -0.0845734 17.8658 0.635638 17.4294 1.03761C14.2241 3.99032 12.2276 8.23557 12.2666 12.9464C12.3399 21.791 19.6566 28.9388 28.5007 28.8146C30.2597 28.7899 31.9501 28.4813 33.5279 27.9328C34.0857 27.7388 34.5539 28.3925 34.1959 28.8621Z" fill="#FDB441"/>
<path d="M34.1957 28.8618C33.9775 29.148 33.7515 29.427 33.5167 29.6994C32.1588 30.1118 30.7299 30.3647 29.251 30.4349C19.5167 30.8957 10.8949 23.363 10.4884 13.5316C10.2775 8.43553 12.5069 3.61301 15.7632 0.232034C16.1466 0.145057 16.5349 0.0704556 16.927 0.00815869C17.5125 -0.0845835 17.8661 0.635627 17.4291 1.03711C14.2242 3.98989 12.2279 8.23528 12.2664 12.9459C12.3396 21.7912 19.6566 28.9387 28.5011 28.814C30.2597 28.7894 31.9502 28.4814 33.5277 27.9329C34.0855 27.7387 34.5536 28.3923 34.1957 28.8618Z" fill="#FEA613"/>
</g>
<defs>
<clipPath id="clip0">
<rect width="36" height="36" fill="white"/>
</clipPath>
</defs>
</svg>
