<svg width="23" height="36" viewBox="0 0 23 36" fill="none" xmlns="http://www.w3.org/2000/svg">
<circle cx="11" cy="9" r="6.5" stroke="#F0C919"/>
<path d="M0 7.4005H9.81612V0H12.2343V7.4005H22.4887V9.58438H12.2343V36H9.81612V9.58438H0V7.4005Z" fill="#55AFD9"/>
<path d="M22.4885 9.58462L12.2341 9.52417V9.97757H22.2014L22.4885 9.58462Z" fill="#2F89B3"/>
<path d="M0 9.58462L9.81612 9.52417V9.97757H0.287154L0 9.58462Z" fill="#2F89B3"/>
<path d="M8.67513 19C8.67513 19 8.26707 20.2015 8.04037 20.8816C7.82123 21.5693 7.71543 21.8942 7.79856 21.9773C7.88168 22.0605 8.0177 22.1285 8.0177 22.1285C8.0177 22.1285 7.48873 22.7254 8.08571 23.2771C8.41065 23.5794 8.87916 24.0101 9.19654 24.3275C9.59705 24.796 8.06304 25.1209 9.49125 25.5365L9.89931 25.6197L10.3452 23.3904L9.24944 19.5894L8.67513 19Z" fill="#D1D3D4"/>
<path d="M8.7507 22.5289C8.7507 22.5289 9.12097 20.2997 9.16631 20.0503C9.21921 19.8085 9.18898 19.7556 9.18898 19.7556L8.57689 19.272C8.44087 19.6649 8.1915 20.3979 8.04037 20.874C7.82123 21.5617 7.71543 21.8866 7.79856 21.9697C7.88168 22.0528 8.0177 22.1209 8.0177 22.1209L8.7507 22.5289Z" fill="#E6E7E8"/>
<path d="M9.46103 18.3802C9.46103 18.3802 9.64994 17.6547 9.46103 16.7555C9.27211 15.8562 9.08319 14.7454 9.08319 14.7454C8.74314 14.0804 8.84894 12.9243 8.6978 12.6522C8.54667 12.3802 7.85146 12.2139 7.85146 12.2139C6.66506 11.9872 6.01518 11.2996 5.9774 11.2845C5.93962 11.2618 5.73559 11.1711 5.42576 11.1182C5.11594 11.0578 4.42073 10.7555 4.10334 10.4683C3.78596 10.1736 2.77337 9.42551 2.68269 9.38017C2.58445 9.33483 2.49377 9.31216 2.2973 9.33483C2.10083 9.3575 1.87413 9.24415 1.76833 9.19881C1.65498 9.15347 1.23936 9.00234 1.02778 8.85876C0.884201 8.76052 0.476141 8.54138 0.597048 8.14088C0.619718 8.05775 0.634831 8.03508 0.657501 7.97463C0.680171 7.90662 0.733068 7.84617 0.808634 7.86128C0.929541 7.88395 1.38294 7.95952 1.49629 7.98974C1.60964 8.01997 1.93458 8.24667 1.93458 8.24667C1.93458 8.24667 1.81367 8.04264 1.75322 7.9973C1.69277 7.95952 1.53408 7.89151 1.51141 7.81594C1.48874 7.74037 1.51896 7.66481 1.51896 7.66481C1.51896 7.66481 2.0177 7.87639 2.0706 7.92173C2.1235 7.96707 2.23685 8.21644 2.55423 8.39025C2.87161 8.56405 3.7104 9.07035 4.24692 9.27438C4.78345 9.47841 5.9245 9.90914 6.06808 10.0829C6.21166 10.2567 6.47614 10.4154 6.47614 10.4154C7.40561 10.5439 7.63231 10.8915 7.96481 10.8764C8.2973 10.8613 8.59957 10.9368 8.94717 11.0351C9.29478 11.1333 11.5542 11.1635 11.7129 11.2845C11.8716 11.4129 12.4535 11.2693 12.4535 11.2693C12.9749 10.6497 13.6248 10.5363 13.8439 10.5061C14.063 10.4759 14.592 10.4003 15.0001 10.355C15.4081 10.3096 16.1411 9.99226 16.1411 9.99226C17.0479 9.19881 18.0152 9.03256 18.7557 8.74541C19.126 8.60183 19.4358 8.26934 19.4358 8.26934C19.7457 7.91418 20.1386 7.76304 20.2746 7.68748C20.4106 7.61191 20.6449 7.52879 20.7205 7.53634C20.796 7.5439 21.0454 7.51367 21.0454 7.51367C21.0983 7.77816 20.7583 7.76304 20.66 7.79327C20.5693 7.8235 20.4333 7.98219 20.4333 7.98219C20.4333 7.98219 20.728 7.89151 20.8565 7.86128C20.985 7.83105 21.4006 7.74037 21.5442 7.71015C21.6877 7.67992 21.8313 7.67236 21.8691 7.77816C21.9069 7.88395 21.8086 7.95952 21.8011 8.05775C21.7709 8.28445 21.7255 8.57916 21.4913 8.66984C21.4081 8.70007 21.0303 8.88143 20.7129 8.957C20.3955 9.03256 19.7154 9.04768 19.7154 9.04768C19.3074 9.19125 18.7406 9.70511 18.1512 10.1358C17.5618 10.5666 17.32 10.9595 16.587 11.1409C16.3905 11.1862 16.1185 11.3222 16.1185 11.3222C15.3023 11.8965 14.8943 11.957 14.4258 12.0779C13.9572 12.1988 13.8363 12.7353 13.8363 12.7353C13.8363 12.7353 13.9346 13.3625 13.5492 14.2316C13.5492 14.2316 13.1638 15.8033 13.0429 16.3399C12.922 16.8688 12.922 17.5036 13.0429 18.1535C13.0429 18.1535 13.2469 18.6069 13.3149 19.0905C13.6852 21.9923 13.058 24.3197 12.9522 24.6749C12.8464 25.03 12.854 25.9293 12.854 25.9293C12.9598 26.3978 12.7104 26.9646 12.7104 26.9646C12.7255 27.7882 12.4913 28.5439 12.2948 28.952C12.0983 29.36 11.5316 30.7504 11.4409 31.1132C11.3502 31.4759 11.4409 31.9368 11.5618 32.3147C11.6751 32.7001 11.6525 32.8965 11.6525 33.0552C11.6525 33.2139 11.5164 33.2744 11.5164 33.2744L11.5089 33.4255C11.4711 33.6295 11.2822 33.554 11.2822 33.554C11.2293 33.8185 11.0328 33.7278 11.0328 33.7278C10.9572 33.8638 10.7457 33.7656 10.7457 33.7656C10.5643 33.9847 10.4585 33.7656 10.4585 33.7656C10.2998 33.8714 10.1789 33.6673 10.1789 33.6673C9.95221 33.6749 9.94466 33.4935 9.94466 33.4935C9.80108 33.4708 9.69528 33.2593 9.73307 33.0477C9.77085 32.8436 9.80108 31.4003 9.73307 31.0829C9.66506 30.758 9.7633 30.6522 9.84642 30.5086C9.92954 30.3651 9.95221 30.2139 9.9371 29.957C9.92198 29.7001 9.69528 28.0603 9.76329 27.3802C9.83886 26.7001 10.1185 26.3827 10.1865 26.0955C10.2545 25.8084 10.262 25.0678 9.79352 23.8512C9.07564 21.9696 9.12853 20.4885 9.12853 20.4885C9.12853 20.4885 9.18899 19.559 9.46103 18.3802Z" fill="#2F89B3"/>
<path d="M1.52661 7.67273C1.7382 7.77852 2.00268 7.80119 2.1916 7.98255C2.34273 8.16391 2.51654 8.28482 2.73568 8.38306C3.16641 8.59464 3.58203 8.8289 4.0052 9.02537C4.42082 9.20673 4.89689 9.35031 5.32762 9.55434C5.54676 9.65258 5.7659 9.74326 5.98505 9.87172C6.0455 9.90951 6.09084 9.93217 6.15885 10.0077C6.19663 10.0531 6.22686 10.0909 6.26465 10.1286C6.34021 10.2042 6.43845 10.2798 6.52913 10.3402L6.49134 10.3251C6.75583 10.378 7.02031 10.4385 7.25457 10.5594C7.50394 10.6652 7.70041 10.8616 7.95734 10.8843C7.6853 10.907 7.45104 10.7332 7.20167 10.6727C6.95986 10.5972 6.71049 10.5443 6.45356 10.5292H6.43845L6.41578 10.514C6.30243 10.4536 6.20419 10.3856 6.0984 10.3025C6.05306 10.2647 5.9926 10.2118 5.95482 10.1664C5.93971 10.1513 5.88681 10.1135 5.84147 10.0909C5.645 9.98507 5.4183 9.89439 5.20671 9.81127C4.76087 9.63746 4.32258 9.48633 3.87674 9.27474C3.43845 9.06316 3.03039 8.81379 2.62989 8.55686C2.42586 8.44351 2.19916 8.26971 2.08581 8.05812C1.97245 7.87676 1.71553 7.80875 1.52661 7.67273Z" fill="white"/>
<path d="M12.4609 11.2771C12.6574 11.0126 12.9219 10.7859 13.2242 10.6272C13.5264 10.4609 13.8816 10.4156 14.2065 10.3627L15.1738 10.1964C15.4836 10.1209 15.7934 9.99242 16.0881 9.86396L16.0504 9.88662C16.3904 9.58436 16.7758 9.33499 17.1914 9.16118C17.607 8.97982 18.0302 8.85892 18.4458 8.7229C18.8766 8.62466 19.2015 8.39796 19.5189 8.07302C19.6927 7.92189 19.8967 7.8161 20.1008 7.73297C20.2972 7.64985 20.5088 7.54406 20.728 7.5365C20.5088 7.57428 20.3275 7.70275 20.1385 7.80854C19.9496 7.91433 19.7758 8.0428 19.6247 8.19393C19.3602 8.52642 18.9521 8.83625 18.529 8.96471C17.6902 9.23675 16.8892 9.54657 16.2393 10.0982L16.2242 10.1133L16.2091 10.1209C15.8917 10.2493 15.5819 10.3627 15.2418 10.4458C14.8866 10.5138 14.5768 10.5214 14.2368 10.5592C13.9043 10.5894 13.5869 10.6121 13.2771 10.733C12.9672 10.8539 12.6876 11.0352 12.4609 11.2771Z" fill="white"/>
<path d="M9.17389 20.0504C9.22679 19.8086 9.19656 19.7633 9.19656 19.7633L8.58447 19.2797C8.68271 19.3779 8.68271 19.4988 8.80361 19.6802C8.82628 19.7255 8.96986 19.8615 9.17389 20.0504Z" fill="#E6E7E8"/>
<path d="M10.1335 10.5442C10.1335 10.5442 10.262 10.3855 10.5038 10.5064C10.7456 10.6197 10.9118 10.786 10.9647 10.8766C11.0176 10.9673 11.1159 11.0807 11.1159 11.1789C11.1159 11.2772 11.0856 11.6172 11.0403 11.7079C10.995 11.8061 10.9874 11.7986 10.8892 11.8061C10.7909 11.8137 10.7154 11.7683 10.5869 11.7532C10.466 11.7306 10.3602 11.7306 10.33 11.7835C10.2922 11.8288 10.1788 11.8968 10.0957 11.9195C10.0126 11.9421 9.95968 12.063 9.95968 12.063C9.95968 12.063 9.88412 12.0555 9.85389 11.995C9.81611 11.9346 9.76321 11.7608 9.66497 11.7003C9.55918 11.6399 9.25691 11.3829 9.20401 11.2696C9.15867 11.1562 9.08311 10.99 9.18134 10.9295C9.28714 10.8691 9.43827 10.8691 9.59696 10.8086C9.75565 10.7406 9.87656 10.7331 10.1335 10.5442Z" fill="#2F89B3"/>
<path d="M10.6851 12.0481C10.6246 12.101 10.5642 12.1237 10.4357 12.169C10.3148 12.2144 10.1334 12.1312 10.1334 12.1312C10.209 12.0179 10.3979 11.9726 10.4584 11.9348C10.5188 11.897 10.602 11.9045 10.6775 11.9121C10.7606 11.9197 10.7455 11.9952 10.6851 12.0481ZM11.0402 11.7081C10.9949 11.8063 10.9873 11.7988 10.8891 11.8063C10.7909 11.8139 10.7153 11.7685 10.5868 11.7534C10.4659 11.7307 10.3601 11.7307 10.3299 11.7836C10.2921 11.829 10.1788 11.897 10.0957 11.9197C10.0125 11.9423 9.95964 12.0632 9.95964 12.0632C9.95964 12.0632 9.88407 12.0557 9.85384 11.9952C9.82362 11.9348 9.76316 11.761 9.66493 11.7005C9.55913 11.6401 9.25687 11.3831 9.20397 11.2698C9.15863 11.1564 9.08306 10.9902 9.1813 10.9297C9.28709 10.8693 9.43823 10.8693 9.59692 10.8088C9.75561 10.7484 9.86896 10.7408 10.1259 10.5595C10.1259 10.5595 10.2543 10.4008 10.4962 10.5217C10.738 10.635 10.9042 10.8013 10.9571 10.892C11.01 10.9826 11.1082 11.096 11.1082 11.1942C11.1158 11.2698 11.0931 11.6098 11.0402 11.7081ZM12.6725 13.1212C12.6725 13.1212 13.4886 11.5192 12.5516 11.1716C11.6145 10.8239 11.5314 10.0532 11.0025 9.38062C10.4659 8.70808 9.09062 8.59473 8.75057 9.38062C8.40296 10.1665 8.44075 10.3705 8.87148 11.0809C9.30221 11.7912 9.49112 11.9348 9.3551 12.3277C9.21908 12.7282 9.21908 13.5066 9.6347 13.8088C9.83117 12.97 9.8085 12.6451 10.2543 12.7962C10.7002 12.9474 10.874 13.227 11.1158 12.4335C11.3576 11.6401 11.3274 11.5494 11.539 12.033C11.7506 12.5166 12.4533 12.3051 12.6725 13.1212Z" fill="#216484"/>
<path d="M13.3147 19.1134C13.5188 20.2469 13.5641 21.4106 13.4659 22.5668C13.413 23.1411 13.3298 23.7154 13.2014 24.2822C13.1409 24.5769 13.0427 24.8338 13.0351 25.1058C13.0125 25.3854 12.9974 25.6726 12.9974 25.9522V25.922C13.0729 26.33 12.9747 26.6927 12.8387 27.0479L12.8462 26.9875C12.8613 27.7431 12.6573 28.4837 12.3248 29.1411C12.0452 29.8061 11.7354 30.4635 11.4407 31.1361C11.6749 30.4484 11.9016 29.7532 12.1586 29.0655C12.4457 28.4081 12.5893 27.6978 12.5742 26.995V26.9648L12.5893 26.9346C12.7026 26.6323 12.7858 26.2771 12.7178 25.9824V25.9673V25.9522C12.7178 25.6575 12.7178 25.3703 12.748 25.0756C12.7707 24.7658 12.884 24.4786 12.9369 24.2142C13.0729 23.6625 13.1636 23.0958 13.2316 22.5366C13.3676 21.4031 13.3903 20.262 13.3147 19.1134Z" fill="#216484"/>
<path d="M13.1033 23.4132C13.1033 23.4132 14.0252 21.0782 13.8288 19.1135C13.6323 17.1487 13.5114 17.3225 12.7481 17.5795C11.9849 17.8364 9.3552 18.3502 8.57686 18.2445C7.79852 18.1387 7.98744 18.8717 8.57686 19.4611C9.16628 20.0505 11.3199 21.0933 11.4408 21.9548C11.5617 22.8162 13.1033 23.4132 13.1033 23.4132Z" fill="#E6E7E8"/>
<path d="M9.733 33.0781C9.75567 32.5416 9.733 32.005 9.69522 31.4761C9.68766 31.3401 9.6801 31.2116 9.64988 31.0907C9.61965 30.9547 9.61209 30.7884 9.68766 30.6448C9.85391 30.3955 9.86147 30.2066 9.82368 29.9345C9.74811 29.4056 9.68766 28.869 9.64232 28.3325C9.59698 27.8035 9.57431 27.2217 9.7859 26.6852C9.88414 26.4207 10.0504 26.194 10.0655 25.9748C10.0957 25.733 10.0731 25.4685 10.0353 25.2116C9.9597 24.6902 9.77834 24.199 9.61209 23.6927C9.27204 22.665 9.09068 21.5844 9.13602 20.5114C9.19647 21.5768 9.4534 22.6272 9.82368 23.6171C10.0277 24.1083 10.2091 24.6297 10.2998 25.1738C10.3451 25.4459 10.3753 25.7179 10.3451 26.0126C10.3149 26.3375 10.1411 26.5642 10.0579 26.7985C9.86147 27.267 9.86902 27.7884 9.90681 28.3174C9.93703 28.8464 10.005 29.3753 10.0428 29.9119C10.0504 30.0554 10.0579 30.1914 10.0277 30.3426C10.005 30.4937 9.89925 30.6373 9.84635 30.728C9.733 30.9093 9.85391 31.204 9.83124 31.4761C9.82368 32.0126 9.80101 32.5491 9.733 33.0781Z" fill="#216484"/>
</svg>
