<svg width="36" height="36" viewBox="0 0 36 36" fill="none" xmlns="http://www.w3.org/2000/svg">
<g clip-path="url(#clip0)">
<path d="M15.8104 0V9.93023H2.68673C1.68436 9.93023 0.871826 10.7399 0.871826 11.7387C0.871826 12.7375 1.68436 13.5471 2.68673 13.5471H12.5206L2.26549 26.8946C3.86686 28.1055 6.15454 27.7992 7.3751 26.2106L15.8104 15.2317L15.78 30.2958H13.0476L16.2843 36C16.2843 36 19.4563 34.7864 19.4563 30.3763V18.8843L30.7736 27.7668L35.1281 26.5726L22.6563 16.7841L30.667 11.1295C31.4944 10.5604 31.7001 9.43376 31.1266 8.613C30.553 7.79217 29.4173 7.58805 28.5899 8.15709L19.4563 14.584V0L15.8104 0Z" fill="#65E0CC"/>
<path d="M19.4562 14.584V0H17.2832V16.1131L19.4562 14.584Z" fill="#4AD4BD"/>
<path d="M22.6565 16.784L30.6672 11.1294C31.4945 10.5603 31.7003 9.43363 31.1267 8.61288C30.5531 7.79205 29.4174 7.58793 28.5901 8.15697L28.5418 8.19093C28.6973 8.30547 28.8372 8.44624 28.9537 8.61288C29.5272 9.4337 29.3215 10.5604 28.4941 11.1294L20.4834 16.784L33.381 27.0516L35.1282 26.5724L22.6565 16.784Z" fill="#4AD4BD"/>
<path d="M17.2833 20.5348V30.3762C17.2833 32.6219 16.4608 34.0383 15.6536 34.8881L16.2844 35.9999C16.2844 35.9999 19.4564 34.7863 19.4564 30.3762V18.8842L17.2833 20.5348Z" fill="#4AD4BD"/>
</g>
<defs>
<clipPath id="clip0">
<rect width="36" height="36" fill="white"/>
</clipPath>
</defs>
</svg>
