<svg width="36" height="36" viewBox="0 0 36 36" fill="none" xmlns="http://www.w3.org/2000/svg">
<path d="M30.8046 16.159V10.8409C30.8046 10.2987 30.365 9.85901 29.8228 9.85901H21.4961L17.8552 13.5L21.4961 17.1409H29.8228C30.365 17.1409 30.8046 16.7013 30.8046 16.159Z" fill="#F2D422"/>
<path d="M29.8228 17.1409C30.3651 17.1409 30.8047 16.7013 30.8047 16.159V13.5H17.8552L21.4961 17.1409H29.8228Z" fill="#F49F22"/>
<path d="M5.19531 10.8408V16.1589C5.19531 16.7013 5.63491 17.1409 6.17716 17.1409H14.4313L18.0723 13.4999L14.4313 9.85901H6.17716C5.63491 9.85901 5.19531 10.2987 5.19531 10.8408Z" fill="#F2721C"/>
<path d="M5.19531 16.159C5.19531 16.7013 5.63491 17.1409 6.17716 17.1409H14.4313L18.0723 13.5H5.19531V16.159Z" fill="#EA5513"/>
<path d="M14.3591 17.1409V35.0181C14.3591 35.5603 14.7988 36 15.341 36H20.6591C21.2013 36 21.641 35.5603 21.641 35.0181V17.1409L18 13.5L14.3591 17.1409Z" fill="#F7AC16"/>
<path d="M14.3591 35.018C14.3591 35.5602 14.7988 35.9999 15.341 35.9999H18.0001V13.5L14.3591 17.1409V35.018Z" fill="#F49019"/>
<path d="M21.6409 9.85908V0.981844C21.6409 0.439664 21.2013 0 20.6591 0H15.341C14.7988 0 14.3591 0.439664 14.3591 0.981844V9.85908L18.0001 13.5L21.6409 9.85908Z" fill="#F7AC16"/>
<path d="M15.3408 0C14.7985 0 14.3589 0.439664 14.3589 0.981844V9.85908L17.9999 13.5V0H15.3408Z" fill="#F49019"/>
</svg>
