<svg width="37" height="36" viewBox="0 0 37 36" fill="none" xmlns="http://www.w3.org/2000/svg">
<path d="M32.5625 34.3125H7.25C5.69694 34.3125 4.4375 33.0531 4.4375 31.5C4.4375 29.9469 5.69694 28.6875 7.25 28.6875H32.5625V34.3125Z" fill="#EAE8E5"/>
<path d="M32.5625 1.6875H7.25C5.69694 1.6875 4.4375 2.94694 4.4375 4.5V31.5C4.4375 29.9469 5.69694 28.6875 7.25 28.6875H32.5625V1.6875Z" fill="#E89D43"/>
<path d="M24.6875 30.375H30.3125V31.5H24.6875V30.375Z" fill="#DBD8D5"/>
<path d="M8.375 31.5H14.5625V32.625H8.375V31.5Z" fill="#DBD8D5"/>
<path d="M21.3125 30.375H23.5625V31.5H21.3125V30.375Z" fill="#DBD8D5"/>
<path d="M15.6875 31.5H16.8125V32.625H15.6875V31.5Z" fill="#DBD8D5"/>
<path d="M6.6875 3.9375H7.8125V16.3125H6.6875V3.9375Z" fill="#E08831"/>
<path d="M32.5625 5.0625C30.6973 5.0625 29.1875 3.55275 29.1875 1.6875H32.5625V5.0625Z" fill="#454A6D"/>
<path d="M29.1875 28.6875C29.1875 26.8223 30.6973 25.3125 32.5625 25.3125V28.6875H29.1875Z" fill="#454A6D"/>
<path d="M6.6875 17.4375H7.8125V18.5625H6.6875V17.4375Z" fill="#E08831"/>
<path d="M6.6875 19.6875H7.8125V20.8125H6.6875V19.6875Z" fill="#E08831"/>
<path d="M6.6875 21.9375H7.8125V23.0625H6.6875V21.9375Z" fill="#E08831"/>
<path d="M17.9934 8V11.984H12.7281C12.326 11.984 12 12.3089 12 12.7096C12 13.1103 12.326 13.4351 12.7281 13.4351H16.6735L12.5591 18.7901C13.2016 19.276 14.1194 19.1531 14.6091 18.5157L17.9934 14.111L17.9812 20.1547H16.8849L18.1835 22.4432C18.1835 22.4432 19.4561 21.9564 19.4561 20.187V15.5764L23.9966 19.1401L25.7437 18.6609L20.74 14.7338L23.9539 12.4652C24.2858 12.2369 24.3684 11.7848 24.1383 11.4555C23.9081 11.1262 23.4525 11.0443 23.1205 11.2726L19.4561 13.8511V8H17.9934Z" fill="white"/>
<path d="M19.4563 13.8511V8H18.5845V14.4646L19.4563 13.8511Z" fill="#FCDCB7"/>
<path d="M20.74 14.7338L23.9539 12.4652C24.2859 12.2369 24.3684 11.7848 24.1383 11.4556C23.9082 11.1262 23.4525 11.0443 23.1206 11.2726L23.1012 11.2863C23.1636 11.3322 23.2197 11.3887 23.2664 11.4556C23.4966 11.7849 23.414 12.2369 23.0821 12.4652L19.8682 14.7338L25.0427 18.8532L25.7437 18.661L20.74 14.7338Z" fill="#FCDCB7"/>
<path d="M18.5845 16.2386V20.187C18.5845 21.088 18.2545 21.6563 17.9307 21.9972L18.1838 22.4433C18.1838 22.4433 19.4563 21.9564 19.4563 20.187V15.5764L18.5845 16.2386Z" fill="#FCDCB7"/>
</svg>
