<svg width="36" height="36" viewBox="0 0 36 36" fill="none" xmlns="http://www.w3.org/2000/svg">
<defs>
<clipPath id="clip0_1680:7489">
<rect width="36" height="36" fill="white"/>
</clipPath>
</defs>
<g clip-path="url(#clip0_1680:7489)">
<path d="M32.8755 16.8696C31.6657 15.6428 30.1574 14.7261 28.4824 14.3872C26.6883 14.0242 24.8985 14.3322 23.3063 15.278C21.6596 16.2562 20.7717 17.9346 19.5392 19.3233C18.7526 20.2096 16.6949 21.5341 15.6824 20.1926C15.956 19.913 16.2074 19.6012 16.4268 19.2522C17.2559 17.933 17.3915 16.2806 16.9003 14.814C16.1385 12.5395 13.9239 10.9457 11.5437 10.836C9.45424 10.7397 7.27673 11.5837 5.71692 13.093C4.9605 13.825 4.94067 15.0315 5.67263 15.7878C6.40451 16.5442 7.61107 16.5641 8.36742 15.8321C9.17468 15.0509 10.3255 14.5954 11.3685 14.6435C11.9702 14.6712 12.4856 14.8884 12.8843 15.3359C13.3228 15.8282 13.5786 16.6212 13.1998 17.224C12.6831 18.0461 11.2166 18.567 10.246 18.9117C9.41634 19.2063 8.89652 20.031 8.98856 20.9067C9.08067 21.7824 9.76059 22.4809 10.6335 22.5967C12.6139 22.8592 13.8065 23.3252 14.7496 24.2053C16.2733 25.627 16.071 28.2767 14.8672 29.8104C13.9625 30.9629 12.5335 31.7169 10.9465 31.879C7.96073 32.1839 4.85981 30.7113 3.57598 28.3772C3.06867 27.455 1.90985 27.1185 0.987633 27.6259C0.0654141 28.1331 -0.270961 29.292 0.236274 30.2142C1.33856 32.2182 3.17449 33.7532 5.2485 34.6797C7.15348 35.5307 9.25793 35.8828 11.3337 35.6708C13.9445 35.4042 16.3252 34.1259 17.8654 32.1637C19.2704 30.3737 19.8701 28.1352 19.5539 25.8606C19.4805 25.3327 19.3582 24.8222 19.1929 24.3359C19.6401 24.1545 20.0735 23.9026 20.4923 23.5793C21.5206 22.7857 22.4739 21.8079 23.4067 20.5901C23.9497 19.8813 24.4667 19.0219 25.2528 18.555C27.1021 17.4566 28.9984 18.334 30.1564 19.5213C31.4593 20.8574 32.1811 22.6632 32.1885 24.6062C32.2026 28.3389 27.7953 29.8988 24.7326 29.9724C23.6804 29.9978 22.8479 30.8712 22.8732 31.9235C22.8983 32.9601 23.7464 33.7834 24.7775 33.7834C27.1155 33.7833 29.5846 33.1688 31.5855 31.9264C34.3192 30.2292 36.0107 27.4186 36 24.5917C35.9944 23.1442 35.7191 21.6988 35.1731 20.3573C34.6553 19.0848 33.8653 17.8733 32.8755 16.8696Z" fill="#FF7F6D"/>
<path d="M17.7115 10.1732C18.5235 10.7731 19.4684 11.1737 20.4431 11.4225C21.4805 11.6873 22.6035 11.7922 23.672 11.7572C26.3354 11.6699 28.9865 10.6892 31.1189 9.08767C31.9605 8.45564 32.1303 7.26095 31.4982 6.41938C30.8661 5.57788 29.6714 5.40794 28.8299 6.04005C27.5776 6.98062 26.0981 7.60724 24.5512 7.85228C22.7679 8.1348 20.0004 8.0448 19.299 6.0037C19.1927 5.69432 19.0949 5.37707 18.9119 5.10222C18.52 4.51342 17.8087 4.23744 17.1141 4.33609C16.072 4.4841 15.3472 5.44886 15.4953 6.49089C15.7078 7.98567 16.4741 9.25903 17.7115 10.1732Z" fill="#FF7F6D"/>
<path d="M23.6783 5.04085C24.996 5.04085 26.0642 3.97267 26.0642 2.65501C26.0642 1.33734 24.996 0.269165 23.6783 0.269165C22.3607 0.269165 21.2925 1.33734 21.2925 2.65501C21.2925 3.97267 22.3607 5.04085 23.6783 5.04085Z" fill="#FF7F6D"/>
<path d="M35.9999 24.5914C36.0108 27.4186 34.3192 30.2292 31.5852 31.9266C29.6833 33.1071 27.3599 33.7208 25.127 33.7786C26.8192 33.5277 28.4906 32.9603 29.9226 32.0711C32.6566 30.3738 34.3482 27.5632 34.3373 24.736C34.3316 23.2888 34.0561 21.8437 33.5103 20.5021C32.9927 19.2298 32.2026 18.0182 31.213 17.0141C30.0028 15.7874 28.4949 14.8708 26.82 14.5318C26.4058 14.4479 25.9916 14.3994 25.5796 14.3872C26.5251 14.1906 27.5032 14.1891 28.4827 14.3872C30.1576 14.7262 31.6656 15.6428 32.8757 16.8696C33.8653 17.8736 34.6554 19.0853 35.173 20.3575C35.7188 21.6991 35.9942 23.1442 35.9999 24.5914Z" fill="#CE4634"/>
<path d="M31.1189 9.08747C28.9864 10.6894 26.3356 11.6696 23.6724 11.7571C23.6124 11.7593 23.5524 11.7607 23.4917 11.7615C25.6416 11.4282 27.7206 10.5362 29.4562 9.23204C30.2977 8.60021 30.4675 7.40532 29.8358 6.56389C29.6124 6.26605 29.3189 6.05279 28.9958 5.92918C29.822 5.43256 30.9071 5.63134 31.4984 6.41933C32.1303 7.26076 31.9604 8.45572 31.1189 9.08747Z" fill="#CE4634"/>
<path d="M26.0644 2.65534C26.0644 3.97244 24.996 5.0409 23.6781 5.0409C22.8851 5.0409 22.1817 4.65341 21.748 4.05702C21.962 4.11988 22.1876 4.15391 22.4218 4.15391C23.7396 4.15391 24.808 3.08551 24.808 1.76765C24.808 1.24354 24.6389 0.759225 24.3526 0.365967C25.3422 0.656568 26.0644 1.57176 26.0644 2.65534Z" fill="#CE4634"/>
</g>
</svg>
