<svg width="37" height="37" viewBox="0 0 37 37" fill="none" xmlns="http://www.w3.org/2000/svg">
<g clip-path="url(#clip0)">
<path d="M28.4109 0.5H3.00978C2.40425 0.5 1.91333 0.990922 1.91333 1.59652V35.4035C1.91333 36.0089 2.40418 36.5 3.00978 36.5C3.27985 36.5 20.6021 36.5 21.1551 36.5L29.5071 28.148C29.5071 27.0107 29.5071 2.86686 29.5071 1.59645C29.5071 0.990922 29.0163 0.5 28.4109 0.5Z" fill="#FFDA7A"/>
<path d="M34.3391 4.8887C33.8468 4.33682 33.3939 3.92985 33.3157 3.86805C32 2.8289 30.0495 2.87713 28.7915 4.13404C6.0527 26.8728 7.75651 24.9538 7.49122 25.935C7.40558 26.0228 7.5891 25.5521 5.06601 32.6567C4.95618 32.966 5.25479 33.2663 5.56579 33.1564C12.5766 30.6663 12.1006 30.8549 12.1927 30.7574C12.7644 30.6024 12.934 30.5852 13.1521 30.3674L34.0875 9.43209C35.4496 8.06971 35.3048 5.96786 34.3391 4.8887Z" fill="#FEB546"/>
<path d="M6.01288 29.991L5.06577 32.6574C4.95636 32.9672 5.25533 33.2659 5.56541 33.1567L8.23173 32.2097C7.59062 31.3633 6.86345 30.635 6.01288 29.991Z" fill="#6D6557"/>
<path d="M25.3399 7.71729C25.2105 7.76306 25.0888 7.83661 24.9854 7.94004C6.84369 26.0819 7.83073 25.0881 7.77167 25.1659C10.1792 26.2323 12.0427 28.1619 13.0566 30.4508C13.1362 30.3901 12.4807 31.0386 24.3648 19.1544C30.7873 12.7324 30.4017 13.1742 30.5052 12.8826C29.3375 10.6909 27.5288 8.88328 25.3399 7.71729Z" fill="#63EBD4"/>
<path d="M25.3399 7.71729C25.2105 7.76306 25.0888 7.83661 24.9854 7.94004C6.84003 26.0855 7.83073 25.0881 7.77167 25.1659C8.90806 25.6693 9.9728 26.3864 10.9044 27.3178C11.5531 26.669 27.7726 10.4496 28.306 9.91617C27.4074 9.01757 26.406 8.2852 25.3399 7.71729Z" fill="#FF8C01"/>
<path d="M29.5071 28.1482H22.2515C21.646 28.1482 21.1551 28.639 21.1551 29.2446V36.5002L29.5071 28.1482Z" fill="#FEB546"/>
<path d="M3.50176 35.4035V1.59652C3.50176 0.990922 3.99261 0.5 4.59814 0.5H3.00978C2.40425 0.5 1.91333 0.990922 1.91333 1.59652V35.4035C1.91333 36.0089 2.40418 36.5 3.00978 36.5H4.59807C3.99261 36.5 3.50176 36.009 3.50176 35.4035Z" fill="#225763"/>
<path d="M22.7435 29.2446C22.7435 28.639 23.2344 28.1482 23.8399 28.1482H22.2516C21.6461 28.1482 21.1552 28.639 21.1552 29.2446V36.5002L22.7435 34.9119V29.2446Z" fill="#EA9B26"/>
<path d="M34.3466 4.8976C33.9882 4.49527 33.7122 4.2214 33.325 3.87596C31.9857 2.81023 30.0311 2.8958 28.7915 4.13429L28.2905 4.63533L26.6365 6.28936C26.7445 6.18136 26.8533 6.10226 27.0108 6.04643C29.195 7.21018 31.0058 9.01531 32.1762 11.2119C32.1305 11.3406 32.0571 11.462 31.9541 11.5655L34.0873 9.43226C35.3269 8.19272 35.4129 6.23747 34.3466 4.8976Z" fill="#CE4634"/>
<path d="M22.2805 7.42638H7.0791C6.75488 7.42638 6.49213 7.16369 6.49213 6.83941C6.49213 6.51513 6.75481 6.25244 7.0791 6.25244H22.2803C22.6045 6.25244 22.8673 6.51513 22.8673 6.83941C22.8674 7.16355 22.6046 7.42638 22.2805 7.42638Z" fill="#225763"/>
<path d="M19.1385 10.4103H7.0791C6.75488 10.4103 6.49213 10.1476 6.49213 9.82329C6.49213 9.49908 6.75481 9.23633 7.0791 9.23633H19.1385C19.4626 9.23633 19.7254 9.49901 19.7254 9.82329C19.7254 10.1474 19.4627 10.4103 19.1385 10.4103Z" fill="#225763"/>
<path d="M15.9956 13.3939H7.0791C6.75488 13.3939 6.49213 13.1312 6.49213 12.8069C6.49213 12.4827 6.75481 12.22 7.0791 12.22H15.9956C16.3197 12.22 16.5825 12.4827 16.5825 12.8069C16.5825 13.1311 16.3198 13.3939 15.9956 13.3939Z" fill="#225763"/>
<path d="M13.2764 16.3776H7.0791C6.75488 16.3776 6.49213 16.1149 6.49213 15.7906C6.49213 15.4663 6.75481 15.2036 7.0791 15.2036H13.2764C13.6005 15.2036 13.8633 15.4663 13.8633 15.7906C13.8633 16.1148 13.6005 16.3776 13.2764 16.3776Z" fill="#225763"/>
<path d="M10.1778 19.3612H7.0791C6.75488 19.3612 6.49213 19.0985 6.49213 18.7742C6.49213 18.45 6.75481 18.1873 7.0791 18.1873H10.1778C10.502 18.1873 10.7647 18.4499 10.7647 18.7742C10.7647 19.0984 10.502 19.3612 10.1778 19.3612Z" fill="#225763"/>
<path d="M8.93994 26.7175C9.06517 26.2545 9.08683 26.0702 9.3036 25.8531L30.2402 4.91669C31.1126 4.04502 32.3461 3.7341 33.4883 4.02323C33.4883 4.02323 33.3399 3.8871 33.3157 3.86805C32 2.8289 30.0495 2.87713 28.7915 4.13404C6.0527 26.8727 7.75651 24.9537 7.49122 25.9349C7.40558 26.0227 7.5891 25.5521 5.06601 32.6566C4.95618 32.9659 5.25479 33.2663 5.56579 33.1564L6.76679 32.7299C9.01722 26.3927 8.85437 26.8053 8.93994 26.7175Z" fill="#EA9B26"/>
<path d="M6.76664 32.73L7.32619 31.1542C6.93757 30.7528 6.52842 30.3812 6.01282 29.9907C5.01924 32.788 5.05903 32.6627 5.0494 32.7225C5.00834 32.9635 5.19453 33.179 5.43471 33.179C5.52464 33.179 5.45567 33.1956 6.76664 32.73Z" fill="#225763"/>
<path d="M25.3399 7.71729C25.2105 7.76306 25.0888 7.83661 24.9854 7.94004C6.84003 26.0855 7.83073 25.0881 7.77167 25.1659C8.90806 25.6693 9.9728 26.3864 10.9044 27.3178C11.5531 26.669 27.7726 10.4496 28.306 9.91617C27.4074 9.01757 26.406 8.2852 25.3399 7.71729Z" fill="#41D8BF"/>
<path d="M25.3399 7.71729C25.2109 7.76292 25.0896 7.83632 24.9863 7.93912C6.84073 26.0848 7.83087 25.0879 7.77167 25.1659C8.26955 25.3865 8.75379 25.648 9.21898 25.9507C9.27994 25.8704 8.27173 26.8852 26.6394 8.51758C26.2191 8.22255 25.7856 7.95466 25.3399 7.71729Z" fill="#2EBEA6"/>
<path d="M33.4865 4.02294C32.1743 2.8213 30.1855 2.86152 28.9125 4.01886C28.829 4.09473 29.0061 3.91937 26.6564 6.26907C26.7598 6.1655 26.8816 6.09189 27.0108 6.04611C27.4565 6.28356 27.89 6.55152 28.3102 6.84655L30.2401 4.91668C31.1083 4.04938 32.339 3.73311 33.4865 4.02294Z" fill="#B71A1A"/>
<path d="M27.0634 5.86206L25.2278 7.69764C27.454 8.92986 29.2933 10.7519 30.547 12.9722L32.3826 11.1367C31.1705 8.99026 29.3624 7.13457 27.0634 5.86206Z" fill="#EDF5FF"/>
<path d="M26.593 8.56375L28.4286 6.72824C27.9868 6.41092 27.5314 6.12109 27.0634 5.86206L25.2277 7.69764C25.6959 7.95667 26.1513 8.2465 26.593 8.56375Z" fill="#D5E8FE"/>
</g>
<defs>
<clipPath id="clip0">
<rect width="36" height="36" fill="white" transform="translate(0.5 0.5)"/>
</clipPath>
</defs>
</svg>
