<svg width="37" height="36" viewBox="0 0 37 36" fill="none" xmlns="http://www.w3.org/2000/svg">
<defs>
<linearGradient id="paint0_linear" x1="12.7679" y1="18" x2="24.4414" y2="18" gradientUnits="userSpaceOnUse">
<stop stop-color="#FF976D"/>
<stop offset="1" stop-color="#FF7A52"/>
</linearGradient>
<linearGradient id="paint1_linear" x1="4.95093" y1="18.0001" x2="32.3633" y2="18.0001" gradientUnits="userSpaceOnUse">
<stop stop-color="#CE4634"/>
<stop offset="1" stop-color="#FF5C37"/>
</linearGradient>
</defs>
<path d="M24.3418 28.3162L26.7532 30.7276C27.9871 31.9616 29.9942 31.9616 31.2278 30.7276C32.4618 29.494 32.4618 27.4869 31.2278 26.2529L28.8164 23.8416L24.3418 28.3162Z" fill="#E85B48"/>
<path d="M5.77216 5.27216C4.53818 6.50574 4.53818 8.51284 5.77216 9.74682L8.18353 12.1582L12.6582 7.68353L10.2468 5.27216C9.01324 4.03818 7.00574 4.03818 5.77216 5.27216Z" fill="#FFB997"/>
<path d="M21.664 32.8357C21.664 34.5806 20.2444 35.9999 18.4999 35.9999L15.6875 29.4253H21.664V32.8357Z" fill="#E85B48"/>
<path d="M15.3359 32.8357V29.4253H18.5001V35.9999C16.7556 35.9999 15.3359 34.5806 15.3359 32.8357Z" fill="#FFB997"/>
<path d="M21.664 3.16414C21.664 1.41922 20.2444 0 18.4999 0L15.6875 6.57458H21.664V3.16414Z" fill="#E85B48"/>
<path d="M15.3359 3.16414V6.57458H18.5001V0C16.7556 0 15.3359 1.41922 15.3359 3.16414Z" fill="#FFB997"/>
<path d="M28.8164 12.1582L31.2278 9.74682C32.4618 8.51284 32.4618 6.50574 31.2278 5.27216C29.9942 4.03818 27.9871 4.03818 26.7532 5.27216L24.3418 7.68353L28.8164 12.1582Z" fill="#E85B48"/>
<path d="M5.77216 30.7276C7.00574 31.9616 9.01284 31.9616 10.2468 30.7276L12.6582 28.3162L8.18353 23.8416L5.77216 26.2529C4.53818 27.4865 4.53818 29.494 5.77216 30.7276Z" fill="#FFB997"/>
<path d="M29.9253 21.164H33.3357C35.0806 21.164 36.4999 19.7443 36.4999 17.9998C36.4999 16.2553 35.0806 14.8357 33.3357 14.8357H29.9253V21.164Z" fill="#E85B48"/>
<path d="M0.5 17.9998C0.5 19.7443 1.91922 21.164 3.66414 21.164H7.07458V14.8357H3.66414C1.91922 14.8357 0.5 16.2553 0.5 17.9998Z" fill="#FFB997"/>
<path d="M29.7499 16.9451H21.0461L27.2005 10.7907L25.7093 9.29939L19.5548 15.4538V6.75H17.7969V29.2499H19.5548V20.5461L25.7093 26.7005L27.2005 25.2092L21.0461 19.0548H29.7499V16.9451Z" fill="#CE4634"/>
<path d="M17.4451 6.75V15.4538L11.2907 9.29939L9.79939 10.7907L15.9538 16.9451H7.25V19.0548H15.9538L9.79939 25.2092L11.2907 26.7005L17.4451 20.5461V29.2499H18.5V6.75H17.4451Z" fill="#CE4634"/>
<path d="M18.5002 12.7266L15.8633 18L18.5002 23.2734C21.4127 23.2734 23.7736 20.9125 23.7736 18C23.7736 15.0874 21.4127 12.7266 18.5002 12.7266Z" fill="url(#paint0_linear)"/>
<path d="M13.2266 18C13.2266 20.9125 15.5874 23.2734 18.5 23.2734V12.7266C15.5874 12.7266 13.2266 15.0874 13.2266 18Z" fill="#FF7F6D"/>
<path d="M18.4999 4.28906L15.6875 6.39876L18.4999 8.50805C23.7424 8.50805 27.9919 12.7576 27.9919 18.0001C27.9919 23.2425 23.7424 27.4921 18.4999 27.4921L16.3906 29.6018L18.4999 31.711C26.0723 31.711 32.2109 25.5725 32.2109 18.0001C32.2109 10.4276 26.0723 4.28906 18.4999 4.28906Z" fill="url(#paint1_linear)"/>
<path d="M9.00805 18.0001C9.00805 12.7576 13.2576 8.50805 18.5001 8.50805V4.28906C10.9276 4.28906 4.78906 10.4276 4.78906 18.0001C4.78906 25.5721 10.9276 31.711 18.5001 31.711V27.4921C13.2576 27.4921 9.00805 23.2425 9.00805 18.0001Z" fill="#FF7F6D"/>
</svg>
