<svg width="37" height="36" viewBox="0 0 37 36" fill="none" xmlns="http://www.w3.org/2000/svg">
<path d="M30.5001 23.2499L35.7501 17.9999L30.5001 12.7499V5.99988H23.7501L18.5001 0.749878L13.2501 5.99988H6.50006V12.7499L1.25006 17.9999L6.50006 23.2499V29.9999H13.2501L18.5001 35.2499L23.7501 29.9999H30.5001V23.2499Z" fill="#2EBEA6"/>
<path d="M35.7501 17.9999L30.5001 23.2499V29.9999H23.7501L23.0001 30.7499C20.7065 30.8567 18.4157 30.4837 16.2745 29.6546C14.1332 28.8255 12.1886 27.5586 10.565 25.935C8.94135 24.3114 7.67448 22.3668 6.84539 20.2255C6.0163 18.0843 5.64326 15.7935 5.75012 13.4999L6.50012 12.7499V5.99988H13.2501L18.5001 0.749878L23.7501 5.99988H30.5001V12.7499L35.7501 17.9999Z" fill="#41D8BF"/>
<path d="M22.4301 22.7476C22.0715 22.7973 21.7062 22.7545 21.3688 22.6232C21.0314 22.492 20.7333 22.2766 20.5026 21.9976C18.8601 19.9651 19.7526 13.8976 19.8951 13.2076C19.9113 13.1091 19.9468 13.0147 19.9995 12.93C20.0522 12.8452 20.1211 12.7716 20.2023 12.7135C20.2834 12.6553 20.3752 12.6137 20.4724 12.591C20.5696 12.5684 20.6704 12.5651 20.7688 12.5813C20.8673 12.5976 20.9617 12.6331 21.0464 12.6858C21.1312 12.7385 21.2048 12.8073 21.2629 12.8885C21.3211 12.9696 21.3627 13.0614 21.3854 13.1586C21.408 13.2558 21.4113 13.3566 21.3951 13.4551C21.1326 15.0676 20.5701 21.1951 22.0476 21.2626C23.7049 21.3625 25.3477 20.9029 26.7126 19.9576C26.0796 19.5972 25.4172 19.2911 24.7326 19.0426C24.5021 18.9672 24.2546 18.9604 24.0203 19.023C23.786 19.0856 23.5749 19.2148 23.4126 19.3951C23.3535 19.4739 23.2795 19.5402 23.1947 19.5904C23.11 19.6406 23.0162 19.6736 22.9187 19.6875C22.8212 19.7015 22.7219 19.696 22.6265 19.6716C22.531 19.6472 22.4414 19.6042 22.3626 19.5451C21.3351 18.7951 23.1576 17.0176 25.1601 17.6026C26.5401 18.0076 27.4101 18.8326 28.2651 18.8326C28.4077 18.8323 28.5475 18.8728 28.6679 18.9492C28.7884 19.0255 28.8846 19.1347 28.9452 19.2638C29.0058 19.3929 29.0284 19.5366 29.0102 19.6781C28.992 19.8196 28.9339 19.953 28.8426 20.0626C28.0205 20.9331 27.0252 21.6218 25.9207 22.0843C24.8163 22.5467 23.6272 22.7727 22.4301 22.7476Z" fill="#EDEBF2"/>
<path d="M14.7502 21.7503C17.4802 21.3153 19.5126 19.3953 19.5126 17.9628C19.5126 17.7639 19.5917 17.5731 19.7323 17.4324C19.873 17.2918 20.0637 17.2128 20.2626 17.2128C22.1076 17.2128 20.6376 22.3353 15.0127 23.2128C14.8317 23.2201 14.6542 23.1616 14.5129 23.0482C14.3717 22.9348 14.2763 22.7741 14.2443 22.5959C14.2123 22.4176 14.2459 22.2338 14.3389 22.0783C14.4318 21.9229 14.5779 21.8064 14.7502 21.7503Z" fill="#EDEBF2"/>
<path d="M18.1776 17.7301C18.0083 17.7359 17.842 17.6842 17.7058 17.5834C17.5696 17.4827 17.4715 17.3387 17.4276 17.1751C17.307 16.6559 17.0809 16.1669 16.7636 15.7386C16.4462 15.3103 16.0442 14.9517 15.5826 14.6851C15.4935 14.6413 15.4138 14.5803 15.3482 14.5057C15.2827 14.4311 15.2324 14.3443 15.2004 14.2503C15.1357 14.0604 15.1491 13.8526 15.2376 13.6726C15.3261 13.4926 15.4825 13.3551 15.6724 13.2904C15.7664 13.2584 15.8658 13.2452 15.9649 13.2516C16.0641 13.2579 16.161 13.2838 16.2501 13.3276C18.0576 14.1676 20.0001 17.7301 18.1776 17.7301Z" fill="#EDEBF2"/>
<path d="M10.4751 23.0627C8.4801 23.0627 7.6701 21.3377 8.1051 19.4402C8.1539 19.2515 8.27421 19.0893 8.44055 18.9878C8.60689 18.8863 8.80619 18.8535 8.99627 18.8964C9.18635 18.9393 9.35228 19.0545 9.45891 19.2176C9.56555 19.3806 9.60453 19.5788 9.5676 19.7702C9.4928 20.0254 9.47019 20.2931 9.50112 20.5572C9.53204 20.8214 9.61587 21.0766 9.7476 21.3077C9.8076 21.3827 9.9951 21.6002 10.6101 21.5627C11.1759 21.5653 11.7251 21.3717 12.1642 21.0147C12.6032 20.6578 12.9048 20.1596 13.0176 19.6052C12.9726 18.8102 12.4026 14.3552 12.1026 12.1052C12.0767 11.9062 12.131 11.7052 12.2533 11.5463C12.3757 11.3873 12.5562 11.2835 12.7551 11.2577C12.954 11.2318 13.155 11.286 13.314 11.4084C13.4729 11.5308 13.5767 11.7112 13.6026 11.9102C13.6026 12.1802 14.4651 18.4802 14.5251 19.5302C14.6001 21.1427 12.8226 23.0627 10.4751 23.0627Z" fill="#EDEBF2"/>
<path d="M36.2825 17.4673L31.25 12.4423V5.99983C31.25 5.80092 31.1709 5.61015 31.0303 5.4695C30.8896 5.32885 30.6989 5.24983 30.5 5.24983H24.0575L19.0325 0.217332C18.9627 0.147036 18.8798 0.0912401 18.7884 0.0531636C18.697 0.0150871 18.599 -0.0045166 18.5 -0.0045166C18.4009 -0.0045166 18.3029 0.0150871 18.2115 0.0531636C18.1201 0.0912401 18.0372 0.147036 17.9675 0.217332L12.9425 5.24983H6.49996C6.30104 5.24983 6.11028 5.32885 5.96963 5.4695C5.82897 5.61015 5.74996 5.80092 5.74996 5.99983V12.4423L0.717454 17.4673C0.647158 17.5371 0.591362 17.62 0.553286 17.7114C0.515209 17.8028 0.495605 17.9008 0.495605 17.9998C0.495605 18.0988 0.515209 18.1969 0.553286 18.2883C0.591362 18.3797 0.647158 18.4626 0.717454 18.5323L5.74996 23.5573V29.9998C5.74996 30.1987 5.82897 30.3895 5.96963 30.5302C6.11028 30.6708 6.30104 30.7498 6.49996 30.7498H12.9425C18.5 36.2773 18.065 35.9998 18.5 35.9998C18.935 35.9998 18.6425 36.1723 24.0575 30.7498H30.5C30.6989 30.7498 30.8896 30.6708 31.0303 30.5302C31.1709 30.3895 31.25 30.1987 31.25 29.9998V23.5573L36.2825 18.5323C36.3528 18.4626 36.4086 18.3797 36.4466 18.2883C36.4847 18.1969 36.5043 18.0988 36.5043 17.9998C36.5043 17.9008 36.4847 17.8028 36.4466 17.7114C36.4086 17.62 36.3528 17.5371 36.2825 17.4673ZM29.9675 22.7173C29.66 23.0323 29.75 22.8373 29.75 29.2498C23.33 29.2498 23.5325 29.1598 23.2175 29.4673L18.5 34.1923L13.7825 29.4673C13.4675 29.1598 13.6625 29.2498 7.24996 29.2498C7.24996 22.8298 7.33996 23.0323 7.03246 22.7173L2.30745 17.9998L7.03246 13.2823C7.33996 12.9673 7.24996 13.1623 7.24996 6.74983C13.67 6.74983 13.4675 6.83983 13.7825 6.53233L18.5 1.80733L23.2175 6.53233C23.5325 6.83983 23.3375 6.74983 29.75 6.74983C29.75 13.1698 29.66 12.9673 29.9675 13.2823L34.6925 17.9998L29.9675 22.7173Z" fill="#2EBEA6"/>
<path d="M28.2501 18.8099C27.3801 18.8099 26.5251 17.9849 25.1451 17.5799C23.1351 16.9874 21.3126 18.7499 22.3476 19.4999C22.4264 19.559 22.516 19.602 22.6114 19.6264C22.7069 19.6509 22.8061 19.6563 22.9036 19.6424C23.0011 19.6284 23.0949 19.5954 23.1797 19.5452C23.2644 19.4951 23.3385 19.4287 23.3976 19.3499C24.1476 18.3374 25.6476 19.4324 26.6976 19.9124C25.3327 20.8577 23.6899 21.3173 22.0326 21.2174C20.5851 21.1574 21.0651 15.3524 21.3801 13.4099C21.3963 13.3114 21.393 13.2107 21.3703 13.1135C21.3477 13.0162 21.3061 12.9245 21.2479 12.8433C21.1898 12.7622 21.1162 12.6933 21.0314 12.6406C20.9466 12.5879 20.8523 12.5524 20.7538 12.5361C20.6553 12.5199 20.5546 12.5232 20.4574 12.5459C20.3602 12.5686 20.2684 12.6102 20.1872 12.6683C20.1061 12.7265 20.0372 12.8 19.9845 12.8848C19.9318 12.9696 19.8963 13.0639 19.8801 13.1624C19.6353 14.7379 19.5175 16.3305 19.5276 17.9249C19.4751 19.8899 16.8126 21.4349 14.7501 21.7499C14.5512 21.7658 14.3667 21.8601 14.2373 22.012C14.1079 22.1639 14.0442 22.361 14.0601 22.5599C14.076 22.7588 14.1703 22.9432 14.3222 23.0726C14.4741 23.202 14.6712 23.2658 14.8701 23.2499C16.7841 22.9957 18.55 22.0836 19.8651 20.6699C20.1876 21.7874 20.7951 22.6874 21.9426 22.7399C23.2143 22.8189 24.4878 22.618 25.6735 22.1515C26.8592 21.685 27.9281 20.9642 28.8051 20.0399C28.8952 19.9318 28.9531 19.8005 28.9722 19.661C28.9912 19.5215 28.9706 19.3795 28.9127 19.2511C28.8548 19.1228 28.7619 19.0134 28.6447 18.9353C28.5276 18.8573 28.3908 18.8138 28.2501 18.8099Z" fill="#EDF5FF"/>
<path d="M15.6051 14.6848C16.0667 14.9514 16.4687 15.3099 16.7861 15.7382C17.1034 16.1666 17.3294 16.6555 17.4501 17.1748C17.494 17.3384 17.5921 17.4823 17.7283 17.5831C17.8644 17.6839 18.0307 17.7356 18.2001 17.7298C20.0451 17.7298 18.0801 14.1673 16.2576 13.3273C16.0775 13.2407 15.8705 13.2293 15.6821 13.2954C15.4936 13.3615 15.3391 13.4998 15.2526 13.6798C15.166 13.8598 15.1546 14.0668 15.2207 14.2553C15.2868 14.4437 15.425 14.5982 15.6051 14.6848Z" fill="#EDF5FF"/>
<path d="M13.5951 11.9023C13.5692 11.7034 13.4654 11.5229 13.3065 11.4006C13.1475 11.2782 12.9465 11.224 12.7476 11.2498C12.5487 11.2757 12.3682 11.3795 12.2458 11.5385C12.1234 11.6974 12.0692 11.8984 12.0951 12.0973C12.3951 14.3473 12.9651 18.8473 13.0101 19.5973C12.8973 20.1518 12.5957 20.65 12.1566 21.0069C11.7176 21.3639 11.1684 21.5575 10.6026 21.5548C9.98759 21.5923 9.80009 21.3748 9.74009 21.2998C9.60836 21.0688 9.52453 20.8136 9.49361 20.5494C9.46268 20.2853 9.48529 20.0176 9.56009 19.7623C9.59702 19.571 9.55804 19.3728 9.45141 19.2097C9.34477 19.0467 9.17884 18.9315 8.98877 18.8886C8.79869 18.8457 8.59938 18.8785 8.43304 18.98C8.2667 19.0815 8.14639 19.2437 8.09759 19.4323C7.66259 21.3298 8.47259 23.0548 10.4676 23.0548C12.8526 23.0548 14.5926 21.1048 14.5101 19.5148C14.4576 18.4723 13.6251 12.1723 13.5951 11.9023Z" fill="#EDF5FF"/>
</svg>
