<svg width="36" height="36" viewBox="0 0 36 36" fill="none" xmlns="http://www.w3.org/2000/svg">
<path d="M35.4001 31.2V32.4C35.3992 32.718 35.2724 33.0226 35.0476 33.2475C34.8227 33.4723 34.5181 33.5991 34.2001 33.6H20.4001C20.4001 34.0774 20.2105 34.5352 19.8729 34.8728C19.5353 35.2104 19.0775 35.4 18.6001 35.4H17.4001C16.9227 35.4 16.4649 35.2104 16.1273 34.8728C15.7897 34.5352 15.6001 34.0774 15.6001 33.6H1.8001C1.48213 33.5991 1.17746 33.4723 0.952619 33.2475C0.72778 33.0226 0.601047 32.718 0.600098 32.4V31.2C0.601047 30.882 0.72778 30.5774 0.952619 30.3525C1.17746 30.1277 1.48213 30.0009 1.8001 30H15.0001C15.7957 30 16.5588 30.3161 17.1214 30.8787C17.684 31.4413 18.0001 32.2044 18.0001 33C18.0001 32.2044 18.3162 31.4413 18.8788 30.8787C19.4414 30.3161 20.2044 30 21.0001 30H34.2001C34.5181 30.0009 34.8227 30.1277 35.0476 30.3525C35.2724 30.5774 35.3992 30.882 35.4001 31.2Z" fill="#C6D8FB"/>
<path d="M34.2002 30H32.4001C32.7181 30.0009 33.0228 30.1277 33.2476 30.3525C33.4725 30.5774 33.5992 30.882 33.6002 31.2V32.4C33.5992 32.718 33.4725 33.0226 33.2476 33.2475C33.0228 33.4723 32.7181 33.599 32.4001 33.6H34.2002C34.5181 33.599 34.8228 33.4723 35.0476 33.2475C35.2725 33.0226 35.3992 32.718 35.4002 32.4V31.2C35.3992 30.882 35.2725 30.5774 35.0476 30.3525C34.8228 30.1277 34.5181 30.0009 34.2002 30Z" fill="#A4C3FD"/>
<path d="M17.1001 35.37C17.1991 35.3882 17.2994 35.3983 17.4001 35.4H18.6001C19.0775 35.4 19.5353 35.2103 19.8729 34.8728C20.2104 34.5352 20.4001 34.0774 20.4001 33.6H18.6001C18.6002 34.0249 18.4494 34.436 18.1747 34.7601C17.9 35.0842 17.5192 35.3004 17.1001 35.37Z" fill="#A4C3FD"/>
<path d="M17.9999 29.238V33C17.9999 32.2043 17.6838 31.4413 17.1212 30.8787C16.5586 30.3161 15.7956 30 14.9999 30H2.3999V28.068C2.39984 27.774 2.50812 27.4903 2.70404 27.2712C2.89995 27.052 3.16977 26.9127 3.4619 26.88L13.9859 25.662C14.4901 25.6043 15.0008 25.6537 15.4846 25.807C15.9683 25.9603 16.4143 26.2141 16.7932 26.5517C17.1721 26.8892 17.4755 27.303 17.6834 27.766C17.8914 28.2289 17.9992 28.7305 17.9999 29.238Z" fill="#E8EDFC"/>
<path d="M33.6 28.068V30H21C20.2043 30 19.4413 30.3161 18.8787 30.8787C18.3161 31.4413 18 32.2043 18 33V29.238C18.0007 28.7305 18.1085 28.2289 18.3165 27.766C18.5244 27.303 18.8278 26.8892 19.2067 26.5517C19.5856 26.2141 20.0316 25.9603 20.5153 25.807C20.9991 25.6537 21.5098 25.6043 22.014 25.662L32.538 26.88C32.8301 26.9127 33.0999 27.052 33.2959 27.2712C33.4918 27.4903 33.6 27.774 33.6 28.068Z" fill="#E8EDFC"/>
<path d="M32.538 26.88L22.014 25.662C21.6087 25.6157 21.1984 25.6386 20.8008 25.7298L30.738 26.88C31.0301 26.9128 31.2999 27.052 31.4958 27.2712C31.6918 27.4904 31.8 27.774 31.8 28.068V30H33.6V28.068C33.6 27.774 33.4918 27.4904 33.2958 27.2712C33.0999 27.052 32.8301 26.9128 32.538 26.88Z" fill="#CAD9FC"/>
<path d="M18.0003 21C23.6336 21 28.2003 16.4333 28.2003 10.8C28.2003 5.16669 23.6336 0.599991 18.0003 0.599991C12.367 0.599991 7.80029 5.16669 7.80029 10.8C7.80029 16.4333 12.367 21 18.0003 21Z" fill="#C6D8FB"/>
<path d="M18.0001 0.599991C17.6965 0.599991 17.4001 0.619191 17.1001 0.645591C19.6396 0.868375 22.0034 2.03462 23.7255 3.91432C25.4475 5.79403 26.4027 8.25075 26.4027 10.8C26.4027 13.3492 25.4475 15.806 23.7255 17.6857C22.0034 19.5654 19.6396 20.7316 17.1001 20.9544C17.4001 20.9808 17.6965 21 18.0001 21C20.7053 21 23.2997 19.9254 25.2126 18.0125C27.1255 16.0996 28.2001 13.5052 28.2001 10.8C28.2001 8.09478 27.1255 5.50037 25.2126 3.5875C23.2997 1.67463 20.7053 0.599991 18.0001 0.599991Z" fill="#A4C3FD"/>
<path d="M18.9001 20.9544C16.3606 20.7316 13.9967 19.5654 12.2747 17.6857C10.5527 15.806 9.5975 13.3492 9.5975 10.8C9.5975 8.25075 10.5527 5.79403 12.2747 3.91432C13.9967 2.03462 16.3606 0.868377 18.9001 0.645593C17.4906 0.520055 16.0705 0.689305 14.73 1.14257C13.3896 1.59584 12.1582 2.32319 11.1142 3.27835C10.0701 4.2335 9.23641 5.39553 8.666 6.69049C8.0956 7.98545 7.80103 9.38497 7.80103 10.8C7.80103 12.215 8.0956 13.6145 8.666 14.9095C9.23641 16.2045 10.0701 17.3665 11.1142 18.3216C12.1582 19.2768 13.3896 20.0042 14.73 20.4574C16.0705 20.9107 17.4906 21.0799 18.9001 20.9544Z" fill="white"/>
<path d="M1.8001 33.6H3.6001C3.28213 33.599 2.97746 33.4723 2.75262 33.2475C2.52778 33.0226 2.40105 32.718 2.4001 32.4V31.2C2.40105 30.882 2.52778 30.5774 2.75262 30.3525C2.97746 30.1277 3.28213 30.0009 3.6001 30H4.2001V28.068C4.20004 27.774 4.30831 27.4904 4.50423 27.2712C4.70015 27.052 4.96996 26.9128 5.2621 26.88L15.1993 25.7298C14.3689 25.5402 14.8891 25.5576 3.4621 26.88C3.16996 26.9128 2.90015 27.052 2.70423 27.2712C2.50831 27.4904 2.40004 27.774 2.4001 28.068V30H1.8001C1.48213 30.0009 1.17746 30.1277 0.952619 30.3525C0.72778 30.5774 0.601047 30.882 0.600098 31.2V32.4C0.601047 32.718 0.72778 33.0226 0.952619 33.2475C1.17746 33.4723 1.48213 33.599 1.8001 33.6Z" fill="white"/>
<path d="M9.39663 4.28581L10.3524 5.01121C9.43851 6.21549 8.82067 7.61785 8.54883 9.10501L7.36743 8.89501C7.67249 7.22058 8.36765 5.64154 9.39663 4.28581Z" fill="white"/>
<path d="M34.2 29.4V28.0692C34.2003 27.6274 34.038 27.2009 33.7441 26.8709C33.4503 26.541 33.0453 26.3307 32.6064 26.28L22.08 25.0668C21.1196 24.9571 20.1508 25.183 19.338 25.7064C19.7773 24.8557 20.4202 24.1269 21.2094 23.5848C23.5338 22.011 27.0216 22.1364 31.575 23.9574C31.7228 24.0166 31.8881 24.0146 32.0345 23.952C32.1809 23.8893 32.2964 23.771 32.3556 23.6232C32.4148 23.4754 32.4128 23.3101 32.3502 23.1637C32.2875 23.0173 32.1692 22.9018 32.0214 22.8426C27.0744 20.8626 23.211 20.7786 20.5368 22.5906C19.4077 23.3713 18.527 24.4605 18 25.728C17.4725 24.4602 16.5912 23.3711 15.4614 22.5906C12.7872 20.7792 8.9214 20.865 3.9768 22.8426C3.82897 22.9018 3.71071 23.0173 3.64803 23.1637C3.58536 23.3101 3.5834 23.4754 3.6426 23.6232C3.7018 23.771 3.81729 23.8893 3.96369 23.952C4.11008 24.0146 4.27537 24.0166 4.4232 23.9574C8.976 22.1364 12.4632 22.0098 14.7888 23.5848C15.578 24.1271 16.221 24.8558 16.6608 25.7064C15.8485 25.1831 14.88 24.9571 13.92 25.0668L3.3936 26.28C2.95468 26.3307 2.54973 26.541 2.25586 26.8709C1.96199 27.2009 1.79974 27.6274 1.8 28.0692V29.4C1.32261 29.4 0.864773 29.5896 0.527208 29.9272C0.189642 30.2648 0 30.7226 0 31.2L0 32.4C0 32.8774 0.189642 33.3352 0.527208 33.6728C0.864773 34.0104 1.32261 34.2 1.8 34.2H15.0756C15.2094 34.7149 15.5101 35.1708 15.9307 35.4966C16.3513 35.8223 16.868 35.9993 17.4 36H18.6C19.132 35.9993 19.6487 35.8223 20.0693 35.4966C20.4899 35.1708 20.7906 34.7149 20.9244 34.2H34.2C34.6774 34.2 35.1352 34.0104 35.4728 33.6728C35.8104 33.3352 36 32.8774 36 32.4V31.2C36 30.7226 35.8104 30.2648 35.4728 29.9272C35.1352 29.5896 34.6774 29.4 34.2 29.4ZM19.6038 27C19.9199 26.7191 20.2917 26.508 20.6949 26.3804C21.0981 26.2529 21.5236 26.2117 21.9438 26.2596L32.469 27.474C32.6152 27.4909 32.75 27.561 32.8479 27.6708C32.9458 27.7807 32.9999 27.9227 33 28.0698V29.4H21C20.1135 29.3999 19.2583 29.7284 18.6 30.3222V29.2422C18.5999 28.8188 18.6893 28.4002 18.8623 28.0138C19.0353 27.6274 19.288 27.2819 19.6038 27ZM3 28.0692C3.00005 27.9221 3.05418 27.7801 3.15208 27.6702C3.24998 27.5604 3.38483 27.4903 3.531 27.4734L14.0562 26.259C14.4764 26.2105 14.9021 26.2515 15.3053 26.3791C15.7086 26.5067 16.0803 26.7182 16.3961 26.9996C16.7118 27.2811 16.9645 27.6261 17.1375 28.0121C17.3105 28.398 17.4 28.8162 17.4 29.2392V30.3192C16.7412 29.7265 15.8862 29.399 15 29.4H3V28.0692ZM34.8 32.4C34.8 32.5591 34.7368 32.7117 34.6243 32.8243C34.5117 32.9368 34.3591 33 34.2 33H20.4C20.2409 33 20.0883 33.0632 19.9757 33.1757C19.8632 33.2883 19.8 33.4409 19.8 33.6C19.8 33.9183 19.6736 34.2235 19.4485 34.4485C19.2235 34.6736 18.9183 34.8 18.6 34.8H17.4C17.0817 34.8 16.7765 34.6736 16.5515 34.4485C16.3264 34.2235 16.2 33.9183 16.2 33.6C16.2 33.4409 16.1368 33.2883 16.0243 33.1757C15.9117 33.0632 15.7591 33 15.6 33H1.8C1.64087 33 1.48826 32.9368 1.37574 32.8243C1.26321 32.7117 1.2 32.5591 1.2 32.4V31.2C1.2 31.0409 1.26321 30.8883 1.37574 30.7757C1.48826 30.6632 1.64087 30.6 1.8 30.6H15C15.6365 30.6 16.247 30.8529 16.6971 31.3029C17.1471 31.753 17.4 32.3635 17.4 33C17.4 33.1591 17.4632 33.3117 17.5757 33.4243C17.6883 33.5368 17.8409 33.6 18 33.6C18.1591 33.6 18.3117 33.5368 18.4243 33.4243C18.5368 33.3117 18.6 33.1591 18.6 33C18.6 32.3635 18.8529 31.753 19.3029 31.3029C19.753 30.8529 20.3635 30.6 21 30.6H34.2C34.3591 30.6 34.5117 30.6632 34.6243 30.7757C34.7368 30.8883 34.8 31.0409 34.8 31.2V32.4Z" fill="#428DFF"/>
<path d="M8.66893 7.3044C8.5098 7.3052 8.35687 7.24275 8.24378 7.13079C8.1307 7.01883 8.06672 6.86653 8.06593 6.7074C8.06513 6.54827 8.12758 6.39534 8.23954 6.28226C8.3515 6.16917 8.5038 6.1052 8.66293 6.1044H8.66893C8.82806 6.1044 8.98067 6.16762 9.0932 6.28014C9.20572 6.39266 9.26893 6.54527 9.26893 6.7044C9.26893 6.86353 9.20572 7.01615 9.0932 7.12867C8.98067 7.24119 8.82806 7.3044 8.66893 7.3044Z" fill="#428DFF"/>
<path d="M7.36734 8.89499C6.97619 11.0778 7.26645 13.3281 8.19869 15.3402C9.13094 17.3523 10.66 19.0286 12.5781 20.1415C14.4962 21.2544 16.7104 21.7499 18.9198 21.5606C21.1293 21.3713 23.227 20.5065 24.9278 19.0835C26.6287 17.6606 27.8503 15.7486 28.4268 13.6073C29.0032 11.4659 28.9065 9.19906 28.1497 7.1146C27.393 5.03013 26.013 3.22914 24.1971 1.95627C22.3812 0.683408 20.2175 0.000382661 17.9999 -1.52588e-05C16.3325 0.00756845 14.6887 0.394973 13.1933 1.13278C11.7008 1.87584 10.4011 2.95516 9.39654 4.28579C9.34507 4.34836 9.30733 4.42107 9.28578 4.49918C9.26423 4.5773 9.25935 4.65907 9.27146 4.73919C9.28357 4.81931 9.31239 4.89599 9.35606 4.96425C9.39973 5.03251 9.45727 5.09081 9.52494 5.13539C9.65387 5.22044 9.8097 5.25481 9.96245 5.23188C10.1152 5.20895 10.2541 5.13035 10.3523 5.01119C10.6132 4.66688 10.8983 4.34165 11.2055 4.03798C11.9904 4.63143 12.8732 5.08284 13.8137 5.37179C13.4384 6.95451 13.2372 8.57353 13.2137 10.2H8.42634C8.44541 9.83299 8.48547 9.46739 8.54634 9.10499C8.57218 8.94919 8.53554 8.78949 8.44439 8.66053C8.35324 8.53157 8.21492 8.44374 8.05943 8.4161C7.90395 8.38846 7.74383 8.42324 7.61382 8.51289C7.48381 8.60254 7.39439 8.73983 7.36494 8.89499H7.36734ZM17.9999 20.4C17.0447 20.4 16.0289 19.1592 15.3209 17.0712C17.0886 16.7096 18.9112 16.7096 20.6789 17.0712C19.9709 19.1592 18.9551 20.4 17.9999 20.4ZM21.8531 17.379C22.5776 17.6022 23.2635 17.935 23.8871 18.366C22.8934 19.1414 21.7559 19.7124 20.5403 20.046C21.1142 19.2308 21.5572 18.331 21.8531 17.379ZM15.4595 20.0478C14.244 19.7142 13.1065 19.1432 12.1127 18.3678C12.7364 17.9368 13.4223 17.604 14.1467 17.3808C14.4427 18.3328 14.8856 19.2326 15.4595 20.0478ZM17.9999 15.6C16.9878 15.6001 15.9786 15.7075 14.9891 15.9204C14.6323 14.4392 14.4389 12.9233 14.4125 11.4H21.5873C21.5609 12.9233 21.3676 14.4392 21.0107 15.9204C20.0213 15.7075 19.012 15.6001 17.9999 15.6ZM13.8137 16.2282C12.8703 16.5177 11.9852 16.971 11.1989 17.5674C9.55612 15.9171 8.57178 13.7242 8.43054 11.4H13.2125C13.2364 13.0265 13.438 14.6455 13.8137 16.2282ZM24.8009 17.5674C24.0147 16.971 23.1296 16.5177 22.1861 16.2282C22.5615 14.6455 22.7627 13.0264 22.7861 11.4H27.5681C27.4272 13.7241 26.4433 15.917 24.8009 17.5674ZM27.5693 10.2H22.7873C22.7639 8.57353 22.5627 6.95451 22.1873 5.37179C23.1308 5.0823 24.0159 4.62898 24.8021 4.03259C26.4445 5.68301 27.4284 7.87588 27.5693 10.2ZM21.8531 4.22098C21.5574 3.26838 21.1144 2.3679 20.5403 1.55218C21.7559 1.88577 22.8934 2.45675 23.8871 3.23218C23.2636 3.66376 22.5777 3.99723 21.8531 4.22098ZM20.6789 4.52878C19.7974 4.70942 18.8998 4.80029 17.9999 4.79998C17.1001 4.80029 16.2025 4.70942 15.3209 4.52878C16.0289 2.44078 17.0447 1.19998 17.9999 1.19998C18.9551 1.19998 19.9709 2.44078 20.6789 4.52878ZM12.1199 3.23998C12.6223 2.84475 13.1621 2.49952 13.7315 2.20918C14.2823 1.93783 14.859 1.72274 15.4529 1.56718C14.8839 2.37992 14.4443 3.27596 14.1497 4.22338C13.427 4.00089 12.7425 3.66926 12.1199 3.23998ZM14.9921 5.68198C15.9807 5.89387 16.9889 6.00046 17.9999 5.99998C19.012 5.99989 20.0213 5.89249 21.0107 5.67958C21.3676 7.16078 21.5609 8.67664 21.5873 10.2H14.4125C14.4389 8.67664 14.6323 7.16078 14.9891 5.67958L14.9921 5.68198Z" fill="#428DFF"/>
</svg>
