<svg width="27" height="36" viewBox="0 0 27 36" fill="none" xmlns="http://www.w3.org/2000/svg">
<path d="M0.188477 29.32V3.25139C0.188477 1.45568 1.64528 0 3.44233 0H23.5663C25.3634 0 26.8202 1.45568 26.8202 3.25139V26.5119L26.1575 29.32H0.188477Z" fill="#63EBD4"/>
<path d="M23.5664 0H22.5044V26.5119H26.8202V3.25139C26.8203 1.45568 25.3634 0 23.5664 0Z" fill="#2EBEA6"/>
<path d="M18.5388 8.44621H15.6177V5.21957C15.6177 4.67092 15.1726 4.2262 14.6236 4.2262H12.3855C11.8364 4.2262 11.3914 4.67099 11.3914 5.21957V8.44628H8.47022C7.92115 8.44628 7.47607 8.89108 7.47607 9.43965V11.676C7.47607 12.2247 7.92115 12.6694 8.47022 12.6694H11.3914V20.8524C11.3914 21.4011 11.8364 21.8458 12.3855 21.8458H14.6236C15.1726 21.8458 15.6177 21.401 15.6177 20.8524V12.6694H18.5388C19.0879 12.6694 19.533 12.2246 19.533 11.676V9.43965C19.533 8.89101 19.0878 8.44621 18.5388 8.44621Z" fill="#55AFD9"/>
<path d="M18.5387 8.44621H15.6176V5.21957C15.6176 4.67092 15.1725 4.2262 14.6234 4.2262H13.5044V21.8459H14.6234C15.1725 21.8459 15.6176 21.4011 15.6176 20.8525V12.6694H18.5387C19.0878 12.6694 19.5328 12.2246 19.5328 11.676V9.43965C19.5328 8.89101 19.0877 8.44621 18.5387 8.44621Z" fill="#2F89B3"/>
<path d="M26.82 24.5254H4.87058C2.27985 24.5254 0.179688 26.6239 0.179688 29.2127C0.179688 31.8014 2.27985 33.9 4.87058 33.9H25.7653C26.3477 33.9 26.82 33.4281 26.82 32.8462V31.9133L26.1572 29.3203L26.82 26.5122V24.5254H26.82Z" fill="#2EBEA6"/>
<path d="M26.8198 24.5254H22.5039V33.9H25.7651C26.3475 33.9 26.8198 33.4281 26.8198 32.8462V31.9133L26.157 29.3203L26.8198 26.5122L26.8198 24.5254Z" fill="#2EBEA6"/>
<path d="M2.16797 29.2138C2.16797 30.7053 3.37791 31.9143 4.8705 31.9143H26.82V26.5133H4.8705C3.37791 26.5132 2.16797 27.7223 2.16797 29.2138Z" fill="#FFDA7A"/>
<path d="M22.5039 26.5123H26.8198V31.9133H22.5039V26.5123Z" fill="#FEB546"/>
<path d="M9.12584 35.8776L7.95633 35.0868L6.78682 35.8776C6.46648 36.0942 6.01873 36.0186 5.81405 35.6906C5.7476 35.5841 5.70865 35.4576 5.70865 35.3197L5.70703 29.8443C5.70703 29.4562 6.02161 29.1417 6.40959 29.1417H9.49934C9.88767 29.1417 10.2025 29.4565 10.2025 29.8448L10.2041 35.3197C10.2041 35.4577 10.1651 35.5841 10.0987 35.6906C9.89386 36.0186 9.44618 36.0942 9.12584 35.8776Z" fill="#E85B48"/>
<path d="M9.49971 29.1417H7.95459L7.95621 35.0868L9.12572 35.8776C9.44606 36.0943 9.89374 36.0187 10.0985 35.6906C10.1649 35.5842 10.2039 35.4577 10.2039 35.3197L10.2023 29.8444C10.2023 29.4562 9.88769 29.1417 9.49971 29.1417Z" fill="#D9225B"/>
</svg>
