<svg width="36" height="36" viewBox="0 0 36 36" fill="none" xmlns="http://www.w3.org/2000/svg">
<g clip-path="url(#clip0)">
<path fill-rule="evenodd" clip-rule="evenodd" d="M31.9212 0H7.41023H6.15586C4.9943 0 4.04297 0.950625 4.04297 2.115V33.8871C4.04297 35.0494 4.99359 36 6.15586 36H31.8748C31.9205 36 31.9563 35.9641 31.9563 35.9184V33.8878V31.7728V0.0344531C31.957 0.0161719 31.9409 0 31.9212 0V0Z" fill="#DDB9A3"/>
<path fill-rule="evenodd" clip-rule="evenodd" d="M7.40953 0V31.7721H6.15586C4.99359 31.7721 4.04297 32.7227 4.04297 33.8871V2.115C4.04297 0.950625 4.9943 0 6.15586 0L7.40953 0Z" fill="#C68A65"/>
<path fill-rule="evenodd" clip-rule="evenodd" d="M19.6833 24.2247C24.2754 24.2247 28.0203 20.4778 28.0203 15.8857C28.0203 11.2936 24.2754 7.54871 19.6833 7.54871C15.0912 7.54871 11.3442 11.2936 11.3442 15.8857C11.3442 20.4771 15.0912 24.2247 19.6833 24.2247Z" fill="#FFDB7F"/>
<path fill-rule="evenodd" clip-rule="evenodd" d="M11.9277 0H7.40942V4.52039L11.9277 0Z" fill="#FFDB7F"/>
<path fill-rule="evenodd" clip-rule="evenodd" d="M27.4368 0H31.9572V4.52039L27.4368 0Z" fill="#FFDB7F"/>
<path fill-rule="evenodd" clip-rule="evenodd" d="M11.9277 31.7721H7.40942V27.2517L11.9277 31.7721Z" fill="#FFDB7F"/>
<path fill-rule="evenodd" clip-rule="evenodd" d="M27.4368 31.7721H31.9572V27.2517L27.4368 31.7721Z" fill="#FFDB7F"/>
<path d="M21.5387 11.3154C21.3714 10.8014 21.5289 10.2235 21.9395 9.86626C22.1525 9.68064 22.4837 9.77275 22.5716 10.0413C22.739 10.5553 22.5815 11.1333 22.1708 11.4905C21.9571 11.6761 21.6266 11.584 21.5387 11.3154ZM13.63 18.1153C13.4324 17.8622 13.4802 17.4952 13.7354 17.2983C13.9886 17.1007 14.3556 17.1485 14.5525 17.4038L15.9875 19.2593C16.5754 20.0229 17.4662 19.9688 18.1279 19.3627C18.6299 18.9042 18.9013 18.1688 18.305 17.6485L16.9916 16.5066C16.6569 16.2134 16.6829 15.6832 17.0373 15.4202L17.9619 14.7389C18.2692 14.5118 18.305 14.1666 18.0878 13.872C17.8684 13.5752 17.5295 13.5049 17.2208 13.7327L16.2681 14.4366C16.0086 14.6299 15.6444 14.5744 15.4532 14.317C15.2598 14.0576 15.3154 13.6913 15.5727 13.5L16.5275 12.7962C17.3685 12.1746 18.419 12.3574 19.025 13.1766C19.629 13.9957 19.4997 15.0539 18.6566 15.6762L18.2284 15.9933C18.2165 16.001 18.2165 16.0214 18.2284 16.0313C18.5392 16.3027 18.8943 16.5832 19.1854 16.8701C19.1952 16.8799 19.2093 16.8799 19.2191 16.8722C19.9384 16.2387 20.2654 15.8738 21.005 15.2817C21.9915 14.4907 23.409 14.6124 24.2436 15.5609C24.8933 16.3006 25.2519 17.6042 25.2519 18.5702C25.2519 20.0391 24.5024 21.2407 22.9042 21.2407C21.5725 21.2407 20.4946 20.1621 20.4946 18.8332C20.4946 18.5105 20.7575 18.2475 21.0803 18.2475C21.403 18.2475 21.6646 18.5105 21.6646 18.8332C21.6646 19.5167 22.2207 20.0707 22.9042 20.0707C23.8288 20.0707 24.0819 19.3809 24.0819 18.5702C24.0819 17.8685 23.8407 16.8722 23.3661 16.3343C22.9457 15.8583 22.232 15.7922 21.7356 16.1909C20.9502 16.8188 20.56 17.247 19.7964 17.9206C19.7886 17.9269 19.7865 17.9346 19.7886 17.9424C19.9581 18.7974 19.5355 19.6545 18.9154 20.2226C17.7397 21.297 16.0888 21.3012 15.0629 19.9737L13.63 18.1153ZM23.7648 12.4988C24.0777 12.4228 24.3927 12.6183 24.4665 12.9312C24.5404 13.2441 24.347 13.557 24.0341 13.6329C21.9789 14.1272 19.8147 13.3756 18.5075 11.7134C18.3086 11.4602 18.3522 11.0932 18.6053 10.8942C18.8584 10.6952 19.2268 10.7388 19.4265 10.992C20.4545 12.3019 22.1462 12.8897 23.7648 12.4988Z" fill="#FF5A58"/>
<path fill-rule="evenodd" clip-rule="evenodd" d="M31.957 31.7721V35.9177C31.957 35.9634 31.9212 35.9993 31.8755 35.9993H6.15586C4.99359 35.9993 4.04297 35.0486 4.04297 33.8864C4.04297 32.7227 4.99359 31.7714 6.15586 31.7714H31.957V31.7721Z" fill="#E8EAF0"/>
<path fill-rule="evenodd" clip-rule="evenodd" d="M7.59094 36H6.15586C4.99359 36 4.04297 35.0494 4.04297 33.8871C4.04297 32.7234 4.99359 31.7721 6.15586 31.7721H7.59094C6.42867 31.7721 5.47594 32.7227 5.47594 33.8871C5.47664 35.0494 6.42867 36 7.59094 36Z" fill="#D1D3D8"/>
<path d="M19.817 34.4489C19.5062 34.4489 19.2531 34.1958 19.2531 33.8871C19.2531 33.5764 19.5062 33.3232 19.817 33.3232H29.8463C30.155 33.3232 30.4081 33.5764 30.4081 33.8871C30.4081 34.1958 30.155 34.4489 29.8463 34.4489H19.817ZM8.48611 34.4489C8.17533 34.4489 7.92432 34.1958 7.92432 33.8871C7.92432 33.5764 8.17533 33.3232 8.48611 33.3232H15.2185C15.5293 33.3232 15.7803 33.5764 15.7803 33.8871C15.7803 34.1958 15.5293 34.4489 15.2185 34.4489H8.48611Z" fill="#D1D3D8"/>
</g>
<defs>
<clipPath id="clip0">
<rect width="36" height="36" fill="white"/>
</clipPath>
</defs>
</svg>
