<svg width="36" height="36" viewBox="0 0 36 36" fill="none" xmlns="http://www.w3.org/2000/svg">
<g clip-path="url(#clip0)">
<path d="M36 25.196V4.79988C36 3.47442 34.9254 2.39998 33.6001 2.39998H2.40015C1.07469 2.39998 0.000244141 3.47449 0.000244141 4.79988V25.2L18.0001 26.6885L36 25.196Z" fill="#3C58A0"/>
<path d="M13.8 28.2857H22.2V34.1139H13.8V28.2857Z" fill="#D3DCFB"/>
<path d="M19.2 34.143C18.9 34.143 18.6568 33.8998 18.6568 33.5997V31.7998C18.6568 31.7685 18.6313 31.7431 18.6001 31.7431H17.4C17.3688 31.7431 17.3433 31.7685 17.3433 31.7998V33.5997C17.3433 33.8998 17.1001 34.143 16.8001 34.143C16.5 34.143 16.2568 33.8998 16.2568 33.5997V31.7998C16.2568 31.1694 16.7697 30.6565 17.4001 30.6565H18.6001C19.2305 30.6565 19.7434 31.1694 19.7434 31.7998V33.5997C19.7433 33.8998 19.5001 34.143 19.2 34.143Z" fill="#BEC8F7"/>
<path d="M2.3999 25.3985V6.00004C2.3999 5.33728 2.93716 4.80002 3.59993 4.80002H32.4C33.0628 4.80002 33.6 5.33728 33.6 6.00004V25.395L17.9999 26.6885L2.3999 25.3985Z" fill="#9BD8F9"/>
<path d="M33.6 2.39998H31.9342C33.2596 2.39998 34.3341 3.47442 34.3341 4.79988V25.1959L17.166 26.6195L18.0001 26.6885L35.9999 25.1959V4.79988C35.9999 3.47442 34.9255 2.39998 33.6 2.39998Z" fill="#2A428C"/>
<path d="M25.8376 33.6001H10.1626C9.85196 33.6001 9.6001 33.852 9.6001 34.1626V35.4375C9.6001 35.7481 9.85196 36 10.1626 36H25.8376C26.1482 36 26.4001 35.7481 26.4001 35.4375V34.1626C26.4001 33.852 26.1482 33.6001 25.8376 33.6001Z" fill="#E9EFFF"/>
<path d="M25.8208 33.6001H24.1548C24.4748 33.6001 24.7342 33.8595 24.7342 34.1796V35.4206C24.7342 35.7406 24.4748 36 24.1548 36H25.8208C26.1408 36 26.4002 35.7406 26.4002 35.4206V34.1796C26.4002 33.8595 26.1408 33.6001 25.8208 33.6001Z" fill="#D3DCFB"/>
<path d="M32.4001 4.80008H30.7341C31.3969 4.80008 31.9342 5.33734 31.9342 6.0001V25.5331L33.6001 25.395V6.00003C33.6001 5.33727 33.0629 4.80008 32.4001 4.80008Z" fill="#73C3F9"/>
<path d="M6 18V1.20002C6 0.537258 6.53733 0 7.20002 0H28.8C29.4628 0 30 0.537258 30 1.20002V18L18 20.4L6 18Z" fill="#4FABF7"/>
<path d="M28.8 0H27.134C27.7968 0 28.3341 0.537258 28.3341 1.20002V18.3332L30 18V1.20002C30 0.537258 29.4628 0 28.8 0V0Z" fill="#1886EA"/>
<path d="M17.036 10.677C16.8926 10.5674 16.8 10.3945 16.8 10.2V3.00002C16.8 2.66863 17.0686 2.40004 17.4 2.40004H27C27.3314 2.40004 27.6 2.66863 27.6 3.00002V10.2C27.6 10.5314 27.3314 10.8 27 10.8H19.5528L17.036 10.677Z" fill="#E9EFFF"/>
<path d="M12.0001 10.8C13.3255 10.8 14.4001 9.72551 14.4001 8.40004C14.4001 7.07457 13.3255 6.00006 12.0001 6.00006C10.6746 6.00006 9.6001 7.07457 9.6001 8.40004C9.6001 9.72551 10.6746 10.8 12.0001 10.8Z" fill="#FCAD6D"/>
<path d="M27.0002 2.39998H25.3342C25.6656 2.39998 25.9342 2.66857 25.9342 2.99996V10.2C25.9342 10.5313 25.6655 10.7999 25.3342 10.7999H27.0002C27.3316 10.7999 27.6002 10.5313 27.6002 10.2V2.99996C27.6002 2.66864 27.3316 2.39998 27.0002 2.39998Z" fill="#D3DCFB"/>
<path d="M18.1341 11.4205L16.7285 11.4965L16.4731 12.1775C16.3374 12.5393 15.9001 12.6804 15.5785 12.4661L14.1308 11.498L14.1307 11.4979H14.1305L14.129 11.4968L14.1286 11.4979L9.87151 11.4964C8.97924 12.1516 8.40015 13.2081 8.40015 14.3999V18.2897H15.6001V15.3648L16.1347 15.7211C16.3341 15.8541 16.5661 15.9227 16.8004 15.9227C16.924 15.9227 17.0483 15.9036 17.1687 15.8648C17.5172 15.7523 17.7953 15.4869 17.924 15.144L19.0064 12.2577L18.1341 11.4205Z" fill="#4CE088"/>
<path d="M9.87158 11.4971L11.2505 12.6003C11.6887 12.9509 12.3115 12.9509 12.7498 12.6003L14.1291 11.4968L14.1291 11.4968C13.5329 11.0588 12.7967 10.8 12.0002 10.8C11.2036 10.8 10.4678 11.0592 9.87158 11.4971Z" fill="#E9EFFF"/>
<path d="M12 5.99997C11.7071 5.99997 11.4265 6.05263 11.167 6.14868C12.0818 6.48731 12.734 7.36741 12.734 8.39995C12.734 9.43249 12.0818 10.3126 11.167 10.6512C11.4265 10.7473 11.7071 10.7999 12 10.7999C13.3254 10.7999 14.4 9.72541 14.4 8.39995C14.4 7.07449 13.3254 5.99997 12 5.99997Z" fill="#FD995B"/>
<path d="M18.134 11.4205L16.8715 11.4887L17.5825 11.6077L16.2537 15.1441C16.188 15.3191 16.0831 15.4735 15.95 15.5982L16.1345 15.7213C16.3339 15.8543 16.5659 15.9228 16.8002 15.9228C16.9238 15.9228 17.0481 15.9037 17.1685 15.8649C17.517 15.7525 17.7951 15.487 17.9238 15.1442L19.0062 12.2579L18.134 11.4205Z" fill="#30C16B"/>
<path d="M19.0218 8.79913C18.4015 8.56647 17.7096 8.88077 17.4768 9.50135L16.7285 11.4968L19.0064 12.2577L19.724 10.344C19.9567 9.72353 19.6423 9.0318 19.0218 8.79913Z" fill="#FCAD6D"/>
<path d="M19.0218 8.79913C18.5742 8.63122 18.0901 8.74928 17.7674 9.06062C18.0999 9.38279 18.2295 9.88293 18.0566 10.3441L17.5247 11.7628L19.0064 12.2578L19.724 10.3441C19.9567 9.72353 19.6423 9.03179 19.0218 8.79913Z" fill="#FD995B"/>
<path d="M15.0567 13.8567C14.7566 13.8567 14.5134 14.0999 14.5134 14.3999V18.2897H15.6V15.3648V14.4C15.6 14.1 15.3568 13.8567 15.0567 13.8567Z" fill="#30C16B"/>
<path d="M19.2005 10.1434C19.1569 10.1434 19.1126 10.1381 19.0684 10.127C18.7773 10.0543 18.6004 9.75931 18.6731 9.46829L19.873 4.66827C19.9459 4.37718 20.2407 4.2002 20.5318 4.27297C20.8229 4.34575 20.9999 4.64071 20.9271 4.93173L19.7272 9.73175C19.6654 9.97861 19.4439 10.1434 19.2005 10.1434Z" fill="#3C58A0"/>
<path d="M30 25.4173H12L11.4326 21.7086L12 18H30V25.4173Z" fill="#D3DCFB"/>
<path d="M6 18H12V25.4173H6V18Z" fill="#FF4155"/>
<path d="M28.334 18H30V25.4173H28.334V18Z" fill="#BEC8F7"/>
<path d="M15.8175 22.1432H14.4002C14.1001 22.1432 13.8569 21.9 13.8569 21.6C13.8569 21.3 14.1001 21.0568 14.4002 21.0568H15.8175C16.1176 21.0568 16.3608 21.3 16.3608 21.6C16.3608 21.9 16.1176 22.1432 15.8175 22.1432Z" fill="#4CE088"/>
<path d="M27.6 22.1432H17.7827C17.4826 22.1432 17.2395 21.9 17.2395 21.6C17.2395 21.3 17.4827 21.0568 17.7827 21.0568H27.6001C27.9002 21.0568 28.1433 21.3 28.1433 21.6C28.1433 21.9 27.9001 22.1432 27.6 22.1432Z" fill="#4CE088"/>
<path d="M9.29995 22.1432H8.69997C8.39988 22.1432 8.15674 21.9 8.15674 21.6C8.15674 21.3 8.39995 21.0568 8.69997 21.0568H9.29995C9.60005 21.0568 9.84319 21.3 9.84319 21.6C9.84319 21.9 9.59998 22.1432 9.29995 22.1432Z" fill="#E80054"/>
<path d="M17.9753 21.8657C18.1264 21.2202 17.7256 20.5744 17.08 20.4233C16.4345 20.2722 15.7887 20.673 15.6376 21.3185C15.4865 21.964 15.8873 22.6098 16.5328 22.7609C17.1784 22.912 17.8241 22.5112 17.9753 21.8657Z" fill="#E9EFFF"/>
<path d="M36 25.1999H0.000244141V26.4001C0.000244141 27.7256 1.07476 28.8 2.40015 28.8H33.6001C34.9255 28.8 36 27.7255 36 26.4001V25.1999Z" fill="#E9EFFF"/>
<path d="M34.3342 25.1999V26.4001C34.3342 27.7256 33.2597 28.8 31.9343 28.8H33.6002C34.9256 28.8 36.0001 27.7255 36.0001 26.4001V25.1999H34.3342Z" fill="#D3DCFB"/>
</g>
<defs>
<clipPath id="clip0">
<rect width="36" height="36" fill="white"/>
</clipPath>
</defs>
</svg>
