<svg width="36" height="36" viewBox="0 0 36 36" fill="none" xmlns="http://www.w3.org/2000/svg">
<path d="M0.492188 28.0773H14.5195V32.102H0.492188V28.0773Z" fill="#FFC080"/>
<path d="M9.87893 22.6984H7.40027C6.48187 22.6983 5.6011 22.3334 4.95172 21.684C4.30234 21.0345 3.93752 20.1538 3.93752 19.2354C3.67108 19.8348 3.55865 20.4914 3.61043 21.1454C3.66222 21.7993 3.87658 22.43 4.23405 22.9801C4.59152 23.5302 5.08076 23.9822 5.65733 24.2952C6.2339 24.6081 6.87953 24.772 7.53555 24.772H8.56043V28.0773H14.5196V22.6984H9.87893Z" fill="#E69F6E"/>
<path d="M8.49393 18.1463C7.71692 18.1459 6.97186 17.837 6.42257 17.2875C5.87328 16.7379 5.56471 15.9927 5.56471 15.2157C5.33915 15.723 5.24394 16.2787 5.28772 16.8321C5.33151 17.3856 5.5129 17.9193 5.81542 18.3849C6.11793 18.8504 6.53199 19.233 7.01995 19.4978C7.50791 19.7627 8.05432 19.9014 8.60952 19.9013H8.91383V22.6984H14.5197V18.1463H8.49393Z" fill="#995A4D"/>
<path d="M9.90239 13.5943C9.12522 13.5943 8.37987 13.2856 7.83033 12.736C7.28078 12.1865 6.97205 11.4411 6.97205 10.6639C6.74656 11.1712 6.65139 11.7268 6.69521 12.2803C6.73902 12.8337 6.92043 13.3674 7.22294 13.8329C7.52545 14.2984 7.93947 14.681 8.4274 14.9458C8.91533 15.2106 9.4617 15.3493 10.0169 15.3493H10.322V18.1463H14.5197V13.5943H9.90239Z" fill="#E69F6E"/>
<path d="M11.0281 9.04244C10.2509 9.04237 9.50558 8.73357 8.95605 8.18398C8.40651 7.63439 8.09778 6.88902 8.09778 6.11182C7.87229 6.61912 7.77713 7.17473 7.82094 7.72816C7.86475 8.28159 8.04616 8.8153 8.34867 9.2808C8.65118 9.7463 9.06521 10.1288 9.55314 10.3937C10.0411 10.6585 10.5874 10.7972 11.1426 10.7972H11.4469V13.5942H14.5196V9.04244H11.0281Z" fill="#995A4D"/>
<path d="M4.91309 24.772H8.56034V28.0772H3.78809V25.897C3.78809 25.5986 3.90661 25.3125 4.11759 25.1015C4.32857 24.8905 4.61472 24.772 4.91309 24.772Z" fill="#995A4D"/>
<path d="M11.0281 9.0425L12.4799 3.86414H14.5195V9.0425H11.0281Z" fill="#E69F6E"/>
<path d="M35.5078 32.1016H21.4805V28.0769H35.5078V32.1016Z" fill="#FFC080"/>
<path d="M26.1211 22.6984H28.5995C29.5179 22.6984 30.3988 22.3335 31.0482 21.6841C31.6977 21.0346 32.0625 20.1538 32.0625 19.2354C32.329 19.8348 32.4414 20.4914 32.3896 21.1454C32.3378 21.7993 32.1235 22.43 31.766 22.9801C31.4085 23.5302 30.9193 23.9822 30.3427 24.2952C29.7661 24.6081 29.1205 24.772 28.4645 24.772H27.4393V28.0773H21.4805V22.6984H26.1211Z" fill="#E69F6E"/>
<path d="M27.5062 18.1463C28.2832 18.1459 29.0283 17.837 29.5776 17.2875C30.1269 16.7379 30.4355 15.9927 30.4355 15.2157C30.661 15.723 30.7562 16.2787 30.7124 16.8321C30.6687 17.3856 30.4873 17.9193 30.1847 18.3849C29.8822 18.8504 29.4682 19.233 28.9802 19.4978C28.4923 19.7627 27.9458 19.9014 27.3906 19.9013H27.0863V22.6984H21.4805V18.1463H27.5062Z" fill="#995A4D"/>
<path d="M26.0977 13.5943C26.8749 13.5943 27.6203 13.2856 28.1698 12.736C28.7194 12.1865 29.0281 11.4411 29.0281 10.6639C29.2536 11.1712 29.3487 11.7268 29.3049 12.2803C29.2611 12.8337 29.0797 13.3674 28.7772 13.8329C28.4747 14.2984 28.0607 14.681 27.5727 14.9458C27.0848 15.2106 26.5384 15.3493 25.9833 15.3493H25.6781V18.1463H21.4805V13.5943H26.0977Z" fill="#E69F6E"/>
<path d="M24.9719 9.04244C25.7491 9.04237 26.4944 8.73357 27.044 8.18398C27.5935 7.63439 27.9022 6.88902 27.9022 6.11182C28.1277 6.61912 28.2229 7.17473 28.1791 7.72816C28.1353 8.28159 27.9539 8.8153 27.6514 9.2808C27.3489 9.7463 26.9348 10.1288 26.4469 10.3937C25.959 10.6585 25.4126 10.7972 24.8574 10.7972H24.5531V13.5942H21.4805V9.04244H24.9719Z" fill="#995A4D"/>
<path d="M32.2122 28.0773H27.4396V24.772H31.0872C31.3855 24.772 31.6717 24.8905 31.8827 25.1015C32.0936 25.3125 32.2122 25.5987 32.2122 25.897V28.0773Z" fill="#995A4D"/>
<path d="M24.9719 9.0425L23.5201 3.86414H21.4805V9.0425H24.9719Z" fill="#E69F6E"/>
</svg>
