<svg width="37" height="36" viewBox="0 0 37 36" fill="none" xmlns="http://www.w3.org/2000/svg">
<path d="M28.5829 16.1357C28.5829 23.7437 22.4157 29.9109 14.8079 29.9109C7.20016 29.9109 1.03271 23.7437 1.03271 16.1357C1.03271 8.52789 7.20016 2.36072 14.8079 2.36072C22.4157 2.36072 28.5829 8.52789 28.5829 16.1357Z" fill="#EDF5FF"/>
<path d="M23.2173 5.22925C25.0141 7.55615 26.0858 10.4716 26.0858 13.639C26.0858 21.2468 19.9187 27.4142 12.3106 27.4142C9.14328 27.4142 6.22778 26.3425 3.90088 24.5454C6.42004 27.8075 10.3672 29.9109 14.8076 29.9109C22.4153 29.9109 28.5825 23.7434 28.5825 16.1357C28.5825 11.6953 26.4794 7.74841 23.2173 5.22925Z" fill="#D5E8FE"/>
<path d="M20.0481 11.3445C20.0481 14.2386 17.7017 16.585 14.8076 16.585C11.9133 16.585 9.56689 14.2386 9.56689 11.3445C9.56689 8.45016 11.9133 6.10376 14.8076 6.10376C17.7017 6.10376 20.0481 8.45016 20.0481 11.3445Z" fill="#55AFD9"/>
<path d="M17.9068 18.8907H11.708C8.2847 18.8907 5.50928 21.6662 5.50928 25.0895V26.298C7.95978 28.5414 11.2233 29.9109 14.8076 29.9109C18.3916 29.9109 21.6553 28.5411 24.1056 26.298V25.0895C24.1058 21.6662 21.3304 18.8907 17.9068 18.8907Z" fill="#55AFD9"/>
<path d="M12.3106 27.4142C9.83624 27.4142 7.5162 26.7583 5.50928 25.6163V26.298C7.95978 28.5414 11.2233 29.9109 14.8076 29.9109C18.3916 29.9109 21.6553 28.5414 24.1056 26.298V25.0895C24.1056 23.9568 23.8004 22.8961 23.2698 21.9823C20.7531 25.2826 16.7815 27.4142 12.3106 27.4142Z" fill="#2F89B3"/>
<path d="M35.9673 26.5026C35.9673 30.4242 32.7884 33.6031 28.8669 33.6031C24.9453 33.6031 21.7661 30.4242 21.7661 26.5026C21.7661 22.581 24.9453 19.4019 28.8669 19.4019C32.7884 19.4019 35.9673 22.581 35.9673 26.5026Z" fill="#41D8BF"/>
<path d="M33.4852 21.1094C34.5495 22.3511 35.1927 23.9642 35.1927 25.728C35.1927 29.6496 32.0136 32.8285 28.0923 32.8285C26.3287 32.8285 24.7154 32.1852 23.4736 31.1209C24.7761 32.6404 26.7088 33.603 28.8668 33.603C32.7884 33.603 35.9673 30.4241 35.9673 26.5026C35.9673 24.3446 35.0043 22.4118 33.4852 21.1094Z" fill="#2EBEA6"/>
<path d="M33.1981 26.4375C33.1981 25.8852 32.7504 25.4375 32.1981 25.4375H29.9321V23.1713C29.9321 22.619 29.4844 22.1713 28.9321 22.1713H28.8019C28.2496 22.1713 27.8019 22.619 27.8019 23.1713V25.4375H25.5356C24.9834 25.4375 24.5356 25.8852 24.5356 26.4375V26.5677C24.5356 27.12 24.9834 27.5677 25.5356 27.5677H27.8019V29.834C27.8019 30.3863 28.2496 30.834 28.8019 30.834H28.9321C29.4844 30.834 29.9321 30.3863 29.9321 29.834V27.5677H32.1981C32.7504 27.5677 33.1981 27.12 33.1981 26.5677V26.4375Z" fill="#EDF5FF"/>
</svg>
