<svg width="37" height="37" viewBox="0 0 37 37" fill="none" xmlns="http://www.w3.org/2000/svg">
<g clip-path="url(#clip0)">
<path d="M21.3613 2.82344H19.8039C19.6839 2.82344 19.5866 2.72616 19.5866 2.60613V0.88393C19.5866 0.763906 19.4893 0.666626 19.3693 0.666626H17.6309C17.5109 0.666626 17.4136 0.763906 17.4136 0.88393V2.60613C17.4136 2.72616 17.3163 2.82344 17.1963 2.82344H15.6389C15.5189 2.82344 15.4216 2.92072 15.4216 3.04074V4.77917C15.4216 4.8992 15.5189 4.99648 15.6389 4.99648H17.1963C17.3163 4.99648 17.4136 5.09376 17.4136 5.21378V9.86582H19.5866V5.21378C19.5866 5.09376 19.6839 4.99648 19.8039 4.99648H21.3613C21.4813 4.99648 21.5786 4.8992 21.5786 4.77917V3.04074C21.5786 2.92079 21.4813 2.82344 21.3613 2.82344Z" fill="#FFBF54"/>
<path d="M18.4999 1.73692V0.88393C18.4999 0.763906 18.5972 0.666626 18.7172 0.666626H17.6307C17.5106 0.666626 17.4134 0.763906 17.4134 0.88393V2.60613C17.4134 2.72616 17.3161 2.82344 17.196 2.82344H17.4134C18.0134 2.82344 18.4999 2.33704 18.4999 1.73692Z" fill="#FFA442"/>
<path d="M18.5001 8.77935V4.99652C18.5001 4.39648 18.0136 3.91001 17.4136 3.91001H16.5806C16.5406 3.91001 16.5081 3.87755 16.5081 3.83757V2.82349H15.6389C15.5189 2.82349 15.4216 2.92077 15.4216 3.04079V4.77922C15.4216 4.89925 15.5189 4.99652 15.6389 4.99652H17.1963C17.3163 4.99652 17.4136 5.0938 17.4136 5.21383V9.86587H19.5866V8.77935H18.5001Z" fill="#FFA442"/>
<path d="M33.1679 33.7692H26.2866V22.1204L33.1679 25.4392L33.8923 26.533V33.0449L33.1679 33.7692Z" fill="#FFE8C8"/>
<path d="M11.8367 33.7692H3.83203V24.7149L11.6692 20.4788L11.8367 33.7692Z" fill="#FFE8C8"/>
<path d="M12.162 18.5424L3.10767 23.265V26.5331V34.4936L7.08157 35.8984L11.8367 34.7451L11.7998 33.0449H4.91853C4.71854 33.0449 4.55636 32.8827 4.55636 32.6828V25.997C4.55636 25.862 4.6314 25.7382 4.75106 25.6759L12.1477 21.8664L12.162 18.5424Z" fill="#FDD9B4"/>
<path d="M33.8922 26.533V23.265L25.5622 18.9202L23.3191 27.5037L25.5622 34.4936L29.903 35.218L33.8922 34.4936V33.0449H27.3731C27.1731 33.0449 27.0109 32.8827 27.0109 32.6827V23.5411C27.0109 23.2691 27.2995 23.0942 27.5406 23.22L33.8922 26.533Z" fill="#FDD9B4"/>
<path d="M1.9502 24.2588V23.654C1.9502 23.573 1.99518 23.4987 2.06703 23.4613L2.3848 22.1934L9.98899 18.2271L10.7133 18.1958V20.4775L2.26797 24.4515C2.12331 24.5269 1.9502 24.422 1.9502 24.2588Z" fill="#8AAADC"/>
<path d="M9.98897 18.2271V19.8518C9.98897 19.9867 9.91393 20.1105 9.79426 20.1729L2.49068 23.9825C2.44244 24.0076 2.38478 23.9727 2.38478 23.9183V22.1934L1.34267 22.7369C1.27088 22.7744 1.22583 22.8486 1.22583 22.9296V25.7075C1.22583 25.8707 1.39895 25.9756 1.5436 25.9001L11.4377 20.7393L12.162 19.3157L11.4377 17.4714L9.98897 18.2271Z" fill="#7398D4"/>
<path d="M35.7742 24.4819V22.9296C35.7742 22.8486 35.7292 22.7743 35.6573 22.7369L27.011 18.2271L26.0932 18.2551L25.9268 20.3449L35.1922 25.0978L35.7742 24.4819Z" fill="#8AAADC"/>
<path d="M27.0109 19.6915V18.2273L25.5622 17.4714L24.8379 18.9201L25.5622 20.7393L35.4563 25.9001C35.6009 25.9756 35.7741 25.8707 35.7741 25.7075V24.4819L27.2056 20.0125C27.086 19.9501 27.0109 19.8264 27.0109 19.6915Z" fill="#7398D4"/>
<path d="M24.8382 33.7692H12.1621V13.8917L17.8391 10.9277C18.2541 10.7355 18.7462 10.7355 19.1612 10.9277L24.8382 13.8917L25.5625 16.378V33.0449L24.8382 33.7692Z" fill="#FFE8C8"/>
<path d="M18.3346 12.8411C18.4383 12.7878 18.5614 12.7878 18.6651 12.8411L25.5622 16.3781V13.1219L19.1609 9.83918C18.7459 9.62636 18.2538 9.62636 17.8388 9.83918L11.4375 13.1219V16.378V34.4935L18.4999 35.2179L25.5622 34.4935V33.0448H13.2484C13.0484 33.0448 12.8862 32.8827 12.8862 32.6827V15.8564C12.8862 15.7205 12.9622 15.5961 13.0831 15.5341L18.3346 12.8411Z" fill="#FDD9B4"/>
<path d="M26.8562 14.9825L18.6653 10.6681C18.5616 10.6149 18.4385 10.6149 18.3348 10.6681L10.0462 14.7757C9.90162 14.8498 9.72974 14.7448 9.72974 14.5823V12.9012C9.72974 12.8197 9.77537 12.745 9.84788 12.7079L11.031 11.882L17.8391 8.39057C18.2541 8.17775 18.7463 8.17775 19.1612 8.39057L27.2972 12.5629C27.3697 12.6001 27.4154 12.6747 27.4154 12.7562V14.4238L27.1726 14.7891C27.1726 14.9516 27.0008 15.0566 26.8562 14.9825Z" fill="#8AAADC"/>
<path d="M27.4154 14.4238L18.996 10.1133C18.6847 9.95362 18.3157 9.95362 18.0044 10.1133L11.3501 13.5257C11.2055 13.5998 11.0337 13.4948 11.0337 13.3323V11.887C11.0337 11.8848 11.034 11.8826 11.0341 11.8803L9.7031 12.5629C9.6306 12.6002 9.58496 12.6748 9.58496 12.7563V14.0752V15.5239C9.58496 15.6864 9.75685 15.7914 9.90143 15.7172L18.3349 11.3924C18.4386 11.3391 18.5617 11.3391 18.6654 11.3924L27.099 15.7172C27.2436 15.7914 27.4155 15.6864 27.4155 15.5239V14.4238H27.4154Z" fill="#7398D4"/>
<path d="M20.9519 25.557L19.0027 23.6783C18.8624 23.543 18.6812 24.1998 18.5 24.1998C18.3187 24.1998 18.1376 23.543 17.9973 23.6783L17.0454 24.5957L16.5134 25.4678C16.1593 25.8091 16.2183 26.369 16.2183 26.8608V34.4935H20.7817L21.506 33.0448V26.8608C21.5061 26.369 21.306 25.8983 20.9519 25.557Z" fill="#D77F4A"/>
<path d="M19.0432 32.8275V23.7174L19.0026 23.6783C18.7221 23.4079 18.2778 23.4079 17.9973 23.6783L17.9567 23.7174V32.8275C17.9567 32.9476 17.8595 33.0449 17.7394 33.0449H17.16C17.0399 33.0449 16.9427 32.9476 16.9427 32.8275V25.4121C16.9427 25.0446 17.0544 24.689 17.2586 24.3902L16.0481 25.557C15.694 25.8983 15.4939 26.369 15.4939 26.8608V34.4935L17.962 35.2179H19.0378L21.506 34.4935V33.0449H19.2605C19.1405 33.0449 19.0432 32.9476 19.0432 32.8275Z" fill="#C86D36"/>
<path d="M36.1379 36.1819H1.34069C1.1407 36.1819 0.978516 36.0197 0.978516 35.8197V34.8557C0.978516 34.6557 1.1407 34.4935 1.34069 34.4935H36.1379C36.3379 34.4935 36.5 34.6557 36.5 34.8557V35.8197C36.5 36.0197 36.3379 36.1819 36.1379 36.1819Z" fill="#8AAADC"/>
<path d="M1.94869 35.58C1.7487 35.58 1.58652 35.4179 1.58652 35.2179V34.4935H0.862173C0.662181 34.4935 0.5 34.6557 0.5 34.8557V36.3044C0.5 36.5044 0.662181 36.6665 0.862173 36.6665H36.1378C36.3378 36.6665 36.5 36.5044 36.5 36.3044V35.58H1.94869Z" fill="#7398D4"/>
<path d="M18.4999 20.1008C19.7001 20.1008 20.673 19.1279 20.673 17.9278C20.673 16.7277 19.7001 15.7548 18.4999 15.7548C17.2998 15.7548 16.3269 16.7277 16.3269 17.9278C16.3269 19.1279 17.2998 20.1008 18.4999 20.1008Z" fill="#E9EDF1"/>
<path d="M18.5 15.2115C17.0022 15.2115 15.7837 16.43 15.7837 17.9278C15.7837 19.4256 17.0022 20.6441 18.5 20.6441C19.9978 20.6441 21.2163 19.4256 21.2163 17.9278C21.2163 16.43 19.9978 15.2115 18.5 15.2115ZM16.8702 17.9278C16.8702 17.2197 17.3244 16.6158 17.9567 16.3915V19.4642C17.3244 19.2399 16.8702 18.636 16.8702 17.9278ZM19.0432 19.4642V16.3915C19.6755 16.6158 20.1298 17.2197 20.1298 17.9278C20.1298 18.636 19.6755 19.2399 19.0432 19.4642Z" fill="#D77F4A"/>
<path d="M7.27249 26.9604C6.57241 26.9604 6.00488 27.528 6.00488 28.2281V31.6687H8.54009V28.2281C8.54009 27.528 7.97257 26.9604 7.27249 26.9604Z" fill="#DCE6EB"/>
<path d="M29.7273 26.9604C29.0272 26.9604 28.4597 27.528 28.4597 28.2281V31.6687H30.9949V28.2281C30.9949 27.528 30.4274 26.9604 29.7273 26.9604Z" fill="#DCE6EB"/>
<path d="M9.26447 31.1254H9.08338V28.228C9.08338 27.2295 8.27103 26.4171 7.27252 26.4171C6.274 26.4171 5.46165 27.2295 5.46165 28.228V31.1254H5.28056C4.98054 31.1254 4.7373 31.3685 4.7373 31.6686C4.7373 31.9687 4.98054 32.2119 5.28056 32.2119H6.00491H8.54012H9.26447C9.56449 32.2119 9.80773 31.9687 9.80773 31.6686C9.80773 31.3685 9.56449 31.1254 9.26447 31.1254ZM6.54817 31.1254V28.228C6.54817 27.8286 6.87311 27.5036 7.27252 27.5036C7.67192 27.5036 7.99686 27.8286 7.99686 28.228V31.1254H6.54817Z" fill="#C86D36"/>
<path d="M31.7191 31.1254H31.538V28.228C31.538 27.2295 30.7256 26.4171 29.7271 26.4171C28.7286 26.4171 27.9162 27.2295 27.9162 28.228V31.1254H27.7352C27.4351 31.1254 27.1919 31.3685 27.1919 31.6686C27.1919 31.9687 27.4351 32.2119 27.7352 32.2119H28.4595H30.9947H31.7191C32.0192 32.2119 32.2623 31.9687 32.2623 31.6686C32.2623 31.3685 32.0192 31.1254 31.7191 31.1254ZM29.0028 31.1254V28.228C29.0028 27.8286 29.3277 27.5036 29.7271 27.5036C30.1265 27.5036 30.4515 27.8286 30.4515 28.228V31.1254H29.0028Z" fill="#C86D36"/>
</g>
<defs>
<clipPath id="clip0">
<rect width="36" height="36" fill="white" transform="translate(0.5 0.666626)"/>
</clipPath>
</defs>
</svg>
