<svg width="36" height="36" viewBox="0 0 36 36" fill="none" xmlns="http://www.w3.org/2000/svg">
<defs>
<clipPath id="clip0_1680:7523">
<rect width="36" height="36" fill="white"/>
</clipPath>
</defs>
<g clip-path="url(#clip0_1680:7523)">
<path d="M15.8107 0V9.93023H2.68698C1.6846 9.93023 0.87207 10.7399 0.87207 11.7387C0.87207 12.7375 1.6846 13.5471 2.68698 13.5471H12.5209L2.26573 26.8946C3.8671 28.1055 6.15479 27.7992 7.37534 26.2106L15.8107 15.2317L15.7803 30.2958H13.0478L16.2846 36C16.2846 36 19.4565 34.7864 19.4565 30.3763V18.8843L30.7739 27.7668L35.1284 26.5726L22.6566 16.7841L30.6673 11.1295C31.4946 10.5604 31.7004 9.43376 31.1268 8.613C30.5532 7.79217 29.4175 7.58805 28.5902 8.15709L19.4565 14.584V0L15.8107 0Z" fill="#63EBD4"/>
<path d="M19.4567 14.584V0H17.2837V16.1131L19.4567 14.584Z" fill="#2EBEA6"/>
<path d="M22.6565 16.784L30.6672 11.1294C31.4945 10.5603 31.7003 9.43363 31.1267 8.61288C30.5531 7.79205 29.4174 7.58793 28.5901 8.15697L28.5418 8.19093C28.6973 8.30547 28.8372 8.44624 28.9537 8.61288C29.5272 9.4337 29.3215 10.5604 28.4941 11.1294L20.4834 16.784L33.381 27.0516L35.1282 26.5724L22.6565 16.784Z" fill="#2EBEA6"/>
<path d="M17.2835 20.5348V30.3762C17.2835 32.6219 16.4611 34.0383 15.6538 34.8881L16.2847 35.9999C16.2847 35.9999 19.4566 34.7863 19.4566 30.3762V18.8842L17.2835 20.5348Z" fill="#2EBEA6"/>
</g>
</svg>
