<svg width="36" height="36" viewBox="0 0 36 36" fill="none" xmlns="http://www.w3.org/2000/svg">
<defs>
<clipPath id="clip0_1680:7449">
<rect width="36" height="36" fill="white"/>
</clipPath>
</defs>
<g clip-path="url(#clip0_1680:7449)">
<path d="M25.8942 6.1004L27.5813 9.51871C27.7079 9.77535 27.9527 9.95324 28.236 9.99438L32.0083 10.5425C32.7215 10.6462 33.0063 11.5226 32.4902 12.0257L29.7605 14.6865C29.5556 14.8862 29.4621 15.1741 29.5104 15.4561L30.1549 19.2132C30.2767 19.9236 29.5311 20.4653 28.8932 20.1299L25.5191 18.356C25.2657 18.2228 24.9631 18.2228 24.7098 18.356L21.3357 20.1299C20.6977 20.4653 19.9522 19.9236 20.074 19.2132L20.7184 15.4561C20.7668 15.174 20.6733 14.8862 20.4683 14.6865L17.7386 12.0257C17.2226 11.5226 17.5073 10.6462 18.2206 10.5425L21.9929 9.99438C22.2761 9.95324 22.521 9.77535 22.6476 9.51871L24.3347 6.1004C24.6537 5.45408 25.5753 5.45408 25.8942 6.1004Z" fill="#FFDA7A"/>
<path d="M29.7606 14.6864C29.5555 14.8864 29.462 15.1741 29.5106 15.456L30.1547 19.2138C30.2764 19.9239 29.5316 20.4652 28.8932 20.1304L28.0113 19.6667C28.3743 19.5283 28.6367 19.15 28.5605 18.7066L27.9164 14.9488C27.8679 14.6669 27.9613 14.3793 28.1664 14.1792L30.896 11.5185C31.2257 11.1975 31.2293 10.7236 31.0018 10.3961L32.0082 10.5424C32.722 10.6461 33.0068 11.5228 32.4901 12.0257L29.7606 14.6864Z" fill="#EA9B26"/>
<path d="M34.1959 28.862C30.8886 33.2003 25.6651 36.0001 19.7877 36.0001C9.80149 36.0001 1.67533 27.8707 1.6792 17.8845C1.68272 8.8607 8.28717 1.37959 16.9267 0.00835851C17.5127 -0.0846649 17.8658 0.635546 17.4294 1.03752C14.2241 3.99023 12.2276 8.23548 12.2666 12.9463C12.3399 21.7909 19.6566 28.9387 28.5007 28.8145C30.2597 28.7898 31.9501 28.4812 33.5279 27.9327C34.0857 27.7387 34.5539 28.3924 34.1959 28.862Z" fill="#FFDA7A"/>
<path d="M34.1957 28.8618C33.9775 29.148 33.7515 29.4269 33.5167 29.6994C32.1588 30.1117 30.7299 30.3646 29.251 30.4349C19.5167 30.8957 10.8949 23.363 10.4884 13.5316C10.2775 8.4355 12.5069 3.61298 15.7632 0.232003C16.1466 0.145027 16.5349 0.070425 16.927 0.00812817C17.5125 -0.084614 17.8661 0.635597 17.4291 1.03708C14.2242 3.98985 12.2279 8.23525 12.2664 12.9459C12.3396 21.7912 19.6566 28.9386 28.5011 28.814C30.2597 28.7894 31.9502 28.4814 33.5277 27.9329C34.0855 27.7387 34.5536 28.3922 34.1957 28.8618Z" fill="#EA9B26"/>
</g>
</svg>
