<svg width="36" height="36" viewBox="0 0 36 36" fill="none" xmlns="http://www.w3.org/2000/svg">
<rect x="4" width="28" height="36" rx="4" fill="#2EBEA6"/>
<path d="M4 8H32V32C32 34.2091 30.2091 36 28 36H8C5.79086 36 4 34.2091 4 32V8Z" fill="#41D8BF"/>
<rect x="11" y="19" width="14" height="14" fill="white"/>
<path d="M12.4 31.5997H17.4909V26.5088H12.4V31.5997ZM13.4181 27.5271H16.4727V30.5737H13.4181V27.5271Z" fill="black"/>
<path d="M15.4546 28.5452H14.4364V29.5635H15.4546V28.5452Z" fill="black"/>
<path d="M21.5637 30.5818H20.5453V31.6H21.5637V30.5818Z" fill="black"/>
<path d="M23.5999 30.5818H22.5815V31.6H23.5999V30.5818Z" fill="black"/>
<path d="M22.5818 27.5271H21.5637V26.5088H18.509V31.5997H19.5273V28.5452H20.5453V29.5634H23.6V26.5088H22.5818V27.5271Z" fill="black"/>
<path d="M12.4 25.4909H17.4909V20.3999H12.4V25.4909ZM13.4181 21.418H16.4727V24.4726H13.4181V21.418Z" fill="black"/>
<path d="M15.4546 22.4365H14.4364V23.4548H15.4546V22.4365Z" fill="black"/>
<path d="M18.509 20.3999V25.4909H23.6001V20.3999H18.509ZM22.5818 24.4726H19.5273V21.418H22.5818V24.4726Z" fill="black"/>
<path d="M21.5637 22.4365H20.5453V23.4548H21.5637V22.4365Z" fill="black"/>
<rect x="8" y="5" width="9" height="11" rx="2" fill="#FFDA7A"/>
<path fill-rule="evenodd" clip-rule="evenodd" d="M12.5 12.3153C13.9007 12.3153 15.0363 11.1797 15.0363 9.77903C15.0363 8.37826 13.9007 7.24268 12.5 7.24268C11.0993 7.24268 9.96369 8.37826 9.96369 9.77903C9.96369 11.1797 11.0993 12.3153 12.5 12.3153ZM12 13.0002H13C14.6569 13.0002 16.0001 14.3435 16 16.0002H9C9 14.3435 10.3432 13.0002 12 13.0002Z" fill="#FF7D47"/>
<rect x="19" y="5" width="9" height="11" rx="2" fill="#FFDA7A"/>
<path fill-rule="evenodd" clip-rule="evenodd" d="M23.5 12.3153C24.9007 12.3153 26.0363 11.1797 26.0363 9.77903C26.0363 8.37826 24.9007 7.24268 23.5 7.24268C22.0993 7.24268 20.9637 8.37826 20.9637 9.77903C20.9637 11.1797 22.0993 12.3153 23.5 12.3153ZM23 13.0002H24C25.6569 13.0002 27.0001 14.3435 27 16.0002H20C20 14.3435 21.3432 13.0002 23 13.0002Z" fill="#EB4200"/>
</svg>
