<svg width="37" height="37" viewBox="0 0 37 37" fill="none" xmlns="http://www.w3.org/2000/svg">
<g clip-path="url(#clip0)">
<path d="M32.8666 1.58661C31.7027 1.58661 30.7593 2.53011 30.7593 3.69393V33.3411C30.7593 34.5026 29.8158 35.4441 28.652 35.4441C27.4882 35.4441 26.5447 34.5026 26.5447 33.3411V31.2382H5.11475V3.73793C5.11475 1.94799 6.56703 0.49761 8.35696 0.500003L32.8666 0.530763L32.8666 1.58661Z" fill="#EDFBFF"/>
<path d="M17.4728 0.511475V31.2382H26.5445V33.3412C26.5445 34.5026 27.488 35.4442 28.6518 35.4442C29.8157 35.4442 30.7591 34.5026 30.7591 33.3412V3.69393C30.7591 2.53004 31.7026 1.58661 32.8664 1.58661V0.530761L17.4728 0.511475Z" fill="#D6F2FF"/>
<path d="M30.7592 6.84819V3.68939C30.7592 2.52796 31.7027 1.58643 32.8665 1.58643C34.0304 1.58643 34.9738 2.52796 34.9738 3.68939V6.84819H30.7592Z" fill="#B2E7FF"/>
<path d="M29.7076 35.4444C29.7076 36.0275 29.2349 36.5002 28.6518 36.5002H4.13338C2.3892 36.5002 0.970215 35.0832 0.970215 33.3414V31.2385C0.970215 30.6554 1.44295 30.1826 2.02606 30.1826H26.5445C27.1276 30.1826 27.6003 30.6554 27.6003 31.2385V33.3414C27.6003 33.9188 28.072 34.3885 28.6519 34.3885C29.2349 34.3885 29.7076 34.8613 29.7076 35.4444Z" fill="#D6F2FF"/>
<path d="M28.6518 34.3885C28.072 34.3885 27.6003 33.9188 27.6003 33.3414V31.2385C27.6003 30.6554 27.1276 30.1826 26.5445 30.1826H13.2295V36.5002H28.6518C29.235 36.5002 29.7077 36.0275 29.7077 35.4444C29.7077 34.8612 29.235 34.3885 28.6518 34.3885Z" fill="#B2E7FF"/>
<path d="M29.7032 3.68957V33.3412C29.7032 33.9186 29.2316 34.3883 28.6518 34.3883C28.072 34.3883 27.6002 33.9186 27.6002 33.3412V31.2383C27.6002 30.6552 27.1275 30.1824 26.5444 30.1824C25.9613 30.1824 25.4885 30.6552 25.4885 31.2383V33.3412C25.4885 35.083 26.9075 36.5 28.6518 36.5C30.3959 36.5 31.8149 35.083 31.8149 33.3412V3.68957C31.8149 3.11216 32.2866 2.64245 32.8664 2.64245C33.4462 2.64245 33.918 3.11216 33.918 3.68957V5.79253C33.918 6.37564 34.3907 6.84838 34.9738 6.84838C35.5569 6.84838 36.0297 6.37564 36.0297 5.79253V3.68957C36.0297 1.94778 34.6107 0.530762 32.8664 0.530762C31.1222 0.530762 29.7032 1.94778 29.7032 3.68957Z" fill="#55AFD9"/>
<path d="M24.5135 23.1689H10.4888C9.90572 23.1689 9.43298 23.6417 9.43298 24.2248C9.43298 24.8079 9.90572 25.2806 10.4888 25.2806H24.5135C25.0966 25.2806 25.5694 24.8079 25.5694 24.2248C25.5694 23.6417 25.0966 23.1689 24.5135 23.1689Z" fill="#37A8E5"/>
<path d="M24.5135 18.9456H10.4888C9.90572 18.9456 9.43298 19.4183 9.43298 20.0014C9.43298 20.5845 9.90572 21.0573 10.4888 21.0573H24.5135C25.0966 21.0573 25.5694 20.5845 25.5694 20.0014C25.5694 19.4183 25.0966 18.9456 24.5135 18.9456Z" fill="#37A8E5"/>
<path d="M18.9645 15.7783C18.9645 16.3614 19.4372 16.8341 20.0203 16.8341H24.5136C25.0967 16.8341 25.5694 16.3614 25.5694 15.7783C25.5694 15.1951 25.0967 14.7224 24.5136 14.7224H20.0203C19.4372 14.7224 18.9645 15.1951 18.9645 15.7783Z" fill="#1A82C7"/>
<path d="M11.1693 16.6175C11.4785 16.6175 11.7257 16.5186 11.7999 16.2589L12.2202 14.7135H14.829L15.2493 16.2589C15.3235 16.5186 15.5707 16.6175 15.8799 16.6175C16.4115 16.6175 17.1162 16.2837 17.1162 15.8262C17.1162 15.7891 17.1038 15.7397 17.0914 15.6902L14.7794 8.14848C14.6434 7.7158 14.0871 7.50562 13.5184 7.50562C12.9496 7.50562 12.3933 7.71573 12.2573 8.14848L9.95764 15.6902C9.94525 15.7397 9.93286 15.7891 9.93286 15.8262C9.933 16.2837 10.6377 16.6175 11.1693 16.6175ZM13.5184 9.91646L14.4209 13.2299H12.6158L13.5184 9.91646Z" fill="#FFAA00"/>
<path d="M18.5571 11.1813H19.2198V11.844C19.2198 12.4271 19.6925 12.8999 20.2756 12.8999C20.8587 12.8999 21.3315 12.4271 21.3315 11.844V11.1813H21.9942C22.5774 11.1813 23.0501 10.7086 23.0501 10.1255C23.0501 9.54237 22.5774 9.06963 21.9942 9.06963H21.3315V8.40692C21.3315 7.82381 20.8587 7.35107 20.2756 7.35107C19.6925 7.35107 19.2198 7.82381 19.2198 8.40692V9.06963H18.5571C17.974 9.06963 17.5012 9.54237 17.5012 10.1255C17.5012 10.7086 17.974 11.1813 18.5571 11.1813Z" fill="#CE4634"/>
<path d="M24.5136 23.1689H17.5012V25.2806H24.5136C25.0967 25.2806 25.5694 24.8079 25.5694 24.2248C25.5694 23.6417 25.0967 23.1689 24.5136 23.1689Z" fill="#1A82C7"/>
<path d="M24.5136 18.9456H17.5012V21.0573H24.5136C25.0967 21.0573 25.5694 20.5845 25.5694 20.0014C25.5694 19.4183 25.0967 18.9456 24.5136 18.9456Z" fill="#1A82C7"/>
</g>
<defs>
<clipPath id="clip0">
<rect width="36" height="36" fill="white" transform="translate(0.5 0.5)"/>
</clipPath>
</defs>
</svg>
