<svg width="37" height="37" viewBox="0 0 37 37" fill="none" xmlns="http://www.w3.org/2000/svg">
<g clip-path="url(#clip0)">
<path d="M5.1886 29.9866V3.91802C5.1886 2.12231 6.6454 0.666626 8.44245 0.666626H28.5665C30.3636 0.666626 31.8204 2.12231 31.8204 3.91802V27.1785L31.1576 29.9866H5.1886Z" fill="#63EBD4"/>
<path d="M28.5665 0.666626H27.5045V27.1785H31.8204V3.91802C31.8204 2.12231 30.3636 0.666626 28.5665 0.666626Z" fill="#2EBEA6"/>
<path d="M23.5388 9.11283H20.6177V5.8862C20.6177 5.33755 20.1726 4.89282 19.6236 4.89282H17.3855C16.8364 4.89282 16.3914 5.33762 16.3914 5.8862V9.11291H13.4702C12.9212 9.11291 12.4761 9.5577 12.4761 10.1063V12.3426C12.4761 12.8913 12.9212 13.336 13.4702 13.336H16.3914V21.519C16.3914 22.0677 16.8364 22.5124 17.3855 22.5124H19.6236C20.1726 22.5124 20.6177 22.0676 20.6177 21.519V13.336H23.5388C24.0879 13.336 24.533 12.8912 24.533 12.3426V10.1063C24.533 9.55763 24.0878 9.11283 23.5388 9.11283Z" fill="#55AFD9"/>
<path d="M23.5388 9.11283H20.6177V5.8862C20.6177 5.33755 20.1726 4.89282 19.6235 4.89282H18.5045V22.5125H19.6235C20.1726 22.5125 20.6177 22.0677 20.6177 21.5191V13.336H23.5388C24.0879 13.336 24.533 12.8912 24.533 12.3426V10.1063C24.533 9.55763 24.0878 9.11283 23.5388 9.11283Z" fill="#2F89B3"/>
<path d="M31.8203 25.192H9.87083C7.2801 25.192 5.17993 27.2906 5.17993 29.8793C5.17993 32.468 7.2801 34.5666 9.87083 34.5666H30.7655C31.348 34.5666 31.8202 34.0948 31.8202 33.5128V32.5799L31.1574 29.9869L31.8202 27.1788V25.192H31.8203Z" fill="#2EBEA6"/>
<path d="M31.8202 25.192H27.5043V34.5666H30.7654C31.3479 34.5666 31.8201 34.0948 31.8201 33.5128V32.5799L31.1574 29.9869L31.8201 27.1788L31.8202 25.192Z" fill="#2EBEA6"/>
<path d="M7.16821 29.8804C7.16821 31.3719 8.37815 32.5809 9.87074 32.5809H31.8202V27.1799H9.87074C8.37815 27.1799 7.16821 28.389 7.16821 29.8804Z" fill="#FFDA7A"/>
<path d="M27.5043 27.179H31.8202V32.5799H27.5043V27.179Z" fill="#FEB546"/>
<path d="M14.1262 36.5442L12.9567 35.7534L11.7872 36.5442C11.4668 36.7609 11.0191 36.6853 10.8144 36.3572C10.748 36.2507 10.709 36.1242 10.709 35.9863L10.7074 30.5109C10.7074 30.1229 11.022 29.8083 11.41 29.8083H14.4997C14.888 29.8083 15.2028 30.1231 15.2028 30.5115L15.2044 35.9864C15.2044 36.1243 15.1655 36.2507 15.099 36.3573C14.8942 36.6853 14.4465 36.7609 14.1262 36.5442Z" fill="#E85B48"/>
<path d="M14.5002 29.8083H12.9551L12.9567 35.7535L14.1262 36.5443C14.4465 36.7609 14.8942 36.6853 15.099 36.3572C15.1654 36.2508 15.2044 36.1243 15.2044 35.9863L15.2028 30.511C15.2028 30.1229 14.8882 29.8083 14.5002 29.8083Z" fill="#D9225B"/>
</g>
<defs>
<clipPath id="clip0">
<rect width="36" height="36" fill="white" transform="translate(0.5 0.666626)"/>
</clipPath>
</defs>
</svg>
