<svg width="37" height="36" viewBox="0 0 37 36" fill="none" xmlns="http://www.w3.org/2000/svg">
<path d="M32.5625 34.3125H7.25C5.69694 34.3125 4.4375 33.0531 4.4375 31.5C4.4375 29.9469 5.69694 28.6875 7.25 28.6875H32.5625V34.3125Z" fill="#EAE8E5"/>
<path d="M32.5625 1.6875H7.25C5.69694 1.6875 4.4375 2.94694 4.4375 4.5V31.5C4.4375 29.9469 5.69694 28.6875 7.25 28.6875H32.5625V1.6875Z" fill="#E89D43"/>
<path d="M24.6875 30.375H30.3125V31.5H24.6875V30.375Z" fill="#DBD8D5"/>
<path d="M8.375 31.5H14.5625V32.625H8.375V31.5Z" fill="#DBD8D5"/>
<path d="M21.3125 30.375H23.5625V31.5H21.3125V30.375Z" fill="#DBD8D5"/>
<path d="M15.6875 31.5H16.8125V32.625H15.6875V31.5Z" fill="#DBD8D5"/>
<path d="M6.6875 3.9375H7.8125V16.3125H6.6875V3.9375Z" fill="#E08831"/>
<path d="M32.5625 5.0625C30.6973 5.0625 29.1875 3.55275 29.1875 1.6875H32.5625V5.0625Z" fill="#454A6D"/>
<path d="M29.1875 28.6875C29.1875 26.8223 30.6973 25.3125 32.5625 25.3125V28.6875H29.1875Z" fill="#454A6D"/>
<path d="M6.6875 17.4375H7.8125V18.5625H6.6875V17.4375Z" fill="#E08831"/>
<path d="M6.6875 19.6875H7.8125V20.8125H6.6875V19.6875Z" fill="#E08831"/>
<path d="M6.6875 21.9375H7.8125V23.0625H6.6875V21.9375Z" fill="#E08831"/>
<path d="M28.0625 13.5C27.8099 13.5 27.5793 13.5861 27.3914 13.7267L26.204 13.1332C26.033 12.3756 25.7338 11.6674 25.331 11.0301L25.7517 9.76837C25.9841 9.73519 26.2079 9.63281 26.3868 9.4545C26.8261 9.01519 26.8261 8.30306 26.3868 7.86375C25.9475 7.42444 25.2354 7.42444 24.7961 7.86375C24.6172 8.04262 24.5154 8.2665 24.4822 8.49881L23.2205 8.91956C22.5832 8.51681 21.8756 8.21756 21.1173 8.04656L20.5239 6.85913C20.6639 6.67069 20.75 6.44006 20.75 6.1875C20.75 5.56594 20.2466 5.0625 19.625 5.0625C19.0034 5.0625 18.5 5.56594 18.5 6.1875C18.5 6.44006 18.5861 6.67069 18.7267 6.85856L18.1332 8.046C17.3756 8.217 16.6674 8.51625 16.0301 8.919L14.7684 8.49825C14.7352 8.26594 14.6328 8.04206 14.4545 7.86319C14.0152 7.42388 13.3031 7.42388 12.8637 7.86319C12.4244 8.3025 12.4244 9.01462 12.8637 9.45394C13.0426 9.63281 13.2665 9.73462 13.4988 9.76781L13.9196 11.0295C13.5168 11.6668 13.2176 12.3744 13.0466 13.1327L11.8591 13.7261C11.6707 13.5861 11.4401 13.5 11.1875 13.5C10.5659 13.5 10.0625 14.0034 10.0625 14.625C10.0625 15.2466 10.5659 15.75 11.1875 15.75C11.4401 15.75 11.6707 15.6639 11.8586 15.5233L13.046 16.1168C13.217 16.8744 13.5163 17.5826 13.919 18.2199L13.4983 19.4816C13.2659 19.5148 13.0421 19.6172 12.8632 19.7955C12.4239 20.2348 12.4239 20.9469 12.8632 21.3862C13.3025 21.8256 14.0146 21.8256 14.4539 21.3862C14.6328 21.2074 14.7346 20.9835 14.7678 20.7512L16.0295 20.3304C16.6668 20.7332 17.3744 21.0324 18.1327 21.2034L18.7261 22.3909C18.5861 22.5793 18.5 22.8099 18.5 23.0625C18.5 23.6841 19.0034 24.1875 19.625 24.1875C20.2466 24.1875 20.75 23.6841 20.75 23.0625C20.75 22.8099 20.6639 22.5793 20.5233 22.3914L21.1168 21.204C21.8744 21.033 22.5826 20.7338 23.2199 20.331L24.4816 20.7517C24.5148 20.9841 24.6172 21.2079 24.7955 21.3868C25.2348 21.8261 25.9469 21.8261 26.3862 21.3868C26.8256 20.9475 26.8256 20.2354 26.3862 19.7961C26.2074 19.6172 25.9835 19.5154 25.7512 19.4822L25.3304 18.2205C25.7332 17.5832 26.0324 16.8756 26.2034 16.1173L27.3909 15.5239C27.5793 15.6639 27.8099 15.75 28.0625 15.75C28.6841 15.75 29.1875 15.2466 29.1875 14.625C29.1875 14.0034 28.6841 13.5 28.0625 13.5ZM20.9829 15.1875H24.0862C23.9838 16.0087 23.6604 16.7591 23.1766 17.3812L20.9829 15.1875ZM16.0734 17.3812C15.5896 16.7591 15.2668 16.0082 15.1638 15.1875H18.2671L16.0734 17.3812ZM18.2671 14.0625H15.1638C15.2662 13.2413 15.5896 12.4909 16.0734 11.8688L18.2671 14.0625ZM20.9829 14.0625L23.1766 11.8688C23.6604 12.4909 23.9832 13.2418 24.0862 14.0625H20.9829ZM22.3813 11.0734L20.1875 13.2671V10.1638C21.0082 10.2668 21.7591 10.5896 22.3813 11.0734ZM19.0625 10.1638V13.2671L16.8688 11.0734C17.4909 10.5896 18.2418 10.2668 19.0625 10.1638ZM16.8688 18.1766L19.0625 15.9829V19.0862C18.2418 18.9832 17.4909 18.6604 16.8688 18.1766ZM20.1875 19.0862V15.9829L22.3813 18.1766C21.7591 18.6604 21.0082 18.9832 20.1875 19.0862Z" fill="#454A6D"/>
</svg>
