<svg width="35" height="36" viewBox="0 0 35 36" fill="none" xmlns="http://www.w3.org/2000/svg">
<path d="M34.2516 35.1904H0.748413V0.401263C0.748413 0.179648 0.928062 0 1.14968 0H33.8505C34.0721 0 34.2517 0.179648 34.2517 0.401263V35.1904H34.2516Z" fill="#2F89B3"/>
<path d="M31.2425 0V35.1903H34.2517V0.401263C34.2517 0.179648 34.0721 0 33.8505 0H31.2425Z" fill="#225763"/>
<path d="M0.748413 28.3579H34.2516V35.1901H0.748413V28.3579Z" fill="#E85B48"/>
<path d="M31.2425 28.3579H34.2517V35.1901H31.2425V28.3579Z" fill="#CE4634"/>
<path d="M0.748413 6.32178H34.2516V9.33101H0.748413V6.32178Z" fill="#FFDA7A"/>
<path d="M31.2425 6.32178H34.2517V9.33101H31.2425V6.32178Z" fill="#EA9B26"/>
<path d="M3.35638 14.8107H0.748413V11.8015H3.35648C3.5781 11.8015 3.75774 11.9812 3.75774 12.2028V14.4096C3.75765 14.6311 3.578 14.8107 3.35638 14.8107Z" fill="#FFDA7A"/>
<path d="M21.4122 14.8099H19.2054C18.9838 14.8099 18.8041 14.6302 18.8041 14.4086V12.2018C18.8041 11.9802 18.9838 11.8005 19.2054 11.8005H21.4122C21.6338 11.8005 21.8135 11.9802 21.8135 12.2018V14.4086C21.8135 14.6302 21.6338 14.8099 21.4122 14.8099Z" fill="#FFDA7A"/>
<path d="M34.2517 14.8099H25.2239C25.0023 14.8099 24.8226 14.6302 24.8226 14.4086V12.2018C24.8226 11.9802 25.0023 11.8005 25.2239 11.8005H34.2517V14.8099Z" fill="#FFDA7A"/>
<path d="M31.2425 11.8005H34.2517V14.8098H31.2425V11.8005Z" fill="#EA9B26"/>
<path d="M15.3934 25.5543H7.16805C6.94643 25.5543 6.76678 25.3747 6.76678 25.153V12.2018C6.76678 11.9802 6.94643 11.8005 7.16805 11.8005H15.3934C15.615 11.8005 15.7947 11.9802 15.7947 12.2018V25.153C15.7947 25.3747 15.615 25.5543 15.3934 25.5543Z" fill="#FFDA7A"/>
<path d="M12.7854 11.8006V25.5543H15.3935C15.6151 25.5543 15.7947 25.3746 15.7947 25.153V12.2018C15.7947 11.9802 15.6151 11.8005 15.3935 11.8005H12.7854V11.8006Z" fill="#EA9B26"/>
</svg>
