<svg width="37" height="37" viewBox="0 0 37 37" fill="none" xmlns="http://www.w3.org/2000/svg">
<g clip-path="url(#clip0)">
<path d="M2.75 1.625H27.5C28.7426 1.625 29.75 2.63245 29.75 3.875V34.25C29.75 35.4926 28.7426 36.5 27.5 36.5H2.75C1.50745 36.5 0.5 35.4926 0.5 34.25V3.875C0.5 2.63245 1.50745 1.625 2.75 1.625Z" fill="#41D8BF"/>
<path d="M2.75 26.8408V3.875H27.5V34.25H10.1592L2.75 26.8408Z" fill="#FFDA7A"/>
<path d="M10.1592 26.8408V34.25L2.75 26.8408H10.1592Z" fill="#FEB546"/>
<path d="M9.5 5V0.5H20.75V5C20.75 6.24255 19.7426 7.25 18.5 7.25H11.75C10.5074 7.25 9.5 6.24255 9.5 5Z" fill="#2EBEA6"/>
<path d="M36.5 26.375C36.5 31.9668 31.9668 36.5 26.375 36.5C20.7832 36.5 16.25 31.9668 16.25 26.375C16.25 20.7832 20.7832 16.25 26.375 16.25C31.9668 16.25 36.5 20.7832 36.5 26.375Z" fill="#E85B48"/>
<path d="M24.0552 30.7094L20.875 27.5281C20.4358 27.0887 20.4358 26.3765 20.875 25.9373C21.3142 25.4981 22.0263 25.4981 22.4658 25.9373L24.1947 27.6651L29.2899 23.4184C29.7673 23.0201 30.4773 23.0847 30.875 23.5623C31.2732 24.0396 31.2087 24.7496 30.7311 25.1473L24.0552 30.7094Z" fill="white"/>
<path d="M12.875 9.5H21.875C22.4963 9.5 23 10.0037 23 10.625C23 11.2463 22.4963 11.75 21.875 11.75H12.875C12.2537 11.75 11.75 11.2463 11.75 10.625C11.75 10.0037 12.2537 9.5 12.875 9.5Z" fill="#225763"/>
<path d="M7.25 9.5H9.5V11.75H7.25V9.5Z" fill="#225763"/>
<path d="M7.25 14H9.5V16.25H7.25V14Z" fill="#225763"/>
<path d="M7.25 18.5H9.5V20.75H7.25V18.5Z" fill="#225763"/>
<path d="M7.25 23H9.5V25.25H7.25V23Z" fill="#225763"/>
<path d="M12.875 14H19.625C20.2463 14 20.75 14.5037 20.75 15.125C20.75 15.7463 20.2463 16.25 19.625 16.25H12.875C12.2537 16.25 11.75 15.7463 11.75 15.125C11.75 14.5037 12.2537 14 12.875 14Z" fill="#225763"/>
<path d="M12.875 18.5H15.125C15.7463 18.5 16.25 19.0037 16.25 19.625C16.25 20.2463 15.7463 20.75 15.125 20.75H12.875C12.2537 20.75 11.75 20.2463 11.75 19.625C11.75 19.0037 12.2537 18.5 12.875 18.5Z" fill="#225763"/>
</g>
<defs>
<clipPath id="clip0">
<rect width="36" height="36" fill="white" transform="translate(0.5 0.5)"/>
</clipPath>
</defs>
</svg>
