<svg width="37" height="36" viewBox="0 0 37 36" fill="none" xmlns="http://www.w3.org/2000/svg">
<path d="M17.75 7.95039V4.80039C17.75 3.41289 19.25 3.41289 19.25 4.80039V7.95039C19.25 9.33789 17.75 9.33789 17.75 7.95039Z" fill="#FFDE76"/>
<path d="M32.75 6.75024C31.835 6.75024 32 8.07774 32 3.75024C32 3.55133 32.079 3.36057 32.2197 3.21991C32.3603 3.07926 32.5511 3.00024 32.75 3.00024C32.9489 3.00024 33.1397 3.07926 33.2803 3.21991C33.421 3.36057 33.5 3.55133 33.5 3.75024C33.5 8.07774 33.665 6.75024 32.75 6.75024Z" fill="#FFDE76"/>
<path d="M4.25 6.75024C3.335 6.75024 3.5 8.07774 3.5 3.75024C3.5 3.55133 3.57901 3.36057 3.71967 3.21991C3.86032 3.07926 4.05108 3.00024 4.25 3.00024C4.44891 3.00024 4.63968 3.07926 4.78033 3.21991C4.92098 3.36057 5 3.55133 5 3.75024C5 8.07774 5.165 6.75024 4.25 6.75024Z" fill="#FFDE76"/>
<path d="M6.5 20.25H30.5V23.25H6.5V20.25Z" fill="#41D8BF"/>
<path d="M30.5 20.25V21.75H9.5C9.10218 21.75 8.72064 21.592 8.43934 21.3107C8.15804 21.0294 8 20.6478 8 20.25H30.5Z" fill="#63EBD4"/>
<path d="M6.5 23.2502H30.5V35.2502H6.5V23.2502Z" fill="#D5E8FE"/>
<path d="M30.5 23.2502V33.7502H11C10.2044 33.7502 9.44129 33.4342 8.87868 32.8716C8.31607 32.309 8 31.5459 8 30.7502V23.2502H30.5Z" fill="#EDF5FF"/>
<path d="M9.5 17.2502H27.5V20.2503H9.5V17.2502Z" fill="#D5E8FE"/>
<path d="M27.5 17.2502V18.7502H12.5C12.1022 18.7502 11.7206 18.5922 11.4393 18.3109C11.158 18.0296 11 17.6481 11 17.2502H27.5Z" fill="#EDF5FF"/>
<path d="M2 12.7502H6.5V35.2502H2V12.7502Z" fill="#D5E8FE"/>
<path d="M6.5 12.7502C6.5 34.5977 6.425 33.7502 6.5 33.7502C5.70435 33.7502 4.94129 33.4342 4.37868 32.8716C3.81607 32.309 3.5 31.5459 3.5 30.7502V12.7502H6.5Z" fill="#EDF5FF"/>
<path d="M1.25 9.75024H7.25V12.7502H1.25V9.75024Z" fill="#41D8BF"/>
<path d="M7.25 9.75024V11.2502H4.25C3.85218 11.2502 3.47064 11.0922 3.18934 10.8109C2.90804 10.5296 2.75 10.1481 2.75 9.75024H7.25Z" fill="#63EBD4"/>
<path d="M6.5 9.75013H2L3.2225 6.69763C3.30589 6.49359 3.44815 6.31899 3.63114 6.1961C3.81413 6.0732 4.02957 6.00757 4.25 6.00757C4.47043 6.00757 4.68587 6.0732 4.86886 6.1961C5.05185 6.31899 5.19411 6.49359 5.2775 6.69763C6.3575 9.40513 6.1025 8.75263 6.5 9.75013Z" fill="#FFCC66"/>
<path d="M6.19998 9.00033C4.28748 9.00033 3.37998 7.43283 3.94998 6.05283C4.21387 5.97301 4.4981 5.99496 4.74661 6.11436C4.99512 6.23376 5.18988 6.44193 5.29248 6.69783L6.19998 9.00033Z" fill="#FFDE76"/>
<path d="M30.5 9.75043H35L33.7775 6.69793C33.697 6.49091 33.5558 6.31304 33.3724 6.18763C33.1891 6.06222 32.9721 5.99512 32.75 5.99512C32.5279 5.99512 32.3109 6.06222 32.1276 6.18763C31.9442 6.31304 31.803 6.49091 31.7225 6.69793L30.5 9.75043Z" fill="#FFCC66"/>
<path d="M35 35.2502H30.5V12.7502H35V35.2502Z" fill="#D5E8FE"/>
<path d="M35.75 12.7502H29.75V9.75025H35.75V12.7502Z" fill="#41D8BF"/>
<path d="M26.7499 14.7527C26.7612 15.2381 26.6544 15.7189 26.4389 16.1539C26.2233 16.5889 25.9054 16.9652 25.5124 17.2502H11.4874C11.0945 16.9652 10.7766 16.5889 10.561 16.1539C10.3455 15.7189 10.2387 15.2381 10.2499 14.7527C10.2499 11.1227 15.2599 8.45274 18.4999 7.50024C18.4999 7.50024 26.7499 9.95274 26.7499 14.7527Z" fill="#FFCC66"/>
<path d="M26.5999 15.7502H13.5724C10.3774 15.7502 11.0824 9.68274 18.4999 7.50024C22.3699 8.64774 27.8149 11.9177 26.5999 15.7502Z" fill="#FFDE76"/>
<path d="M20.615 3.75025C20.4896 4.11 20.275 4.43203 19.9912 4.68617C19.7074 4.9403 19.3637 5.11822 18.9924 5.20324C18.621 5.28826 18.2342 5.2776 17.8681 5.17226C17.502 5.06692 17.1686 4.87036 16.8992 4.60098C16.6299 4.3316 16.4333 3.99824 16.328 3.63214C16.2226 3.26604 16.212 2.87919 16.297 2.50784C16.382 2.13649 16.5599 1.79281 16.8141 1.50901C17.0682 1.22522 17.3902 1.01059 17.75 0.885254C17.783 1.63449 18.0954 2.34418 18.6257 2.87448C19.156 3.40478 19.8657 3.71723 20.615 3.75025Z" fill="#EA9B26"/>
<path d="M20.615 3.75025C20.5659 3.89841 20.4978 4.03958 20.4125 4.17025C19.9834 4.419 19.4841 4.51899 18.9923 4.45469C18.5005 4.39038 18.0438 4.16538 17.6931 3.81467C17.3424 3.46396 17.1174 3.00719 17.0531 2.5154C16.9887 2.02361 17.0887 1.52435 17.3375 1.09525C17.4654 1.00786 17.6041 0.937286 17.75 0.885254C17.783 1.63449 18.0955 2.34418 18.6258 2.87448C19.1561 3.40479 19.8658 3.71723 20.615 3.75025Z" fill="#FFDA7A"/>
<path d="M21.5 30.0902V35.2502H15.5V30.0902C15.5004 29.2073 15.7959 28.3499 16.3394 27.6542C16.883 26.9584 17.6434 26.4643 18.5 26.2502C19.3572 26.4631 20.1184 26.9569 20.6622 27.6529C21.2059 28.3489 21.5009 29.207 21.5 30.0902Z" fill="#7C7D7D"/>
<path d="M21.5 30.0902V33.7502H20C19.2043 33.7502 18.4413 33.4342 17.8787 32.8716C17.3161 32.3089 17 31.5459 17 30.7502C17 28.5977 16.8725 27.7502 17.5175 26.6477C17.8245 26.4694 18.1553 26.3356 18.5 26.2502C19.3572 26.4631 20.1184 26.9569 20.6622 27.6529C21.2059 28.3489 21.5009 29.207 21.5 30.0902Z" fill="#919191"/>
<path d="M12.5001 31.5H9.50007C9.50007 29.4825 9.20007 27.9675 11.0001 27C12.7926 27.8925 12.5001 29.6175 12.5001 31.5Z" fill="#2F89B3"/>
<path d="M12.5 30.7501C10.385 30.7501 9.68755 28.6726 10.715 27.1651L11.1275 27.0676C12.7175 27.9676 12.5 29.5501 12.5 30.7501Z" fill="#55AFD9"/>
<path d="M24.5 31.5H27.5C27.5 29.5875 27.7925 27.8925 26 27C24.1999 27.9 24.5 29.61 24.5 31.5Z" fill="#2F89B3"/>
<path d="M27.4999 30.7501C25.3849 30.7501 24.6874 28.6726 25.7149 27.1651L26.1274 27.0676C27.7174 27.9676 27.4999 29.5501 27.4999 30.7501Z" fill="#55AFD9"/>
<path d="M35 12.7502C35 34.5977 34.925 33.7502 35 33.7502C34.2044 33.7502 33.4413 33.4342 32.8787 32.8716C32.3161 32.309 32 31.5459 32 30.7502V12.7502H35Z" fill="#EDF5FF"/>
<path d="M35.75 9.75024V11.2502H32.75C32.3522 11.2502 31.9706 11.0922 31.6893 10.8109C31.408 10.5296 31.25 10.1481 31.25 9.75024H35.75Z" fill="#63EBD4"/>
<path d="M34.7 9.00033C32.7875 9.00033 31.88 7.43283 32.45 6.05283C32.7139 5.97301 32.9981 5.99496 33.2466 6.11436C33.4951 6.23376 33.6899 6.44193 33.7925 6.69783L34.7 9.00033Z" fill="#FFDE76"/>
</svg>
