<svg width="36" height="36" viewBox="0 0 36 36" fill="none" xmlns="http://www.w3.org/2000/svg">
<g clip-path="url(#clip0)">
<path d="M4.34485 4.63654V0.620674C4.34502 0.412592 4.44944 0.218439 4.62296 0.103592C4.79648 -0.0112542 5.016 -0.0315121 5.20761 0.0496401C18 5.4124 18 8.3793 18 8.3793V13.0345L4.34485 4.63654Z" fill="#E4C05C"/>
<path d="M31.6552 4.63654V0.620674C31.655 0.412592 31.5506 0.218439 31.377 0.103592C31.2035 -0.0112542 30.984 -0.0315121 30.7924 0.0496401C18 5.4124 18 8.3793 18 8.3793V13.0345L31.6552 4.63654Z" fill="#B19046"/>
<path d="M33.238 3.84203L20.8242 10.0489C20.6142 10.1528 20.4817 10.3671 20.4828 10.6013V10.5517C20.4828 10.2089 20.2049 9.931 19.8621 9.931H16.138C15.7952 9.931 15.5173 10.2089 15.5173 10.5517V10.6013C15.5183 10.3671 15.3858 10.1528 15.1759 10.0489L2.7621 3.84203C2.56999 3.74522 2.34144 3.7548 2.1581 3.86733C1.97475 3.97987 1.86275 4.17932 1.8621 4.39445V29.0793C1.85941 29.314 1.99237 29.5292 2.20348 29.6317L14.6173 35.8386C14.8094 35.9354 15.0379 35.9258 15.2213 35.8133C15.4046 35.7008 15.5166 35.5013 15.5173 35.2862V35.3793C15.5173 35.7221 15.7952 36 16.138 36H19.8621C20.2049 36 20.4828 35.7221 20.4828 35.3793V35.2862C20.4834 35.5013 20.5954 35.7008 20.7788 35.8133C20.9621 35.9258 21.1907 35.9354 21.3828 35.8386L33.7966 29.6317C34.0077 29.5292 34.1407 29.314 34.138 29.0793V4.39445C34.1373 4.17932 34.0253 3.97987 33.842 3.86733C33.6586 3.7548 33.4301 3.74522 33.238 3.84203Z" fill="#C03A2B"/>
<path d="M19.862 9.93091H16.1379C15.7951 9.93091 15.5172 10.2088 15.5172 10.5516V35.3792C15.5172 35.722 15.7951 35.9999 16.1379 35.9999H19.862C20.2048 35.9999 20.4827 35.722 20.4827 35.3792V10.5516C20.4827 10.2088 20.2048 9.93091 19.862 9.93091Z" fill="#E64C3C"/>
<path d="M1.24138 11.7932H4.03448C4.89148 11.7932 5.58621 12.4879 5.58621 13.3449C5.58621 14.2019 4.89148 14.8967 4.03448 14.8967H1.24138C0.555784 14.8967 0 14.3409 0 13.6553V13.0346C0 12.349 0.555784 11.7932 1.24138 11.7932Z" fill="#FDD7AD"/>
<path d="M1.24138 18H4.03448C4.89148 18 5.58621 18.6947 5.58621 19.5517C5.58621 20.4087 4.89148 21.1034 4.03448 21.1034H1.24138C0.555784 21.1034 0 20.5477 0 19.8621V19.2414C0 18.5558 0.555784 18 1.24138 18Z" fill="#FDD7AD"/>
<path d="M1.24138 21.1035H3.41379C4.27079 21.1035 4.96552 21.7982 4.96552 22.6552C4.96552 23.5122 4.27079 24.207 3.41379 24.207H1.24138C0.555784 24.207 0 23.6512 0 22.9656V22.3449C0 21.6593 0.555784 21.1035 1.24138 21.1035Z" fill="#F9C795"/>
<path d="M1.24138 14.8965H5.27586C5.6874 14.8965 6.08209 15.06 6.3731 15.351C6.6641 15.642 6.82759 16.0367 6.82759 16.4482C6.82759 16.8597 6.6641 17.2544 6.3731 17.5454C6.08209 17.8364 5.6874 17.9999 5.27586 17.9999H1.24138C0.555784 17.9999 0 17.4441 0 16.7585V16.1379C0 15.4523 0.555784 14.8965 1.24138 14.8965Z" fill="#F9C795"/>
<path d="M34.7586 14.8965H31.9655C31.1085 14.8965 30.4138 14.2018 30.4138 13.3448C30.4138 12.4878 31.1085 11.793 31.9655 11.793H34.7586C35.4442 11.793 36 12.3488 36 13.0344V13.6551C36 14.3407 35.4442 14.8965 34.7586 14.8965Z" fill="#FDD7AD"/>
<path d="M34.7586 21.1035H31.9655C31.1085 21.1035 30.4138 20.4088 30.4138 19.5518C30.4138 18.6948 31.1085 18.0001 31.9655 18.0001H34.7586C35.4442 18.0001 36 18.5559 36 19.2415V19.8621C36 20.5477 35.4442 21.1035 34.7586 21.1035Z" fill="#FDD7AD"/>
<path d="M34.7587 24.2068H32.5863C31.7293 24.2068 31.0346 23.5121 31.0346 22.6551C31.0346 21.7981 31.7293 21.1033 32.5863 21.1033H34.7587C35.4443 21.1033 36.0001 21.6591 36.0001 22.3447V22.9654C36.0001 23.651 35.4443 24.2068 34.7587 24.2068Z" fill="#F9C795"/>
<path d="M34.7587 18H30.7243C29.8673 18 29.1725 17.3053 29.1725 16.4483C29.1725 15.5913 29.8673 14.8966 30.7243 14.8966H34.7587C35.4443 14.8966 36.0001 15.4523 36.0001 16.1379V16.7586C36.0001 17.4442 35.4443 18 34.7587 18Z" fill="#F9C795"/>
</g>
<defs>
<clipPath id="clip0">
<rect width="36" height="36" fill="white"/>
</clipPath>
</defs>
</svg>
