<svg width="36" height="36" viewBox="0 0 36 36" fill="none" xmlns="http://www.w3.org/2000/svg">
<circle cx="18" cy="9" r="6.5" stroke="#F0C919"/>
<path d="M7 7.4005H16.8161V0H19.2343V7.4005H29.4887V9.58438H19.2343V36H16.8161V9.58438H7V7.4005Z" fill="#55AFD9"/>
<path d="M29.4888 9.58456L19.2344 9.52411V9.97751H29.2016L29.4888 9.58456Z" fill="#2F89B3"/>
<path d="M7 9.58456L16.8161 9.52411V9.97751H7.28715L7 9.58456Z" fill="#2F89B3"/>
<path d="M15.6749 19.0001C15.6749 19.0001 15.2668 20.2016 15.0401 20.8817C14.821 21.5693 14.7152 21.8943 14.7983 21.9774C14.8814 22.0605 15.0175 22.1285 15.0175 22.1285C15.0175 22.1285 14.4885 22.7255 15.0855 23.2771C15.4104 23.5794 15.8789 24.0101 16.1963 24.3275C16.5968 24.796 15.0628 25.121 16.491 25.5366L16.8991 25.6197L17.3449 23.3905L16.2492 19.5895L15.6749 19.0001Z" fill="#D1D3D4"/>
<path d="M15.7505 22.5289C15.7505 22.5289 16.1207 20.2997 16.1661 20.0503C16.219 19.8085 16.1887 19.7556 16.1887 19.7556L15.5766 19.272C15.4406 19.6649 15.1913 20.3979 15.0401 20.874C14.821 21.5617 14.7152 21.8866 14.7983 21.9697C14.8814 22.0528 15.0175 22.1209 15.0175 22.1209L15.7505 22.5289Z" fill="#E6E7E8"/>
<path d="M16.4608 18.3802C16.4608 18.3802 16.6497 17.6547 16.4608 16.7555C16.2719 15.8562 16.0829 14.7454 16.0829 14.7454C15.7429 14.0804 15.8487 12.9243 15.6976 12.6522C15.5464 12.3802 14.8512 12.2139 14.8512 12.2139C13.6648 11.9872 13.0149 11.2996 12.9772 11.2845C12.9394 11.2618 12.7353 11.1711 12.4255 11.1182C12.1157 11.0578 11.4205 10.7555 11.1031 10.4683C10.7857 10.1736 9.77313 9.42551 9.68245 9.38017C9.58421 9.33483 9.49353 9.31216 9.29706 9.33483C9.10058 9.3575 8.87388 9.24415 8.76809 9.19881C8.65474 9.15347 8.23912 9.00234 8.02753 8.85876C7.88396 8.76052 7.4759 8.54138 7.5968 8.14088C7.61947 8.05775 7.63459 8.03508 7.65726 7.97463C7.67993 7.90662 7.73282 7.84617 7.80839 7.86128C7.9293 7.88395 8.3827 7.95952 8.49605 7.98974C8.6094 8.01997 8.93433 8.24667 8.93433 8.24667C8.93433 8.24667 8.81343 8.04264 8.75297 7.9973C8.69252 7.95952 8.53383 7.89151 8.51116 7.81594C8.48849 7.74037 8.51872 7.66481 8.51872 7.66481C8.51872 7.66481 9.01746 7.87639 9.07036 7.92173C9.12325 7.96707 9.2366 8.21644 9.55398 8.39025C9.87136 8.56405 10.7102 9.07035 11.2467 9.27438C11.7832 9.47841 12.9243 9.90914 13.0678 10.0829C13.2114 10.2567 13.4759 10.4154 13.4759 10.4154C14.4054 10.5439 14.6321 10.8915 14.9646 10.8764C15.2971 10.8613 15.5993 10.9368 15.9469 11.0351C16.2945 11.1333 18.554 11.1635 18.7127 11.2845C18.8714 11.4129 19.4532 11.2693 19.4532 11.2693C19.9746 10.6497 20.6245 10.5363 20.8437 10.5061C21.0628 10.4759 21.5918 10.4003 21.9998 10.355C22.4079 10.3096 23.1409 9.99226 23.1409 9.99226C24.0477 9.19881 25.0149 9.03256 25.7555 8.74541C26.1258 8.60183 26.4356 8.26934 26.4356 8.26934C26.7454 7.91418 27.1384 7.76304 27.2744 7.68748C27.4104 7.61191 27.6447 7.52879 27.7202 7.53634C27.7958 7.5439 28.0452 7.51367 28.0452 7.51367C28.0981 7.77816 27.758 7.76304 27.6598 7.79327C27.5691 7.8235 27.4331 7.98219 27.4331 7.98219C27.4331 7.98219 27.7278 7.89151 27.8562 7.86128C27.9847 7.83105 28.4003 7.74037 28.5439 7.71015C28.6875 7.67992 28.8311 7.67236 28.8688 7.77816C28.9066 7.88395 28.8084 7.95952 28.8008 8.05775C28.7706 8.28445 28.7253 8.57916 28.491 8.66984C28.4079 8.70007 28.0301 8.88143 27.7127 8.957C27.3953 9.03256 26.7152 9.04768 26.7152 9.04768C26.3071 9.19125 25.7404 9.70511 25.151 10.1358C24.5615 10.5666 24.3197 10.9595 23.5867 11.1409C23.3903 11.1862 23.1182 11.3222 23.1182 11.3222C22.3021 11.8965 21.894 11.957 21.4255 12.0779C20.957 12.1988 20.8361 12.7353 20.8361 12.7353C20.8361 12.7353 20.9343 13.3625 20.5489 14.2316C20.5489 14.2316 20.1636 15.8033 20.0426 16.3399C19.9217 16.8688 19.9217 17.5036 20.0426 18.1535C20.0426 18.1535 20.2467 18.6069 20.3147 19.0905C20.685 21.9923 20.0578 24.3197 19.952 24.6749C19.8462 25.03 19.8537 25.9293 19.8537 25.9293C19.9595 26.3978 19.7102 26.9646 19.7102 26.9646C19.7253 27.7882 19.491 28.5439 19.2945 28.952C19.0981 29.36 18.5313 30.7504 18.4406 31.1132C18.35 31.4759 18.4406 31.9368 18.5615 32.3147C18.6749 32.7001 18.6522 32.8965 18.6522 33.0552C18.6522 33.2139 18.5162 33.2744 18.5162 33.2744L18.5086 33.4255C18.4709 33.6295 18.2819 33.554 18.2819 33.554C18.229 33.8185 18.0326 33.7278 18.0326 33.7278C17.957 33.8638 17.7454 33.7656 17.7454 33.7656C17.5641 33.9847 17.4583 33.7656 17.4583 33.7656C17.2996 33.8714 17.1787 33.6673 17.1787 33.6673C16.952 33.6749 16.9444 33.4935 16.9444 33.4935C16.8008 33.4708 16.695 33.2593 16.7328 33.0477C16.7706 32.8436 16.8008 31.4003 16.7328 31.0829C16.6648 30.758 16.7631 30.6522 16.8462 30.5086C16.9293 30.3651 16.952 30.2139 16.9369 29.957C16.9217 29.7001 16.695 28.0603 16.7631 27.3802C16.8386 26.7001 17.1182 26.3827 17.1862 26.0955C17.2542 25.8084 17.2618 25.0678 16.7933 23.8512C16.0754 21.9696 16.1283 20.4885 16.1283 20.4885C16.1283 20.4885 16.1887 19.559 16.4608 18.3802Z" fill="#2F89B3"/>
<path d="M8.52637 7.67273C8.73795 7.77852 9.00244 7.80119 9.19135 7.98255C9.34249 8.16391 9.51629 8.28482 9.73543 8.38306C10.1662 8.59464 10.5818 8.8289 11.005 9.02537C11.4206 9.20673 11.8966 9.35031 12.3274 9.55434C12.5465 9.65258 12.7657 9.74326 12.9848 9.87172C13.0453 9.90951 13.0906 9.93217 13.1586 10.0077C13.1964 10.0531 13.2266 10.0909 13.2644 10.1286C13.34 10.2042 13.4382 10.2798 13.5289 10.3402L13.4911 10.3251C13.7556 10.378 14.0201 10.4385 14.2543 10.5594C14.5037 10.6652 14.7002 10.8616 14.9571 10.8843C14.6851 10.907 14.4508 10.7332 14.2014 10.6727C13.9596 10.5972 13.7102 10.5443 13.4533 10.5292H13.4382L13.4155 10.514C13.3022 10.4536 13.2039 10.3856 13.0982 10.3025C13.0528 10.2647 12.9924 10.2118 12.9546 10.1664C12.9395 10.1513 12.8866 10.1135 12.8412 10.0909C12.6448 9.98507 12.4181 9.89439 12.2065 9.81127C11.7606 9.63746 11.3223 9.48633 10.8765 9.27474C10.4382 9.06316 10.0301 8.81379 9.62964 8.55686C9.42561 8.44351 9.19891 8.26971 9.08556 8.05812C8.97221 7.87676 8.71528 7.80875 8.52637 7.67273Z" fill="white"/>
<path d="M19.4609 11.2771C19.6574 11.0126 19.9219 10.7859 20.2242 10.6272C20.5264 10.461 20.8816 10.4156 21.2065 10.3627L22.1738 10.1965C22.4836 10.1209 22.7934 9.99245 23.0881 9.86399L23.0504 9.88666C23.3904 9.58439 23.7758 9.33502 24.1914 9.16121C24.607 8.97985 25.0302 8.85895 25.4458 8.72293C25.8766 8.62469 26.2015 8.39799 26.5189 8.07305C26.6927 7.92192 26.8967 7.81613 27.1008 7.733C27.2972 7.64988 27.5088 7.54409 27.728 7.53653C27.5088 7.57431 27.3275 7.70278 27.1385 7.80857C26.9496 7.91436 26.7758 8.04283 26.6247 8.19396C26.3602 8.52645 25.9521 8.83628 25.529 8.96474C24.6902 9.23678 23.8892 9.54661 23.2393 10.0982L23.2242 10.1134L23.2091 10.1209C22.8917 10.2494 22.5819 10.3627 22.2418 10.4458C21.8866 10.5139 21.5768 10.5214 21.2368 10.5592C20.9043 10.5894 20.5869 10.6121 20.2771 10.733C19.9672 10.8539 19.6876 11.0353 19.4609 11.2771Z" fill="white"/>
<path d="M16.1739 20.0505C16.2268 19.8087 16.1966 19.7633 16.1966 19.7633L15.5845 19.2797C15.6827 19.378 15.6827 19.4989 15.8036 19.6802C15.8263 19.7256 15.9699 19.8616 16.1739 20.0505Z" fill="#E6E7E8"/>
<path d="M17.1335 10.5442C17.1335 10.5442 17.262 10.3855 17.5038 10.5064C17.7456 10.6197 17.9118 10.786 17.9647 10.8766C18.0176 10.9673 18.1159 11.0807 18.1159 11.1789C18.1159 11.2772 18.0856 11.6172 18.0403 11.7079C17.995 11.8061 17.9874 11.7986 17.8892 11.8061C17.7909 11.8137 17.7154 11.7683 17.5869 11.7532C17.466 11.7306 17.3602 11.7306 17.33 11.7835C17.2922 11.8288 17.1788 11.8968 17.0957 11.9195C17.0126 11.9421 16.9597 12.063 16.9597 12.063C16.9597 12.063 16.8841 12.0555 16.8539 11.995C16.8161 11.9346 16.7632 11.7608 16.665 11.7003C16.5592 11.6399 16.2569 11.3829 16.204 11.2696C16.1587 11.1562 16.0831 10.99 16.1813 10.9295C16.2871 10.8691 16.4383 10.8691 16.597 10.8086C16.7557 10.7406 16.8766 10.7331 17.1335 10.5442Z" fill="#2F89B3"/>
<path d="M17.6851 12.0481C17.6246 12.101 17.5642 12.1236 17.4357 12.169C17.3148 12.2143 17.1334 12.1312 17.1334 12.1312C17.209 12.0178 17.3979 11.9725 17.4584 11.9347C17.5188 11.8969 17.602 11.9045 17.6775 11.912C17.7606 11.9196 17.7455 11.9952 17.6851 12.0481ZM18.0402 11.708C17.9949 11.8063 17.9873 11.7987 17.8891 11.8063C17.7909 11.8138 17.7153 11.7685 17.5868 11.7534C17.4659 11.7307 17.3601 11.7307 17.3299 11.7836C17.2921 11.8289 17.1788 11.8969 17.0957 11.9196C17.0125 11.9423 16.9596 12.0632 16.9596 12.0632C16.9596 12.0632 16.8841 12.0556 16.8538 11.9952C16.8236 11.9347 16.7632 11.7609 16.6649 11.7005C16.5591 11.64 16.2569 11.3831 16.204 11.2697C16.1586 11.1564 16.0831 10.9901 16.1813 10.9297C16.2871 10.8692 16.4382 10.8692 16.5969 10.8088C16.7556 10.7483 16.869 10.7408 17.1259 10.5594C17.1259 10.5594 17.2543 10.4007 17.4962 10.5216C17.738 10.635 17.9042 10.8012 17.9571 10.8919C18.01 10.9826 18.1082 11.0959 18.1082 11.1942C18.1158 11.2697 18.0931 11.6098 18.0402 11.708ZM19.6725 13.1211C19.6725 13.1211 20.4886 11.5191 19.5516 11.1715C18.6145 10.8239 18.5314 10.0531 18.0025 9.38056C17.4659 8.70802 16.0906 8.59467 15.7506 9.38056C15.403 10.1665 15.4407 10.3705 15.8715 11.0808C16.3022 11.7911 16.4911 11.9347 16.3551 12.3277C16.2191 12.7282 16.2191 13.5065 16.6347 13.8088C16.8312 12.97 16.8085 12.645 17.2543 12.7962C17.7002 12.9473 17.874 13.2269 18.1158 12.4335C18.3576 11.64 18.3274 11.5493 18.539 12.033C18.7506 12.5166 19.4533 12.305 19.6725 13.1211Z" fill="#216484"/>
<path d="M20.315 19.1134C20.519 20.2469 20.5643 21.4106 20.4661 22.5668C20.4132 23.1411 20.3301 23.7154 20.2016 24.2822C20.1412 24.5769 20.0429 24.8338 20.0354 25.1058C20.0127 25.3854 19.9976 25.6726 19.9976 25.9522V25.922C20.0732 26.33 19.9749 26.6927 19.8389 27.0479L19.8465 26.9875C19.8616 27.7431 19.6575 28.4837 19.3251 29.1411C19.0455 29.8061 18.7356 30.4635 18.4409 31.1361C18.6752 30.4484 18.9019 29.7532 19.1588 29.0655C19.446 28.4081 19.5895 27.6978 19.5744 26.995V26.9648L19.5895 26.9346C19.7029 26.6323 19.786 26.2771 19.718 25.9824V25.9673V25.9522C19.718 25.6575 19.718 25.3703 19.7482 25.0756C19.7709 24.7658 19.8842 24.4786 19.9371 24.2142C20.0732 23.6625 20.1638 23.0958 20.2319 22.5366C20.3679 21.4031 20.3905 20.262 20.315 19.1134Z" fill="#216484"/>
<path d="M20.1033 23.4132C20.1033 23.4132 21.0252 21.0781 20.8288 19.1134C20.6323 17.1487 20.5114 17.3225 19.7481 17.5794C18.9849 17.8363 16.3552 18.3502 15.5769 18.2444C14.7985 18.1386 14.9874 18.8716 15.5769 19.461C16.1663 20.0504 18.3199 21.0933 18.4408 21.9547C18.5617 22.8162 20.1033 23.4132 20.1033 23.4132Z" fill="#E6E7E8"/>
<path d="M16.7328 33.0782C16.7554 32.5416 16.7328 32.0051 16.695 31.4761C16.6874 31.3401 16.6799 31.2117 16.6496 31.0908C16.6194 30.9547 16.6118 30.7885 16.6874 30.6449C16.8537 30.3955 16.8612 30.2066 16.8234 29.9346C16.7479 29.4056 16.6874 28.8691 16.6421 28.3326C16.5967 27.8036 16.5741 27.2217 16.7857 26.6852C16.8839 26.4207 17.0501 26.194 17.0653 25.9749C17.0955 25.7331 17.0728 25.4686 17.035 25.2117C16.9595 24.6903 16.7781 24.1991 16.6118 23.6928C16.2718 22.6651 16.0904 21.5845 16.1358 20.5114C16.1962 21.5769 16.4532 22.6273 16.8234 23.6172C17.0275 24.1084 17.2088 24.6298 17.2995 25.1739C17.3449 25.4459 17.3751 25.718 17.3449 26.0127C17.3146 26.3376 17.1408 26.5643 17.0577 26.7986C16.8612 27.2671 16.8688 27.7885 16.9066 28.3175C16.9368 28.8464 17.0048 29.3754 17.0426 29.9119C17.0501 30.0555 17.0577 30.1915 17.0275 30.3426C17.0048 30.4938 16.899 30.6374 16.8461 30.728C16.7328 30.9094 16.8537 31.2041 16.831 31.4761C16.8234 32.0127 16.8008 32.5492 16.7328 33.0782Z" fill="#216484"/>
</svg>
