<svg width="512" height="512" viewBox="0 0 512 512" fill="none" xmlns="http://www.w3.org/2000/svg">
<path d="M284.388 209.768C284.388 208.856 284.489 207.842 284.388 206.929C284.185 202.671 286.213 199.122 289.356 196.892C279.522 181.684 271.309 158.467 271.309 158.467H239.778C239.778 158.467 227.409 194.459 214.938 205.916L254.884 218.589V219.197L255.898 218.893L256.912 219.197V218.589L284.388 209.768Z" fill="#F9B54C"/>
<path d="M288.038 310.647L305.476 281.853L294.83 204.09L255.492 207.436L219.094 203.786L217.066 203.989C217.066 203.989 200.033 239.069 198.715 242.414C197.498 245.456 209.563 297.872 211.692 310.545H288.036V310.647H288.038Z" fill="#E6E9EE"/>
<path d="M261.982 229.031H249.106L240.488 207.436H270.6L261.982 229.031Z" fill="#F1543F"/>
<path d="M261.982 229.031H249.106L240.488 284.49L255.493 304.361L270.6 284.49L261.982 229.031Z" fill="#FF7058"/>
<path d="M284.895 189.085C284.895 189.085 307.099 207.943 274.047 228.626L255.493 207.74L284.895 189.085Z" fill="white"/>
<path d="M226.091 189.085C226.091 189.085 203.887 207.943 236.939 228.626L255.493 207.74L226.091 189.085Z" fill="white"/>
<path d="M177.223 310.647C177.324 310.444 177.324 310.14 177.426 309.836C179.961 299.495 181.786 293.31 181.786 293.31L158.771 240.792C158.67 240.691 158.67 240.488 158.568 240.386L151.065 223.252C150.964 223.151 150.964 223.049 150.964 223.049C138.189 251.437 130.89 281.447 127.037 310.647H177.223Z" fill="#324A5E"/>
<path d="M158.669 240.285C158.669 240.386 158.77 240.589 158.872 240.691C164.55 255.392 172.154 278.914 177.527 309.735C177.527 309.938 177.628 310.242 177.628 310.546H240.69L236.128 304.463L212.809 234L217.27 203.99L222.542 193.446L222.441 193.547C221.63 194.459 213.113 202.875 197.804 210.478C186.145 216.358 170.531 221.63 151.166 222.949C151.166 222.949 151.166 223.05 151.267 223.152C151.674 224.266 154.715 230.147 158.669 240.285Z" fill="#2B3B4E"/>
<path d="M234.303 310.647H247.585C215.243 241.299 222.543 193.546 222.543 193.546L196.994 211.187L212.81 214.229L196.994 220.819C208.247 263.503 222.036 291.891 234.303 310.647Z" fill="#324A5E"/>
<path d="M334.777 310.647H384.963C381.11 281.448 373.709 251.438 361.036 223.049C361.036 223.049 361.036 223.15 360.935 223.252L353.534 240.183C353.433 240.284 353.433 240.284 353.433 240.386L330.216 293.31C330.216 293.31 332.041 299.596 334.576 309.937C334.574 310.14 334.676 310.343 334.777 310.647Z" fill="#2B3B4E"/>
<path d="M275.973 304.463L271.411 310.546H334.473C334.473 310.343 334.574 310.039 334.574 309.836C339.947 278.609 347.653 254.986 353.432 240.285C353.432 240.184 353.432 240.184 353.533 240.082C357.386 230.045 360.326 224.266 360.934 223.151C361.035 223.05 361.035 222.948 361.035 222.948C341.67 221.63 325.955 216.257 314.296 210.376C298.987 202.772 290.572 194.357 289.761 193.445L289.66 193.344L294.932 203.888L299.292 233.898L299.089 234.506L275.973 304.463Z" fill="#324A5E"/>
<path d="M264.516 310.647H277.798C289.964 291.992 303.753 263.502 315.209 220.819L299.393 214.229L315.209 211.187L289.66 193.546C289.559 193.445 296.859 241.299 264.516 310.647Z" fill="#2B3B4E"/>
<path d="M304.665 124.502C304.057 132.106 301.319 138.291 298.48 138.291C295.641 138.291 294.019 132.106 294.627 124.502C295.235 116.898 297.973 110.713 300.812 110.713C303.651 110.612 305.375 116.797 304.665 124.502Z" fill="#F9B54C"/>
<path d="M207.335 124.502C207.943 132.106 210.681 138.291 213.52 138.291C216.257 138.291 217.981 132.106 217.373 124.502C216.765 116.898 214.027 110.713 211.188 110.713C208.349 110.714 206.625 116.797 207.335 124.502Z" fill="#F9B54C"/>
<path d="M290.066 81.109C287.531 75.533 281.752 71.984 275.365 71.984H256.304H237.243C230.856 71.984 225.077 75.533 222.542 81.109C216.357 94.593 215.141 118.014 215.039 133.83C215.039 144.374 219.094 154.513 226.496 162.32L232.478 168.606C237.953 174.486 245.05 178.745 252.958 180.975L256.304 181.887L259.65 180.975C267.558 178.745 274.655 174.486 280.13 168.606L286.112 162.32C293.513 154.513 297.569 144.273 297.569 133.83C297.467 118.013 296.25 94.593 290.066 81.109Z" fill="#FFD05B"/>
<path d="M302.333 67.929C301.623 65.699 300.711 63.569 300.102 61.238C299.696 59.717 299.392 58.196 298.581 56.777C296.959 53.837 293.41 52.316 290.065 52.62C286.719 52.924 283.678 54.85 281.447 57.284C281.954 54.141 282.055 50.694 280.535 47.855C278.811 44.611 275.162 42.887 271.613 42.279C268.064 41.569 264.415 41.873 260.765 41.468C256.811 41.062 252.857 40.049 248.801 40.454C245.455 40.758 242.515 42.583 239.271 43.394C205.408 51.201 208.044 91.35 208.551 102.097C208.652 104.936 208.855 107.876 209.768 110.512C210.985 114.061 213.215 117.001 215.648 119.84C216.256 117.914 216.155 115.785 216.662 113.757C217.372 110.817 217.676 107.775 218.386 104.835C219.096 101.996 222.441 87.092 223.759 84.152C225.584 80.097 228.828 76.447 233.087 75.331C241.198 73.202 249.309 80.502 257.622 79.184C259.143 78.88 260.664 78.373 262.184 77.866C263.908 77.258 265.631 76.751 267.355 76.244C271.309 75.129 275.466 74.318 279.319 75.433C283.577 76.65 287.024 80.097 289.153 84.051C291.282 88.005 292.397 92.466 293.31 96.927C293.918 99.563 294.425 102.199 294.121 104.937C294.121 105.14 294.121 105.343 294.02 105.545C294.223 107.674 293.919 109.905 294.324 112.034C294.628 113.656 295.135 115.278 295.439 117.002C295.54 117.712 295.743 118.523 295.946 119.232C298.785 113.96 300.914 108.181 301.928 102.199C302.84 97.332 303.043 92.466 303.246 87.599C303.854 80.805 304.158 74.113 302.333 67.929Z" fill="#11110F"/>
<path d="M132.722 278.528C132.642 277.871 130.845 262.203 137.787 244.005C144.198 227.201 159.61 205.146 196.637 195.506L197.148 197.469C161.001 206.881 145.963 228.32 139.713 244.648C132.922 262.389 134.717 278.13 134.735 278.286L132.722 278.528Z" fill="#E6E9EE"/>
<path d="M412.236 266.747L391.857 472.966C352.52 497.705 305.882 512 256 512C206.118 512 159.582 497.705 120.143 473.068L99.663 266.849H412.236V266.747Z" fill="#FFD05B"/>
<path d="M195.777 209.058C204.848 209.058 212.202 203.384 212.202 196.385C212.202 189.386 204.848 183.712 195.777 183.712C186.706 183.712 179.352 189.386 179.352 196.385C179.352 203.384 186.706 209.058 195.777 209.058Z" fill="#54C0EB"/>
<path d="M321.698 290.978C322.104 314.702 327.173 338.629 337.413 358.096C352.317 340.556 344.105 302.739 321.698 290.978Z" fill="white"/>
<path d="M333.763 388.816C349.376 395.305 373.202 374.014 370.769 338.934C353.736 341.164 342.482 364.686 333.763 388.816Z" fill="white"/>
<path d="M313.892 425.416C326.464 436.568 355.967 423.895 365.498 390.742C348.566 387.396 330.113 405.342 313.892 425.416Z" fill="white"/>
<path d="M282.36 454.007C290.369 468.708 323.117 465.869 343.192 437.582C328.288 428.863 305.071 440.016 282.36 454.007Z" fill="white"/>
<path d="M328.998 387.295C337.514 361.746 320.786 341.164 303.956 343.699C305.679 362.05 312.979 381.009 328.998 387.295Z" fill="white"/>
<path d="M309.937 422.476C326.564 400.982 317.642 376.548 300.914 373.506C296.352 390.945 296.96 411.425 309.937 422.476Z" fill="white"/>
<path d="M288.038 400.475C278.001 415.48 271.208 435.25 279.623 449.85C303.145 434.744 302.739 408.688 288.038 400.475Z" fill="white"/>
<path d="M271.411 457.353C266.646 458.164 261.475 459.178 256 460.192C250.525 459.178 245.354 458.164 240.589 457.353C242.11 458.975 243.935 460.496 245.962 462.017C241.704 462.727 237.344 463.436 232.782 464.146C233.39 467.897 234.1 471.649 234.708 475.298C242.515 473.879 249.815 471.445 255.999 468.302C262.285 471.445 269.483 473.878 277.29 475.298C277.898 471.547 278.608 467.795 279.216 464.146C274.654 463.538 270.294 462.828 266.036 462.017C268.065 460.496 269.89 458.975 271.411 457.353Z" fill="white"/>
<path d="M190.302 290.978C167.896 302.739 159.683 340.556 174.587 358.096C184.827 338.63 189.896 314.703 190.302 290.978Z" fill="white"/>
<path d="M178.237 388.816C169.518 364.787 158.264 341.266 141.231 338.934C138.798 374.013 162.725 395.203 178.237 388.816Z" fill="white"/>
<path d="M198.109 425.416C181.887 405.342 163.435 387.295 146.503 390.742C156.033 423.895 185.537 436.569 198.109 425.416Z" fill="white"/>
<path d="M168.808 437.481C188.882 465.768 221.63 468.607 229.64 453.906C206.929 440.016 183.712 428.863 168.808 437.481Z" fill="white"/>
<path d="M183.002 387.295C199.021 381.009 206.321 362.05 208.044 343.699C191.214 341.063 174.486 361.746 183.002 387.295Z" fill="white"/>
<path d="M202.063 422.476C215.04 411.425 215.649 390.945 211.086 373.506C194.357 376.548 185.537 400.982 202.063 422.476Z" fill="white"/>
<path d="M223.962 400.475C209.261 408.687 208.855 434.744 232.377 449.85C240.792 435.251 233.999 415.48 223.962 400.475Z" fill="white"/>
</svg>
