<svg width="37" height="36" viewBox="0 0 37 36" fill="none" xmlns="http://www.w3.org/2000/svg">
<path d="M5.5625 26.8774V32.6244C5.56249 32.9863 5.89877 33.2541 6.25134 33.1726L18.5 30.3897L30.7498 33.1726C31.1023 33.254 31.4397 32.9864 31.4397 32.6244V26.8774L18.5011 29.2417L5.5625 26.8774Z" fill="#24A993"/>
<path d="M1.6261 6.75153V24.9069C1.6261 26.0314 2.21861 26.5475 3.13782 26.7609L18.3726 30.2985C18.4557 30.3177 18.5421 30.3177 18.6252 30.2985L33.8644 26.7609C35.0815 26.4784 35.3761 25.7628 35.3761 24.8658V6.75153C35.3767 6.38756 35.0369 6.11875 34.6829 6.2033L18.5011 10.0101L2.31494 6.2033C1.91304 6.10869 1.6261 6.42472 1.6261 6.75153Z" fill="#2EBEA6"/>
<path d="M5.5625 2.81067C4.63735 2.81067 3.8761 3.57519 3.8761 4.50034V22.5004C3.8761 23.4255 4.63736 24.1868 5.5625 24.1868H16.25C17.1946 24.1868 17.9364 24.9275 17.9364 25.8721C17.9526 26.6057 19.0452 26.6057 19.0614 25.8721C19.0614 24.9275 19.8065 24.1868 20.7511 24.1868H31.4397C32.3648 24.1868 33.125 23.4255 33.125 22.5004V4.50034C33.125 3.57519 32.3648 2.81067 31.4397 2.81067H20.7511C19.9779 2.81065 19.1385 3.07396 18.4967 3.93679C17.8672 3.08716 16.9915 2.81065 16.25 2.81067H5.5625Z" fill="#FFDA7A"/>
<path d="M19.0614 3.36218C18.8623 3.51504 18.6717 3.70154 18.4967 3.93682C18.3257 3.70603 18.1361 3.52096 17.9364 3.3688V25.8721C17.9526 26.6057 19.0452 26.6057 19.0614 25.8721V3.36218Z" fill="#EA9B26"/>
<path d="M7.24805 7.29068H12.3346C13.0848 7.29068 13.0848 6.16541 12.3346 6.16541H7.22106C6.44419 6.20176 6.49817 7.32693 7.24804 7.29068H7.24805Z" fill="#FEB546"/>
<path d="M7.24813 10.6623H15.7105C16.5237 10.731 16.5237 9.47264 15.7105 9.54129H7.22114C6.49904 9.62314 6.54837 10.6476 7.24812 10.6623H7.24813Z" fill="#FEB546"/>
<path d="M15.698 6.16542L14.552 6.18664C14.4781 6.188 14.4052 6.20395 14.3374 6.23348C14.2697 6.26302 14.2084 6.30555 14.1571 6.35876C14.1058 6.41198 14.0655 6.47482 14.0385 6.54361C14.0115 6.6124 13.9983 6.68583 13.9997 6.75972C14.001 6.83362 14.0169 6.90654 14.0465 6.97428C14.076 7.04202 14.1186 7.10324 14.1719 7.15452C14.2251 7.2058 14.2879 7.24611 14.3567 7.27312C14.4255 7.30012 14.4989 7.31329 14.5728 7.31192L15.723 7.2907C15.7969 7.28906 15.8697 7.27287 15.9374 7.24308C16.005 7.21329 16.0661 7.17048 16.1172 7.11708C16.1683 7.06368 16.2083 7.00074 16.2351 6.93185C16.2619 6.86296 16.2748 6.78949 16.2732 6.7156C16.2715 6.64172 16.2554 6.56888 16.2256 6.50124C16.1958 6.4336 16.153 6.37248 16.0996 6.32139C16.0462 6.2703 15.9832 6.2302 15.9143 6.20344C15.8454 6.17668 15.772 6.16379 15.6981 6.16542H15.698Z" fill="#FEB546"/>
<path d="M10.6239 12.913C10.5498 12.9126 10.4763 12.9268 10.4077 12.9549C10.3391 12.9831 10.2768 13.0244 10.2242 13.0767C10.1717 13.129 10.13 13.1912 10.1015 13.2596C10.0731 13.3281 10.0584 13.4015 10.0584 13.4756C10.0584 13.5497 10.0731 13.6231 10.1015 13.6916C10.13 13.76 10.1717 13.8221 10.2242 13.8744C10.2768 13.9267 10.3391 13.9681 10.4077 13.9962C10.4763 14.0243 10.5498 14.0386 10.6239 14.0382H15.7105C15.7847 14.0386 15.8581 14.0243 15.9267 13.9962C15.9953 13.9681 16.0577 13.9267 16.1102 13.8744C16.1628 13.8221 16.2045 13.76 16.2329 13.6916C16.2614 13.6231 16.2761 13.5497 16.2761 13.4756C16.2761 13.4015 16.2614 13.3281 16.2329 13.2596C16.2045 13.1912 16.1628 13.129 16.1102 13.0767C16.0577 13.0244 15.9953 12.9831 15.9267 12.9549C15.8581 12.9268 15.7847 12.9126 15.7105 12.913H10.6239Z" fill="#FEB546"/>
<path d="M7.24803 16.2888C7.1739 16.2884 7.10042 16.3027 7.03183 16.3308C6.96323 16.3589 6.90087 16.4003 6.84831 16.4526C6.79576 16.5049 6.75406 16.567 6.7256 16.6355C6.69714 16.7039 6.6825 16.7773 6.6825 16.8515C6.6825 16.9256 6.69714 16.9989 6.7256 17.0674C6.75406 17.1358 6.79576 17.198 6.84831 17.2503C6.90087 17.3026 6.96323 17.3439 7.03183 17.3721C7.10042 17.4002 7.1739 17.4144 7.24803 17.414H15.7104C15.7846 17.4144 15.858 17.4002 15.9266 17.3721C15.9952 17.3439 16.0576 17.3026 16.1102 17.2503C16.1627 17.198 16.2044 17.1358 16.2329 17.0674C16.2613 16.9989 16.276 16.9256 16.276 16.8515C16.276 16.7773 16.2613 16.7039 16.2329 16.6355C16.2044 16.567 16.1627 16.5049 16.1102 16.4526C16.0576 16.4003 15.9952 16.3589 15.9266 16.3308C15.858 16.3027 15.7846 16.2884 15.7104 16.2888H7.24803Z" fill="#FEB546"/>
<path d="M7.26049 12.913C7.18637 12.9112 7.11263 12.9241 7.04351 12.951C6.9744 12.9778 6.91127 13.0181 6.85775 13.0694C6.80423 13.1207 6.76137 13.1821 6.73165 13.25C6.70193 13.3179 6.68592 13.391 6.68454 13.4651C6.68317 13.5393 6.69646 13.6129 6.72365 13.6819C6.75084 13.7509 6.79139 13.8138 6.84298 13.8671C6.89456 13.9203 6.95616 13.9628 7.02423 13.9922C7.09231 14.0216 7.16552 14.0372 7.23965 14.0382L8.38569 14.0631C8.45958 14.0645 8.53302 14.0513 8.60182 14.0243C8.67061 13.9973 8.73341 13.957 8.78663 13.9057C8.83985 13.8544 8.88245 13.7932 8.912 13.7254C8.94154 13.6577 8.95745 13.5848 8.95882 13.5109C8.96019 13.437 8.94699 13.3635 8.91997 13.2948C8.89296 13.226 8.85265 13.1632 8.80137 13.11C8.75008 13.0568 8.68881 13.0142 8.62107 12.9846C8.55332 12.9551 8.48042 12.9392 8.40653 12.9378L7.26049 12.913Z" fill="#FEB546"/>
<path d="M7.24805 20.7898H12.3346C13.0848 20.7898 13.0848 19.6646 12.3346 19.6646H7.22106C6.44419 19.7009 6.49817 20.8261 7.24804 20.7898H7.24805Z" fill="#FEB546"/>
<path d="M15.698 19.6646L14.552 19.6858C14.4781 19.6871 14.4052 19.7031 14.3374 19.7326C14.2697 19.7622 14.2084 19.8047 14.1571 19.8579C14.1058 19.9111 14.0655 19.974 14.0385 20.0427C14.0115 20.1115 13.9983 20.185 13.9997 20.2589C14.001 20.3328 14.0169 20.4057 14.0465 20.4734C14.076 20.5412 14.1186 20.6024 14.1719 20.6537C14.2251 20.7049 14.2879 20.7452 14.3567 20.7723C14.4255 20.7993 14.4989 20.8124 14.5728 20.811L15.723 20.7898C15.7969 20.7882 15.8697 20.772 15.9374 20.7422C16.005 20.7124 16.0661 20.6696 16.1172 20.6162C16.1683 20.5628 16.2083 20.4999 16.2351 20.431C16.2618 20.3621 16.2748 20.2886 16.2731 20.2147C16.2715 20.1408 16.2553 20.068 16.2255 20.0003C16.1957 19.9327 16.1529 19.8716 16.0995 19.8205C16.0461 19.7695 15.9832 19.7293 15.9143 19.7026C15.8454 19.6758 15.7719 19.6629 15.698 19.6646H15.698Z" fill="#FEB546"/>
<path d="M24.667 6.18629C24.5928 6.18591 24.5194 6.20016 24.4508 6.22826C24.3822 6.25637 24.3198 6.29776 24.2673 6.35004C24.2147 6.40233 24.173 6.46449 24.1445 6.53294C24.1161 6.60139 24.1014 6.67479 24.1014 6.74892C24.1014 6.82305 24.1161 6.89646 24.1445 6.96491C24.173 7.03336 24.2147 7.09546 24.2673 7.14774C24.3198 7.20002 24.3822 7.24141 24.4508 7.26952C24.5194 7.29762 24.5928 7.31194 24.667 7.31156H29.7494C29.8235 7.31194 29.897 7.29762 29.9656 7.26952C30.0342 7.24141 30.0966 7.20002 30.1491 7.14774C30.2017 7.09546 30.2434 7.03336 30.2718 6.96491C30.3003 6.89646 30.3149 6.82305 30.3149 6.74892C30.3149 6.67479 30.3003 6.60139 30.2718 6.53294C30.2434 6.46449 30.2017 6.40233 30.1491 6.35004C30.0966 6.29776 30.0342 6.25637 29.9656 6.22826C29.897 6.20016 29.8235 6.18591 29.7494 6.18629H24.667Z" fill="#FEB546"/>
<path d="M21.2912 10.6873H29.7495C30.4997 10.6873 30.4997 9.56201 29.7495 9.56201H21.2621C20.4836 9.60134 20.5417 10.7267 21.2912 10.6873H21.2912Z" fill="#FEB546"/>
<path d="M21.2787 7.31153L22.4247 7.33274C23.234 7.41672 23.2618 6.16361 22.4496 6.21162L21.2724 6.18677C20.4953 6.20888 20.5285 7.3342 21.2786 7.31205L21.2787 7.31153Z" fill="#FEB546"/>
<path d="M21.2912 14.0631H26.3736C27.1238 14.0631 27.1238 12.9379 26.3736 12.9379H21.2621C20.4836 12.9772 20.5417 14.1025 21.2912 14.0631H21.2912Z" fill="#FEB546"/>
<path d="M21.2912 17.4348H29.7494C30.5626 17.5034 30.5626 16.245 29.7494 16.3136H21.2621C20.5361 16.3963 20.5894 17.4245 21.2912 17.4348H21.2912Z" fill="#FEB546"/>
<path d="M29.737 12.9378L28.591 12.959C28.5169 12.9601 28.4437 12.9757 28.3756 13.0051C28.3076 13.0345 28.246 13.077 28.1944 13.1303C28.1429 13.1835 28.1023 13.2465 28.0751 13.3154C28.048 13.3844 28.0347 13.4581 28.036 13.5322C28.0374 13.6063 28.0534 13.6794 28.0831 13.7473C28.1128 13.8152 28.1557 13.8766 28.2092 13.9279C28.2627 13.9792 28.3258 14.0195 28.3949 14.0463C28.464 14.0731 28.5377 14.0861 28.6118 14.0843L29.762 14.0631C29.8359 14.0615 29.9088 14.0453 29.9764 14.0155C30.044 13.9857 30.1052 13.9429 30.1562 13.8895C30.2073 13.8361 30.2474 13.7731 30.2742 13.7043C30.3009 13.6354 30.3139 13.5618 30.3122 13.4879C30.3106 13.4141 30.2944 13.3412 30.2646 13.2736C30.2349 13.2059 30.192 13.1448 30.1386 13.0937C30.0852 13.0426 30.0223 13.0026 29.9534 12.9758C29.8845 12.9491 29.811 12.9361 29.7371 12.9378L29.737 12.9378Z" fill="#FEB546"/>
<path d="M24.667 19.6853C24.5931 19.6853 24.52 19.6999 24.4517 19.7282C24.3834 19.7565 24.3214 19.7979 24.2692 19.8501C24.2169 19.9023 24.1755 19.9644 24.1472 20.0327C24.1189 20.1009 24.1044 20.1741 24.1044 20.248C24.1044 20.3219 24.1189 20.395 24.1472 20.4633C24.1755 20.5315 24.2169 20.5936 24.2692 20.6459C24.3214 20.6981 24.3834 20.7395 24.4517 20.7678C24.52 20.796 24.5931 20.8107 24.667 20.8107H29.7495C29.8233 20.8107 29.8965 20.796 29.9648 20.7678C30.033 20.7395 30.0951 20.6981 30.1473 20.6459C30.1995 20.5936 30.241 20.5315 30.2693 20.4633C30.2975 20.395 30.3121 20.3219 30.3121 20.248C30.3121 20.1741 30.2975 20.1009 30.2693 20.0327C30.241 19.9644 30.1995 19.9023 30.1473 19.8501C30.0951 19.7979 30.033 19.7565 29.9648 19.7282C29.8965 19.6999 29.8233 19.6853 29.7495 19.6853H24.667Z" fill="#FEB546"/>
<path d="M21.2995 19.6853C21.2256 19.6839 21.1521 19.6971 21.0834 19.7241C21.0146 19.7511 20.9518 19.7915 20.8985 19.8427C20.8453 19.894 20.8027 19.9552 20.7732 20.023C20.7436 20.0907 20.7277 20.1636 20.7264 20.2375C20.725 20.3114 20.7382 20.3849 20.7652 20.4537C20.7922 20.5224 20.8325 20.5852 20.8838 20.6384C20.9351 20.6916 20.9964 20.7342 21.0641 20.7638C21.1319 20.7933 21.2048 20.8093 21.2786 20.8106L22.4247 20.8355C22.4988 20.8375 22.5726 20.8249 22.6418 20.7983C22.711 20.7717 22.7743 20.7317 22.828 20.6805C22.8818 20.6294 22.9248 20.5682 22.9548 20.5004C22.9848 20.4325 23.0011 20.3595 23.0027 20.2854C23.0043 20.2112 22.9913 20.1375 22.9644 20.0684C22.9374 19.9993 22.8971 19.9363 22.8457 19.8828C22.7943 19.8294 22.7329 19.7866 22.6649 19.757C22.5969 19.7273 22.5237 19.7114 22.4496 19.7102L21.2995 19.6853Z" fill="#FEB546"/>
</svg>
