<svg width="37" height="36" viewBox="0 0 37 36" fill="none" xmlns="http://www.w3.org/2000/svg">
<g clip-path="url(#clip0)">
<path d="M24.7544 12.7796C24.2521 13.8446 22.9829 14.2988 21.9187 13.7965L16.6021 11.288L21.2826 15.9678C22.1045 16.7897 22.1137 18.117 21.3117 18.9518C20.4837 19.8119 19.0799 19.7913 18.2359 18.9472L13.4866 14.1979L16.4974 20.0513C17.0356 21.0972 16.6235 22.3823 15.5776 22.9198C14.5317 23.4588 13.2465 23.0459 12.7091 22L10.0951 16.9197V20.9756C10.0951 22.1515 9.14176 23.1056 7.96515 23.1056C6.78924 23.1056 5.83433 22.1523 5.83433 20.9756V19.1178C5.83433 16.1941 5.14393 13.3126 3.81826 10.7079L2.58737 8.29037L0.5 6.20301L2.64608 4.05693L6.67063 0.0323832C7.95657 1.31756 8.75863 2.11961 8.75863 2.11961C9.08199 1.79547 9.48495 1.59817 9.90388 1.52631L12.9789 0.998758L18.4339 0.0629692C19.5945 -0.135804 20.6954 0.642485 20.8942 1.80229C21.093 2.96287 20.3139 4.06305 19.1541 4.26182L14.7793 5.01262C16.0676 6.08685 17.4889 6.99508 19.0103 7.7122L23.7375 9.94391C24.801 10.4462 25.2567 11.7154 24.7544 12.7796Z" fill="#FCD0A3"/>
<path d="M13.4117 1.43215L7.76017 4.56907L4.94739 1.75629L6.67068 0.0322266C7.95662 1.3174 8.75867 2.11945 8.75867 2.11945C9.08204 1.79531 9.485 1.59802 9.90392 1.52616L12.9789 0.998602L13.4117 1.43215Z" fill="#FFB983"/>
<path d="M7.96533 23.1053C8.7671 23.1053 8.73096 20.2215 8.62275 18.347C8.57508 17.5209 9.27152 16.8452 10.0957 16.9191V20.9748C10.0952 22.1516 9.14152 23.1053 7.96533 23.1053Z" fill="#FFB983"/>
<path d="M15.5975 22.9091C16.3403 22.4561 14.0094 18.0713 12.7493 15.8255C12.3832 15.1729 12.7545 14.3529 13.4865 14.1975L16.4975 20.0512C17.0319 21.0906 16.6285 22.3652 15.5975 22.9091Z" fill="#FFB983"/>
<path d="M16.6021 11.2881L21.2822 15.9682C22.1012 16.7872 22.1144 18.107 21.3206 18.9408C21.715 18.4423 18.1536 14.8015 16.2981 12.9641C15.7826 12.4537 15.9404 11.5854 16.6021 11.2881Z" fill="#FFB983"/>
<path d="M3.81805 10.7078L2.58716 8.29016L8.75799 2.11933C9.08199 1.79533 9.48446 1.59803 9.90423 1.52652L9.90472 1.52603L18.4343 0.063107C19.5673 -0.131518 20.6431 0.606482 20.8782 1.72115C20.3464 0.428662 6.485 3.14244 3.81805 10.7078Z" fill="#FFB983"/>
<path d="M23.7367 9.94403L19.0104 7.71308C17.4891 6.99456 16.0678 6.08662 14.78 5.01245C14.78 5.01245 14.7569 5.08361 14.7067 5.20567C14.1934 6.45301 13.1342 7.40737 11.8334 7.76427C11.1508 7.95158 10.3273 8.03308 9.34661 7.91347C9.02733 7.87431 8.73757 8.12202 8.73743 8.45481C8.73729 8.73198 8.95828 8.9612 9.23348 8.99425C9.59643 9.03777 9.94075 9.05781 10.2684 9.05781C12.5434 9.05781 13.9805 8.09031 14.7748 7.30176C17.5972 8.57279 24.9987 11.9915 24.7546 12.7798C25.2569 11.7156 24.8009 10.4463 23.7367 9.94403Z" fill="#FFB983"/>
<path d="M18.555 26.5364C18.9267 25.7485 19.8656 25.4125 20.6531 25.7841L24.5867 27.6401L21.1237 24.1777C20.5157 23.5696 20.5089 22.5876 21.1022 21.9699C21.7149 21.3335 22.7534 21.3487 23.3779 21.9732L26.8918 25.4871L24.6642 21.1564C24.2659 20.3826 24.5708 19.4317 25.3447 19.034C26.1185 18.6352 27.0694 18.9407 27.4671 19.7145L29.4011 23.4734V20.4726C29.4011 19.6026 30.1064 18.8966 30.977 18.8966C31.847 18.8966 32.5535 19.602 32.5535 20.4726V21.8471C32.5535 24.0102 33.0643 26.1422 34.0451 28.0694L34.9558 29.858L36.5 31.4022L34.9122 32.99L31.9346 35.9677C30.9831 35.0168 30.3897 34.4234 30.3897 34.4234C30.1505 34.6632 29.8523 34.8092 29.5424 34.8624L27.2673 35.2527L23.2313 35.945C22.3726 36.0921 21.5581 35.5163 21.411 34.6582C21.2639 33.7995 21.8403 32.9855 22.6984 32.8384L25.9351 32.2829C24.9819 31.4882 23.9304 30.8162 22.8047 30.2856L19.3072 28.6344C18.5205 28.2628 18.1833 27.3238 18.555 26.5364Z" fill="#FCD0A3"/>
<path d="M30.9768 18.8967C30.3836 18.8967 30.4103 21.0304 30.4904 22.4172C30.5257 23.0284 30.0103 23.5283 29.4005 23.4736V20.473C29.4009 19.6023 30.1065 18.8967 30.9768 18.8967Z" fill="#FFB983"/>
<path d="M25.33 19.042C24.7805 19.3771 26.505 22.6213 27.4373 24.2829C27.7082 24.7658 27.4333 25.3724 26.8918 25.4874L24.6641 21.1565C24.2687 20.3874 24.5672 19.4444 25.33 19.042Z" fill="#FFB983"/>
<path d="M24.5868 27.6399L21.1241 24.1773C20.5182 23.5714 20.5084 22.5949 21.0957 21.978C20.8039 22.3468 23.4389 25.0406 24.8118 26.4C25.1931 26.7776 25.0763 27.42 24.5868 27.6399Z" fill="#FFB983"/>
<path d="M30.0882 32.8997C27.6215 33.5759 21.6095 35.1719 21.4229 34.7182C21.5968 35.5429 22.3927 36.0889 23.2311 35.9449L27.2674 35.2526L27.2673 35.2528L27.2676 35.2526L29.5418 34.8626L29.5422 34.8622C29.8526 34.8093 30.1502 34.6635 30.3899 34.4238C30.3959 34.4298 30.9879 35.0218 31.9345 35.9678L33.2095 34.6922L31.896 33.3787C31.423 32.9058 30.7331 32.723 30.0882 32.8997Z" fill="#FFB983"/>
<path d="M25.9348 32.283C24.982 31.4882 23.9304 30.8165 22.8049 30.2848L19.3079 28.6343C18.5206 28.2626 18.1832 27.3235 18.5548 26.5361C18.39 27.0681 22.9327 29.2198 25.3166 30.3073C26.0697 30.6508 26.3575 31.5716 25.9348 32.283Z" fill="#FFB983"/>
</g>
<defs>
<clipPath id="clip0">
<rect width="36" height="36" fill="white" transform="translate(0.5)"/>
</clipPath>
</defs>
</svg>
