<svg width="36" height="36" viewBox="0 0 36 36" fill="none" xmlns="http://www.w3.org/2000/svg">
<g clip-path="url(#clip0)">
<path fill-rule="evenodd" clip-rule="evenodd" d="M14.9308 12.6653C14.0171 13.3689 13.1896 14.2167 12.4853 15.2023C9.56541 19.2847 9.5531 24.5749 12.0459 28.5915C12.0459 28.5935 12.0479 28.5956 12.0479 28.5976C12.7913 29.7952 13.7584 30.8796 14.937 31.7849C14.9411 31.787 14.9452 31.7911 14.9493 31.7931C15.0479 31.8713 15.1505 31.9454 15.2532 32.0195C20.6514 35.8981 28.1646 34.6553 32.0352 29.2458C35.5135 24.3835 34.8647 17.8094 30.7785 13.7126C30.3165 13.2517 29.8135 12.8217 29.2673 12.4287C28.7211 12.0357 28.1524 11.6961 27.5672 11.4081C24.8485 10.0624 21.787 9.83602 18.9883 10.6262C18.9698 10.6324 18.8631 10.6529 18.8446 10.6571L18.9227 13.0069L21.7399 13.8567C23.594 13.7394 25.5057 14.2394 27.134 15.4103C30.8895 18.1079 31.752 23.3445 29.06 27.108C26.6883 30.427 22.3455 31.4908 18.7768 29.8488C18.2964 29.6286 17.8302 29.3591 17.3868 29.0381C16.7502 28.5834 16.2 28.0546 15.7317 27.4722C13.4402 24.6121 13.2226 20.468 15.4607 17.3403C16.087 16.4637 16.8508 15.7436 17.703 15.1901C17.7522 15.1572 18.0068 15.0173 18.0582 14.9844L17.3703 12.7189L15.0089 12.5996C14.9904 12.6117 14.9493 12.6508 14.9308 12.6653Z" fill="#FECE85"/>
<path fill-rule="evenodd" clip-rule="evenodd" d="M8.74617 1.72266C8.38891 1.72266 8.36015 1.88522 8.16096 2.18152L6.89196 3.97167C6.69691 4.28034 6.70099 4.35853 6.92683 4.67332L9.55103 8.33386L11.4853 9.58078L13.4996 8.33386L16.1258 4.67332C16.3496 4.35853 16.3558 4.28034 16.1607 3.97167L14.8918 2.18152C14.6926 1.88522 14.6638 1.72266 14.3065 1.72266H13.9596H13.5017H11.5264H9.5511H9.09323H8.74617Z" fill="#2ED1E2"/>
<path fill-rule="evenodd" clip-rule="evenodd" d="M11.5264 8.17139C10.8529 8.17139 10.1938 8.22693 9.5511 8.33395C3.84897 9.27635 -0.5 14.2415 -0.5 20.2231C-0.5 26.8796 4.88383 32.2747 11.5264 32.2747C12.7153 32.2747 13.8508 32.106 14.937 31.785C13.7583 30.8797 12.7912 29.7952 12.0479 28.5977C12.0479 28.5957 12.0459 28.5936 12.0459 28.5915C11.8549 28.6039 11.7214 28.608 11.5264 28.608C6.90637 28.608 3.15906 24.8549 3.15906 20.2231C3.15906 15.5934 6.90644 11.8402 11.5264 11.8402C12.7687 11.8402 13.9494 12.1118 15.0088 12.5995C16.2039 13.1468 17.2469 13.9699 18.0581 14.9843C19.2059 16.4205 19.8917 18.2415 19.8917 20.2231C19.8917 23.3363 18.2469 26.0256 15.7316 27.4722C16.1998 28.0545 16.7501 28.5833 17.3867 29.038C17.8302 29.359 18.2963 29.6286 18.7767 29.8487C21.6555 27.647 23.5528 24.1326 23.5528 20.223C23.5528 17.8856 22.8895 15.7045 21.7397 13.8566C20.9718 12.6241 19.9903 11.5397 18.8445 10.657C17.3106 9.48004 15.4873 8.66111 13.4996 8.33395C12.859 8.227 12.1979 8.17139 11.5264 8.17139Z" fill="#FECE85"/>
<path fill-rule="evenodd" clip-rule="evenodd" d="M27.563 6.89971L27.5671 11.408L28.528 13.4883L30.7785 13.7126L35.0392 12.2702C35.4047 12.1467 35.454 12.085 35.4745 11.7208L35.4847 9.52525C35.495 9.16926 35.5669 9.01907 35.2753 8.80919L34.994 8.60753L34.6223 8.34006L33.0166 7.18778L31.4108 6.03346L31.0371 5.76599L30.7558 5.56434C30.4663 5.35446 30.3472 5.47174 30.0146 5.59521L27.9429 6.30916C27.604 6.44704 27.563 6.51285 27.563 6.89971Z" fill="#2ED1E2"/>
<path fill-rule="evenodd" clip-rule="evenodd" d="M21.0005 34.2109C25.1585 34.6471 29.4253 32.894 32.0351 29.2458C35.5135 24.3835 34.8647 17.8094 30.7765 13.7126C30.3166 13.2517 29.8135 12.8217 29.2673 12.4286C28.7211 12.0357 28.1523 11.6961 27.5671 11.408C27.4111 11.3299 27.253 11.2558 27.0948 11.1858C27.4152 12.6694 27.6205 14.2311 27.6944 15.8484C30.9695 18.6468 31.6121 23.5399 29.0599 27.1078C27.8607 28.7848 26.1605 29.8857 24.3105 30.3528C23.3577 31.9001 22.2407 33.2088 21.0005 34.2109Z" fill="#FDB440"/>
<path fill-rule="evenodd" clip-rule="evenodd" d="M8.46069 31.8797C9.43811 32.1369 10.4668 32.2747 11.5263 32.2747C12.7152 32.2747 13.8507 32.106 14.9369 31.785C13.7582 30.8797 12.7912 29.7952 12.0478 28.5977C12.0478 28.5957 12.0458 28.5936 12.0458 28.5916C11.8548 28.6039 11.7214 28.608 11.5263 28.608C11.3005 28.608 11.0767 28.5978 10.8569 28.5813C10.1547 29.8281 9.34776 30.9393 8.46069 31.8797ZM13.6249 12.1057C14.1033 12.2291 14.5673 12.3958 15.0088 12.5995C16.2038 13.1468 17.2469 13.9699 18.0581 14.9843C19.2059 16.4205 19.8917 18.2415 19.8917 20.223C19.8917 23.3363 18.2469 26.0256 15.7316 27.4721C16.1998 28.0544 16.7501 28.5833 17.3866 29.038C17.8302 29.359 18.2963 29.6285 18.7767 29.8487C21.6555 27.647 23.5528 24.1326 23.5528 20.223C23.5528 17.8855 22.8895 15.7044 21.7397 13.8566C20.9717 12.6241 19.9902 11.5397 18.8445 10.657C17.3106 9.47999 15.4873 8.66106 13.4996 8.3339C13.2696 8.2948 13.0376 8.26394 12.8015 8.23926C13.1608 9.46572 13.4401 10.76 13.6249 12.1057Z" fill="#FDB440"/>
<path fill-rule="evenodd" clip-rule="evenodd" d="M8.16106 2.18152L6.89206 3.96963V3.97167C6.83665 4.06013 6.79552 4.13009 6.77295 4.19393H16.2799C16.2573 4.13016 16.2163 4.0602 16.1608 3.97167L14.8919 2.18152C14.6927 1.88522 14.6639 1.72266 14.3067 1.72266H13.9597H13.5018H11.5265H9.55121H9.09333H8.74634C8.51635 1.72266 8.42192 1.79058 8.32953 1.91813C8.28024 1.98809 8.23095 2.0745 8.16113 2.17948V2.18152H8.16106Z" fill="#99E6FC"/>
<path fill-rule="evenodd" clip-rule="evenodd" d="M27.717 6.42025L35.1358 12.2352C35.2672 12.1858 35.3452 12.1426 35.3945 12.0746C35.4479 11.9985 35.4644 11.8936 35.4746 11.7208L35.4849 9.52525C35.4952 9.16926 35.567 9.01907 35.2754 8.80919L34.9941 8.60753L34.6224 8.34006L33.0167 7.18778L31.411 6.03346L31.0373 5.76599L30.7559 5.56434C30.4664 5.35446 30.3474 5.47174 30.0147 5.59521L27.9429 6.30916C27.8443 6.34825 27.7704 6.38327 27.717 6.42025Z" fill="#99E6FC"/>
<path fill-rule="evenodd" clip-rule="evenodd" d="M12.1979 1.72266L13.3929 3.56428C13.5592 3.85235 13.5797 3.95726 13.4442 4.19393H16.2799C16.2573 4.13016 16.2162 4.0602 16.1608 3.97167L14.8918 2.18152C14.6926 1.88522 14.6639 1.72266 14.3066 1.72266H13.9596H13.5018H12.1979Z" fill="#2ED1E2"/>
<path fill-rule="evenodd" clip-rule="evenodd" d="M13.3579 4.33183L10.8262 8.18995C11.0582 8.17757 11.2923 8.17145 11.5263 8.17145C12.1999 8.17145 12.859 8.22496 13.5016 8.33198L16.1258 4.67348C16.1258 4.67348 16.1258 4.67348 16.1258 4.67144C16.1279 4.6694 16.132 4.66526 16.1341 4.66118C16.2881 4.44511 16.3333 4.34224 16.2798 4.19409H13.4442C13.4216 4.23515 13.3929 4.28044 13.3579 4.33183Z" fill="#00B1CD"/>
<path fill-rule="evenodd" clip-rule="evenodd" d="M29.2673 12.4287C29.8134 12.8196 30.3186 13.2496 30.7785 13.7126L35.0391 12.2702C35.074 12.2579 35.1069 12.2456 35.1357 12.2353L33.261 10.7661C33.2076 10.7908 33.1399 10.8176 33.0557 10.8443L28.9778 12.225C29.0743 12.2908 29.1707 12.3587 29.2673 12.4287Z" fill="#00B1CD"/>
<path fill-rule="evenodd" clip-rule="evenodd" d="M33.4931 10.2947C33.4767 10.5766 33.4439 10.6774 33.2611 10.7659L35.1358 12.235C35.2652 12.1857 35.3431 12.1424 35.3924 12.0766L35.3945 12.0746C35.4478 11.9984 35.4643 11.8935 35.4746 11.7207L35.4848 9.52519C35.4951 9.1692 35.5669 9.01902 35.2754 8.80913L34.994 8.60748L34.6224 8.34001L33.337 7.41821C33.5772 7.6096 33.5115 7.76183 33.5033 8.09933L33.4931 10.2947Z" fill="#2ED1E2"/>
</g>
<defs>
<clipPath id="clip0">
<rect width="36" height="36" fill="white" transform="translate(-0.5)"/>
</clipPath>
</defs>
</svg>
