<svg width="36" height="36" viewBox="0 0 36 36" fill="none" xmlns="http://www.w3.org/2000/svg">
<g clip-path="url(#clip0)">
<path d="M29.7942 25.861H1.54688C0.692578 25.861 0 25.1684 0 24.3141V5.84619C0 4.99189 0.692578 4.29932 1.54688 4.29932H29.7942C30.6485 4.29932 31.3411 4.99189 31.3411 5.84619V24.3141C31.3411 25.1684 30.6485 25.861 29.7942 25.861Z" fill="#695E66"/>
<path d="M29.794 4.29834H28.559V21.5309C28.559 22.3853 27.8663 23.078 27.0119 23.078H0V24.313C0 25.1674 0.692648 25.8601 1.54709 25.8601H29.7941C30.6485 25.8601 31.3412 25.1674 31.3412 24.313V5.84543C31.3411 4.99099 30.6484 4.29834 29.794 4.29834Z" fill="#453E43"/>
<path d="M7.35566 20.0067H3.44868C3.15737 20.0067 2.92126 19.7706 2.92126 19.4793C2.92126 19.188 3.15737 18.9519 3.44868 18.9519H7.35559C7.6469 18.9519 7.88301 19.188 7.88301 19.4793C7.88301 19.7706 7.6469 20.0067 7.35566 20.0067Z" fill="#EFECEF"/>
<path d="M14.2012 20.0067H10.2943C10.003 20.0067 9.76685 19.7706 9.76685 19.4793C9.76685 19.188 10.003 18.9519 10.2943 18.9519H14.2012C14.4925 18.9519 14.7287 19.188 14.7287 19.4793C14.7287 19.7706 14.4925 20.0067 14.2012 20.0067Z" fill="#EFECEF"/>
<path d="M21.0467 20.0067H17.1397C16.8484 20.0067 16.6123 19.7706 16.6123 19.4793C16.6123 19.188 16.8484 18.9519 17.1397 18.9519H21.0467C21.338 18.9519 21.5741 19.188 21.5741 19.4793C21.5741 19.7706 21.338 20.0067 21.0467 20.0067Z" fill="#EFECEF"/>
<path d="M9.25957 14.7986H4.48338C3.91195 14.7986 3.44873 14.3354 3.44873 13.7639V10.737C3.44873 10.1656 3.91195 9.70239 4.48338 9.70239H9.25957C9.831 9.70239 10.2942 10.1656 10.2942 10.737V13.7639C10.2943 14.3354 9.831 14.7986 9.25957 14.7986Z" fill="#F6E266"/>
<path d="M23.7142 14.2147C23.5833 14.2147 23.4522 14.1663 23.35 14.0688C23.1394 13.8675 23.1317 13.5338 23.3329 13.323C23.6105 13.0325 23.7633 12.6516 23.7633 12.2506C23.7633 11.8496 23.6104 11.4687 23.3329 11.1781C23.1318 10.9675 23.1394 10.6337 23.3501 10.4324C23.5607 10.2311 23.8945 10.2389 24.0958 10.4496C24.5616 10.9373 24.8181 11.5769 24.8181 12.2505C24.8181 12.9242 24.5615 13.5639 24.0957 14.0515C23.992 14.1601 23.8533 14.2147 23.7142 14.2147Z" fill="#EFECEF"/>
<path d="M26.0369 16.0305C25.9161 16.0305 25.7947 15.9893 25.6954 15.9049C25.4735 15.7162 25.4466 15.3833 25.6353 15.1614C26.3252 14.3503 26.7051 13.3165 26.7051 12.2506C26.7051 11.1846 26.3252 10.1509 25.6353 9.33987C25.4466 9.11796 25.4735 8.7851 25.6954 8.59639C25.9173 8.40767 26.2501 8.43453 26.4389 8.65643C27.2908 9.65796 27.76 10.9344 27.76 12.2505C27.76 13.5666 27.2908 14.8431 26.4389 15.8447C26.3346 15.9675 26.1862 16.0305 26.0369 16.0305Z" fill="#EFECEF"/>
<path d="M29.2035 31.1743C32.6659 31.1743 35.4728 28.3674 35.4728 24.905C35.4728 21.4426 32.6659 18.6357 29.2035 18.6357C25.7411 18.6357 22.9342 21.4426 22.9342 24.905C22.9342 28.3674 25.7411 31.1743 29.2035 31.1743Z" fill="#E28086"/>
<path d="M32.2106 19.4033C32.6996 20.2961 32.9781 21.3207 32.9781 22.4104C32.9781 25.8728 30.1712 28.6797 26.7088 28.6797C25.619 28.6797 24.5945 28.4013 23.7017 27.9123C24.7664 29.8561 26.8308 31.1744 29.2034 31.1744C32.6658 31.1744 35.4727 28.3675 35.4727 24.9051C35.4727 22.5324 34.1545 20.4681 32.2106 19.4033Z" fill="#DD636E"/>
<path d="M29.2034 31.7018C25.4557 31.7018 22.4067 28.6527 22.4067 24.9051C22.4067 21.1574 25.4557 18.1084 29.2034 18.1084C32.9512 18.1084 36.0001 21.1574 36.0001 24.9051C36.0001 28.6528 32.9512 31.7018 29.2034 31.7018ZM29.2034 19.1632C26.0373 19.1632 23.4616 21.739 23.4616 24.9051C23.4616 28.0712 26.0373 30.6469 29.2034 30.6469C32.3695 30.6469 34.9453 28.0712 34.9453 24.9051C34.9453 21.739 32.3695 19.1632 29.2034 19.1632Z" fill="#C3BEC6"/>
<path d="M29.9494 24.9051L31.7056 23.1489C31.9116 22.9429 31.9116 22.609 31.7056 22.4029C31.4996 22.1971 31.1656 22.1971 30.9597 22.4029L29.2034 24.1592L27.4471 22.4029C27.2412 22.1971 26.9072 22.197 26.7013 22.4029C26.4952 22.609 26.4952 22.9429 26.7013 23.1489L28.4575 24.9051L26.7013 26.6614C26.4952 26.8674 26.4952 27.2013 26.7013 27.4073C26.8043 27.5103 26.9392 27.5618 27.0742 27.5618C27.2092 27.5618 27.3441 27.5104 27.4471 27.4073L29.2034 25.6511L30.9597 27.4073C31.0627 27.5103 31.1976 27.5618 31.3326 27.5618C31.4675 27.5618 31.6025 27.5104 31.7056 27.4073C31.9116 27.2013 31.9116 26.8674 31.7056 26.6614L29.9494 24.9051Z" fill="#EFECEF"/>
</g>
<defs>
<clipPath id="clip0">
<rect width="36" height="36" fill="white"/>
</clipPath>
</defs>
</svg>
