<svg width="36" height="36" viewBox="0 0 36 36" fill="none" xmlns="http://www.w3.org/2000/svg">
<path d="M23.6407 8.13603V10.714H18.8484V8.13666C18.8954 8.11487 18.9463 8.10425 18.9985 8.10425H23.4907C23.5429 8.10425 23.5938 8.11486 23.6407 8.13603Z" fill="#93D6F4"/>
<path d="M18.8485 10.7139L21.2447 8.104L23.6409 10.7139H18.8485Z" fill="#B6E4EA"/>
<path d="M18.8483 8.13647V10.7139H16.2557C16.2597 10.6206 16.2981 10.5293 16.3708 10.4606L18.7399 8.20721C18.7723 8.17683 18.8086 8.153 18.8483 8.13647Z" fill="#B6E4EA"/>
<path d="M26.2339 10.714H23.6407V8.13599C23.6804 8.15251 23.7175 8.17698 23.7492 8.20742L26.1182 10.4608C26.191 10.5295 26.2293 10.6208 26.2339 10.714Z" fill="#B6E4EA"/>
<path d="M26.2339 10.7141C26.2392 10.8087 26.2081 10.9039 26.142 10.9799L21.2444 16.3363L16.3529 10.9859C16.2821 10.9092 16.2497 10.8107 16.2557 10.7141H26.2339Z" fill="#93D6F4"/>
<path d="M18.8485 10.7141L21.2447 16.3361L23.6409 10.7141H18.8485Z" fill="#4BBAED"/>
<path d="M21.2447 15.1199C17.003 15.1199 13.5643 18.5585 13.5643 22.8002H15.7306C15.7306 19.7549 18.1993 17.2861 21.2447 17.2861C24.2901 17.2861 26.7588 19.7549 26.7588 22.8002H28.9251C28.9252 18.5585 25.4865 15.1199 21.2447 15.1199Z" fill="#FFDB2D"/>
<path d="M20.1616 17.2861C17.1162 17.2861 14.6475 19.7549 14.6475 22.8003H15.7306C15.7306 19.9377 17.9121 17.585 20.7032 17.3129C20.5249 17.2956 20.3443 17.2861 20.1616 17.2861Z" fill="#FFCA00"/>
<path d="M21.2447 15.1199C21.0626 15.1199 20.8821 15.1267 20.7031 15.1391C24.6921 15.4171 27.842 18.7406 27.842 22.8002H28.9251C28.9251 18.5585 25.4865 15.1199 21.2447 15.1199Z" fill="#FFCA00"/>
<path d="M29.8236 14.4942C30.1355 14.4942 30.3883 14.2414 30.3883 13.9296C30.3883 13.6178 30.1355 13.365 29.8236 13.365C29.5118 13.365 29.259 13.6178 29.259 13.9296C29.259 14.2414 29.5118 14.4942 29.8236 14.4942Z" fill="#B6E4EA"/>
<path d="M14.0364 7.45026C14.3482 7.45026 14.601 7.19748 14.601 6.88565C14.601 6.57383 14.3482 6.32104 14.0364 6.32104C13.7246 6.32104 13.4718 6.57383 13.4718 6.88565C13.4718 7.19748 13.7246 7.45026 14.0364 7.45026Z" fill="#B6E4EA"/>
<path d="M29.4145 22.7263H12.4652C10.8238 22.7263 9.49316 24.057 9.49316 25.6984L20.9399 26.4015L32.3866 25.6984C32.3866 24.0569 31.056 22.7263 29.4145 22.7263Z" fill="#F996B1"/>
<path d="M30.4226 36H11.4573C9.59799 36 8.0907 34.4928 8.0907 32.6335V25.6985H33.4432C33.6342 25.6985 33.7891 25.8534 33.7891 26.0444V32.6335C33.7891 34.4928 32.2819 36 30.4226 36Z" fill="#E8BE95"/>
<path d="M33.4434 25.6985H28.9491C29.1401 25.6985 29.295 25.8534 29.295 26.0444V32.6335C29.295 34.4928 27.7878 36 25.9285 36H30.4228C32.282 36 33.7893 34.4928 33.7893 32.6335V26.0444C33.7893 25.8534 33.6344 25.6985 33.4434 25.6985Z" fill="#E5B085"/>
<path d="M8.08163 25.6984H6.6957C4.2188 25.6984 2.21082 23.6905 2.21082 21.2136V4.48488C2.21089 2.00791 4.2188 0 6.6957 0H7.73569C7.92673 0 8.08163 0.154898 8.08163 0.345937V25.6984Z" fill="#F7E7C7"/>
<path d="M7.73555 0H6.69556C6.45221 0 6.21364 0.0200391 5.98083 0.0573047C6.07456 0.11918 6.13651 0.225211 6.13651 0.345937V25.6625C6.31981 25.6853 6.50607 25.6984 6.69556 25.6984H8.08149V0.345937C8.08149 0.154898 7.92659 0 7.73555 0Z" fill="#F3D7A2"/>
<path d="M29.4146 22.7263H25.0674C26.7088 22.7263 28.0395 24.057 28.0395 25.6984H32.3867C32.3867 24.0569 31.056 22.7263 29.4146 22.7263Z" fill="#F28598"/>
<path d="M29.8236 6.3318H29.159V5.66713C29.159 5.3612 28.9111 5.11328 28.6051 5.11328C28.2992 5.11328 28.0513 5.3612 28.0513 5.66713V6.3318H27.3866C27.0807 6.3318 26.8328 6.57972 26.8328 6.88565C26.8328 7.19158 27.0807 7.4395 27.3866 7.4395H28.0513V8.10416C28.0513 8.41009 28.2992 8.65802 28.6051 8.65802C28.9111 8.65802 29.159 8.41009 29.159 8.10416V7.4395H29.8236C30.1296 7.4395 30.3775 7.19158 30.3775 6.88565C30.3775 6.57979 30.1296 6.3318 29.8236 6.3318Z" fill="#B6E4EA"/>
</svg>
