<svg width="37" height="36" viewBox="0 0 37 36" fill="none" xmlns="http://www.w3.org/2000/svg">
<g clip-path="url(#clip0)">
<path d="M18.4297 31.7812C26.002 31.7812 32.1406 25.6427 32.1406 18.0703C32.1406 10.498 26.002 4.35938 18.4297 4.35938C10.8573 4.35938 4.71875 10.498 4.71875 18.0703C4.71875 25.6427 10.8573 31.7812 18.4297 31.7812Z" fill="#EDF5FF"/>
<path d="M18.4297 31.7814C26.0021 31.7814 32.1407 25.6429 32.1407 18.0705C32.1407 14.2843 30.606 10.8566 28.1248 8.37537L8.73462 27.7656C11.2158 30.2468 14.6435 31.7814 18.4297 31.7814Z" fill="#D5E8FE"/>
<path d="M32.4746 8.05078C30.255 8.05078 28.4492 6.24495 28.4492 4.02539C28.4492 1.80584 30.255 0 32.4746 0C34.6942 0 36.5 1.80584 36.5 4.02539C36.5 6.24495 34.6942 8.05078 32.4746 8.05078ZM32.4746 2.10938C31.4181 2.10938 30.5586 2.96895 30.5586 4.02539C30.5586 5.08184 31.4181 5.94141 32.4746 5.94141C33.5311 5.94141 34.3906 5.08184 34.3906 4.02539C34.3906 2.96895 33.5311 2.10938 32.4746 2.10938Z" fill="#2EBEA6"/>
<path d="M34.3906 4.02523C34.3906 5.08168 33.5311 5.94125 32.4746 5.94125C31.9463 5.94125 31.4673 5.72637 31.1204 5.37945L29.6295 6.87029C30.3584 7.59914 31.3648 8.05062 32.4746 8.05062C34.6942 8.05062 36.5 6.24478 36.5 4.02523C36.5 2.91542 36.0485 1.90911 35.3196 1.18018L33.8288 2.67101C34.1757 3.018 34.3906 3.49697 34.3906 4.02523Z" fill="#41D8BF"/>
<path d="M18.4297 32.4844C17.8472 32.4844 17.375 32.0122 17.375 31.4297V27.9141C17.375 27.3316 17.8472 26.8594 18.4297 26.8594C19.0122 26.8594 19.4844 27.3316 19.4844 27.9141V31.4297C19.4844 32.0122 19.0122 32.4844 18.4297 32.4844Z" fill="#225763"/>
<path d="M18.4297 9.28125C17.8472 9.28125 17.375 8.80903 17.375 8.22656V4.71094C17.375 4.12847 17.8472 3.65625 18.4297 3.65625C19.0122 3.65625 19.4844 4.12847 19.4844 4.71094V8.22656C19.4844 8.80903 19.0122 9.28125 18.4297 9.28125Z" fill="#225763"/>
<path d="M31.7891 19.125H28.2734C27.691 19.125 27.2188 18.6528 27.2188 18.0703C27.2188 17.4878 27.691 17.0156 28.2734 17.0156H31.7891C32.3715 17.0156 32.8438 17.4878 32.8438 18.0703C32.8438 18.6528 32.3715 19.125 31.7891 19.125Z" fill="#225763"/>
<path d="M8.58594 19.125H5.07031C4.48784 19.125 4.01562 18.6528 4.01562 18.0703C4.01562 17.4878 4.48784 17.0156 5.07031 17.0156H8.58594C9.16841 17.0156 9.64062 17.4878 9.64062 18.0703C9.64062 18.6528 9.16841 19.125 8.58594 19.125Z" fill="#225763"/>
<path d="M25.3711 23.6349L21.8908 15.1828C21.8373 15.0527 21.7589 14.936 21.6614 14.8385L17.0938 16.5233L15.198 21.3019C15.2955 21.3994 15.4122 21.4778 15.5422 21.5313L23.9944 25.0116C24.1243 25.0651 24.2606 25.091 24.3957 25.091C24.6702 25.091 24.94 24.9839 25.1417 24.7821C25.4428 24.4811 25.5333 24.0285 25.3711 23.6349Z" fill="#EB4200"/>
<path d="M21.3171 14.6091L12.865 11.1288C12.4712 10.9666 12.0187 11.0572 11.7176 11.3583C11.4166 11.6594 11.3261 12.112 11.4881 12.5056L14.9685 20.9578C15.022 21.0878 15.1004 21.2045 15.1979 21.302L21.6613 14.8386C21.5639 14.7411 21.4472 14.6627 21.3171 14.6091Z" fill="#FF7D47"/>
<path d="M31.1079 5.39213C27.7214 2.00559 23.2189 0.140625 18.4297 0.140625C13.6405 0.140625 9.13796 2.00559 5.7515 5.39213C2.36497 8.77866 0.5 13.2812 0.5 18.0703C0.5 22.8594 2.36497 27.362 5.7515 30.7485C9.13796 34.135 13.6405 36 18.4297 36C23.2189 36 27.7214 34.135 31.1079 30.7485C34.4944 27.362 36.3594 22.8594 36.3594 18.0703C36.3594 13.2812 34.4944 8.77866 31.1079 5.39213ZM18.4297 30.7266C11.4399 30.7266 5.77344 25.0601 5.77344 18.0703C5.77344 11.0805 11.4399 5.41406 18.4297 5.41406C25.4195 5.41406 31.0859 11.0805 31.0859 18.0703C31.0859 25.0601 25.4195 30.7266 18.4297 30.7266Z" fill="#FFDA7A"/>
<path d="M31.1078 5.39209L27.379 9.1209C29.6693 11.4113 31.0859 14.5753 31.0859 18.0703C31.0859 25.0601 25.4195 30.7265 18.4297 30.7265C14.9347 30.7265 11.7706 29.3099 9.48035 27.0196L5.75146 30.7484C9.13793 34.135 13.6405 36 18.4297 36C23.2188 36 27.7214 34.135 31.1078 30.7485C34.4944 27.3619 36.3593 22.8594 36.3593 18.0703C36.3593 13.2812 34.4944 8.77862 31.1078 5.39209Z" fill="#FFB454"/>
</g>
<defs>
<clipPath id="clip0">
<rect width="36" height="36" fill="white" transform="translate(0.5)"/>
</clipPath>
</defs>
</svg>
