<svg width="37" height="36" viewBox="0 0 37 36" fill="none" xmlns="http://www.w3.org/2000/svg">
<g clip-path="url(#clip0)">
<path d="M2.98161 32.8232L1.60253 33.0075L0.5 32.8232V29.282C0.5 28.8761 0.669352 28.4885 0.967348 28.2128L1.46997 27.7477C1.62288 27.6062 1.85887 27.6062 2.01171 27.7477L2.51433 28.2128C2.81226 28.4886 2.98168 28.8761 2.98168 29.282V32.8232H2.98161Z" fill="#FF507D"/>
<path d="M2.51407 28.2128L2.01145 27.7477C1.85854 27.6062 1.62255 27.6062 1.46971 27.7477L0.967087 28.2128C0.966942 28.2254 0.966869 28.2319 0.966797 28.2445C1.24458 28.5178 1.40242 28.8911 1.40242 29.282V32.8233L1.97414 32.9579L2.98142 32.8233V29.282C2.98142 28.876 2.81207 28.4885 2.51407 28.2128Z" fill="#D23C69"/>
<path d="M36.4997 32.8232L35.2589 33.1621L34.0181 32.8232V29.282C34.0181 28.8761 34.1874 28.4885 34.4854 28.2128L34.988 27.7477C35.141 27.6062 35.3769 27.6062 35.5298 27.7477L36.0324 28.2128C36.3303 28.4886 36.4998 28.8761 36.4998 29.282V32.8232H36.4997Z" fill="#FF507D"/>
<path d="M36.0326 28.2127L35.53 27.7476C35.3771 27.6061 35.1411 27.6061 34.9883 27.7476L34.4856 28.2127C34.4855 28.2253 34.4854 28.2318 34.4854 28.2443C34.7631 28.5177 34.921 28.891 34.921 29.2819V32.8231L35.681 33.0467L36.5 32.8231V29.2819C36.5 28.876 36.3306 28.4884 36.0326 28.2127Z" fill="#D23C69"/>
<path d="M29.9288 23.6347V32.823L28.6394 32.8788L23.3539 33.1063L21.4191 33.1896L18.5 33.3156L9.80787 32.9411L8.21069 32.8723L7.07129 32.823V23.6347L8.21069 23.6101L9.80787 23.576L18.5 23.3899L21.4191 23.4522L23.3539 23.4942L28.6394 23.6072L29.9288 23.6347Z" fill="#FED2A4"/>
<path d="M27.5 23.6346H29.9287V32.823H27.5V23.6346Z" fill="#FED2A4"/>
<path d="M29.9285 23.6347V32.823L28.6392 32.8788V23.6072L29.9285 23.6347Z" fill="#FFBD86"/>
<path d="M9.80763 23.576V32.9411L8.21045 32.8723V23.6101L9.80763 23.576Z" fill="#FFBD86"/>
<path d="M23.3537 23.4942V33.1062L21.4189 33.1895V23.4521L23.3537 23.4942Z" fill="#FFBD86"/>
<path d="M14.0015 32.8232L11.7073 33.3156L9.5 32.8232V23.6346H14.0015V32.8232Z" fill="#F1D1E7"/>
<path d="M14.0019 23.6346V32.823L12.4229 33.162V23.6346H14.0019Z" fill="#F6C1E0"/>
<path d="M27.5 32.8232L25.2058 33.3156L22.9985 32.8232V23.6346H27.5V32.8232Z" fill="#F1D1E7"/>
<path d="M27.5 23.6346V32.823L25.9209 33.162V23.6346H27.5Z" fill="#F6C1E0"/>
<path d="M19.7817 26.3011H17.2179C16.8263 26.3011 16.5088 26.6186 16.5088 27.0102V32.8231L18.4998 33.162L20.4908 32.8231V27.0102C20.4908 26.6186 20.1733 26.3011 19.7817 26.3011Z" fill="#ACA6D6"/>
<path d="M19.7821 26.3011H18.2031C18.5947 26.3011 18.9122 26.6186 18.9122 27.0102V32.8232L19.4081 33.0075L20.4912 32.8232V27.0102C20.4912 26.6186 20.1737 26.3011 19.7821 26.3011Z" fill="#978ECB"/>
<path d="M25.2923 29.59C24.9922 29.59 24.749 29.3468 24.749 29.0467V27.4969C24.749 27.1968 24.9922 26.9536 25.2923 26.9536C25.5924 26.9536 25.8355 27.1968 25.8355 27.4969V29.0467C25.8355 29.3468 25.5924 29.59 25.2923 29.59Z" fill="#ACA6D6"/>
<path d="M11.7073 29.59C11.4073 29.59 11.1641 29.3468 11.1641 29.0467V27.4969C11.1641 27.1968 11.4073 26.9536 11.7073 26.9536C12.0073 26.9536 12.2506 27.1968 12.2506 27.4969V29.0467C12.2506 29.3468 12.0073 29.59 11.7073 29.59Z" fill="#ACA6D6"/>
<path d="M28.4801 13.8952V16.4586L26.901 16.5303L25.8362 16.5789L24.7497 16.6281L18.5001 16.9114L15.0333 16.7542L12.2504 16.6281L11.1639 16.5789L8.52002 16.4586V13.8952L11.1639 13.7829L12.2504 13.7365L17.2477 13.5243L18.5001 13.4714L24.7497 13.7365L25.8362 13.7829L26.901 13.8278L28.4801 13.8952Z" fill="#FED2A4"/>
<path d="M18.4999 13.4714V16.9114L15.0332 16.7542L16.9208 13.8952L17.2475 13.5243L18.4999 13.4714Z" fill="#FFBD86"/>
<path d="M28.4799 13.8951V16.4586L26.9009 16.5303V13.8278L28.4799 13.8951Z" fill="#FFBD86"/>
<path d="M25.836 13.7829V16.5789L24.7495 16.6282V13.7366L25.836 13.7829Z" fill="#FFBD86"/>
<path d="M12.2501 13.7366V16.6282L11.1636 16.5789V13.7829L12.2501 13.7366Z" fill="#FFBD86"/>
<path d="M26.9568 2.94025C26.6567 2.94025 26.4136 2.69701 26.4136 2.39699V0.916062C26.4136 0.616038 26.6567 0.372803 26.9568 0.372803C27.2569 0.372803 27.5001 0.616038 27.5001 0.916062V2.39699C27.5001 2.69701 27.2569 2.94025 26.9568 2.94025Z" fill="#F1D1E7"/>
<path d="M10.0433 2.94025C9.74324 2.94025 9.5 2.69701 9.5 2.39699V0.916062C9.5 0.616038 9.74324 0.372803 10.0433 0.372803C10.3433 0.372803 10.5865 0.616038 10.5865 0.916062V2.39699C10.5865 2.69701 10.3433 2.94025 10.0433 2.94025Z" fill="#F1D1E7"/>
<path d="M35.7943 35.6272H24.7352L18.5 35.3142L12.2648 35.6272H1.20566C0.81596 35.6272 0.5 35.3112 0.5 34.9215V32.8232H12.2648L18.5 33.0076L24.7352 32.8232H36.5V34.9215C36.5 35.3112 36.184 35.6272 35.7943 35.6272Z" fill="#B6C4CF"/>
<path d="M34.921 32.8231V34.9214C34.921 35.3112 34.605 35.6271 34.2153 35.6271H35.7943C36.184 35.6271 36.5 35.3111 36.5 34.9214V32.8231H34.921Z" fill="#9FACBA"/>
<path d="M12.2646 32.8231H24.7351V35.6271H12.2646V32.8231Z" fill="#9FACBA"/>
<path d="M23.1562 32.8231H24.7352V35.6271H23.1562V32.8231Z" fill="#8D9CA8"/>
<path d="M32.8261 23.6346H4.17383C4.17383 23.6346 8.5199 20.0462 8.5199 16.4585H28.48C28.48 19.6695 32.8261 23.6346 32.8261 23.6346Z" fill="#FF507D"/>
<path d="M23.3536 23.6346H10.4878L15.2279 16.4585H18.6135L23.3536 23.6346Z" fill="#D23C69"/>
<path d="M28.4804 16.4585H26.9014C26.9014 19.6693 31.2474 23.6347 31.2474 23.6347H32.8264C32.8264 23.6347 28.4804 19.6693 28.4804 16.4585Z" fill="#D23C69"/>
<path d="M31.4191 8.86821H5.58105C5.58105 8.86821 9.5002 5.63263 9.5002 2.39697H27.4999C27.4999 5.2924 31.4191 8.86821 31.4191 8.86821Z" fill="#FF507D"/>
<path d="M27.4999 2.39697H25.9209C25.9209 5.2924 29.84 8.86821 29.84 8.86821H31.419C31.419 8.86821 27.4999 5.2924 27.4999 2.39697Z" fill="#D23C69"/>
<path d="M8.51953 8.86829H28.48V13.8954H8.51953V8.86829Z" fill="#F1D1E7"/>
<path d="M26.9014 8.86829H28.4804V13.8954H26.9014V8.86829Z" fill="#F6C1E0"/>
<path d="M24.9332 23.6346H12.0674L18.5003 13.895L24.9332 23.6346Z" fill="#ACA6D6"/>
<path d="M18.5 13.895L17.7104 15.0904L23.3539 23.6346H24.9329L18.5 13.895Z" fill="#978ECB"/>
<path d="M21.7166 23.6346H15.2837L18.1839 19.2431C18.3335 19.0165 18.666 19.0165 18.8157 19.2431L21.7166 23.6346Z" fill="#FF507D"/>
<path d="M18.1844 19.2432L17.7109 19.9603L20.1381 23.6347H21.7171L18.8163 19.2432C18.6666 19.0166 18.3341 19.0166 18.1844 19.2432Z" fill="#D23C69"/>
<path d="M33.4174 8.32495H3.58232C3.2823 8.32495 3.03906 8.56819 3.03906 8.86821C3.03906 9.16824 3.2823 9.41147 3.58232 9.41147H33.4174C33.7175 9.41147 33.9607 9.16824 33.9607 8.86821C33.9607 8.56819 33.7175 8.32495 33.4174 8.32495Z" fill="#D23C69"/>
<path d="M25.2924 10.8385H11.7073C11.4073 10.8385 11.1641 11.0817 11.1641 11.3818C11.1641 11.6818 11.4073 11.925 11.7073 11.925H25.2925C25.5926 11.925 25.8358 11.6818 25.8358 11.3818C25.8358 11.0817 25.5925 10.8385 25.2924 10.8385Z" fill="#FFBD86"/>
<path d="M35.2102 23.0914H1.78935C1.48933 23.0914 1.24609 23.3347 1.24609 23.6347C1.24609 23.9347 1.48933 24.1779 1.78935 24.1779H35.2102C35.5103 24.1779 35.7534 23.9347 35.7534 23.6347C35.7534 23.3347 35.5103 23.0914 35.2102 23.0914Z" fill="#D23C69"/>
</g>
<defs>
<clipPath id="clip0">
<rect width="36" height="36" fill="white" transform="translate(0.5)"/>
</clipPath>
</defs>
</svg>
