<svg width="37" height="36" viewBox="0 0 37 36" fill="none" xmlns="http://www.w3.org/2000/svg">
<path d="M5.5625 26.8772V32.6241C5.56249 32.986 5.89877 33.2539 6.25134 33.1724L18.5 30.3895L30.7498 33.1724C31.1023 33.2538 31.4397 32.9861 31.4397 32.6241V26.8772L18.5011 29.2414L5.5625 26.8772Z" fill="#24A993"/>
<path d="M1.6261 6.75153V24.9069C1.6261 26.0314 2.21861 26.5475 3.13782 26.7609L18.3726 30.2985C18.4557 30.3177 18.5421 30.3177 18.6252 30.2985L33.8644 26.7609C35.0815 26.4784 35.3761 25.7628 35.3761 24.8658V6.75153C35.3767 6.38756 35.0369 6.11875 34.6829 6.2033L18.5011 10.0101L2.31494 6.2033C1.91304 6.10869 1.6261 6.42472 1.6261 6.75153Z" fill="#2EBEA6"/>
<path d="M5.5625 2.81055C4.63735 2.81055 3.8761 3.57507 3.8761 4.50021V22.5002C3.8761 23.4254 4.63736 24.1867 5.5625 24.1867H16.25C17.1946 24.1867 17.9364 24.9274 17.9364 25.872C17.9526 26.6056 19.0452 26.6056 19.0614 25.872C19.0614 24.9274 19.8065 24.1867 20.7511 24.1867H31.4397C32.3648 24.1867 33.125 23.4254 33.125 22.5002V4.50021C33.125 3.57507 32.3648 2.81055 31.4397 2.81055H20.7511C19.9779 2.81053 19.1385 3.07384 18.4967 3.93667C17.8672 3.08704 16.9915 2.81053 16.25 2.81055H5.5625Z" fill="#FFDA7A"/>
<path d="M19.0614 3.36206C18.8623 3.51492 18.6717 3.70142 18.4967 3.9367C18.3257 3.7059 18.1361 3.52083 17.9364 3.36868V25.872C17.9526 26.6056 19.0452 26.6056 19.0614 25.872V3.36206Z" fill="#EA9B26"/>
<path d="M7.24805 7.2908H12.3346C13.0848 7.2908 13.0848 6.16553 12.3346 6.16553H7.22106C6.44419 6.20188 6.49817 7.32705 7.24804 7.2908H7.24805Z" fill="#FEB546"/>
<path d="M7.24813 10.6623H15.7105C16.5237 10.731 16.5237 9.47264 15.7105 9.54129H7.22114C6.49904 9.62314 6.54837 10.6476 7.24812 10.6623H7.24813Z" fill="#FEB546"/>
<path d="M15.698 6.16542L14.552 6.18664C14.4781 6.188 14.4052 6.20395 14.3374 6.23348C14.2697 6.26302 14.2084 6.30555 14.1571 6.35876C14.1058 6.41198 14.0655 6.47482 14.0385 6.54361C14.0115 6.6124 13.9983 6.68583 13.9997 6.75972C14.001 6.83362 14.0169 6.90654 14.0465 6.97428C14.076 7.04202 14.1186 7.10324 14.1719 7.15452C14.2251 7.2058 14.2879 7.24611 14.3567 7.27312C14.4255 7.30012 14.4989 7.31329 14.5728 7.31192L15.723 7.2907C15.7969 7.28906 15.8697 7.27287 15.9374 7.24308C16.005 7.21329 16.0661 7.17048 16.1172 7.11708C16.1683 7.06368 16.2083 7.00074 16.2351 6.93185C16.2619 6.86296 16.2748 6.78949 16.2732 6.7156C16.2715 6.64172 16.2554 6.56888 16.2256 6.50124C16.1958 6.4336 16.153 6.37248 16.0996 6.32139C16.0462 6.2703 15.9832 6.2302 15.9143 6.20344C15.8454 6.17668 15.772 6.16379 15.6981 6.16542H15.698Z" fill="#FEB546"/>
<path d="M10.6239 12.9128C10.5498 12.9125 10.4763 12.9267 10.4077 12.9548C10.3391 12.9829 10.2768 13.0243 10.2242 13.0766C10.1717 13.1289 10.13 13.191 10.1015 13.2595C10.0731 13.328 10.0584 13.4014 10.0584 13.4755C10.0584 13.5496 10.0731 13.623 10.1015 13.6915C10.13 13.7599 10.1717 13.822 10.2242 13.8743C10.2768 13.9266 10.3391 13.968 10.4077 13.9961C10.4763 14.0242 10.5498 14.0384 10.6239 14.0381H15.7105C15.7847 14.0384 15.8581 14.0242 15.9267 13.9961C15.9953 13.968 16.0577 13.9266 16.1102 13.8743C16.1628 13.822 16.2045 13.7599 16.2329 13.6915C16.2614 13.623 16.2761 13.5496 16.2761 13.4755C16.2761 13.4014 16.2614 13.328 16.2329 13.2595C16.2045 13.191 16.1628 13.1289 16.1102 13.0766C16.0577 13.0243 15.9953 12.9829 15.9267 12.9548C15.8581 12.9267 15.7847 12.9125 15.7105 12.9128H10.6239Z" fill="#FEB546"/>
<path d="M7.24803 16.2888C7.1739 16.2884 7.10042 16.3027 7.03183 16.3308C6.96323 16.3589 6.90087 16.4003 6.84831 16.4526C6.79576 16.5049 6.75406 16.567 6.7256 16.6355C6.69714 16.7039 6.6825 16.7773 6.6825 16.8515C6.6825 16.9256 6.69714 16.9989 6.7256 17.0674C6.75406 17.1358 6.79576 17.198 6.84831 17.2503C6.90087 17.3026 6.96323 17.3439 7.03183 17.3721C7.10042 17.4002 7.1739 17.4144 7.24803 17.414H15.7104C15.7846 17.4144 15.858 17.4002 15.9266 17.3721C15.9952 17.3439 16.0576 17.3026 16.1102 17.2503C16.1627 17.198 16.2044 17.1358 16.2329 17.0674C16.2613 16.9989 16.276 16.9256 16.276 16.8515C16.276 16.7773 16.2613 16.7039 16.2329 16.6355C16.2044 16.567 16.1627 16.5049 16.1102 16.4526C16.0576 16.4003 15.9952 16.3589 15.9266 16.3308C15.858 16.3027 15.7846 16.2884 15.7104 16.2888H7.24803Z" fill="#FEB546"/>
<path d="M7.26049 12.913C7.18637 12.9112 7.11263 12.9241 7.04351 12.951C6.9744 12.9778 6.91127 13.0181 6.85775 13.0694C6.80423 13.1207 6.76137 13.1821 6.73165 13.25C6.70193 13.3179 6.68592 13.391 6.68454 13.4651C6.68317 13.5393 6.69646 13.6129 6.72365 13.6819C6.75084 13.7509 6.79139 13.8138 6.84298 13.8671C6.89456 13.9203 6.95616 13.9628 7.02423 13.9922C7.09231 14.0216 7.16552 14.0372 7.23965 14.0382L8.38569 14.0631C8.45958 14.0645 8.53302 14.0513 8.60182 14.0243C8.67061 13.9973 8.73341 13.957 8.78663 13.9057C8.83985 13.8544 8.88245 13.7932 8.912 13.7254C8.94154 13.6577 8.95745 13.5848 8.95882 13.5109C8.96019 13.437 8.94699 13.3635 8.91997 13.2948C8.89296 13.226 8.85265 13.1632 8.80137 13.11C8.75008 13.0568 8.68881 13.0142 8.62107 12.9846C8.55332 12.9551 8.48042 12.9392 8.40653 12.9378L7.26049 12.913Z" fill="#FEB546"/>
<path d="M7.24805 20.7898H12.3346C13.0848 20.7898 13.0848 19.6646 12.3346 19.6646H7.22106C6.44419 19.7009 6.49817 20.8261 7.24804 20.7898H7.24805Z" fill="#FEB546"/>
<path d="M15.698 19.6647L14.552 19.6859C14.4781 19.6873 14.4052 19.7032 14.3374 19.7327C14.2697 19.7623 14.2084 19.8048 14.1571 19.858C14.1058 19.9112 14.0655 19.9741 14.0385 20.0429C14.0115 20.1117 13.9983 20.1851 13.9997 20.259C14.001 20.3329 14.0169 20.4058 14.0465 20.4735C14.076 20.5413 14.1186 20.6025 14.1719 20.6538C14.2251 20.7051 14.2879 20.7454 14.3567 20.7724C14.4255 20.7994 14.4989 20.8125 14.5728 20.8112L15.723 20.79C15.7969 20.7883 15.8697 20.7721 15.9374 20.7423C16.005 20.7125 16.0661 20.6697 16.1172 20.6163C16.1683 20.5629 16.2083 20.5 16.2351 20.4311C16.2618 20.3622 16.2748 20.2887 16.2731 20.2148C16.2715 20.1409 16.2553 20.0681 16.2255 20.0004C16.1957 19.9328 16.1529 19.8717 16.0995 19.8207C16.0461 19.7696 15.9832 19.7295 15.9143 19.7027C15.8454 19.6759 15.7719 19.663 15.698 19.6647H15.698Z" fill="#FEB546"/>
<path d="M24.667 6.18629C24.5928 6.18591 24.5194 6.20016 24.4508 6.22826C24.3822 6.25637 24.3198 6.29776 24.2673 6.35004C24.2147 6.40233 24.173 6.46449 24.1445 6.53294C24.1161 6.60139 24.1014 6.67479 24.1014 6.74892C24.1014 6.82305 24.1161 6.89646 24.1445 6.96491C24.173 7.03336 24.2147 7.09546 24.2673 7.14774C24.3198 7.20002 24.3822 7.24141 24.4508 7.26952C24.5194 7.29762 24.5928 7.31194 24.667 7.31156H29.7494C29.8235 7.31194 29.897 7.29762 29.9656 7.26952C30.0342 7.24141 30.0966 7.20002 30.1491 7.14774C30.2017 7.09546 30.2434 7.03336 30.2718 6.96491C30.3003 6.89646 30.3149 6.82305 30.3149 6.74892C30.3149 6.67479 30.3003 6.60139 30.2718 6.53294C30.2434 6.46449 30.2017 6.40233 30.1491 6.35004C30.0966 6.29776 30.0342 6.25637 29.9656 6.22826C29.897 6.20016 29.8235 6.18591 29.7494 6.18629H24.667Z" fill="#FEB546"/>
<path d="M21.2912 10.6873H29.7495C30.4997 10.6873 30.4997 9.56201 29.7495 9.56201H21.2621C20.4836 9.60134 20.5417 10.7267 21.2912 10.6873H21.2912Z" fill="#FEB546"/>
<path d="M21.2787 7.31153L22.4247 7.33274C23.234 7.41672 23.2618 6.16361 22.4496 6.21162L21.2724 6.18677C20.4953 6.20888 20.5285 7.3342 21.2786 7.31205L21.2787 7.31153Z" fill="#FEB546"/>
<path d="M21.2912 14.0633H26.3736C27.1238 14.0633 27.1238 12.938 26.3736 12.938H21.2621C20.4836 12.9773 20.5417 14.1027 21.2912 14.0633H21.2912Z" fill="#FEB546"/>
<path d="M21.2912 17.4349H29.7494C30.5626 17.5035 30.5626 16.2451 29.7494 16.3137H21.2621C20.5361 16.3964 20.5894 17.4246 21.2912 17.4349H21.2912Z" fill="#FEB546"/>
<path d="M29.737 12.9379L28.5909 12.9592C28.5168 12.9602 28.4436 12.9758 28.3756 13.0052C28.3075 13.0346 28.2459 13.0771 28.1944 13.1304C28.1428 13.1836 28.1023 13.2466 28.0751 13.3156C28.0479 13.3845 28.0346 13.4582 28.036 13.5323C28.0374 13.6064 28.0534 13.6795 28.0831 13.7475C28.1128 13.8154 28.1556 13.8767 28.2091 13.928C28.2626 13.9793 28.3257 14.0196 28.3948 14.0464C28.4639 14.0733 28.5377 14.0862 28.6118 14.0844L29.762 14.0632C29.8359 14.0616 29.9087 14.0454 29.9763 14.0156C30.044 13.9858 30.1051 13.943 30.1562 13.8896C30.2073 13.8362 30.2474 13.7733 30.2741 13.7044C30.3009 13.6355 30.3138 13.562 30.3122 13.4881C30.3105 13.4142 30.2944 13.3413 30.2646 13.2737C30.2348 13.2061 30.192 13.1449 30.1386 13.0939C30.0852 13.0428 30.0222 13.0027 29.9533 12.976C29.8844 12.9492 29.8109 12.9362 29.737 12.9379L29.737 12.9379Z" fill="#FEB546"/>
<path d="M24.667 19.6853C24.5931 19.6853 24.52 19.6999 24.4517 19.7282C24.3834 19.7565 24.3214 19.7979 24.2692 19.8501C24.2169 19.9023 24.1755 19.9644 24.1472 20.0327C24.1189 20.1009 24.1044 20.1741 24.1044 20.248C24.1044 20.3219 24.1189 20.395 24.1472 20.4633C24.1755 20.5315 24.2169 20.5936 24.2692 20.6459C24.3214 20.6981 24.3834 20.7395 24.4517 20.7678C24.52 20.796 24.5931 20.8107 24.667 20.8107H29.7495C29.8233 20.8107 29.8965 20.796 29.9648 20.7678C30.033 20.7395 30.0951 20.6981 30.1473 20.6459C30.1995 20.5936 30.241 20.5315 30.2693 20.4633C30.2975 20.395 30.3121 20.3219 30.3121 20.248C30.3121 20.1741 30.2975 20.1009 30.2693 20.0327C30.241 19.9644 30.1995 19.9023 30.1473 19.8501C30.0951 19.7979 30.033 19.7565 29.9648 19.7282C29.8965 19.6999 29.8233 19.6853 29.7495 19.6853H24.667Z" fill="#FEB546"/>
<path d="M21.2995 19.6854C21.2256 19.684 21.1521 19.6973 21.0834 19.7243C21.0146 19.7513 20.9518 19.7916 20.8985 19.8429C20.8453 19.8941 20.8027 19.9554 20.7732 20.0231C20.7436 20.0908 20.7277 20.1638 20.7264 20.2377C20.725 20.3116 20.7382 20.385 20.7652 20.4538C20.7922 20.5226 20.8325 20.5853 20.8838 20.6386C20.9351 20.6918 20.9964 20.7344 21.0641 20.7639C21.1319 20.7934 21.2048 20.8094 21.2786 20.8107L22.4247 20.8356C22.4988 20.8376 22.5726 20.825 22.6418 20.7984C22.711 20.7718 22.7743 20.7318 22.828 20.6807C22.8818 20.6295 22.9248 20.5683 22.9548 20.5005C22.9848 20.4327 23.0011 20.3596 23.0027 20.2855C23.0043 20.2113 22.9913 20.1376 22.9644 20.0685C22.9374 19.9994 22.8971 19.9364 22.8457 19.883C22.7943 19.8295 22.7329 19.7867 22.6649 19.7571C22.5969 19.7275 22.5237 19.7116 22.4496 19.7103L21.2995 19.6854Z" fill="#FEB546"/>
</svg>
