<svg width="36" height="36" viewBox="0 0 36 36" fill="none" xmlns="http://www.w3.org/2000/svg">
<path d="M34.7516 35.1904H1.24841V0.401263C1.24841 0.179648 1.42806 0 1.64968 0H34.3505C34.5721 0 34.7517 0.179648 34.7517 0.401263V35.1904H34.7516Z" fill="#225763"/>
<path d="M31.7426 0V35.1903H34.7518V0.401263C34.7518 0.179648 34.5721 0 34.3505 0H31.7426Z" fill="#163D46"/>
<path d="M1.24841 28.3579H34.7516V35.1901H1.24841V28.3579Z" fill="#E85B48"/>
<path d="M31.7426 28.3579H34.7518V35.1901H31.7426V28.3579Z" fill="#CE4634"/>
<path d="M1.24841 6.32178H34.7516V9.33101H1.24841V6.32178Z" fill="#FFDA7A"/>
<path d="M31.7426 6.32178H34.7518V9.33101H31.7426V6.32178Z" fill="#EA9B26"/>
<path d="M3.85638 14.8107H1.24841V11.8015H3.85648C4.0781 11.8015 4.25774 11.9812 4.25774 12.2028V14.4096C4.25765 14.6311 4.078 14.8107 3.85638 14.8107Z" fill="#FFDA7A"/>
<path d="M21.9122 14.8099H19.7054C19.4838 14.8099 19.3041 14.6302 19.3041 14.4086V12.2018C19.3041 11.9802 19.4838 11.8005 19.7054 11.8005H21.9122C22.1338 11.8005 22.3135 11.9802 22.3135 12.2018V14.4086C22.3135 14.6302 22.1338 14.8099 21.9122 14.8099Z" fill="#FFDA7A"/>
<path d="M34.7517 14.8099H25.7239C25.5023 14.8099 25.3226 14.6302 25.3226 14.4086V12.2018C25.3226 11.9802 25.5023 11.8005 25.7239 11.8005H34.7517V14.8099Z" fill="#FFDA7A"/>
<path d="M31.7426 11.8005H34.7518V14.8098H31.7426V11.8005Z" fill="#EA9B26"/>
<path d="M15.8934 25.5543H7.66805C7.44643 25.5543 7.26678 25.3747 7.26678 25.153V12.2018C7.26678 11.9802 7.44643 11.8005 7.66805 11.8005H15.8934C16.115 11.8005 16.2947 11.9802 16.2947 12.2018V25.153C16.2947 25.3747 16.115 25.5543 15.8934 25.5543Z" fill="#FFDA7A"/>
<path d="M13.2854 11.8006V25.5543H15.8935C16.1151 25.5543 16.2947 25.3746 16.2947 25.153V12.2018C16.2947 11.9802 16.1151 11.8005 15.8935 11.8005H13.2854V11.8006Z" fill="#EA9B26"/>
</svg>
