<svg width="36" height="36" viewBox="0 0 36 36" fill="none" xmlns="http://www.w3.org/2000/svg">
<path d="M18 36C27.9411 36 36 27.9411 36 18C36 8.05887 27.9411 0 18 0C8.05887 0 0 8.05887 0 18C0 27.9411 8.05887 36 18 36Z" fill="#2EBEA6"/>
<path d="M36 18C36 8.11336 27.8866 0 18 0V36C27.8866 36 36 27.8866 36 18Z" fill="#41D8BF"/>
<path d="M18 33.8906C26.7761 33.8906 33.8906 26.7761 33.8906 18C33.8906 9.22385 26.7761 2.10938 18 2.10938C9.22385 2.10938 2.10938 9.22385 2.10938 18C2.10938 26.7761 9.22385 33.8906 18 33.8906Z" fill="#EDF5FF"/>
<path d="M33.8906 18C33.8906 9.27619 26.7238 2.10938 18 2.10938V33.8906C26.7238 33.8906 33.8906 26.7238 33.8906 18Z" fill="#D5E8FE"/>
<path d="M9.05072 28.004C9.63321 28.004 10.1054 27.5318 10.1054 26.9493C10.1054 26.3669 9.63321 25.8947 9.05072 25.8947C8.46823 25.8947 7.99603 26.3669 7.99603 26.9493C7.99603 27.5318 8.46823 28.004 9.05072 28.004Z" fill="#47568C"/>
<path d="M26.9493 10.1052C27.5318 10.1052 28.004 9.63302 28.004 9.05054C28.004 8.46805 27.5318 7.99585 26.9493 7.99585C26.3668 7.99585 25.8946 8.46805 25.8946 9.05054C25.8946 9.63302 26.3668 10.1052 26.9493 10.1052Z" fill="#29376D"/>
<path d="M9.05072 10.1052C9.63321 10.1052 10.1054 9.63302 10.1054 9.05054C10.1054 8.46805 9.63321 7.99585 9.05072 7.99585C8.46823 7.99585 7.99603 8.46805 7.99603 9.05054C7.99603 9.63302 8.46823 10.1052 9.05072 10.1052Z" fill="#47568C"/>
<path d="M26.9493 28.004C27.5318 28.004 28.004 27.5318 28.004 26.9493C28.004 26.3669 27.5318 25.8947 26.9493 25.8947C26.3668 25.8947 25.8946 26.3669 25.8946 26.9493C25.8946 27.5318 26.3668 28.004 26.9493 28.004Z" fill="#29376D"/>
<path d="M7.45312 19.0547H5.34375C4.76079 19.0547 4.28906 18.583 4.28906 18C4.28906 17.417 4.76079 16.9453 5.34375 16.9453H7.45312C8.03609 16.9453 8.50781 17.417 8.50781 18C8.50781 18.583 8.03609 19.0547 7.45312 19.0547Z" fill="#47568C"/>
<path d="M30.6562 19.0547H28.5469C27.9639 19.0547 27.4922 18.583 27.4922 18C27.4922 17.417 27.9639 16.9453 28.5469 16.9453H30.6562C31.2392 16.9453 31.7109 17.417 31.7109 18C31.7109 18.583 31.2392 19.0547 30.6562 19.0547Z" fill="#29376D"/>
<path d="M16.9453 5.34375V7.45312C16.9453 8.03609 17.417 8.50781 18 8.50781V4.28906C17.417 4.28906 16.9453 4.76079 16.9453 5.34375Z" fill="#47568C"/>
<path d="M19.0547 7.45312V5.34375C19.0547 4.76079 18.583 4.28906 18 4.28906V8.50781C18.583 8.50781 19.0547 8.03609 19.0547 7.45312Z" fill="#FF7B4A"/>
<path d="M18 27.4922C17.417 27.4922 16.9453 27.9639 16.9453 28.5469V30.6562C16.9453 31.2392 17.417 31.7109 18 31.7109C18.583 31.7109 19.0547 31.2392 19.0547 30.6562V28.5469C19.0547 27.9639 18.583 27.4922 18 27.4922Z" fill="#47568C"/>
<path d="M25.0738 23.5825L19.0547 17.5633V11.6719C19.0547 11.0889 18.583 10.6172 18 10.6172C17.417 10.6172 16.9453 11.0889 16.9453 11.6719V18C16.9453 18.2801 17.0565 18.5479 17.2543 18.7457L18 19.4914L23.5825 25.0739C23.9944 25.4858 24.6619 25.4858 25.0739 25.0739C25.4858 24.6619 25.4858 23.9944 25.0738 23.5825Z" fill="#FFDA7A"/>
<path d="M19.0547 7.45312V5.34375C19.0547 4.76079 18.583 4.28906 18 4.28906V8.50781C18.583 8.50781 19.0547 8.03609 19.0547 7.45312Z" fill="#29376D"/>
<path d="M19.0547 30.6562V28.5469C19.0547 27.9639 18.583 27.4922 18 27.4922V31.7109C18.583 31.7109 19.0547 31.2392 19.0547 30.6562Z" fill="#29376D"/>
<path d="M25.0738 25.0738C25.4857 24.6618 25.4857 23.9944 25.0738 23.5824L19.0547 17.5633V11.6719C19.0547 11.0889 18.583 10.6172 18 10.6172V19.4914L23.5825 25.0739C23.9944 25.4858 24.6618 25.4858 25.0738 25.0738Z" fill="#EA9B26"/>
</svg>
