<svg width="47" height="43" viewBox="0 0 47 43" fill="none" xmlns="http://www.w3.org/2000/svg">
<defs>
<clipPath id="clip0_202_3">
<rect width="47" height="43" fill="white"/>
</clipPath>
</defs>
<g clip-path="url(#clip0_202_3)">
<path fill-rule="evenodd" clip-rule="evenodd" d="M6.46191 16.536C6.46191 16.5457 6.77693 16.7816 7.16198 17.0602C7.54703 17.3388 8.00739 17.673 8.18517 17.8029C8.80087 18.2527 8.9421 18.3552 9.5853 18.8193C9.94062 19.0757 10.3284 19.3565 10.4468 19.4435C10.5654 19.5303 10.953 19.811 11.3084 20.0675C11.6639 20.3239 12.0515 20.6046 12.1701 20.6912C12.2885 20.7778 12.6665 21.052 13.0101 21.3004C16.6506 23.9323 17.242 24.3664 17.2637 24.4229C17.2861 24.4815 17.2112 24.7251 16.4985 26.9068C16.2591 27.6402 15.9878 28.4725 15.8959 28.7564C15.8039 29.0403 15.4289 30.1922 15.0626 31.3159C13.8657 34.9878 13.3212 36.6676 13.2522 36.9016L13.1844 37.1318L13.3234 37.0269C13.4721 36.9149 14.4322 36.211 14.7767 35.9617C14.8911 35.8789 15.3983 35.5064 15.9037 35.1339C17.2226 34.1618 18.3587 33.3255 18.8972 32.9303C19.1541 32.7419 19.8878 32.2017 20.5275 31.73C21.1673 31.2583 21.9233 30.7012 22.2076 30.4922C22.492 30.2831 23.0017 29.9074 23.3403 29.6574L23.956 29.2027L24.245 29.414C24.4039 29.5302 25.4741 30.3091 26.6233 31.1448C27.7724 31.9807 28.8607 32.7724 29.0417 32.9043C30.0611 33.6476 30.3981 33.8928 31.7928 34.9068C32.634 35.5183 33.4094 36.0824 33.5161 36.1606C34.4807 36.867 34.8316 37.1126 34.8406 37.0877C34.8464 37.0718 34.2731 35.3262 33.5666 33.2086C32.8601 31.0911 31.9848 28.4656 31.6217 27.3741L30.9615 25.3895L30.8064 25.315C30.6707 25.2497 29.9336 24.933 28.7988 24.452C26.4505 23.4567 25.0075 23.2185 23.5431 23.5839C22.8303 23.7619 22.8755 23.7752 22.875 23.3876C22.8741 22.6061 22.7425 21.9652 22.4438 21.2885C22.0142 20.3151 21.4514 19.5269 19.9286 17.7658C19.5713 17.3524 19.1388 16.8133 19.0228 16.6366L18.9452 16.5182H12.7035C9.27063 16.5182 6.46191 16.5262 6.46191 16.536Z" fill="#0454C1"/>
<path fill-rule="evenodd" clip-rule="evenodd" d="M23.6176 4.88996C23.545 5.09869 23.3561 5.67606 23.1978 6.17282C23.0397 6.6697 22.8257 7.33753 22.7222 7.65689C22.4708 8.4336 20.9606 13.1303 20.606 14.2385C20.4508 14.7234 20.2675 15.2826 20.1986 15.4809L20.0736 15.8415L20.2575 16.0798C20.3587 16.211 20.6255 16.5326 20.8506 16.7947C23.027 19.3288 23.6502 20.3264 24.0773 21.9599L24.1223 22.1319L24.9312 22.133C26.4234 22.1348 27.4238 22.4296 30.6869 23.8287C30.9672 23.9488 31.2192 24.0339 31.2469 24.0177C31.3058 23.9835 32.5849 23.048 34.0331 21.9803C34.5898 21.5698 35.1936 21.1263 35.3749 20.9947C35.5561 20.8631 35.9789 20.5522 36.3143 20.3037C36.6498 20.0553 37.0186 19.7843 37.1339 19.7015C37.3463 19.5491 38.4414 18.747 39.5041 17.9655C39.8241 17.7303 40.1875 17.4633 40.3119 17.3722C41.1166 16.7828 41.1219 16.7764 40.8 16.7764C40.3433 16.7764 39.0246 16.5058 37.1132 16.0197C33.4164 15.0798 30.4919 15.0426 28.7817 15.9138C28.5448 16.0345 28.5528 16.0574 28.6313 15.4833C28.8705 13.732 28.2167 11.5719 26.653 8.94738C26.0737 7.97532 25.9041 7.69995 25.457 7.00631C24.8609 6.08177 23.9237 4.69426 23.824 4.5889C23.7531 4.51393 23.7438 4.52742 23.6176 4.88996Z" fill="#04882C"/>
<path fill-rule="evenodd" clip-rule="evenodd" d="M23.3052 0.272177C23.294 0.282971 23.1974 0.302564 23.0908 0.315705C22.8617 0.344098 22.8899 0.3326 22.8894 0.397834C22.8887 0.492283 22.6882 1.09593 22.6485 1.12303C22.6275 1.13735 22.6149 1.17607 22.6206 1.20903C22.6261 1.242 22.6063 1.32707 22.5766 1.39805C22.5296 1.50986 22.4381 1.80693 22.3832 2.02551C22.3242 2.2604 22.2484 2.4852 22.2031 2.55947C22.1743 2.60675 22.0899 2.86804 22.0158 3.14012C21.9416 3.4122 21.8527 3.6959 21.8182 3.7704C21.7836 3.84491 21.7553 3.92751 21.7553 3.95379C21.7553 3.98019 21.737 4.03533 21.7145 4.07639C21.6713 4.15547 21.5088 4.68696 21.4762 4.85568C21.4657 4.91071 21.4342 4.98322 21.4062 5.01677C21.3782 5.05044 21.3677 5.09022 21.3826 5.10524C21.3976 5.12025 21.3927 5.15369 21.3717 5.1795C21.3317 5.22843 21.2335 5.53207 21.1268 5.93626C21.0924 6.06638 21.0241 6.26783 20.9749 6.3841C20.9256 6.50026 20.8225 6.81962 20.7456 7.09381C20.6688 7.36801 20.5732 7.65511 20.5335 7.73172C20.4937 7.80834 20.4639 7.87615 20.467 7.88225C20.4703 7.88847 20.4499 7.97095 20.4217 8.06552C20.3936 8.1602 20.3418 8.33443 20.3068 8.4527C20.2717 8.57096 20.2324 8.72583 20.2195 8.79682C20.2065 8.8678 20.176 8.9382 20.1517 8.95333C20.1272 8.96847 20.1224 9.00531 20.141 9.03523C20.1629 9.07078 20.1573 9.07899 20.125 9.05904C20.097 9.0418 20.0754 9.05306 20.0755 9.08462C20.0761 9.18447 19.7583 10.2154 19.7185 10.2426C19.6974 10.2572 19.6818 10.2862 19.6838 10.3072C19.6858 10.3282 19.6496 10.4616 19.6033 10.6035C19.5571 10.7455 19.4879 10.9874 19.4495 11.1412C19.4111 11.2949 19.3515 11.4644 19.3172 11.5176C19.2829 11.5709 19.2632 11.6144 19.2737 11.6144C19.2842 11.6144 19.2381 11.7746 19.1715 11.9704C19.1047 12.1661 19.0164 12.4613 18.9749 12.6264C18.9335 12.7913 18.8755 12.9651 18.846 13.0124C18.8164 13.0598 18.7388 13.2921 18.6736 13.5286C18.6083 13.7653 18.5284 14.0114 18.4961 14.0758C18.4638 14.1401 18.4396 14.2078 18.4424 14.2264C18.4767 14.4523 18.2004 14.5306 17.5453 14.4804C17.3461 14.465 17.1923 14.4672 17.2036 14.4853C17.2147 14.5033 17.0949 14.5083 16.9371 14.4965C16.7794 14.4847 16.4661 14.4857 16.2411 14.4987C16.016 14.5117 15.5234 14.5053 15.1466 14.4843C14.6418 14.4562 14.4366 14.4594 14.3672 14.4965C14.2956 14.5348 14.076 14.5348 13.4418 14.4966C12.907 14.4643 12.601 14.4613 12.5841 14.4881C12.5684 14.513 12.3235 14.5233 11.9762 14.5137C10.3117 14.4678 9.7361 14.4643 9.7361 14.5003C9.7361 14.5219 9.68757 14.5395 9.62835 14.5395C9.56913 14.5395 9.52072 14.5231 9.52072 14.5031C9.52072 14.4494 7.24945 14.4423 7.21631 14.4959C7.17965 14.555 6.9483 14.5514 6.91105 14.4912C6.89084 14.4586 6.78485 14.4515 6.58534 14.4696C5.99584 14.5232 5.65779 14.5365 5.81583 14.4997L5.96658 14.4648L5.82911 14.4591C5.75356 14.456 5.67965 14.4729 5.66508 14.4965C5.65039 14.5202 5.57061 14.5395 5.48765 14.5395C5.39013 14.5395 5.34712 14.523 5.36581 14.4928C5.38625 14.4597 5.32092 14.4563 5.14209 14.4813C5.0032 14.5007 4.82178 14.5128 4.73883 14.5082C3.86216 14.4598 3.10722 14.4529 3.08231 14.4932C3.05023 14.545 2.73921 14.5505 2.47719 14.5038C2.38236 14.4871 2.14031 14.4889 1.93927 14.5081C1.69428 14.5314 1.56868 14.5283 1.55869 14.4982C1.55046 14.4736 1.48607 14.4535 1.41557 14.4535C1.34507 14.4535 1.29784 14.4704 1.31065 14.4911C1.32345 14.5118 1.24908 14.5107 1.14474 14.4885C0.871314 14.4303 0.539494 14.4587 0.689307 14.5275C0.784364 14.5712 0.786714 14.5774 0.709634 14.5798C0.661694 14.5813 0.576859 14.6144 0.521399 14.6532L0.420349 14.7238L0.634317 14.8585C0.752052 14.9327 0.884944 15.0298 0.929594 15.0744C0.974362 15.1191 1.10819 15.2179 1.2271 15.294C1.34601 15.3702 1.4802 15.4736 1.52532 15.5238C1.57044 15.5739 1.62508 15.6149 1.64658 15.6149C1.68735 15.6149 1.81919 15.7082 2.26169 16.0502C2.35651 16.1234 2.47766 16.2002 2.531 16.2207C2.58435 16.2412 2.62794 16.2761 2.62794 16.298C2.62794 16.3201 2.71712 16.3902 2.82616 16.4541C2.9352 16.5179 3.05693 16.6026 3.09676 16.6424C3.1366 16.682 3.25574 16.7737 3.36161 16.8457C3.74395 17.1062 4.24486 17.4617 4.31218 17.5204C4.35002 17.5534 4.47598 17.6442 4.59219 17.7221C4.70839 17.8 4.82401 17.8889 4.84928 17.9196C4.89498 17.9752 5.32139 18.2788 5.86495 18.6429C6.0224 18.7484 6.15799 18.8509 6.16657 18.8709C6.17503 18.8909 6.28865 18.9731 6.41896 19.0537C6.54927 19.1342 6.67523 19.2217 6.69896 19.2481C6.7227 19.2746 6.83867 19.3632 6.95687 19.4451C7.07496 19.527 7.20069 19.6213 7.23617 19.6546C7.27154 19.6881 7.40749 19.7832 7.53826 19.8663C7.66904 19.9492 7.80734 20.0526 7.84564 20.0959C7.88395 20.1392 7.93048 20.1746 7.94904 20.1746C7.98641 20.1746 8.28263 20.3887 8.49871 20.5719C8.57508 20.6367 8.70057 20.7197 8.77754 20.7568C8.8545 20.7938 8.9176 20.8398 8.9176 20.859C8.9176 20.8782 9.04708 20.9776 9.20547 21.0798C9.36374 21.1821 9.52366 21.2925 9.56079 21.3253C9.66278 21.4151 10.0297 21.6803 10.0521 21.6803C10.0628 21.6803 10.1338 21.7384 10.21 21.8093C10.286 21.8802 10.3685 21.9383 10.3932 21.9383C10.4407 21.9383 10.8246 22.2366 10.8489 22.2925C10.8568 22.3107 10.8872 22.3255 10.9166 22.3255C10.9459 22.3255 11.0461 22.3893 11.1392 22.4672C11.2323 22.5451 11.4442 22.7041 11.61 22.8205C11.7759 22.9369 11.9492 23.0667 11.9952 23.109C12.0411 23.1512 12.0997 23.1858 12.1256 23.1858C12.1514 23.1858 12.2399 23.2506 12.3222 23.3298C12.4044 23.409 12.5189 23.4987 12.5765 23.5291C12.6342 23.5596 12.8407 23.7058 13.0351 23.854C13.2297 24.0023 13.4297 24.1365 13.4795 24.1522C13.5294 24.1681 13.5701 24.1967 13.5701 24.2161C13.5701 24.2353 13.6962 24.333 13.8502 24.4332C14.0042 24.5334 14.1302 24.6285 14.1302 24.6443C14.1302 24.6602 14.261 24.7591 14.4209 24.864C14.581 24.969 14.7524 25.0902 14.8021 25.1332L14.8924 25.2116L14.8076 25.5215C14.761 25.6919 14.7042 25.8432 14.6813 25.8576C14.6585 25.8721 14.639 25.9011 14.638 25.9221C14.637 25.9431 14.6304 25.9797 14.6234 26.0034C14.6165 26.027 14.5683 26.1916 14.5165 26.369C14.3179 27.0484 14.2943 27.1248 14.2506 27.2294C14.1737 27.4131 13.9719 28.0468 13.8909 28.3585C13.8863 28.3763 13.8801 28.421 13.8772 28.4578C13.8741 28.4948 13.8524 28.5129 13.8286 28.4983C13.805 28.4837 13.7856 28.5031 13.7856 28.5413C13.7856 28.6539 13.4739 29.6584 13.4342 29.6741C13.4142 29.682 13.3979 29.7207 13.3979 29.7601C13.3979 29.7996 13.3375 30.0158 13.2636 30.2405C13.1898 30.4653 13.1255 30.6685 13.1207 30.6922C13.0758 30.9137 13.0401 31.0148 13.0067 31.0148C12.9849 31.0148 12.9717 31.0293 12.9773 31.0471C12.983 31.0648 12.9654 31.1374 12.9382 31.2084C12.9111 31.2793 12.8609 31.4342 12.8267 31.5525C12.7924 31.6708 12.7294 31.8886 12.6866 32.0364C12.6438 32.1844 12.5914 32.3053 12.57 32.3053C12.5486 32.3053 12.5406 32.3204 12.5521 32.3391C12.5636 32.3576 12.4991 32.5964 12.4088 32.8698C12.3185 33.1431 12.2303 33.4328 12.2126 33.5136C12.1951 33.5943 12.1607 33.673 12.1363 33.6886C12.1117 33.7042 12.0889 33.7537 12.0856 33.7988C12.0822 33.8438 12.0573 33.9376 12.0302 34.007C12.0029 34.0766 11.9389 34.2786 11.8878 34.4562C11.8368 34.6336 11.7759 34.802 11.7526 34.8307C11.7294 34.8592 11.7219 34.9011 11.7358 34.9237C11.7499 34.9464 11.743 34.9715 11.7207 34.9794C11.6982 34.9873 11.672 35.0422 11.6624 35.1013C11.6528 35.1605 11.6336 35.2379 11.6199 35.2735C11.6061 35.3089 11.5349 35.5412 11.4615 35.7896C11.3882 36.0381 11.3099 36.2738 11.2876 36.3134C11.2497 36.3807 11.0711 36.9599 10.9861 37.2907C10.9654 37.371 10.9234 37.4523 10.8928 37.4712C10.8622 37.4901 10.8504 37.5187 10.8665 37.5349C10.8825 37.551 10.867 37.6197 10.832 37.6873C10.7969 37.755 10.7697 37.8208 10.7715 37.8332C10.7733 37.8456 10.7259 38.0153 10.6662 38.21C10.6065 38.4048 10.5452 38.6174 10.5299 38.6825C10.5147 38.7475 10.4849 38.8008 10.4638 38.8008C10.4426 38.8008 10.4254 38.8333 10.4254 38.8731C10.4254 38.9127 10.3874 39.0628 10.341 39.2064C10.2947 39.35 10.2226 39.5885 10.1807 39.7363C10.1389 39.8842 10.0885 40.0053 10.0686 40.0053C10.0488 40.0053 10.0442 40.024 10.0584 40.0469C10.0726 40.0699 10.0529 40.1492 10.0146 40.2233C9.97627 40.2972 9.93844 40.3897 9.93056 40.4288C9.92257 40.4679 9.88732 40.587 9.85207 40.6935C9.81694 40.7999 9.76477 40.9887 9.73622 41.1128C9.70778 41.2371 9.67112 41.3387 9.65503 41.3387C9.63881 41.3387 9.60015 41.4307 9.56902 41.5431C9.53788 41.6555 9.49499 41.8054 9.47372 41.8764C9.45234 41.9474 9.43812 42.0152 9.442 42.0269C9.44588 42.0388 9.42602 42.0916 9.3977 42.1443C9.30605 42.3154 9.41662 42.4328 9.56808 42.3251C9.63223 42.2794 9.70602 42.2421 9.73199 42.2421C9.75796 42.2421 9.77911 42.2266 9.77911 42.2076C9.77911 42.1887 9.95489 42.0484 10.1698 41.8958C10.3846 41.7432 10.6222 41.5678 10.6975 41.5061C10.7729 41.4445 10.9703 41.3027 11.1361 41.191C11.302 41.0793 11.4571 40.9637 11.4809 40.9344C11.5045 40.9049 11.6354 40.8099 11.7716 40.7232C11.9079 40.6365 12.0192 40.55 12.0192 40.5312C12.0192 40.5124 12.0823 40.4599 12.1593 40.4146C12.2363 40.3693 12.5189 40.1667 12.7872 39.9644C13.0556 39.762 13.3562 39.5435 13.455 39.4786C13.5539 39.4137 13.6735 39.3254 13.721 39.2822C13.7683 39.239 13.9041 39.138 14.0225 39.0577C14.1409 38.9775 14.2767 38.8759 14.3241 38.8318C14.3715 38.7878 14.5216 38.6839 14.6579 38.6011C14.7941 38.5181 14.9056 38.4364 14.9056 38.4192C14.9056 38.402 15.022 38.314 15.1641 38.2235C15.3063 38.1331 15.4226 38.0414 15.4226 38.02C15.4226 37.9984 15.4565 37.9678 15.4979 37.9519C15.5744 37.9227 15.9074 37.6881 16.0258 37.58C16.0612 37.5475 16.2 37.4513 16.3341 37.3662C16.468 37.2812 16.5844 37.1954 16.5926 37.1756C16.6007 37.1559 16.7042 37.0751 16.8226 36.9963C16.9412 36.9176 17.0575 36.831 17.0811 36.8041C17.1049 36.7771 17.2502 36.6699 17.4043 36.5658C17.5582 36.4617 17.7106 36.3503 17.7427 36.3181C17.7749 36.286 17.9114 36.1851 18.0461 36.0937C18.1807 36.0024 18.3167 35.8966 18.3483 35.8587C18.3799 35.8207 18.4243 35.7896 18.447 35.7896C18.4853 35.7896 18.9797 35.4263 19.4985 35.017C19.6196 34.9215 19.7378 34.8432 19.7611 34.8432C19.7843 34.8432 19.8403 34.8022 19.8854 34.7519C19.9306 34.7017 20.0839 34.5836 20.226 34.4892C20.3682 34.395 20.4999 34.2908 20.519 34.258C20.5379 34.225 20.573 34.198 20.5969 34.198C20.6381 34.198 20.9655 33.9722 21.113 33.842C21.1508 33.8087 21.2913 33.7088 21.4254 33.62C21.5594 33.531 21.6692 33.4414 21.6692 33.4206C21.6692 33.3999 21.7225 33.3552 21.7876 33.3213C21.9331 33.2456 22.6494 32.7314 22.7677 32.6178C22.815 32.5722 22.9701 32.4539 23.1123 32.3545C23.2545 32.2552 23.5063 32.0788 23.6717 31.9624L23.9726 31.7507L24.1026 31.8568C24.1739 31.9151 24.2712 31.9796 24.3186 32.0003C24.3659 32.0208 24.4542 32.0833 24.5145 32.1392C24.5748 32.195 24.7105 32.2969 24.8161 32.3654C24.9216 32.434 25.127 32.5841 25.2724 32.6988C25.418 32.8136 25.5511 32.9076 25.5683 32.9076C25.5856 32.9076 25.67 32.9662 25.7561 33.038C25.9977 33.2397 26.0142 33.2517 26.0511 33.2517C26.0701 33.2517 26.1339 33.2958 26.193 33.3496C26.29 33.4383 26.6886 33.7331 27.2048 34.0976C27.3109 34.1726 27.4284 34.2644 27.4659 34.302C27.5035 34.3394 27.5497 34.37 27.5687 34.37C27.5876 34.37 27.7268 34.4659 27.8779 34.583C28.0291 34.7001 28.2031 34.8348 28.2648 34.8822C28.3265 34.9296 28.4282 34.9918 28.491 35.0203C28.5537 35.0488 28.605 35.0887 28.605 35.1087C28.605 35.1289 28.714 35.215 28.8474 35.3002C28.9806 35.3854 29.1483 35.5109 29.2198 35.5793C29.2915 35.6476 29.372 35.7036 29.3988 35.7036C29.4255 35.7036 29.5067 35.7577 29.5791 35.8237C29.6516 35.8899 29.8257 36.0188 29.9657 36.1104C30.1059 36.202 30.2535 36.3076 30.2938 36.3451C30.4188 36.4615 30.4793 36.5064 30.6762 36.6296C30.7809 36.6952 30.8786 36.767 30.8932 36.7893C30.9077 36.8116 30.9595 36.8522 31.0083 36.8797C31.1673 36.9691 31.8141 37.438 31.8288 37.4746C31.8367 37.4942 31.8712 37.5103 31.9055 37.5103C31.9398 37.5103 31.979 37.5392 31.9926 37.5744C32.0061 37.6097 32.1315 37.7079 32.2712 37.7926C32.4109 37.8773 32.5253 37.9598 32.5253 37.9759C32.5253 37.9918 32.6175 38.0619 32.7299 38.1314C32.8425 38.201 33.0218 38.3275 33.1284 38.4125C33.235 38.4976 33.4014 38.6179 33.4981 38.6798C33.5948 38.7418 33.7397 38.8524 33.8201 38.9256C33.9003 38.9989 33.9866 39.0589 34.0115 39.0589C34.0365 39.0589 34.1161 39.1121 34.1882 39.1772C34.2605 39.2422 34.4335 39.3729 34.5729 39.4676C34.7121 39.5621 34.8728 39.6825 34.9299 39.7349C34.9869 39.7875 35.07 39.8419 35.1148 39.8561C35.1596 39.8703 35.1962 39.9 35.1962 39.9221C35.1962 39.9441 35.2223 39.9622 35.2542 39.9622C35.286 39.9622 35.349 40.0033 35.3941 40.0534C35.4393 40.1036 35.5828 40.2123 35.7131 40.2953C35.8434 40.3782 35.9791 40.4732 36.0147 40.5064C36.1432 40.6263 36.4844 40.8655 36.5269 40.8655C36.5509 40.8655 36.586 40.8912 36.6049 40.9226C36.6239 40.9541 36.7653 41.0639 36.9194 41.1668C37.0734 41.2696 37.2091 41.3656 37.221 41.38C37.2748 41.4453 37.6899 41.7259 37.7329 41.7259C37.7594 41.7259 37.781 41.7457 37.781 41.7699C37.781 41.794 37.902 41.8919 38.0498 41.9873C38.1978 42.0828 38.3344 42.1888 38.3536 42.223C38.3727 42.2571 38.4141 42.2851 38.4456 42.2851C38.4771 42.2851 38.5269 42.3141 38.5564 42.3496C38.6141 42.4189 38.7068 42.4402 38.6664 42.3747C38.653 42.3531 38.6614 42.2842 38.6852 42.2217C38.7172 42.1377 38.7155 42.1161 38.6787 42.1387C38.6447 42.1597 38.6366 42.1402 38.6533 42.0767C38.6671 42.0242 38.6576 41.984 38.6314 41.984C38.606 41.984 38.5979 41.9712 38.6135 41.9557C38.6291 41.9401 38.6248 41.9062 38.604 41.8804C38.5672 41.8349 38.4464 41.4482 38.3106 40.9408C38.274 40.8047 38.2279 40.6935 38.2079 40.6935C38.1878 40.6935 38.1826 40.6644 38.1962 40.629C38.2099 40.5934 38.2017 40.5644 38.178 40.5644C38.1543 40.5644 38.1225 40.5112 38.1072 40.4462C38.0495 40.2006 37.8594 39.5916 37.8017 39.4676C37.7687 39.3966 37.6738 39.1112 37.5909 38.8336C37.5079 38.5559 37.4191 38.2898 37.3936 38.2422C37.3681 38.1946 37.3599 38.1555 37.3755 38.1555C37.391 38.1555 37.3847 38.1313 37.3613 38.1017C37.3378 38.0722 37.2465 37.8157 37.1581 37.5318C37.0699 37.2478 36.9619 36.9381 36.9183 36.8435C36.8747 36.7488 36.7872 36.4778 36.7237 36.2413C36.6603 36.0046 36.5913 35.7899 36.5704 35.7641C36.5495 35.7383 36.5451 35.7044 36.5608 35.6889C36.5764 35.6733 36.5653 35.6605 36.5363 35.6605C36.5073 35.6605 36.4968 35.639 36.5131 35.6128C36.5294 35.5865 36.5254 35.5526 36.5041 35.5374C36.483 35.5223 36.4429 35.4326 36.4152 35.338C36.2577 34.8004 36.1573 34.5021 36.116 34.4502C36.0903 34.4179 36.0567 34.3336 36.0413 34.2626C36.0098 34.1181 36.009 34.1149 35.9363 33.8754C35.8034 33.4379 35.6896 33.0992 35.6689 33.0796C35.6492 33.0609 35.5053 32.625 35.4775 32.5001C35.4721 32.4758 35.4578 32.4267 35.4457 32.3913C35.4337 32.3559 35.4002 32.2493 35.3715 32.1547C35.3428 32.0601 35.2929 31.9246 35.2609 31.8536C35.2135 31.7488 35.091 31.3693 35.0387 31.1654C34.9525 30.8302 34.9162 30.7244 34.8669 30.6673C34.8348 30.6299 34.8085 30.5705 34.8085 30.5351C34.8085 30.479 34.719 30.1715 34.6475 29.9824C34.6105 29.8843 34.5992 29.8481 34.5395 29.6335C34.5092 29.5244 34.4615 29.4077 34.4335 29.3741C34.4057 29.3405 34.3736 29.2651 34.3625 29.2068C34.3271 29.0224 34.1182 28.3744 34.0537 28.249C34.0196 28.1828 34.0104 28.1402 34.0335 28.1544C34.0568 28.1689 34.0639 28.151 34.0494 28.1134C34.0353 28.0767 34.0087 28.0467 33.9902 28.0467C33.9718 28.0467 33.9471 27.9934 33.9353 27.9283C33.9236 27.8633 33.862 27.6455 33.7983 27.4444C33.7347 27.2434 33.673 27.0308 33.6613 26.9722C33.6496 26.9135 33.6262 26.8555 33.6092 26.8431C33.5858 26.826 33.4495 26.4471 33.4079 26.283C33.3223 25.9463 33.2025 25.5808 33.168 25.5517C33.0547 25.4561 33.051 25.2468 33.1613 25.1749C33.2244 25.1337 33.3232 25.0565 33.3807 25.0032C33.4384 24.9501 33.4992 24.9064 33.5158 24.9064C33.5324 24.9064 33.5926 24.8676 33.6495 24.8201C33.9055 24.6063 33.9828 24.5481 34.2044 24.4019C34.3343 24.3164 34.4796 24.2096 34.5275 24.1649C34.5754 24.1201 34.6825 24.042 34.7654 23.9913C34.8483 23.9406 34.9356 23.8771 34.9592 23.8501C34.983 23.8231 35.1235 23.7179 35.2716 23.6163C35.4197 23.5146 35.5409 23.4161 35.5409 23.3976C35.5409 23.3789 35.5775 23.3521 35.6223 23.3379C35.6671 23.3237 35.8923 23.1675 36.1228 22.9908C36.3534 22.8141 36.559 22.6696 36.5799 22.6696C36.6007 22.6696 36.6521 22.6358 36.6938 22.5944C36.7356 22.553 36.8761 22.4436 37.0061 22.3513C37.1362 22.2591 37.258 22.1575 37.2769 22.1254C37.2958 22.0935 37.331 22.0673 37.3549 22.0673C37.3972 22.0673 37.6525 21.8878 37.948 21.6501C38.0279 21.5858 38.1389 21.5097 38.1946 21.4808C38.2503 21.452 38.3671 21.3592 38.4543 21.2747C38.5415 21.1902 38.6353 21.121 38.663 21.121C38.6906 21.121 38.7894 21.0565 38.8826 20.9775C38.9756 20.8986 39.1507 20.7667 39.2714 20.6843C39.3922 20.6019 39.547 20.4826 39.6155 20.4191C39.6842 20.3557 39.8001 20.2754 39.8733 20.2407C39.9465 20.2059 40.0533 20.1329 40.1107 20.0783C40.1681 20.0237 40.2942 19.9259 40.3909 19.8609C40.4877 19.7959 40.6039 19.7092 40.6494 19.6684C40.6948 19.6274 40.8469 19.5165 40.9873 19.4219C41.1279 19.3273 41.2926 19.2041 41.3535 19.1481C41.4145 19.0922 41.4953 19.0341 41.5332 19.0191C41.5712 19.004 41.6681 18.9382 41.7487 18.8728C42.0379 18.638 42.8195 18.0668 42.8524 18.0664C42.8709 18.0661 42.9517 17.9984 43.032 17.9158C43.1123 17.8332 43.2023 17.7658 43.2321 17.7658C43.2618 17.7658 43.3452 17.7106 43.4174 17.6433C43.4896 17.5759 43.6031 17.4857 43.6696 17.4429C43.7708 17.3777 44.4491 16.8783 44.6731 16.7041C44.709 16.6763 44.9031 16.533 45.1045 16.3858C45.3059 16.2386 45.6217 16.0049 45.8061 15.8666C45.9906 15.7282 46.1555 15.6148 46.1724 15.6147C46.1893 15.6146 46.2768 15.5469 46.3671 15.4642C46.4572 15.3815 46.5444 15.3138 46.5608 15.3138C46.5991 15.3136 46.8277 15.1183 46.8277 15.0856C46.8277 15.0721 46.7405 15.0479 46.6339 15.0319C46.4972 15.0115 46.439 14.9822 46.4366 14.9326C46.4343 14.8852 46.4259 14.8804 46.4109 14.9177C46.3927 14.9631 46.376 14.9631 46.3198 14.9177C46.2629 14.8716 46.2572 14.8723 46.2871 14.9216C46.3155 14.9688 46.2943 14.977 46.1858 14.9611C46.1102 14.95 46.0386 14.9571 46.0263 14.9768C45.9817 15.0489 44.2427 15.0206 44.2704 14.9482C44.284 14.9127 44.2738 14.8836 44.2476 14.8836C44.2213 14.8836 44.1999 14.903 44.1999 14.9267C44.1999 14.9503 44.1611 14.9696 44.1137 14.9696C44.0663 14.9696 44.0275 14.9503 44.0275 14.9267C44.0275 14.903 44.007 14.8836 43.9819 14.8836C43.9568 14.8836 43.9483 14.903 43.9629 14.9267C43.9776 14.9503 43.969 14.9696 43.9439 14.9696C43.9188 14.9696 43.8983 14.9545 43.8983 14.9361C43.8983 14.9175 43.8499 14.8984 43.7907 14.8935C43.7313 14.8886 43.6829 14.9005 43.6829 14.92C43.6829 14.9395 43.6547 14.9553 43.6202 14.9553C43.5857 14.9553 43.5672 14.9397 43.5789 14.9207C43.6021 14.8833 43.2272 14.9104 43.1617 14.9507C43.0909 14.9945 42.9299 14.9233 42.9987 14.8787C43.0394 14.8524 43.0139 14.8432 42.9182 14.8496C42.8413 14.8548 42.7783 14.87 42.7783 14.8836C42.7783 14.8972 42.739 14.9113 42.6911 14.915C42.6433 14.9185 42.614 14.9055 42.6261 14.8859C42.6382 14.8663 42.5779 14.8597 42.4922 14.8712C42.3909 14.8848 42.3241 14.8725 42.3016 14.8361C42.2733 14.7904 42.2465 14.7909 42.1555 14.8396C42.0745 14.8829 42.0312 14.8862 41.9967 14.8517C41.9706 14.8257 41.9225 14.8145 41.8899 14.8271C41.8572 14.8396 41.8305 14.8284 41.8305 14.8022C41.8305 14.776 41.81 14.7546 41.7848 14.7546C41.7598 14.7546 41.7512 14.7739 41.7659 14.7976C41.7809 14.8219 41.7456 14.8406 41.6848 14.8406C41.6256 14.8406 41.5651 14.8212 41.5504 14.7975C41.535 14.7728 41.4517 14.766 41.3541 14.7816C41.2328 14.8008 41.1843 14.7933 41.1843 14.755C41.1843 14.7241 41.1505 14.7103 41.1043 14.7224C41.0602 14.7339 40.9913 14.725 40.9513 14.7026C40.9031 14.6756 40.8583 14.6783 40.8197 14.7102C40.7875 14.737 40.7506 14.7417 40.7377 14.7208C40.7247 14.7 40.6574 14.6912 40.588 14.7014C40.5144 14.7122 40.4163 14.6903 40.3531 14.6489C40.2814 14.6019 40.235 14.5933 40.2164 14.6232C40.1742 14.6913 40.1073 14.6777 40.1073 14.6011C40.1073 14.5353 40.0631 14.538 39.8525 14.6173C39.8116 14.6327 39.8027 14.6222 39.8254 14.5856C39.851 14.5442 39.8216 14.5361 39.7027 14.5522C39.5873 14.5677 39.5355 14.5547 39.505 14.5026C39.4741 14.4498 39.4634 14.4472 39.4624 14.4925C39.4614 14.5429 39.4487 14.5423 39.3857 14.4886C39.3442 14.4533 39.2473 14.4269 39.1703 14.4299C39.0934 14.433 39.0303 14.4208 39.0303 14.4028C39.0303 14.3849 39.0012 14.3812 38.9656 14.395C38.9279 14.4094 38.9008 14.3954 38.9004 14.3613C38.8998 14.3161 38.89 14.3175 38.8565 14.3674C38.8191 14.4234 38.807 14.4211 38.766 14.3516C38.7278 14.2866 38.7115 14.2825 38.6813 14.33C38.6553 14.3709 38.6437 14.3729 38.6432 14.3365C38.6429 14.3077 38.6135 14.2952 38.578 14.3088C38.5423 14.3226 38.5134 14.3101 38.5134 14.2812C38.5134 14.2471 38.4672 14.2354 38.3823 14.2478C38.2845 14.2622 38.2569 14.2522 38.2736 14.2088C38.291 14.1635 38.2776 14.1603 38.2136 14.1943C38.1058 14.2521 38.0702 14.2501 38.1082 14.1887C38.1304 14.1528 38.094 14.1462 37.9777 14.1651C37.8497 14.1858 37.8213 14.1787 37.8398 14.1306C37.8583 14.0824 37.8412 14.0783 37.7559 14.1107C37.673 14.1421 37.6429 14.1365 37.6236 14.086C37.6071 14.0432 37.5688 14.0302 37.512 14.0481C37.4492 14.0681 37.4347 14.0607 37.4592 14.0212C37.4848 13.98 37.4601 13.9734 37.3569 13.9941C37.2807 14.0092 37.221 14.0032 37.221 13.9803C37.221 13.9578 37.1579 13.9503 37.0809 13.9634C36.9909 13.9789 36.9606 13.9735 36.996 13.9484C37.0336 13.9216 37.0064 13.909 36.9099 13.9083C36.8322 13.9078 36.7201 13.8933 36.6609 13.8759C36.6017 13.8585 36.529 13.8427 36.4993 13.8406C36.4697 13.8386 36.4455 13.8111 36.4455 13.7796C36.4455 13.748 36.4153 13.7222 36.3784 13.7222C36.3414 13.7222 36.3206 13.7375 36.3321 13.7561C36.3437 13.7748 36.3012 13.7928 36.2378 13.7962C36.1428 13.8015 36.1372 13.7968 36.2063 13.7696C36.2839 13.7391 36.2824 13.7346 36.1848 13.7085C36.0381 13.6693 36.0055 13.6723 36.0364 13.7223C36.0523 13.7481 36.023 13.758 35.9635 13.7471C35.9088 13.7369 35.8183 13.7271 35.7624 13.7254C35.6966 13.7233 35.6686 13.7022 35.6828 13.6652C35.6973 13.6275 35.6731 13.6108 35.612 13.6157C35.561 13.6198 35.505 13.6018 35.4876 13.5759C35.4658 13.5433 35.4558 13.5453 35.4553 13.5824C35.455 13.6119 35.4342 13.6362 35.409 13.6362C35.384 13.6362 35.3759 13.616 35.3912 13.5914C35.4093 13.5622 35.3786 13.5568 35.3029 13.5758C35.2249 13.5953 35.1744 13.5853 35.1485 13.5452C35.1161 13.4951 35.1033 13.4958 35.0676 13.5501C35.0443 13.5856 35.0249 13.5943 35.0246 13.5695C35.024 13.5271 34.9198 13.5077 34.6877 13.5069C34.6331 13.5067 34.5993 13.4888 34.6126 13.4673C34.6266 13.4447 34.522 13.4332 34.3673 13.4403C34.219 13.447 34.1416 13.444 34.1953 13.4337C34.3211 13.4095 34.2762 13.335 34.1357 13.335C34.0748 13.335 34.0396 13.3538 34.0546 13.3781C34.0704 13.4036 34.0203 13.421 33.9315 13.421C33.8491 13.421 33.7753 13.4047 33.7674 13.3848C33.7594 13.3647 33.6981 13.3349 33.6309 13.3185C33.5638 13.3021 33.5183 13.3039 33.5299 13.3226C33.5702 13.3879 33.2638 13.3781 33.1974 13.3119C33.144 13.2585 33.1159 13.2561 33.0474 13.2988C32.9795 13.3411 32.9482 13.3394 32.8867 13.2895C32.8197 13.2352 32.8144 13.2355 32.8433 13.2921C32.8614 13.3275 32.8458 13.319 32.8085 13.2731C32.7491 13.1999 32.7406 13.1986 32.7406 13.2623C32.7406 13.3569 32.5376 13.3604 32.4056 13.268C32.3519 13.2306 32.3098 13.2211 32.3098 13.2466C32.3098 13.2716 32.2893 13.2921 32.2643 13.2921C32.2391 13.2921 32.2331 13.2678 32.251 13.2382C32.2712 13.2047 32.2547 13.2076 32.2072 13.2462C32.1626 13.2824 32.1189 13.2913 32.102 13.2678C32.0649 13.2163 31.9152 13.2029 31.9467 13.2538C31.9597 13.2748 31.9498 13.2921 31.9247 13.2921C31.8995 13.2921 31.8785 13.2678 31.8778 13.2382C31.877 13.2084 31.8569 13.2181 31.8326 13.2598C31.7816 13.3471 31.4963 13.3638 31.3541 13.2878C31.2897 13.2534 31.2735 13.2534 31.2949 13.2878C31.3347 13.3522 31.2637 13.3477 31.1921 13.2813C31.145 13.2375 31.1408 13.2395 31.1702 13.2921C31.2014 13.3477 31.1963 13.3484 31.1334 13.2975C31.0782 13.2528 31.0606 13.2515 31.0606 13.2921C31.0606 13.3348 31.0474 13.3348 30.996 13.2921C30.9438 13.2489 30.9312 13.25 30.9306 13.2975C30.93 13.347 30.9241 13.3471 30.8929 13.2982C30.8712 13.2638 30.8452 13.257 30.8301 13.2817C30.7604 13.3942 30.5962 13.2833 30.569 13.1052C30.5381 12.9035 30.3342 12.0144 30.2963 11.9155C30.2826 11.8801 30.2745 11.8365 30.2783 11.8187C30.282 11.801 30.2637 11.7864 30.2374 11.7864C30.2112 11.7864 30.2008 11.7575 30.2146 11.7219C30.2282 11.6865 30.2233 11.6574 30.2035 11.6574C30.1839 11.6574 30.138 11.5558 30.1016 11.4316C29.99 11.0522 29.8358 10.6496 29.7789 10.5897C29.7493 10.5584 29.7226 10.5148 29.7197 10.4929C29.7116 10.4326 29.7005 10.3985 29.6512 10.2809C29.6264 10.2218 29.5755 10.1004 29.5383 10.0113C29.5009 9.9221 29.4743 9.84185 29.4793 9.83293C29.4841 9.82402 29.4562 9.78084 29.4174 9.73696C29.3785 9.69308 29.2739 9.50231 29.1849 9.31306C29.096 9.12381 29.0092 8.9592 28.9922 8.94735C28.9752 8.9355 28.907 8.80972 28.8408 8.66776C28.7746 8.52579 28.6696 8.3322 28.6075 8.23764C28.5455 8.14295 28.4662 8.00744 28.4314 7.93646C28.371 7.81362 28.2132 7.55526 28.1422 7.46328C28.1239 7.43969 28.0869 7.37059 28.06 7.30993C28.033 7.24916 27.9363 7.08642 27.8449 6.94821C27.7536 6.81 27.6032 6.55962 27.5108 6.39185C27.4183 6.22407 27.3184 6.07236 27.2888 6.05476C27.2591 6.03717 27.1814 5.93063 27.1161 5.81812C27.0508 5.70572 26.9157 5.48784 26.8159 5.33402C26.716 5.18021 26.6314 5.04035 26.6278 5.02311C26.6241 5.00598 26.5754 4.94262 26.5195 4.88231C26.4635 4.82213 26.3869 4.71031 26.3492 4.63393C26.3115 4.55767 26.2795 4.51449 26.2782 4.53819C26.2769 4.56189 26.2413 4.50863 26.1993 4.41993C26.1572 4.33111 26.0852 4.2281 26.0392 4.19091C25.9932 4.1536 25.9847 4.13576 26.0202 4.15101C26.0776 4.17589 26.0776 4.1726 26.0202 4.12203C25.9342 4.04612 25.6631 3.65636 25.6964 3.65636C25.7108 3.65636 25.678 3.61166 25.6236 3.55699C25.5693 3.50243 25.4676 3.36692 25.3978 3.25592C25.3279 3.14493 25.2551 3.05412 25.2362 3.05412C25.2172 3.05412 25.2017 3.03394 25.2017 3.0093C25.2017 2.98466 25.1818 2.94114 25.1575 2.91251C25.1332 2.884 25.0513 2.76374 24.9755 2.64547C24.8998 2.52721 24.8157 2.41105 24.7886 2.38735C24.7614 2.36377 24.7028 2.27659 24.6581 2.19376C24.6136 2.11105 24.5435 2.01226 24.5024 1.97436C24.4614 1.93646 24.4378 1.89552 24.4499 1.88343C24.4621 1.87123 24.4234 1.81515 24.3638 1.75871C24.3042 1.70228 24.2551 1.63282 24.2546 1.60443C24.2543 1.57603 24.2287 1.53732 24.1978 1.51843C24.1669 1.49954 24.0998 1.41623 24.0487 1.33352C23.9975 1.25069 23.9065 1.12667 23.8463 1.05792C23.7862 0.989163 23.7368 0.911727 23.7366 0.885915C23.7362 0.847197 23.5815 0.627209 23.3995 0.406634C23.379 0.381878 23.3541 0.337176 23.3441 0.30714C23.3341 0.277222 23.3166 0.2615 23.3052 0.272177ZM24.0045 4.76405C24.3827 5.29308 24.8547 5.9995 25.442 6.91536C25.7415 7.38232 26.0194 7.8128 26.0594 7.87193C26.0995 7.93118 26.2743 8.22145 26.4479 8.51723C26.6214 8.81301 26.828 9.16311 26.9071 9.29522C28.3456 11.7016 29.0189 14.2752 28.6226 15.8522L28.5939 15.9661L28.8123 15.8556C30.3169 15.0942 32.8064 15.0376 35.864 15.6948C36.6781 15.8698 37.8105 16.1348 37.9964 16.1938C38.5973 16.3846 40.6146 16.7697 41.0443 16.7757C41.165 16.7773 41.0721 16.8647 40.5273 17.2614C39.5664 17.9612 38.3237 18.8739 36.292 20.3722C36.0063 20.5829 35.4946 20.9586 35.1549 21.2071C34.8153 21.4555 34.1829 21.9201 33.7496 22.2395C33.3164 22.5588 32.8297 22.9161 32.6681 23.0334C32.5067 23.1507 32.119 23.4362 31.8068 23.6679C31.1517 24.1541 31.2364 24.1301 30.8353 23.9429C30.663 23.8626 30.3476 23.7246 30.1343 23.6364C29.9211 23.5481 29.4945 23.3712 29.1866 23.2432C27.3067 22.4617 26.0082 22.1362 24.791 22.1414L24.0572 22.1444L23.9785 21.7941C23.679 20.4613 22.9197 19.2617 20.8722 16.8866C20.6115 16.5843 20.3189 16.2309 20.2217 16.1013L20.0451 15.8657L20.1895 15.3854C20.269 15.1212 20.3905 14.7406 20.4597 14.5395C20.5288 14.3384 20.7047 13.7964 20.8507 13.335C20.9967 12.8737 21.2006 12.2349 21.3037 11.9155C21.4069 11.5961 21.5915 11.0251 21.7138 10.6465C22.2289 9.05294 22.66 7.71377 23.0016 6.64598C23.5664 4.88044 23.7165 4.43096 23.7408 4.43084C23.7548 4.43072 23.8735 4.58067 24.0045 4.76405ZM4.34038 14.5261C4.29891 14.5369 4.23099 14.5369 4.18951 14.5261C4.14804 14.5153 4.18199 14.5064 4.26495 14.5064C4.3479 14.5064 4.38174 14.5153 4.34038 14.5261ZM6.62353 14.5261C6.58205 14.5369 6.51425 14.5369 6.47277 14.5261C6.4313 14.5153 6.46525 14.5064 6.54821 14.5064C6.63105 14.5064 6.665 14.5153 6.62353 14.5261ZM8.34749 14.5272C8.28274 14.5371 8.16642 14.5373 8.08899 14.5277C8.01167 14.518 8.06455 14.5101 8.20672 14.5098C8.3489 14.5096 8.41223 14.5175 8.34749 14.5272ZM45.0297 14.9145C45.0953 14.9243 45.1922 14.9241 45.2452 14.9139C45.2982 14.9037 45.2446 14.8956 45.126 14.896C45.0076 14.8963 44.9642 14.9046 45.0297 14.9145ZM19.1362 16.7226C19.3471 17.0062 19.6579 17.3821 20.461 18.325C22.2758 20.4556 22.8356 21.5553 22.9136 23.1428C22.9294 23.4625 22.9574 23.6778 22.9831 23.6738C23.0068 23.6702 23.2588 23.6122 23.5432 23.5451C24.6759 23.2773 25.8414 23.3717 27.2479 23.8446C28.1954 24.1632 28.6164 24.3302 30.4956 25.134C30.7418 25.2393 30.96 25.3554 30.9806 25.3922C31.0262 25.4736 34.8946 37.0713 34.8946 37.1268C34.8946 37.2 34.8309 37.165 34.4361 36.8749C34.2196 36.7156 33.7765 36.3918 33.4516 36.1553C33.1267 35.9186 32.6351 35.5596 32.3592 35.3573C32.0833 35.1551 31.6056 34.8077 31.2975 34.5853C30.7695 34.2043 30.3726 33.9159 29.8758 33.552C29.7574 33.4653 29.5054 33.2815 29.3158 33.1436C29.1263 33.0058 28.8549 32.8078 28.7127 32.7039C28.5705 32.5999 28.0277 32.2055 27.5064 31.8272C26.9852 31.4489 26.4715 31.0758 26.3648 30.9982C26.2582 30.9204 26.016 30.7438 25.8263 30.6057C25.6368 30.4675 25.3848 30.2835 25.2663 30.1969C25.1479 30.1102 24.8055 29.8613 24.5056 29.6436L23.9603 29.2479L23.7025 29.4323C23.4269 29.6296 22.4461 30.3524 21.4968 31.058C21.177 31.2957 20.8086 31.5663 20.6783 31.6592C20.548 31.752 20.073 32.1005 19.6229 32.4334C18.327 33.3921 17.6361 33.901 17.3036 34.1421C16.7957 34.5101 16.0603 35.051 15.8534 35.2085C15.6117 35.3923 14.4864 36.2194 14.3596 36.3062C14.308 36.3415 14.021 36.5515 13.7217 36.7729C13.4223 36.9943 13.167 37.165 13.1542 37.1522C13.1414 37.1395 13.2221 36.8519 13.3334 36.5131C13.4448 36.1743 13.6422 35.5681 13.7721 35.1659C13.9022 34.7637 14.0734 34.241 14.1527 34.0044C14.232 33.7678 14.5028 32.9355 14.7544 32.1547C15.006 31.374 15.2862 30.5126 15.377 30.2405C15.5739 29.651 15.858 28.7783 16.4765 26.8637C16.7286 26.083 16.984 25.3049 17.0439 25.1347C17.1038 24.9645 17.1795 24.7367 17.2122 24.6282L17.2715 24.4313L16.7456 24.0484C16.4563 23.8379 16.1033 23.5804 15.9611 23.4762C15.819 23.372 15.3149 23.0063 14.841 22.6636C14.3671 22.3209 13.7694 21.8868 13.5128 21.6991C13.2562 21.5112 12.9241 21.2705 12.7749 21.164C12.4337 20.9206 12.0849 20.6687 11.6881 20.3791C11.5179 20.2549 11.0835 19.9402 10.7227 19.68C10.362 19.4197 9.97427 19.1391 9.861 19.0563C9.74773 18.9734 9.40675 18.7263 9.10325 18.5072C7.76398 17.5402 7.48445 17.3371 7.04065 17.0084C6.78156 16.8167 6.52612 16.633 6.47277 16.6002C6.41943 16.5674 6.37584 16.5259 6.37584 16.5079C6.37584 16.49 9.20559 16.4753 12.6641 16.4753H18.9523L19.1362 16.7226Z" fill="#F2F2F2"/>
<path fill-rule="evenodd" clip-rule="evenodd" d="M23.6388 4.69719C23.5994 4.82015 23.5743 4.92786 23.5831 4.93654C23.5918 4.94534 23.6318 4.85359 23.672 4.73274C23.7367 4.53833 23.7533 4.51932 23.8164 4.5686C23.8801 4.61835 23.8814 4.61623 23.8287 4.54901C23.7397 4.43579 23.7168 4.45362 23.6388 4.69719ZM23.2295 5.96737C23.1782 6.12506 23.1434 6.26128 23.1521 6.26996C23.1609 6.27876 23.2108 6.15756 23.2631 6.00081C23.3153 5.84395 23.3502 5.70773 23.3406 5.69811C23.3308 5.68849 23.2809 5.80957 23.2295 5.96737ZM22.8373 7.18793C22.8109 7.26372 22.7905 7.34691 22.7922 7.37295C22.794 7.399 22.8231 7.34456 22.8571 7.25199C22.891 7.15942 22.9112 7.07623 22.9021 7.06696C22.8929 7.05781 22.8636 7.11225 22.8373 7.18793ZM25.67 7.33424C25.6933 7.38164 25.7439 7.45907 25.7824 7.50635L25.8526 7.59236L25.8103 7.50635C25.787 7.45907 25.7364 7.38164 25.6978 7.33424L25.6277 7.24823L25.67 7.33424ZM22.4278 8.45799C22.3896 8.57004 22.3598 8.68232 22.3616 8.70767C22.3633 8.73313 22.402 8.64889 22.4476 8.52065C22.4932 8.39241 22.523 8.28013 22.5138 8.27098C22.5048 8.26194 22.466 8.34606 22.4278 8.45799ZM26.6448 8.94737C26.6816 9.01835 26.7214 9.07643 26.7333 9.07643C26.745 9.07643 26.7247 9.01835 26.6879 8.94737C26.6511 8.87638 26.6114 8.81831 26.5995 8.81831C26.5877 8.81831 26.6081 8.87638 26.6448 8.94737ZM27.054 9.67867C27.1024 9.77335 27.1517 9.85079 27.1635 9.85079C27.1754 9.85079 27.1456 9.77335 27.0972 9.67867C27.0489 9.5841 26.9995 9.50667 26.9878 9.50667C26.9759 9.50667 27.0057 9.5841 27.054 9.67867ZM21.9757 9.85501C21.9492 9.93069 21.9289 10.014 21.9307 10.04C21.9323 10.0661 21.9615 10.0116 21.9954 9.91907C22.0294 9.8265 22.0497 9.7432 22.0404 9.73404C22.0313 9.72478 22.0021 9.77922 21.9757 9.85501ZM27.4936 10.5165C27.5451 10.6224 27.5946 10.7018 27.6037 10.6928C27.6232 10.6734 27.4492 10.324 27.4199 10.324C27.4089 10.324 27.442 10.4106 27.4936 10.5165ZM27.8757 11.3349C27.8757 11.3584 27.9033 11.4263 27.9373 11.4854C27.9711 11.5445 27.9987 11.5735 27.9987 11.5499C27.9987 11.5262 27.9711 11.4585 27.9373 11.3994C27.9033 11.3401 27.8757 11.3112 27.8757 11.3349ZM28.6598 14.1094C28.6598 14.2158 28.6681 14.2594 28.6785 14.2062C28.6887 14.1529 28.6887 14.0658 28.6785 14.0126C28.6681 13.9593 28.6598 14.0029 28.6598 14.1094ZM28.702 14.6471C28.7024 14.7417 28.7112 14.7754 28.7216 14.7219C28.7319 14.6684 28.7315 14.5909 28.7208 14.5497C28.71 14.5087 28.7015 14.5524 28.702 14.6471ZM28.658 15.2708C28.658 15.3537 28.667 15.3875 28.6778 15.346C28.6886 15.3047 28.6886 15.2369 28.6778 15.1955C28.667 15.1541 28.658 15.188 28.658 15.2708ZM31.9124 15.2593C32.0138 15.2685 32.1689 15.2682 32.257 15.2591C32.3453 15.2498 32.2624 15.2424 32.0729 15.2426C31.8833 15.2427 31.8111 15.2503 31.9124 15.2593ZM31.1359 15.3012C31.1892 15.3114 31.2764 15.3114 31.3297 15.3012C31.3831 15.2909 31.3395 15.2826 31.2328 15.2826C31.1262 15.2826 31.0826 15.2909 31.1359 15.3012ZM32.8591 15.3012C32.9123 15.3114 32.9996 15.3114 33.053 15.3012C33.1062 15.2909 33.0626 15.2826 32.9561 15.2826C32.8494 15.2826 32.8058 15.2909 32.8591 15.3012ZM37.1993 16.0451C37.2468 16.0655 37.3146 16.082 37.3502 16.082C37.3908 16.082 37.3829 16.0684 37.3286 16.0451C37.2812 16.0248 37.2133 16.0081 37.1778 16.0081C37.1371 16.0081 37.145 16.0218 37.1993 16.0451ZM38.7933 16.4323C38.8407 16.4525 38.9182 16.4686 38.9656 16.4679C39.0349 16.467 39.0307 16.4599 38.9441 16.4323C38.7967 16.3852 38.6836 16.3852 38.7933 16.4323ZM20.7214 16.7039C20.7214 16.7113 20.7844 16.7741 20.8614 16.8436L21.0014 16.97L20.8748 16.8301C20.7569 16.6999 20.7214 16.6705 20.7214 16.7039ZM21.1917 17.2388C21.3192 17.3867 21.4321 17.5077 21.4427 17.5077C21.4711 17.5077 21.1236 17.0996 21.0358 17.0302C20.9941 16.9971 21.0642 17.0909 21.1917 17.2388ZM22.8323 19.3144C22.8829 19.3854 22.934 19.4435 22.9459 19.4435C22.9576 19.4435 22.926 19.3854 22.8754 19.3144C22.8247 19.2434 22.7736 19.1853 22.7618 19.1853C22.7499 19.1853 22.7816 19.2434 22.8323 19.3144ZM23.5677 20.5833C23.5677 20.607 23.5954 20.6747 23.6293 20.7339C23.6631 20.7931 23.6908 20.822 23.6908 20.7985C23.6908 20.7748 23.6631 20.707 23.6293 20.6478C23.5954 20.5887 23.5677 20.5597 23.5677 20.5833ZM35.3469 21.0173L35.2177 21.1282L35.3577 21.0356C35.4347 20.9848 35.4977 20.9348 35.4977 20.9246C35.4977 20.8923 35.4795 20.9036 35.3469 21.0173ZM24.0217 21.8954C24.0364 21.9782 24.0658 22.0749 24.0872 22.1104C24.133 22.1868 24.0889 21.9639 24.0319 21.8308C24.007 21.7727 24.0037 21.7938 24.0217 21.8954ZM27.9588 22.7484C27.9943 22.7704 28.0718 22.8012 28.131 22.8171C28.2059 22.837 28.219 22.8336 28.1742 22.8059C28.1387 22.784 28.0611 22.7531 28.0018 22.7373C27.9269 22.7174 27.9139 22.7206 27.9588 22.7484ZM29.0358 23.1644C29.095 23.1982 29.1628 23.2258 29.1865 23.2258C29.2103 23.2258 29.1811 23.1982 29.1219 23.1644C29.0627 23.1305 28.9948 23.1029 28.9712 23.1029C28.9474 23.1029 28.9766 23.1305 29.0358 23.1644ZM30.0697 23.5945C30.1289 23.6283 30.1968 23.656 30.2204 23.656C30.2442 23.656 30.215 23.6283 30.1558 23.5945C30.0966 23.5607 30.0288 23.533 30.005 23.533C29.9813 23.533 30.0104 23.5607 30.0697 23.5945ZM31.0761 24.0258C31.1464 24.0664 31.2154 24.0808 31.2369 24.0592C31.2585 24.0378 31.2427 24.0203 31.1999 24.0186C31.1588 24.0169 31.0864 24.0018 31.0389 23.9851C30.9916 23.9683 31.0083 23.9866 31.0761 24.0258Z" fill="#58B694"/>
<path fill-rule="evenodd" clip-rule="evenodd" d="M22.9665 0.133266C22.8974 0.331314 22.9001 0.334834 23.1016 0.312307C23.3348 0.286026 23.3394 0.280042 23.2341 0.139132C23.1089 -0.0285285 23.0237 -0.0304058 22.9665 0.133266ZM31.4052 13.247C31.346 13.2621 31.2543 13.2713 31.2017 13.2676C31.1489 13.2639 31.1137 13.2734 31.1232 13.2888C31.1568 13.3431 31.806 13.3164 31.825 13.2598C31.8478 13.192 31.6378 13.1864 31.5961 13.2536C31.5784 13.2824 31.5561 13.2851 31.5397 13.2604C31.5249 13.238 31.4644 13.232 31.4052 13.247ZM32.0944 13.2441C32.0944 13.2645 32.1429 13.2813 32.2021 13.2813C32.2614 13.2813 32.3098 13.2686 32.3098 13.253C32.3098 13.2375 32.2614 13.2208 32.2021 13.2158C32.1429 13.211 32.0944 13.2237 32.0944 13.2441ZM32.415 13.2731C32.5274 13.3565 32.7406 13.3549 32.7406 13.2705C32.7406 13.1942 32.7199 13.1911 32.6085 13.2506C32.5627 13.2751 32.5252 13.2792 32.5252 13.2597C32.5252 13.2402 32.4816 13.2213 32.4283 13.2177C32.3341 13.2111 32.3337 13.2128 32.415 13.2731ZM32.8104 13.29C32.8507 13.3303 33.1277 13.3258 33.1026 13.2852C33.0894 13.2641 33.0131 13.2512 32.9328 13.2565C32.8524 13.2619 32.7973 13.277 32.8104 13.29ZM33.1714 13.296C33.1714 13.3166 33.215 13.3417 33.2684 13.3519C33.4068 13.3785 33.5635 13.365 33.5262 13.3299C33.4766 13.2833 33.1714 13.2541 33.1714 13.296ZM33.6991 13.3217C33.7406 13.3323 33.7746 13.3591 33.7746 13.381C33.7746 13.4031 33.8463 13.421 33.9339 13.421C34.1554 13.421 34.0623 13.3407 33.8159 13.3191C33.7102 13.3099 33.6577 13.311 33.6991 13.3217ZM34.7739 13.487C34.8167 13.5297 34.9833 13.546 34.9578 13.5049C34.9439 13.4824 34.8918 13.4641 34.8418 13.4641C34.7919 13.4641 34.7613 13.4744 34.7739 13.487ZM35.64 13.6553C35.7298 13.745 36.0842 13.7843 36.0113 13.6966C35.9788 13.6576 35.9135 13.6373 35.8557 13.6483C35.801 13.6587 35.7562 13.6548 35.7562 13.6394C35.7562 13.624 35.7172 13.6085 35.6696 13.605C35.5978 13.5995 35.5928 13.6082 35.64 13.6553ZM36.7471 13.8877C36.8302 13.9414 37.1669 14.0031 37.1231 13.9564C37.1049 13.937 37.0563 13.9178 37.0155 13.9136C36.9745 13.9094 36.8828 13.8923 36.8117 13.8759C36.7211 13.8548 36.7017 13.8583 36.7471 13.8877ZM37.6188 14.0726C37.63 14.1046 37.6738 14.1245 37.7162 14.1168C37.7586 14.109 37.8059 14.123 37.8212 14.1478C37.8393 14.177 37.8939 14.1794 37.9765 14.1548C38.0707 14.1266 38.0815 14.1149 38.0179 14.1098C37.9041 14.1005 37.8126 14.0822 37.6951 14.0449C37.6238 14.0223 37.6038 14.0296 37.6188 14.0726ZM28.7041 14.2814C28.7041 14.4115 28.7121 14.4648 28.722 14.3997C28.7318 14.3347 28.7318 14.2281 28.722 14.1631C28.7121 14.098 28.7041 14.1513 28.7041 14.2814ZM38.101 14.2003C38.0778 14.2379 38.0912 14.2443 38.1473 14.2227C38.1943 14.2048 38.2423 14.2149 38.2654 14.2477C38.2953 14.2898 38.3003 14.2876 38.2868 14.2385C38.2644 14.1561 38.1437 14.1313 38.101 14.2003ZM0.216807 14.5073C0.219862 14.6288 0.423137 14.7218 0.526889 14.6493C0.579412 14.6126 0.661662 14.5825 0.709602 14.5822C0.781394 14.5821 0.775049 14.5706 0.673647 14.5177C0.521132 14.4384 0.214809 14.4313 0.216807 14.5073ZM1.07702 14.4701C1.07702 14.4792 1.13413 14.4952 1.20392 14.5054C1.27384 14.5156 1.32107 14.5081 1.30909 14.4887C1.28782 14.4542 1.07702 14.4373 1.07702 14.4701ZM1.5509 14.487C1.5509 14.5277 3.04186 14.5274 3.08275 14.4867C3.10002 14.4696 2.76233 14.4556 2.33251 14.4557C1.90258 14.4557 1.5509 14.4698 1.5509 14.487ZM4.26492 14.4958C4.18161 14.5129 4.34258 14.5211 4.62505 14.5141C4.90611 14.507 5.14687 14.4906 5.16003 14.4775C5.19411 14.4433 4.44551 14.4587 4.26492 14.4958ZM5.36272 14.4978C5.34956 14.519 5.63168 14.5326 6.00674 14.5287C6.37381 14.525 6.66485 14.5127 6.65357 14.5014C6.61527 14.4631 5.38622 14.4596 5.36272 14.4978ZM6.91431 14.4965C6.92899 14.5202 6.99679 14.5395 7.06506 14.5395C7.13333 14.5395 7.20124 14.5202 7.21593 14.4965C7.23203 14.4705 7.17245 14.4535 7.06506 14.4535C6.95778 14.4535 6.89821 14.4705 6.91431 14.4965ZM8.77797 14.4839C8.83155 14.4942 8.9091 14.4938 8.95035 14.4831C8.99147 14.4723 8.94764 14.4638 8.85294 14.4643C8.75812 14.4648 8.72439 14.4736 8.77797 14.4839ZM9.52069 14.4965C9.52069 14.5202 9.5691 14.5395 9.62832 14.5395C9.68754 14.5395 9.73607 14.5202 9.73607 14.4965C9.73607 14.4729 9.68754 14.4535 9.62832 14.4535C9.5691 14.4535 9.52069 14.4729 9.52069 14.4965ZM10.4153 14.4846C10.4928 14.4942 10.6091 14.494 10.6738 14.4843C10.7386 14.4744 10.6751 14.4665 10.5331 14.4668C10.3909 14.467 10.3379 14.4751 10.4153 14.4846ZM11.3019 14.4827C11.3477 14.5286 12.5793 14.5387 12.5793 14.4933C12.5793 14.4706 12.2977 14.4535 11.9259 14.4535C11.5666 14.4535 11.2858 14.4667 11.3019 14.4827ZM13.6731 14.5054C14.1173 14.5326 14.3287 14.5306 14.3603 14.499C14.3924 14.467 14.2026 14.4554 13.7187 14.4599L13.0316 14.4662L13.6731 14.5054ZM15.3364 14.4938C15.5852 14.5084 15.9826 14.5084 16.2195 14.494C16.5405 14.4744 16.4251 14.4676 15.7672 14.4675C15.0857 14.4672 14.9874 14.4732 15.3364 14.4938ZM16.7365 14.479C16.9384 14.5115 17.2221 14.5155 17.2037 14.4858C17.1927 14.468 17.0637 14.4561 16.9171 14.4594C16.7703 14.4626 16.6891 14.4715 16.7365 14.479ZM17.6317 14.4852C17.745 14.494 17.9195 14.494 18.0195 14.485C18.1195 14.4759 18.0268 14.4687 17.8135 14.4688C17.6002 14.4689 17.5184 14.4763 17.6317 14.4852ZM39.5137 14.5027C39.5268 14.5412 39.5885 14.5568 39.6948 14.5484C39.7983 14.5405 39.8462 14.552 39.8284 14.5807C39.7964 14.6323 39.8342 14.6337 39.9565 14.5856C40.048 14.5496 40.0624 14.5547 39.6283 14.4704C39.5264 14.4507 39.4987 14.4586 39.5137 14.5027ZM8.08895 14.5277C8.16639 14.5373 8.28271 14.5371 8.34745 14.5272C8.4122 14.5175 8.34886 14.5096 8.20669 14.5098C8.06451 14.5101 8.01164 14.518 8.08895 14.5277ZM40.1072 14.6041C40.1072 14.6435 40.1282 14.6688 40.1535 14.6604C40.179 14.6518 40.1998 14.6266 40.1998 14.6041C40.1998 14.5815 40.179 14.5563 40.1535 14.5477C40.1282 14.5393 40.1072 14.5646 40.1072 14.6041ZM40.3467 14.6457C40.3928 14.6804 40.4885 14.7072 40.5596 14.7052C40.6482 14.7027 40.6617 14.6951 40.6027 14.6809C40.5553 14.6695 40.4982 14.6428 40.4756 14.6214C40.453 14.6001 40.3961 14.5826 40.3489 14.5826C40.2642 14.5826 40.2642 14.5834 40.3467 14.6457ZM40.7259 14.6984C40.7422 14.7147 40.7988 14.7342 40.8515 14.7414C40.9275 14.7521 40.934 14.7461 40.8827 14.7123C40.8095 14.6642 40.6802 14.6527 40.7259 14.6984ZM41.1842 14.7546C41.1842 14.7783 41.2376 14.7973 41.3027 14.7969C41.395 14.7965 41.4069 14.7871 41.3566 14.7546C41.2723 14.7003 41.1842 14.7003 41.1842 14.7546ZM41.5559 14.8064C41.5675 14.8252 41.6276 14.8406 41.6894 14.8406C41.7512 14.8406 41.7873 14.8262 41.7694 14.8083C41.7259 14.7649 41.5291 14.7631 41.5559 14.8064ZM28.7041 15.0127C28.7041 15.1428 28.7121 15.1961 28.722 15.131C28.7318 15.066 28.7318 14.9594 28.722 14.8944C28.7121 14.8293 28.7041 14.8826 28.7041 15.0127ZM41.9845 14.846C41.9973 14.8667 42.0346 14.8836 42.0674 14.8836C42.1002 14.8836 42.1374 14.8667 42.1502 14.846C42.163 14.8253 42.1258 14.8083 42.0674 14.8083C42.009 14.8083 41.9717 14.8253 41.9845 14.846ZM42.3044 14.8406C42.3044 14.8643 42.3576 14.8822 42.4228 14.8806C42.5277 14.8779 42.5315 14.8734 42.4551 14.8406C42.3374 14.7901 42.3044 14.7901 42.3044 14.8406ZM42.5883 14.8901C42.6136 14.931 42.7782 14.918 42.7782 14.875C42.7782 14.8567 42.7311 14.8455 42.6737 14.8502C42.6161 14.855 42.5777 14.873 42.5883 14.8901ZM43.0008 14.8784C42.9169 14.9314 43.0558 14.9773 43.195 14.9424C43.2754 14.9222 43.2884 14.9058 43.2454 14.8786C43.1716 14.8319 43.0742 14.8318 43.0008 14.8784ZM44.0275 14.9267C44.0275 14.9503 44.0663 14.9696 44.1136 14.9696C44.1611 14.9696 44.1999 14.9503 44.1999 14.9267C44.1999 14.903 44.1611 14.8836 44.1136 14.8836C44.0663 14.8836 44.0275 14.903 44.0275 14.9267ZM44.2713 14.9458C44.2443 15.0162 45.9546 15.0528 46.0242 14.9834C46.0404 14.9673 46.1308 14.9552 46.2252 14.9565C46.3197 14.9579 46.3969 14.9459 46.3969 14.9298C46.3969 14.8791 46.0323 14.89 45.9985 14.9417C45.9751 14.9775 45.9551 14.974 45.9263 14.9294C45.8918 14.8758 45.8765 14.8758 45.8103 14.9294C45.7627 14.968 45.7463 14.9711 45.7665 14.9374C45.7844 14.9078 45.7784 14.8836 45.7532 14.8836C45.7282 14.8836 45.7076 14.903 45.7076 14.9267C45.7076 14.9503 45.6871 14.9696 45.6621 14.9696C45.6369 14.9696 45.6283 14.9503 45.643 14.9267C45.6577 14.903 45.6383 14.8836 45.5999 14.8836C45.5582 14.8836 45.5426 14.9036 45.561 14.9333C45.5807 14.9653 45.5727 14.9713 45.5383 14.95C45.4634 14.9038 44.6306 14.897 44.6306 14.9427C44.6306 14.9633 44.6064 14.9626 44.5768 14.941C44.4813 14.8716 44.2987 14.8745 44.2713 14.9458ZM46.44 14.9489C46.44 15.0382 46.8435 15.0893 46.9266 15.0106C46.967 14.9723 47 14.9281 47 14.9123C47 14.861 46.6742 14.8822 46.6146 14.9374C46.5746 14.9746 46.5655 14.9754 46.5854 14.9401C46.6038 14.9072 46.5829 14.8913 46.5271 14.8954C46.4791 14.899 46.44 14.9231 46.44 14.9489ZM31.3952 15.259C31.4726 15.2685 31.589 15.2684 31.6536 15.2585C31.7183 15.2486 31.655 15.2409 31.5128 15.2411C31.3706 15.2414 31.3178 15.2493 31.3952 15.259ZM32.5145 15.2589C32.5915 15.2685 32.7174 15.2685 32.7945 15.2589C32.8715 15.2494 32.8085 15.2416 32.6544 15.2416C32.5004 15.2416 32.4374 15.2494 32.5145 15.2589ZM33.2042 15.3012C33.2578 15.3115 33.3354 15.3111 33.3766 15.3004C33.4177 15.2896 33.3739 15.2811 33.2791 15.2816C33.1844 15.2821 33.1506 15.2909 33.2042 15.3012ZM6.3758 16.5079C6.3758 16.5259 6.4194 16.5678 6.47274 16.6008C6.56145 16.656 6.56463 16.655 6.51058 16.5897C6.45547 16.5232 6.88176 16.5182 12.696 16.5182H18.9406L19.0786 16.7103C19.1545 16.8158 19.2402 16.9163 19.269 16.9336C19.327 16.9684 19.3228 16.9619 19.0887 16.6581L18.9478 16.4753H12.6618C9.2045 16.4753 6.3758 16.49 6.3758 16.5079ZM6.76355 16.792C6.76355 16.8038 6.82172 16.8549 6.8928 16.9054C6.96389 16.956 7.02205 16.9877 7.02205 16.9758C7.02205 16.964 6.96389 16.9129 6.8928 16.8624C6.82172 16.8119 6.76355 16.7802 6.76355 16.792ZM19.4205 17.1527C19.4909 17.2414 19.6819 17.4689 19.8448 17.6582C20.6042 18.5403 21.0778 19.1141 21.3888 19.5294C21.7389 19.997 21.8373 20.1169 21.7769 20.0026C21.6912 19.8404 20.9769 18.9299 20.461 18.325C20.1481 17.9582 19.7668 17.5081 19.6137 17.3249C19.3308 16.9864 19.1864 16.8577 19.4205 17.1527ZM7.24789 17.1456C7.26187 17.1684 7.36562 17.2531 7.47831 17.3338C7.59111 17.4146 7.67183 17.4623 7.65773 17.4395C7.64375 17.4169 7.53999 17.3321 7.42731 17.2513C7.31451 17.1705 7.23379 17.1229 7.24789 17.1456ZM7.72165 17.4897C7.73716 17.5146 7.87193 17.6189 8.02127 17.7214C8.17062 17.824 8.26379 17.8791 8.22819 17.844C8.1282 17.7451 7.69016 17.4387 7.72165 17.4897ZM8.50185 18.0564C8.51865 18.0836 8.5935 18.1493 8.66811 18.2024C8.74273 18.2554 8.79008 18.2766 8.77327 18.2494C8.75635 18.2222 8.68151 18.1565 8.60689 18.1035C8.53228 18.0503 8.48493 18.0292 8.50185 18.0564ZM8.97103 18.3931C8.98513 18.4158 9.08888 18.5005 9.20156 18.5813C9.31424 18.6622 9.39497 18.7097 9.38098 18.687C9.36688 18.6643 9.26313 18.5796 9.15045 18.4987C9.03777 18.4179 8.95704 18.3704 8.97103 18.3931ZM9.69295 18.9263C9.7759 19.0011 9.88247 19.0827 9.92994 19.1075C10.0443 19.1676 9.97342 19.1031 9.73607 18.931L9.54219 18.7904L9.69295 18.9263ZM10.092 19.2118C10.1056 19.2338 10.2089 19.3178 10.3216 19.3986C10.4344 19.4795 10.5125 19.5229 10.4952 19.4951C10.4781 19.4673 10.3748 19.3831 10.2656 19.3083C10.1566 19.2333 10.0785 19.1899 10.092 19.2118ZM10.6943 19.6406C10.7083 19.6632 10.812 19.7479 10.9247 19.8287C11.0375 19.9096 11.1182 19.9572 11.1041 19.9345C11.0901 19.9118 10.9864 19.8271 10.8737 19.7463C10.7609 19.6654 10.6802 19.6179 10.6943 19.6406ZM11.4377 20.1949C11.5678 20.3087 11.7177 20.4062 11.7177 20.377C11.7177 20.3685 11.6256 20.2984 11.5131 20.2216C11.3582 20.1157 11.3398 20.1093 11.4377 20.1949ZM21.9507 20.3253C22.0355 20.4671 22.2192 20.8156 22.3587 21.0995C22.4983 21.3835 22.6135 21.5942 22.6148 21.5679C22.6184 21.4866 22.0225 20.3328 21.9061 20.1962C21.8246 20.1004 21.8361 20.1336 21.9507 20.3253ZM11.9481 20.5514C11.965 20.5786 12.0399 20.6443 12.1145 20.6973C12.1891 20.7504 12.2365 20.7716 12.2196 20.7444C12.2027 20.7171 12.1279 20.6514 12.0533 20.5984C11.9787 20.5453 11.9313 20.5241 11.9481 20.5514ZM12.4262 20.9023C12.4587 20.9546 12.8378 21.2212 12.8378 21.1916C12.8378 21.1809 12.7388 21.1012 12.6179 21.0143C12.497 20.9276 12.4107 20.8772 12.4262 20.9023ZM13.0637 21.3612C13.0777 21.3839 13.1814 21.4686 13.2941 21.5495C13.4069 21.6303 13.4876 21.6778 13.4735 21.6552C13.4595 21.6324 13.3558 21.5477 13.2431 21.4669C13.1303 21.386 13.0496 21.3385 13.0637 21.3612ZM13.5374 21.7053C13.5529 21.7302 13.6877 21.8345 13.8371 21.937C13.9864 22.0395 14.0796 22.0948 14.044 22.0596C13.944 21.9607 13.5059 21.6544 13.5374 21.7053ZM22.6772 21.8786C22.7706 22.1827 22.8367 22.6344 22.8611 23.1336C22.8763 23.4481 22.9049 23.7151 22.9245 23.7273C22.9441 23.7394 22.9518 23.6951 22.9414 23.6289C22.9311 23.5627 22.9124 23.2762 22.8998 22.9922C22.8792 22.522 22.7618 21.8937 22.6802 21.817C22.6632 21.8009 22.6618 21.8286 22.6772 21.8786ZM14.3129 22.2646C14.327 22.2872 14.4307 22.3719 14.5435 22.4528C14.6561 22.5336 14.7369 22.5811 14.7229 22.5585C14.7088 22.5358 14.605 22.4511 14.4924 22.3703C14.3797 22.2895 14.2989 22.2418 14.3129 22.2646ZM14.7868 22.6087C14.8009 22.6313 14.9045 22.7161 15.0173 22.7969C15.13 22.8777 15.2107 22.9254 15.1968 22.9026C15.1827 22.88 15.0789 22.7952 14.9662 22.7144C14.8535 22.6336 14.7728 22.5859 14.7868 22.6087ZM15.262 22.9549C15.2767 22.9786 15.4094 23.0826 15.557 23.1859C15.7045 23.2893 15.8133 23.3544 15.7986 23.3307C15.7839 23.307 15.6511 23.203 15.5036 23.0996C15.356 22.9963 15.2473 22.9311 15.262 22.9549ZM15.9826 23.4881C16.1345 23.623 16.2841 23.7212 16.2841 23.686C16.2841 23.6756 16.1824 23.5967 16.058 23.5107C15.8514 23.3678 15.8449 23.3658 15.9826 23.4881ZM29.8112 23.5085C29.8704 23.5423 29.9383 23.57 29.9619 23.57C29.9857 23.57 29.9566 23.5423 29.8973 23.5085C29.8381 23.4746 29.7703 23.447 29.7466 23.447C29.7229 23.447 29.752 23.4746 29.8112 23.5085ZM23.2631 23.616C23.1765 23.6436 23.1723 23.6507 23.2415 23.6517C23.2889 23.6523 23.3664 23.6364 23.4139 23.616C23.5236 23.5689 23.4104 23.5689 23.2631 23.616ZM26.494 23.6398C26.6007 23.6732 26.7073 23.6995 26.731 23.6981C26.8064 23.6935 26.4763 23.5796 26.3864 23.5791C26.3389 23.5789 26.3875 23.6062 26.494 23.6398ZM16.5101 23.8561C16.524 23.8789 16.6278 23.9636 16.7405 24.0444C16.8533 24.1253 16.934 24.1728 16.9199 24.1501C16.9058 24.1274 16.8022 24.0427 16.6894 23.9618C16.5767 23.881 16.496 23.8335 16.5101 23.8561ZM27.4884 23.9348C27.5231 23.969 27.9754 24.13 27.9915 24.1139C28.0005 24.1049 27.8991 24.057 27.7663 24.0074C27.5309 23.9194 27.452 23.8988 27.4884 23.9348ZM16.9735 24.1886C16.9735 24.1993 17.0446 24.2622 17.1316 24.3285C17.2186 24.3947 17.2762 24.4269 17.2595 24.4001C17.2254 24.345 16.9735 24.1588 16.9735 24.1886ZM28.7728 24.4372C28.8769 24.4834 28.9699 24.5135 28.9792 24.5041C28.9978 24.4855 28.6659 24.3454 28.6149 24.3503C28.5975 24.3519 28.6686 24.3911 28.7728 24.4372ZM29.8491 24.8859C29.9765 24.9463 30.0888 24.9877 30.0986 24.978C30.1083 24.9683 30.0331 24.9267 29.9315 24.8857C29.6367 24.7667 29.5977 24.7668 29.8491 24.8859ZM16.9998 25.2345C16.9616 25.3464 16.9318 25.4587 16.9335 25.4842C16.9353 25.5095 16.974 25.4253 17.0195 25.297C17.0651 25.1689 17.095 25.0565 17.0858 25.0473C17.0768 25.0383 17.038 25.1224 16.9998 25.2345ZM30.5978 25.2113C30.7177 25.2809 30.9743 25.3829 30.9743 25.3607C30.9743 25.3388 30.5922 25.1637 30.5488 25.1658C30.534 25.1665 30.5561 25.187 30.5978 25.2113ZM31.1069 25.7907C31.1023 25.8551 31.282 26.3772 31.3019 26.3574C31.311 26.3484 31.2715 26.2069 31.2143 26.0431C31.1569 25.8793 31.1086 25.7657 31.1069 25.7907ZM16.5688 26.5673C16.5029 26.7696 16.4565 26.9426 16.4658 26.9519C16.475 26.9611 16.5366 26.8033 16.6025 26.601C16.6686 26.3987 16.715 26.2257 16.7057 26.2164C16.6964 26.2071 16.6348 26.365 16.5688 26.5673ZM31.5375 27.0819C31.5331 27.1468 31.6698 27.5387 31.6899 27.5186C31.6989 27.5095 31.6691 27.3972 31.6236 27.2689C31.578 27.1407 31.5393 27.0566 31.5375 27.0819ZM16.1412 27.8824C16.0788 28.0765 16.0351 28.2425 16.0439 28.2512C16.0526 28.26 16.1123 28.1099 16.1765 27.9176C16.2406 27.7253 16.2843 27.5593 16.2738 27.5488C16.2632 27.5382 16.2035 27.6884 16.1412 27.8824ZM31.9328 28.3155C31.9437 28.3451 31.9866 28.4721 32.0279 28.5979C32.0693 28.7237 32.1108 28.8189 32.1201 28.8097C32.1419 28.7879 31.9643 28.2618 31.9351 28.2618C31.9229 28.2618 31.9218 28.2859 31.9328 28.3155ZM15.7456 29.0791C15.7053 29.2004 15.682 29.3095 15.694 29.3215C15.706 29.3334 15.7458 29.241 15.7826 29.1159C15.8692 28.8208 15.8409 28.7927 15.7456 29.0791ZM23.78 29.3425C23.6299 29.4739 23.6299 29.474 23.7679 29.3822C23.8443 29.3315 23.9181 29.2717 23.9321 29.2491C23.9737 29.182 23.9391 29.2031 23.78 29.3425ZM32.3613 29.5953C32.3734 29.6307 32.427 29.7917 32.4803 29.9529C32.5335 30.1141 32.5848 30.2384 32.5942 30.229C32.6151 30.2081 32.4076 29.5912 32.3677 29.556C32.352 29.5421 32.3492 29.5597 32.3613 29.5953ZM23.2415 29.7278C22.986 29.9206 22.9515 29.9751 23.1912 29.8073C23.3723 29.6806 23.4708 29.5925 23.4272 29.5965C23.4199 29.5971 23.3363 29.6562 23.2415 29.7278ZM24.609 29.7064C24.6231 29.7291 24.7267 29.8138 24.8395 29.8946C24.9522 29.9754 25.0329 30.0231 25.0189 30.0003C25.0048 29.9777 24.9011 29.893 24.7884 29.8121C24.6757 29.7313 24.595 29.6836 24.609 29.7064ZM15.3193 30.3992C15.2576 30.5841 15.2086 30.7547 15.2104 30.7783C15.2122 30.8019 15.2702 30.6582 15.3393 30.4587C15.4083 30.2594 15.4573 30.0888 15.4481 30.0796C15.4389 30.0705 15.381 30.2143 15.3193 30.3992ZM25.2172 30.1446C25.2512 30.1998 25.5033 30.386 25.5033 30.356C25.5033 30.3455 25.4321 30.2826 25.3451 30.2163C25.2581 30.15 25.2005 30.1178 25.2172 30.1446ZM25.7187 30.5142C25.7187 30.5261 25.7768 30.5771 25.8479 30.6277C25.919 30.6782 25.9772 30.7099 25.9772 30.6981C25.9772 30.6862 25.919 30.6352 25.8479 30.5846C25.7768 30.5342 25.7187 30.5025 25.7187 30.5142ZM21.9706 30.6759C21.8206 30.8073 21.8205 30.8075 21.9587 30.7158C22.0349 30.6651 22.1087 30.6051 22.1227 30.5826C22.1643 30.5155 22.1299 30.5366 21.9706 30.6759ZM32.7944 30.8965C32.8053 30.926 32.8481 31.0532 32.8896 31.1789C32.9309 31.3046 32.9724 31.3999 32.9817 31.3906C33.0035 31.3689 32.8259 30.8427 32.7967 30.8427C32.7845 30.8427 32.7835 30.8669 32.7944 30.8965ZM21.4321 31.0613C21.1766 31.2542 21.1423 31.3086 21.3818 31.1408C21.5629 31.0141 21.6615 30.926 21.6178 30.93C21.6105 30.9306 21.527 30.9897 21.4321 31.0613ZM26.3372 30.9619C26.3713 31.0171 26.6233 31.2033 26.6233 31.1733C26.6233 31.1628 26.5521 31.0999 26.4651 31.0336C26.3782 30.9673 26.3206 30.9352 26.3372 30.9619ZM14.8888 31.7292C14.8228 31.9315 14.7763 32.1046 14.7856 32.1138C14.7949 32.1231 14.8565 31.9652 14.9225 31.7629C14.9884 31.5606 15.0348 31.3876 15.0256 31.3783C15.0163 31.369 14.9547 31.527 14.8888 31.7292ZM20.8075 31.5362C20.6573 31.6676 20.6573 31.6679 20.7954 31.5761C20.8718 31.5254 20.9456 31.4655 20.9596 31.443C21.0011 31.3759 20.9666 31.397 20.8075 31.5362ZM27.4418 31.7595C27.4418 31.7702 27.513 31.8331 27.5999 31.8994C27.6869 31.9655 27.7445 31.9978 27.7279 31.9709C27.6938 31.9159 27.4418 31.7297 27.4418 31.7595ZM20.3121 31.9004L20.1829 32.0113L20.3229 31.9187C20.3999 31.8679 20.4629 31.8179 20.4629 31.8076C20.4629 31.7755 20.4447 31.7867 20.3121 31.9004ZM33.1917 32.0831C33.2759 32.3566 33.4238 32.7515 33.4267 32.7107C33.4308 32.6512 33.2235 32.0412 33.1878 32.0079C33.1729 31.9941 33.1746 32.0278 33.1917 32.0831ZM19.7951 32.2657C19.5396 32.4587 19.5051 32.5131 19.7448 32.3453C19.9259 32.2186 20.0245 32.1305 19.9808 32.1344C19.9735 32.1351 19.89 32.1942 19.7951 32.2657ZM28.1957 32.3255C28.3257 32.4393 28.4757 32.5369 28.4757 32.5077C28.4757 32.499 28.3837 32.429 28.2711 32.3521C28.1162 32.2464 28.0979 32.2399 28.1957 32.3255ZM28.5724 32.5884C28.5864 32.6112 28.6901 32.6959 28.8028 32.7767C28.9156 32.8576 28.9963 32.9051 28.9822 32.8825C28.9682 32.8597 28.8645 32.775 28.7518 32.6941C28.639 32.6133 28.5583 32.5658 28.5724 32.5884ZM14.4595 33.0427C14.3729 33.3378 14.4011 33.3661 14.4963 33.0796C14.5368 32.9582 14.5599 32.8491 14.5479 32.8372C14.5359 32.8252 14.4961 32.9177 14.4595 33.0427ZM18.632 33.126C18.3764 33.319 18.342 33.3735 18.5817 33.2057C18.7628 33.0789 18.8612 32.9909 18.8176 32.9947C18.8104 32.9954 18.7268 33.0545 18.632 33.126ZM29.1804 33.0268C29.2145 33.0818 29.4666 33.2681 29.4666 33.2382C29.4666 33.2275 29.3953 33.1646 29.3084 33.0983C29.2214 33.0322 29.1639 32.9999 29.1804 33.0268ZM18.072 33.5347C17.9298 33.6418 17.7941 33.7508 17.7704 33.777C17.7171 33.8357 18.0679 33.5913 18.2442 33.4467C18.4603 33.2696 18.3471 33.3275 18.072 33.5347ZM33.6559 33.4775C33.6669 33.5071 33.7097 33.6342 33.7511 33.7598C33.7926 33.8856 33.834 33.9809 33.8432 33.9717C33.8651 33.9499 33.6875 33.4237 33.6582 33.4237C33.646 33.4237 33.645 33.4479 33.6559 33.4775ZM29.8267 33.4999C29.8608 33.555 30.1128 33.7413 30.1128 33.7114C30.1128 33.7007 30.0416 33.6378 29.9546 33.5715C29.8676 33.5053 29.81 33.4731 29.8267 33.4999ZM17.5335 33.9452C17.3833 34.0766 17.3833 34.0767 17.5214 33.985C17.5976 33.9343 17.6716 33.8745 17.6855 33.8519C17.727 33.7847 17.6926 33.8059 17.5335 33.9452ZM30.3282 33.8695C30.3282 33.8814 30.3863 33.9324 30.4574 33.983C30.5285 34.0334 30.5867 34.0651 30.5867 34.0533C30.5867 34.0415 30.5285 33.9905 30.4574 33.9399C30.3863 33.8894 30.3282 33.8577 30.3282 33.8695ZM14.0919 34.161C14.0419 34.3088 14.0024 34.4502 14.0041 34.4752C14.0059 34.5002 14.0542 34.3866 14.1115 34.2228C14.1689 34.059 14.2084 33.9175 14.1993 33.9085C14.1903 33.8994 14.1418 34.013 14.0919 34.161ZM16.8872 34.4184C16.7372 34.5498 16.7371 34.5499 16.8753 34.4582C16.9515 34.4075 17.0253 34.3476 17.0393 34.3251C17.0809 34.2579 17.0463 34.2791 16.8872 34.4184ZM30.9313 34.2975C30.9313 34.3081 31.0024 34.3711 31.0895 34.4373C31.1764 34.5036 31.234 34.5358 31.2174 34.509C31.1832 34.4538 30.9313 34.2676 30.9313 34.2975ZM34.058 34.6819C34.1407 34.9423 34.2425 35.204 34.2453 35.1635C34.2496 35.1013 34.0733 34.5851 34.0476 34.5851C34.0365 34.5851 34.0411 34.6288 34.058 34.6819ZM16.3487 34.8037C16.0932 34.9966 16.0589 35.051 16.2984 34.8832C16.4795 34.7565 16.5781 34.6684 16.5344 34.6724C16.5271 34.6731 16.4436 34.7321 16.3487 34.8037ZM31.5774 34.7728C31.5774 34.7847 31.6356 34.8357 31.7067 34.8863C31.7778 34.9369 31.8359 34.9685 31.8359 34.9567C31.8359 34.9448 31.7778 34.8938 31.7067 34.8432C31.6356 34.7927 31.5774 34.7611 31.5774 34.7728ZM32.0618 35.1265C32.0759 35.1491 32.1795 35.2338 32.2923 35.3146C32.405 35.3955 32.4857 35.4431 32.4717 35.4204C32.4576 35.3977 32.3539 35.313 32.2412 35.2322C32.1285 35.1513 32.0478 35.1038 32.0618 35.1265ZM15.7241 35.2786C15.5739 35.41 15.5739 35.4103 15.712 35.3185C15.7884 35.2678 15.8622 35.208 15.8762 35.1854C15.9177 35.1182 15.8832 35.1394 15.7241 35.2786ZM13.6394 35.5577C13.5735 35.76 13.5271 35.9331 13.5364 35.9423C13.5457 35.9515 13.6072 35.7936 13.6731 35.5914C13.7392 35.3891 13.7855 35.2161 13.7762 35.2068C13.767 35.1976 13.7055 35.3555 13.6394 35.5577ZM15.2287 35.6428L15.0995 35.7537L15.2395 35.6612C15.3165 35.6103 15.3795 35.5603 15.3795 35.5501C15.3795 35.5179 15.3613 35.5291 15.2287 35.6428ZM32.6976 35.5901C32.6976 35.602 32.7557 35.653 32.8268 35.7036C32.8979 35.7542 32.9561 35.7858 32.9561 35.774C32.9561 35.7621 32.8979 35.7111 32.8268 35.6605C32.7557 35.6101 32.6976 35.5784 32.6976 35.5901ZM14.6302 36.0694C14.3639 36.2702 14.28 36.3444 14.3886 36.2832C14.4859 36.2284 14.9056 35.9108 14.9056 35.892C14.9056 35.8635 14.8893 35.8739 14.6302 36.0694ZM34.4887 35.9724C34.5715 36.2327 34.6732 36.4945 34.676 36.454C34.6804 36.3918 34.504 35.8757 34.4785 35.8757C34.4672 35.8757 34.4718 35.9192 34.4887 35.9724ZM33.1819 35.9438C33.1959 35.9665 33.2996 36.0511 33.4123 36.1319C33.5251 36.2128 33.6058 36.2604 33.5917 36.2377C33.5778 36.215 33.474 36.1303 33.3613 36.0495C33.2485 35.9686 33.1678 35.9211 33.1819 35.9438ZM33.6558 36.2879C33.6698 36.3106 33.7735 36.3953 33.8862 36.4762C33.999 36.5569 34.0797 36.6045 34.0656 36.5818C34.0516 36.5591 33.9479 36.4744 33.8352 36.3936C33.7224 36.3127 33.6417 36.2652 33.6558 36.2879ZM14.0854 36.481L13.9363 36.6131L14.0979 36.4974C14.2407 36.3951 14.2871 36.3489 14.247 36.3489C14.2402 36.3489 14.1675 36.4083 14.0854 36.481ZM13.23 36.8265C13.1761 36.9936 13.1422 37.1403 13.1544 37.1525C13.1963 37.1943 13.2648 37.1204 13.2412 37.0588C13.2282 37.0249 13.2504 36.8986 13.2906 36.7778C13.3306 36.6571 13.3555 36.5503 13.3458 36.5406C13.336 36.5309 13.2839 36.6596 13.23 36.8265ZM34.4362 36.8553C34.4703 36.9103 34.7223 37.0965 34.7223 37.0666C34.7223 37.056 34.6511 36.9931 34.5642 36.9268C34.4771 36.8606 34.4195 36.8284 34.4362 36.8553ZM38.6641 42.2116C38.675 42.4207 38.7051 42.495 38.7577 42.4425C38.7737 42.4266 38.7567 42.3218 38.72 42.2095L38.6533 42.0055L38.6641 42.2116ZM9.34503 42.2933C9.31518 42.4135 9.32282 42.4572 9.3737 42.4572C9.44314 42.4572 9.45618 42.3465 9.39144 42.3066C9.36771 42.292 9.34679 42.286 9.34503 42.2933Z" fill="#9EC5D4"/>
</g>
</svg>
