<svg width="36" height="36" viewBox="0 0 36 36" fill="none" xmlns="http://www.w3.org/2000/svg">
<defs>
<linearGradient id="paint0_linear_1680:7503" x1="12.2679" y1="17.9999" x2="23.9414" y2="17.9999" gradientUnits="userSpaceOnUse">
<stop stop-color="#FF976D"/>
<stop offset="1" stop-color="#FF7A52"/>
</linearGradient>
<linearGradient id="paint1_linear_1680:7503" x1="4.45093" y1="18" x2="31.8633" y2="18" gradientUnits="userSpaceOnUse">
<stop stop-color="#CE4634"/>
<stop offset="1" stop-color="#FF5C37"/>
</linearGradient>
</defs>
<path d="M23.8418 28.3163L26.2532 30.7277C27.4871 31.9617 29.4942 31.9617 30.7278 30.7277C31.9618 29.4941 31.9618 27.487 30.7278 26.253L28.3164 23.8417L23.8418 28.3163Z" fill="#E85B48"/>
<path d="M5.27216 5.27216C4.03818 6.50574 4.03818 8.51284 5.27216 9.74682L7.68353 12.1582L12.1582 7.68353L9.74682 5.27216C8.51324 4.03818 6.50574 4.03818 5.27216 5.27216Z" fill="#FFB997"/>
<path d="M21.164 32.8358C21.164 34.5808 19.7444 36 17.9999 36L15.1875 29.4254H21.164V32.8358Z" fill="#E85B48"/>
<path d="M14.8359 32.8358V29.4254H18.0001V36C16.2556 36 14.8359 34.5808 14.8359 32.8358Z" fill="#FFB997"/>
<path d="M21.164 3.16414C21.164 1.41922 19.7444 0 17.9999 0L15.1875 6.57458H21.164V3.16414Z" fill="#E85B48"/>
<path d="M14.8359 3.16414V6.57458H18.0001V0C16.2556 0 14.8359 1.41922 14.8359 3.16414Z" fill="#FFB997"/>
<path d="M28.3164 12.1582L30.7278 9.74682C31.9618 8.51284 31.9618 6.50574 30.7278 5.27216C29.4942 4.03818 27.4871 4.03818 26.2532 5.27216L23.8418 7.68353L28.3164 12.1582Z" fill="#E85B48"/>
<path d="M5.27216 30.7277C6.50574 31.9617 8.51284 31.9617 9.74682 30.7277L12.1582 28.3163L7.68353 23.8417L5.27216 26.253C4.03818 27.4866 4.03818 29.4941 5.27216 30.7277Z" fill="#FFB997"/>
<path d="M29.4253 21.164H32.8357C34.5806 21.164 35.9999 19.7444 35.9999 17.9999C35.9999 16.2554 34.5806 14.8358 32.8357 14.8358H29.4253V21.164Z" fill="#E85B48"/>
<path d="M0 17.9999C0 19.7444 1.41922 21.164 3.16414 21.164H6.57458V14.8358H3.16414C1.41922 14.8358 0 16.2554 0 17.9999Z" fill="#FFB997"/>
<path d="M29.2499 16.9452H20.5461L26.7005 10.7907L25.2093 9.29945L19.0548 15.4539V6.75006H17.2969V29.25H19.0548V20.5461L25.2093 26.7006L26.7005 25.2093L20.5461 19.0549H29.2499V16.9452Z" fill="#CE4634"/>
<path d="M16.9451 6.75006V15.4539L10.7907 9.29945L9.29939 10.7907L15.4538 16.9452H6.75V19.0549H15.4538L9.29939 25.2093L10.7907 26.7006L16.9451 20.5461V29.25H18V6.75006H16.9451Z" fill="#CE4634"/>
<path d="M18.0002 12.7265L15.3633 17.9999L18.0002 23.2733C20.9127 23.2733 23.2736 20.9125 23.2736 17.9999C23.2736 15.0874 20.9127 12.7265 18.0002 12.7265Z" fill="url(#paint0_linear_1680:7503)"/>
<path d="M12.7266 17.9999C12.7266 20.9125 15.0874 23.2733 18 23.2733V12.7265C15.0874 12.7265 12.7266 15.0874 12.7266 17.9999Z" fill="#FF7F6D"/>
<path d="M17.9999 4.289L15.1875 6.3987L17.9999 8.50799C23.2424 8.50799 27.4919 12.7575 27.4919 18C27.4919 23.2425 23.2424 27.492 17.9999 27.492L15.8906 29.6017L17.9999 31.711C25.5723 31.711 31.7109 25.5724 31.7109 18C31.7109 10.4276 25.5723 4.289 17.9999 4.289Z" fill="url(#paint1_linear_1680:7503)"/>
<path d="M8.50805 18C8.50805 12.7575 12.7576 8.50799 18.0001 8.50799V4.289C10.4276 4.289 4.28906 10.4276 4.28906 18C4.28906 25.572 10.4276 31.711 18.0001 31.711V27.492C12.7576 27.492 8.50805 23.2425 8.50805 18Z" fill="#FF7F6D"/>
</svg>
