<svg width="36" height="36" viewBox="0 0 36 36" fill="none" xmlns="http://www.w3.org/2000/svg">
<path d="M9.3103 21.1035H27.3103C28.3387 21.1035 29.1724 20.2698 29.1724 19.2414V1.86207C29.1724 0.833677 28.3387 0 27.3103 0H11.1724C10.144 0 9.3103 0.833677 9.3103 1.86207V21.1035Z" fill="#CB8252"/>
<path d="M17.069 16.138H15.8276C16.5651 16.1378 17.2008 16.6568 17.3483 17.3794C17.3816 17.5343 17.39 17.6935 17.3731 17.8511C17.26 18.6613 16.5586 19.2587 15.7407 19.2414H13.9655C14.703 19.2413 15.3387 19.7602 15.4862 20.4828C15.5195 20.6377 15.5279 20.797 15.511 20.9545C15.3979 21.7647 14.6965 22.3622 13.8786 22.3449H8.57793C7.84193 22.3462 7.12227 22.128 6.51103 21.718L4.66138 20.489C4.05015 20.079 3.33048 19.8608 2.59448 19.8621H1.24138C0.556633 19.8601 0.00204505 19.3055 0 18.6207V11.1725C0.00204505 10.4877 0.556633 9.93313 1.24138 9.93109H2.48276C3.27631 9.93105 4.03746 9.61632 4.59931 9.05591L5.95241 7.70281C6.51426 7.1424 7.27541 6.82767 8.06897 6.82764H9.31035V9.93109H15.8276C16.6846 9.93109 17.3793 10.6258 17.3793 11.4828C17.3793 12.3398 16.6846 13.0345 15.8276 13.0345H16.9821C17.7424 13.0212 18.4103 13.5369 18.5897 14.2759C18.6009 14.325 18.6092 14.3748 18.6145 14.4249C18.6602 14.8625 18.5181 15.299 18.2233 15.6257C17.9286 15.9524 17.509 16.1386 17.069 16.138Z" fill="#FDD7AD"/>
<path d="M29.9607 35.3794L17.5966 35.3793C16.9108 35.3814 16.238 35.1922 15.6538 34.8331L6.86484 29.4642C6.456 29.2116 6.20705 28.7654 6.20691 28.2849C6.20629 27.9211 6.35162 27.5723 6.61036 27.3166C6.99237 26.9341 7.56277 26.8103 8.06898 27L16.5352 30.178C16.648 30.2225 16.7643 30.2578 16.8828 30.2835C17.1961 30.3702 17.5197 30.4141 17.8448 30.4138H19.0304C18.699 30.4168 18.3807 30.2846 18.149 30.0476C17.9174 29.8154 17.7878 29.5004 17.789 29.1725C17.789 27.8013 18.9005 26.6897 20.2717 26.6897H22.1338C22.9397 26.6901 23.7238 26.4287 24.3683 25.9449L24.8648 25.5725C25.5093 25.0887 26.2935 24.8273 27.0993 24.8276H29.7931L29.9607 35.3794Z" fill="#FDD7AD"/>
<path d="M24.5172 30.8979C24.3265 31.1825 23.9432 31.2625 23.6545 31.0779C23.021 30.6518 22.2765 30.4209 21.5131 30.4137H19.0303C18.6989 30.4167 18.3806 30.2845 18.149 30.0475C17.9174 29.8153 17.7878 29.5004 17.7889 29.1724H21.5131C22.518 29.1815 23.4988 29.4812 24.3372 30.0351C24.6225 30.2255 24.7026 30.6093 24.5172 30.8979Z" fill="#F9C795"/>
<path d="M16.1379 0H22.3448V5.58621C22.3448 6.2718 21.789 6.82759 21.1034 6.82759H17.3793C16.6937 6.82759 16.1379 6.2718 16.1379 5.58621V0Z" fill="#F9EAB0"/>
<path d="M21.7241 18.6207C21.3813 18.6207 21.1034 18.3428 21.1034 18V16.7586C21.1034 16.4158 21.3813 16.1379 21.7241 16.1379C22.0669 16.1379 22.3448 16.4158 22.3448 16.7586V18C22.3448 18.3428 22.0669 18.6207 21.7241 18.6207Z" fill="#3F5C6C"/>
<path d="M24.2069 18.6207C23.8641 18.6207 23.5862 18.3428 23.5862 18V16.7586C23.5862 16.4158 23.8641 16.1379 24.2069 16.1379C24.5497 16.1379 24.8276 16.4158 24.8276 16.7586V18C24.8276 18.3428 24.5497 18.6207 24.2069 18.6207Z" fill="#3F5C6C"/>
<path d="M26.6897 18.6207C26.3469 18.6207 26.069 18.3428 26.069 18V16.7586C26.069 16.4158 26.3469 16.1379 26.6897 16.1379C27.0325 16.1379 27.3103 16.4158 27.3103 16.7586V18C27.3103 18.3428 27.0325 18.6207 26.6897 18.6207Z" fill="#3F5C6C"/>
<path d="M15.4863 20.4828H11.7932C11.4504 20.4828 11.1725 20.2049 11.1725 19.8621C11.1725 19.5193 11.4504 19.2415 11.7932 19.2415H13.9656C14.7031 19.2413 15.3388 19.7602 15.4863 20.4828Z" fill="#F9C795"/>
<path d="M17.3483 17.3793H11.7932C11.4504 17.3793 11.1725 17.1014 11.1725 16.7586C11.1725 16.4158 11.4504 16.1379 11.7932 16.1379H15.8277C16.5651 16.1378 17.2009 16.6567 17.3483 17.3793Z" fill="#F9C795"/>
<path d="M18.5897 14.2758H11.7932C11.4504 14.2758 11.1725 13.9979 11.1725 13.6551C11.1725 13.3123 11.4504 13.0344 11.7932 13.0344H16.9821C17.7425 13.0211 18.4103 13.5368 18.5897 14.2758Z" fill="#F9C795"/>
<path d="M9.31031 8.6897V9.93108H8.06893C7.72613 9.93108 7.44824 9.65319 7.44824 9.31039C7.44824 8.96759 7.72613 8.6897 8.06893 8.6897H9.31031Z" fill="#F9C795"/>
<path d="M31.0345 36H34.7586C35.4442 36 36 35.4442 36 34.7586V24.8276C36 24.142 35.4442 23.5862 34.7586 23.5862H31.0345C30.3489 23.5862 29.7931 24.142 29.7931 24.8276V34.7586C29.7931 35.4442 30.3489 36 31.0345 36Z" fill="#3B97D3"/>
</svg>
