<svg width="36" height="36" viewBox="0 0 36 36" fill="none" xmlns="http://www.w3.org/2000/svg">
<g clip-path="url(#clip0)">
<path d="M18 8.88742C17.4175 8.88742 16.9453 8.4152 16.9453 7.83273V4.51869C16.9453 3.93622 17.4175 3.464 18 3.464C18.5825 3.464 19.0547 3.93622 19.0547 4.51869V7.83273C19.0547 8.41527 18.5825 8.88742 18 8.88742Z" fill="#225763"/>
<path d="M24.7781 5.57346H18C17.4175 5.57346 16.9453 5.10124 16.9453 4.51877V1.05469C16.9453 0.472219 17.4175 0 18 0H24.7781C25.3606 0 25.8328 0.472219 25.8328 1.05469V4.51877C25.8328 5.10124 25.3606 5.57346 24.7781 5.57346Z" fill="#41D8BF"/>
<path d="M11.2218 36.0001H2.18433C1.60186 36.0001 1.12964 35.5279 1.12964 34.9454V19.1297C1.12964 18.5473 1.60186 18.075 2.18433 18.075H11.2218C11.8043 18.075 12.2765 18.5473 12.2765 19.1297V34.9454C12.2765 35.5279 11.8043 36.0001 11.2218 36.0001Z" fill="#FFC823"/>
<path d="M11.2219 20.1845H1.05468C0.62809 20.1845 0.24348 19.9275 0.0802849 19.5334C-0.0829104 19.1393 0.00730054 18.6856 0.308941 18.384L4.82764 13.8652C5.02543 13.6674 5.29368 13.5562 5.57338 13.5562H11.2219C11.8043 13.5562 12.2766 14.0285 12.2766 14.6109V19.1297C12.2766 19.7123 11.8043 20.1845 11.2219 20.1845Z" fill="#FF4B4B"/>
<path d="M6.70312 31.4812C6.12066 31.4812 5.64844 31.009 5.64844 30.4265V29.2969C5.64844 28.7144 6.12066 28.2422 6.70312 28.2422C7.28559 28.2422 7.75781 28.7144 7.75781 29.2969V30.4265C7.75781 31.0091 7.28566 31.4812 6.70312 31.4812Z" fill="#FFA400"/>
<path d="M6.70312 25.8328C6.12066 25.8328 5.64844 25.3606 5.64844 24.7781V23.6484C5.64844 23.066 6.12066 22.5937 6.70312 22.5937C7.28559 22.5937 7.75781 23.066 7.75781 23.6484V24.7781C7.75781 25.3607 7.28566 25.8328 6.70312 25.8328Z" fill="#FFA400"/>
<path d="M33.8156 36.0001H24.7781C24.1956 36.0001 23.7234 35.5279 23.7234 34.9454V19.1297C23.7234 18.5473 24.1956 18.075 24.7781 18.075H33.8156C34.398 18.075 34.8702 18.5473 34.8702 19.1297V34.9454C34.8702 35.5279 34.398 36.0001 33.8156 36.0001Z" fill="#FFA400"/>
<path d="M34.9453 20.1845H24.7781C24.1956 20.1845 23.7234 19.7123 23.7234 19.1298V14.6111C23.7234 14.0286 24.1956 13.5564 24.7781 13.5564H30.4265C30.7062 13.5564 30.9744 13.6675 31.1722 13.8654L35.6909 18.3842C35.9926 18.6858 36.0828 19.1394 35.9196 19.5336C35.7564 19.9276 35.3719 20.1845 34.9453 20.1845Z" fill="#DF2635"/>
<path d="M29.2969 31.4812C28.7144 31.4812 28.2422 31.009 28.2422 30.4265V29.2969C28.2422 28.7144 28.7144 28.2422 29.2969 28.2422C29.8793 28.2422 30.3516 28.7144 30.3516 29.2969V30.4265C30.3516 31.0091 29.8793 31.4812 29.2969 31.4812Z" fill="#FD8900"/>
<path d="M29.2969 25.8328C28.7144 25.8328 28.2422 25.3606 28.2422 24.7781V23.6484C28.2422 23.0659 28.7144 22.5937 29.2969 22.5937C29.8793 22.5937 30.3516 23.0659 30.3516 23.6484V24.7781C30.3516 25.3607 29.8793 25.8328 29.2969 25.8328Z" fill="#FD8900"/>
<path d="M24.7782 35.9999H11.2219C10.6395 35.9999 10.1672 35.5277 10.1672 34.9452V14.6108C10.1672 14.3311 10.2784 14.0628 10.4762 13.8651L17.2543 7.08706C17.6661 6.67524 18.334 6.67524 18.7459 7.08706L25.524 13.8651C25.7218 14.0629 25.8329 14.3311 25.8329 14.6108V34.9452C25.8329 35.5277 25.3606 35.9999 24.7782 35.9999Z" fill="#FFEB64"/>
<path d="M24.7781 36.0001C25.3606 36.0001 25.8328 35.5279 25.8328 34.9454V14.6111C25.8328 14.3313 25.7216 14.0631 25.5239 13.8653L18.7457 7.08728C18.5398 6.88133 18.2699 6.7784 18 6.7784V36.0001H24.7781Z" fill="#FFC823"/>
<path d="M15.7407 25.8328C15.1583 25.8328 14.686 25.3606 14.686 24.7781V23.6484C14.686 23.0659 15.1583 22.5937 15.7407 22.5937C16.3232 22.5937 16.7954 23.0659 16.7954 23.6484V24.7781C16.7954 25.3607 16.3232 25.8328 15.7407 25.8328Z" fill="#FFC823"/>
<path d="M20.2593 25.8328C19.6768 25.8328 19.2046 25.3606 19.2046 24.7781V23.6484C19.2046 23.0659 19.6768 22.5937 20.2593 22.5937C20.8417 22.5937 21.314 23.0659 21.314 23.6484V24.7781C21.314 25.3607 20.8417 25.8328 20.2593 25.8328Z" fill="#FFA400"/>
<path d="M20.2595 36H15.7407C15.1583 36 14.686 35.5278 14.686 34.9453V29.2969C14.686 28.7144 15.1583 28.2422 15.7407 28.2422H20.2595C20.842 28.2422 21.3142 28.7144 21.3142 29.2969V34.9453C21.3142 35.5278 20.842 36 20.2595 36Z" fill="#A0583E"/>
<path d="M18.0001 20.1845C16.1727 20.1845 14.686 18.6978 14.686 16.8705C14.686 15.0431 16.1727 13.5564 18.0001 13.5564C19.8274 13.5564 21.3141 15.0432 21.3141 16.8705C21.3141 18.6979 19.8274 20.1845 18.0001 20.1845Z" fill="#FFA400"/>
<path d="M21.314 16.8705C21.314 15.0432 19.8274 13.5564 18 13.5564V20.1846C19.8274 20.1845 21.314 18.6979 21.314 16.8705Z" fill="#FD8900"/>
<path d="M21.314 34.9453V29.2969C21.314 28.7144 20.8418 28.2422 20.2594 28.2422H18V36H20.2594C20.8418 36 21.314 35.5278 21.314 34.9453Z" fill="#84442E"/>
</g>
<defs>
<clipPath id="clip0">
<rect width="36" height="36" fill="white"/>
</clipPath>
</defs>
</svg>
