<svg width="36" height="36" viewBox="0 0 36 36" fill="none" xmlns="http://www.w3.org/2000/svg">
<g clip-path="url(#clip0)">
<path d="M16.2933 16.9453H26.7571L17.5303 10.7944C17.3572 10.679 17.1533 10.6172 16.9453 10.6172H14.8359C14.4713 10.6172 14.1314 10.8067 13.9378 11.1177C13.7462 11.4288 13.7297 11.8171 13.8924 12.1436L16.2933 16.9453Z" fill="#66CCFF"/>
<path d="M35.8502 19.0547C35.3785 17.2401 33.7407 15.8906 31.7812 15.8906H7.96972L3.84576 11.9634C3.65008 11.7759 3.38845 11.6719 3.11859 11.6719H1.05457C0.685856 11.6719 0.345967 11.8635 0.154365 12.1786C-0.0372357 12.4928 -0.0516498 12.8841 0.117311 13.2116L3.14194 19.0547L3.89315 20.5059C4.43695 21.5627 5.51435 22.2187 6.70495 22.2187H33.8906C35.0545 22.2187 36 21.2722 36 20.1094C36 19.7431 35.9384 19.3938 35.8502 19.0547Z" fill="#EDF1F9"/>
<path d="M6.70499 22.2188H33.8907C35.0546 22.2188 36.0001 21.2722 36.0001 20.1094C36.0001 19.7431 35.9386 19.3938 35.8503 19.0547H3.14197L3.89319 20.5059C4.43698 21.5627 5.51438 22.2188 6.70499 22.2188Z" fill="#D8E0F0"/>
<path d="M11.6719 8.50781H3.16406C1.41933 8.50781 0 7.08848 0 5.34375C0 3.9183 0.947601 2.63981 2.24536 2.24536C2.6408 0.947601 3.84792 0 5.27344 0C6.64945 0 7.82156 0.881648 8.25623 2.10938H11.6719C13.4166 2.10938 14.8359 3.59902 14.8359 5.34375C14.8359 7.08848 13.4166 8.50781 11.6719 8.50781Z" fill="#EDF1F9"/>
<path d="M32.8359 36H20.1094C18.3646 36 16.9453 34.5104 16.9453 32.7656C16.9453 31.0209 18.3646 29.6016 20.1094 29.6016H23.3785C23.8688 27.1976 26.0008 25.3828 28.5469 25.3828C31.1486 25.3828 33.3859 27.2759 33.8144 29.756C35.0813 30.1691 36 31.3618 36 32.7656C36 34.5104 34.5806 36 32.8359 36ZM33.8906 30.6562H33.9112H33.8906Z" fill="#D8E0F0"/>
<path d="M12.3557 29.6016H10.6171C10.2174 29.6016 9.85287 29.376 9.67365 29.0186C9.49442 28.6612 9.53359 28.2338 9.77251 27.9145L14.5186 21.5864C14.7184 21.3206 15.0315 21.1641 15.3632 21.1641H20.2659C20.7129 21.1641 21.1125 21.4473 21.2608 21.8696C21.4091 22.2919 21.2752 22.7625 20.9251 23.0427L13.0149 29.3709C12.8274 29.5202 12.5946 29.6016 12.3557 29.6016Z" fill="#59ABFF"/>
</g>
<defs>
<clipPath id="clip0">
<rect width="36" height="36" fill="white"/>
</clipPath>
</defs>
</svg>
