<svg width="37" height="36" viewBox="0 0 37 36" fill="none" xmlns="http://www.w3.org/2000/svg">
<path d="M2.75 31.5H34.25V34.875H2.75V31.5Z" fill="#758190"/>
<path d="M28.3595 29.25H8.6405C7.09869 29.25 5.68962 30.1213 5 31.5H32C31.3104 30.1213 29.9013 29.25 28.3595 29.25Z" fill="#C18E59"/>
<path d="M28.3595 29.25H8.6405C7.09869 29.25 5.68962 28.3787 5 27H32C31.3104 28.3787 29.9013 29.25 28.3595 29.25Z" fill="#976947"/>
<path d="M29.75 27V24.75H7.25V27" fill="#758190"/>
<path d="M15.6875 9V6.75H21.3125V9" fill="#C1C8D1"/>
<path d="M14.5625 11.25V9H22.4375V11.25" fill="#A8B0BC"/>
<path d="M17.375 6.75L18.5 1.125L19.625 6.75" fill="#A8B0BC"/>
<path d="M28.625 24.75L28.4501 24.444C27.0905 22.0641 26.375 19.3708 26.375 16.6297V16.3125C26.375 13.5163 24.1087 11.25 21.3125 11.25H15.6875C12.8913 11.25 10.625 13.5163 10.625 16.3125V16.6297C10.625 19.3708 9.9095 22.0641 8.54994 24.444L8.375 24.75" fill="#A8B0BC"/>
<path d="M14.5627 23.0625C20.1545 23.0625 24.6877 19.1588 24.6877 14.3438C24.6877 13.6406 24.5802 12.96 24.398 12.3052C23.543 11.646 22.4754 11.25 21.3127 11.25H15.6877C12.8915 11.25 10.6252 13.5163 10.6252 16.3125V16.6297C10.6252 18.4618 10.2984 20.2703 9.68018 21.9808C11.1286 22.6687 12.7919 23.0625 14.5627 23.0625Z" fill="#C1C8D1"/>
<path d="M12.8721 15.1875L14.5597 13.4999L16.2474 15.1875L14.5597 16.8751L12.8721 15.1875Z" fill="#758190"/>
<path d="M20.7466 15.1881L22.4342 13.5005L24.1219 15.1881L22.4342 16.8758L20.7466 15.1881Z" fill="#758190"/>
<path d="M12.8716 20.812L14.5592 19.1244L16.2469 20.812L14.5592 22.4996L12.8716 20.812Z" fill="#758190"/>
<path d="M20.7461 20.8125L22.4337 19.1249L24.1214 20.8125L22.4337 22.5001L20.7461 20.8125Z" fill="#758190"/>
<path d="M16.8091 18L18.4967 16.3124L20.1844 18L18.4967 19.6876L16.8091 18Z" fill="#758190"/>
<path d="M8.9375 3.375C8.91838 3.375 8.90037 3.38006 8.88125 3.38063C8.62306 2.09419 7.48737 1.125 6.125 1.125C4.76262 1.125 3.62694 2.09419 3.36875 3.38063C3.34962 3.38006 3.33162 3.375 3.3125 3.375C2.38044 3.375 1.625 4.13044 1.625 5.0625C1.625 5.99456 2.38044 6.75 3.3125 6.75C3.78556 6.75 4.21137 6.55425 4.51794 6.24094C4.97413 6.55988 5.5265 6.75 6.125 6.75C6.7235 6.75 7.27588 6.55988 7.73206 6.24094C8.03863 6.55425 8.46444 6.75 8.9375 6.75C9.86956 6.75 10.625 5.99456 10.625 5.0625C10.625 4.13044 9.86956 3.375 8.9375 3.375Z" fill="#A1CDFB"/>
<path d="M33.6875 3.375C33.6684 3.375 33.6504 3.38006 33.6313 3.38063C33.3731 2.09419 32.2374 1.125 30.875 1.125C29.5126 1.125 28.3769 2.09419 28.1187 3.38063C28.0996 3.38006 28.0816 3.375 28.0625 3.375C27.1304 3.375 26.375 4.13044 26.375 5.0625C26.375 5.99456 27.1304 6.75 28.0625 6.75C28.5356 6.75 28.9614 6.55425 29.2679 6.24094C29.7241 6.55988 30.2765 6.75 30.875 6.75C31.4735 6.75 32.0259 6.55988 32.4821 6.24094C32.7886 6.55425 33.2144 6.75 33.6875 6.75C34.6196 6.75 35.375 5.99456 35.375 5.0625C35.375 4.13044 34.6196 3.375 33.6875 3.375Z" fill="#A1CDFB"/>
</svg>
