<svg width="36" height="36" viewBox="0 0 36 36" fill="none" xmlns="http://www.w3.org/2000/svg">
<path d="M34.2581 8.42456H1.74194C0.781403 8.42456 0 9.20596 0 10.1665V29.3278C0 30.2883 0.781403 31.0697 1.74194 31.0697H34.2581C35.2186 31.0697 36 30.2883 36 29.3278V10.1665C36 9.20596 35.2186 8.42456 34.2581 8.42456Z" fill="#FF4F19"/>
<path d="M19.7419 28.1665H16.2581V31.0697H19.7419V28.1665Z" fill="#E3001E"/>
<path d="M33.6933 26.4246V28.1665C33.6933 28.4871 33.4334 28.7471 33.1127 28.7471H2.91915C2.59848 28.7471 2.3385 28.4871 2.3385 28.1665V26.4246L5.80648 24.6826L19.742 25.2633L31.3549 24.6826L33.6933 26.4246Z" fill="#E6BE8A"/>
<path d="M3.15315 27.2262C7.92453 25.2564 13.3205 25.3763 18.0159 27.5858V6.68255C13.1657 4.40025 7.56801 4.34763 2.68333 6.52462C2.47314 6.61832 2.3385 6.83105 2.3385 7.0612V26.6954C2.3385 27.1148 2.76549 27.3863 3.15315 27.2262Z" fill="#FFEBB7"/>
<path d="M18.0159 27.5858C22.7113 25.3763 28.1073 25.2564 32.8786 27.2262C33.2663 27.3863 33.6933 27.1148 33.6933 26.6954V7.0612C33.6933 6.83105 33.5586 6.61832 33.3484 6.52462C28.4638 4.34763 22.866 4.40025 18.0159 6.68255V27.5858Z" fill="#FFD788"/>
<path d="M20.3384 23.7938C20.0912 23.7938 19.8621 23.635 19.7844 23.387C19.6886 23.0811 19.8587 22.755 20.1643 22.6589C20.7518 22.4744 21.3562 22.3167 21.9612 22.19C22.2743 22.1242 22.5827 22.3246 22.6485 22.6391C22.7143 22.953 22.5136 23.2606 22.1994 23.3264C21.6312 23.4455 21.0636 23.5938 20.5125 23.767C20.4546 23.785 20.3957 23.7938 20.3384 23.7938Z" fill="#868491"/>
<path d="M31.3707 23.7939C31.3134 23.7939 31.2544 23.7851 31.1966 23.7669C29.0057 23.0789 26.7346 22.8211 24.4489 23.0032C24.1245 23.0264 23.8495 22.7897 23.8241 22.4701C23.7991 22.1503 24.0373 21.8707 24.3571 21.8453C26.7965 21.6536 29.2121 21.9263 31.5448 22.659C31.8505 22.7551 32.0206 23.0811 31.9247 23.387C31.847 23.6351 31.6179 23.7939 31.3707 23.7939Z" fill="#868491"/>
<path d="M31.3707 21.4644C31.3135 21.4644 31.2544 21.4556 31.1967 21.4375C27.7015 20.3397 24.0078 20.3397 20.5126 21.4375C20.2053 21.5336 19.8797 21.3632 19.7845 21.0576C19.6887 20.7517 19.8588 20.4256 20.1644 20.3295C23.8876 19.1603 27.8217 19.1603 31.5448 20.3295C31.8505 20.4256 32.0206 20.7517 31.9247 21.0576C31.847 21.3057 31.6179 21.4644 31.3707 21.4644Z" fill="#868491"/>
<path d="M20.3384 19.1485C20.0912 19.1485 19.8621 18.9897 19.7844 18.7417C19.6886 18.4358 19.8587 18.1098 20.1643 18.0137C22.3014 17.3429 24.5191 17.0573 26.7532 17.1623C27.073 17.1776 27.3208 17.4495 27.3055 17.7699C27.2908 18.0908 27.0231 18.3358 26.6976 18.3224C24.6013 18.2235 22.5186 18.4917 20.5124 19.1217C20.4546 19.1398 20.3957 19.1485 20.3384 19.1485Z" fill="#868491"/>
<path d="M31.3708 19.1487C31.3135 19.1487 31.2545 19.1399 31.1967 19.1218C30.463 18.8912 29.706 18.7064 28.9467 18.5726C28.6308 18.5167 28.4199 18.2157 28.4761 17.8998C28.5317 17.5842 28.8333 17.373 29.1486 17.4289C29.9573 17.5715 30.763 17.7683 31.5449 18.0138C31.8506 18.1099 32.0207 18.4359 31.9248 18.7419C31.847 18.9899 31.618 19.1487 31.3708 19.1487Z" fill="#868491"/>
<path d="M31.3707 16.8191C31.3135 16.8191 31.2544 16.8104 31.1967 16.7922C27.7015 15.6944 24.0078 15.6944 20.5126 16.7922C20.2053 16.8877 19.8797 16.7177 19.7845 16.4123C19.6887 16.1064 19.8588 15.7804 20.1644 15.6843C23.8876 14.5151 27.8217 14.5151 31.5448 15.6843C31.8505 15.7804 32.0206 16.1064 31.9247 16.4123C31.847 16.6604 31.6179 16.8191 31.3707 16.8191Z" fill="#868491"/>
<path d="M20.3384 14.4966C20.0912 14.4966 19.8621 14.3378 19.7844 14.0898C19.6886 13.7839 19.8587 13.4578 20.1643 13.3617C21.3324 12.9948 22.5413 12.7403 23.7587 12.6053C24.0819 12.5665 24.3649 12.8001 24.4 13.1181C24.4352 13.4368 24.2055 13.724 23.8869 13.7592C22.7443 13.8862 21.6085 14.1252 20.5125 14.4697C20.4546 14.4877 20.3957 14.4966 20.3384 14.4966Z" fill="#868491"/>
<path d="M31.3708 14.4967C31.3135 14.4967 31.2545 14.4879 31.1967 14.4698C29.5574 13.9546 27.8552 13.6796 26.1365 13.6527C25.8155 13.6476 25.5598 13.3836 25.5649 13.063C25.57 12.7426 25.8501 12.4727 26.1546 12.4914C27.985 12.5203 29.799 12.8132 31.5449 13.3618C31.8505 13.4579 32.0207 13.7839 31.9248 14.0898C31.8465 14.3379 31.618 14.4967 31.3708 14.4967Z" fill="#868491"/>
<path d="M20.3384 12.1808C20.0912 12.1808 19.8621 12.022 19.7844 11.774C19.6886 11.4681 19.8587 11.1421 20.1643 11.046C22.6944 10.2513 25.3129 9.99608 27.9508 10.2895C28.2695 10.3246 28.4991 10.6119 28.4639 10.9306C28.4288 11.249 28.1476 11.4849 27.8226 11.4434C25.3481 11.169 22.8877 11.4074 20.5124 12.1539C20.4546 12.1721 20.3957 12.1808 20.3384 12.1808Z" fill="#868491"/>
<path d="M31.3707 12.1809C31.3134 12.1809 31.2544 12.1721 31.1966 12.1539C30.828 12.038 30.4498 11.9328 30.0716 11.8407C29.7603 11.7647 29.5692 11.4506 29.6452 11.139C29.7212 10.8274 30.0331 10.6369 30.3472 10.7123C30.7492 10.8104 31.1518 10.9226 31.5448 11.046C31.8504 11.1421 32.0205 11.4681 31.9247 11.7741C31.8469 12.0221 31.6179 12.1809 31.3707 12.1809Z" fill="#868491"/>
<path d="M20.3385 9.85149C20.0913 9.85149 19.8622 9.69247 19.7845 9.44439C19.6887 9.13817 19.8588 8.81244 20.165 8.71663C20.5642 8.59128 20.9668 8.47929 21.362 8.3832C21.6716 8.30691 21.9874 8.4986 22.0634 8.81019C22.1394 9.12177 21.9477 9.4359 21.6364 9.5116C21.2656 9.60175 20.8874 9.70691 20.512 9.82457C20.4541 9.84264 20.3958 9.85149 20.3385 9.85149Z" fill="#868491"/>
<path d="M31.3707 9.85148C31.3135 9.85148 31.2545 9.8427 31.1967 9.82455C28.8208 9.07806 26.3616 8.83992 23.8864 9.11406C23.5655 9.15318 23.2803 8.91925 23.2451 8.60121C23.21 8.2825 23.4396 7.9953 23.7583 7.96017C26.395 7.66673 29.0141 7.92192 31.5448 8.71661C31.8504 8.81271 32.0205 9.13874 31.9247 9.44467C31.847 9.69267 31.6179 9.85148 31.3707 9.85148Z" fill="#868491"/>
<path d="M4.66104 23.7938C4.41383 23.7938 4.18477 23.635 4.10703 23.387C4.01123 23.0811 4.18128 22.755 4.48692 22.6589C5.07439 22.4744 5.67884 22.3167 6.28387 22.19C6.59742 22.1242 6.90538 22.3246 6.97113 22.6391C7.03689 22.953 6.83621 23.2606 6.52201 23.3264C5.95385 23.4455 5.38627 23.5938 4.83509 23.767C4.77724 23.785 4.71831 23.7938 4.66104 23.7938Z" fill="#B4B6BC"/>
<path d="M15.6933 23.7939C15.6361 23.7939 15.5771 23.7851 15.5193 23.7669C13.3288 23.0789 11.0573 22.8211 8.77154 23.0032C8.44268 23.0264 8.17217 22.7897 8.14669 22.4701C8.12173 22.1503 8.35994 21.8707 8.67973 21.8453C11.1191 21.6536 13.5341 21.9263 15.8675 22.659C16.1731 22.7551 16.3432 23.0811 16.2473 23.387C16.1696 23.6351 15.9405 23.7939 15.6933 23.7939Z" fill="#B4B6BC"/>
<path d="M15.6933 21.4644C15.6361 21.4644 15.5771 21.4556 15.5193 21.4375C12.0241 20.3397 8.3304 20.3397 4.83521 21.4375C4.52674 21.5336 4.20238 21.3632 4.10716 21.0576C4.01135 20.7517 4.18141 20.4256 4.48704 20.3295C8.21021 19.1603 12.1443 19.1603 15.8675 20.3295C16.1731 20.4256 16.3432 20.7517 16.2474 21.0576C16.1696 21.3057 15.9406 21.4644 15.6933 21.4644Z" fill="#B4B6BC"/>
<path d="M4.66104 19.1485C4.41383 19.1485 4.18477 18.9897 4.10703 18.7417C4.01123 18.4358 4.18128 18.1098 4.48692 18.0137C6.62406 17.3429 8.84343 17.0573 11.0759 17.1623C11.3957 17.1776 11.6435 17.4495 11.6281 17.7699C11.6128 18.0908 11.3423 18.3358 11.0203 18.3224C8.92335 18.2235 6.84122 18.4917 4.83502 19.1217C4.77724 19.1398 4.71831 19.1485 4.66104 19.1485Z" fill="#B4B6BC"/>
<path d="M15.6933 19.1487C15.636 19.1487 15.577 19.1399 15.5192 19.1218C14.7855 18.8912 14.0285 18.7064 13.2692 18.5726C12.9534 18.5167 12.7424 18.2157 12.7986 17.8998C12.8536 17.5842 13.1564 17.373 13.4711 17.4289C14.2798 17.5715 15.0855 17.7683 15.8675 18.0138C16.1731 18.1099 16.3432 18.4359 16.2473 18.7419C16.1695 18.9899 15.9405 19.1487 15.6933 19.1487Z" fill="#B4B6BC"/>
<path d="M4.66104 16.8192C4.41383 16.8192 4.18477 16.6604 4.10703 16.4124C4.01123 16.1065 4.18128 15.7804 4.48692 15.6843C7.78767 14.6481 11.3095 14.5327 14.6692 15.3509C14.9811 15.4269 15.1722 15.741 15.0962 16.0526C15.0202 16.3639 14.7044 16.5536 14.3948 16.4793C11.2398 15.7101 7.93392 15.8193 4.83509 16.7923C4.77724 16.8104 4.71831 16.8192 4.66104 16.8192Z" fill="#B4B6BC"/>
<path d="M4.66104 14.4966C4.41383 14.4966 4.18477 14.3378 4.10703 14.0898C4.01123 13.7839 4.18128 13.4578 4.48692 13.3617C5.65503 12.9948 6.86394 12.7403 8.08133 12.6053C8.4017 12.5665 8.68753 12.8001 8.72265 13.1181C8.75778 13.4368 8.52814 13.724 8.20951 13.7592C7.06694 13.8862 5.93113 14.1252 4.83509 14.4697C4.77724 14.4877 4.71831 14.4966 4.66104 14.4966Z" fill="#B4B6BC"/>
<path d="M14.5326 14.173C14.4872 14.173 14.4407 14.1676 14.3948 14.1565C13.1077 13.843 11.7831 13.6731 10.459 13.6524C10.138 13.6474 9.88232 13.3834 9.8874 13.0627C9.89248 12.7424 10.1431 12.4724 10.4771 12.4912C11.8879 12.5136 13.2981 12.6942 14.6692 13.0281C14.9811 13.1041 15.1722 13.4182 15.0962 13.7298C15.0315 13.9952 14.7939 14.173 14.5326 14.173Z" fill="#B4B6BC"/>
<path d="M4.66104 12.1808C4.41383 12.1808 4.18477 12.022 4.10703 11.774C4.01123 11.4681 4.18128 11.1421 4.48692 11.046C7.01759 10.2513 9.63616 9.99608 12.2735 10.2895C12.5922 10.3246 12.8218 10.6119 12.7866 10.9306C12.7515 11.249 12.4679 11.4849 12.1453 11.4434C9.67071 11.169 7.21037 11.4074 4.83502 12.1539C4.77724 12.1721 4.71831 12.1808 4.66104 12.1808Z" fill="#B4B6BC"/>
<path d="M4.66104 9.85149C4.41383 9.85149 4.18476 9.69247 4.10703 9.44439C4.01122 9.13817 4.18128 8.81244 4.4875 8.71663C4.88669 8.59128 5.28929 8.47929 5.68449 8.3832C5.99354 8.30691 6.30992 8.4986 6.38591 8.81019C6.4619 9.12177 6.27022 9.4359 5.95892 9.5116C5.58811 9.60175 5.20989 9.70691 4.8345 9.82457C4.77666 9.84264 4.7183 9.85149 4.66104 9.85149Z" fill="#B4B6BC"/>
<path d="M14.5327 9.52759C14.4873 9.52759 14.4408 9.52222 14.3949 9.51111C12.3655 9.01691 10.2845 8.88394 8.20908 9.11388C7.89038 9.153 7.60289 8.91965 7.56776 8.60102C7.53263 8.28232 7.76227 7.99512 8.0809 7.95999C10.2906 7.71387 12.5083 7.85678 14.6693 8.3827C14.9812 8.45869 15.1723 8.77282 15.0963 9.08441C15.0316 9.34977 14.794 9.52759 14.5327 9.52759Z" fill="#B4B6BC"/>
<path d="M14.532 15.682C14.5321 15.9138 14.7905 16.0522 14.9834 15.9236L16.2739 15.0632L17.5645 15.9236C17.7574 16.0522 18.0159 15.9139 18.0159 15.682V6.73065C18.0159 6.50129 17.8821 6.28957 17.6725 6.19638C16.7683 5.79428 15.8392 5.47181 14.8954 5.22249C14.7113 5.17386 14.5303 5.31627 14.5304 5.50672L14.532 15.682Z" fill="#5D647F"/>
</svg>
