<svg width="36" height="36" viewBox="0 0 36 36" fill="none" xmlns="http://www.w3.org/2000/svg">
<g clip-path="url(#clip0)">
<path d="M18 1.54663C8.48611 1.54663 0.773438 9.25931 0.773438 18.7735C0.773438 22.3512 1.86438 25.674 3.73123 28.4277L15.9629 35.8795C16.6311 35.9583 17.3106 36 18 36C27.5142 36 35.2268 28.2874 35.2268 18.7735C35.2268 9.25931 27.5142 1.54663 18 1.54663Z" fill="#15D4F0"/>
<path d="M17.9605 35.9995H18.0401C20.0657 35.9951 22.0087 35.6402 23.8132 34.9937C24.6204 34.2708 25.1291 33.221 25.1288 32.0518L25.1274 3.94711C25.1274 1.76715 23.36 0 21.18 0L7.59872 0.000549316C5.41849 0.000823978 3.65134 1.76797 3.65161 3.94821L3.65271 28.3096C6.733 32.9348 11.9897 35.986 17.9605 35.9995Z" fill="#6244BD"/>
<path d="M7.59872 0.000549316C5.41849 0.000823978 3.65134 1.76797 3.65161 3.94821L3.65271 28.3093C4.78925 30.016 6.22214 31.5077 7.87778 32.7123C7.84152 32.4978 7.82175 32.2776 7.82175 32.0529L7.82065 3.94821C7.82037 1.76797 9.58752 0.000823978 11.7675 0.000549316V0.000274658C11.765 0.000274658 11.7702 0 11.7675 0L7.59872 0.000549316Z" fill="#4E2AA5"/>
<path d="M9.81882 33.9368L21.1817 33.9362C22.2224 33.9359 23.0659 33.0925 23.0659 32.0521L23.0645 3.94711C23.0642 2.90671 22.2207 2.06323 21.1803 2.06323H18.6617C18.4035 2.06323 18.1693 2.21155 18.0555 2.44363C17.8073 2.95093 17.2862 3.30029 16.6831 3.30029L12.096 3.30057C11.4931 3.30057 10.9721 2.9512 10.7235 2.44391C10.6101 2.21182 10.3755 2.06378 10.1174 2.06378H7.59875C6.55807 2.06378 5.7146 2.90753 5.7146 3.94794L5.71597 30.8488C6.91733 32.071 8.29913 33.115 9.81882 33.9368Z" fill="#E6FCFF"/>
<path d="M7.59875 2.06372C6.55807 2.06372 5.7146 2.90747 5.7146 3.94788L5.71597 30.8487C6.38312 31.5274 7.10574 32.1506 7.87698 32.7117C7.841 32.4975 7.82178 32.2775 7.82178 32.0528L7.8204 3.94815C7.8204 3.26562 7.99371 2.62375 8.29831 2.06372H7.59875Z" fill="#CCEBFF"/>
<path d="M20.3304 12.3989H8.44846C8.10156 12.3989 7.82031 12.6802 7.82031 13.0271V20.6233C7.82031 20.9702 8.10156 21.2514 8.44846 21.2514H20.3304C20.6773 21.2514 20.9586 20.9702 20.9586 20.6233V13.0268C20.9586 12.6802 20.6773 12.3989 20.3304 12.3989Z" fill="#5F83FA"/>
<path d="M11.431 20.6233V13.0268C11.431 12.6802 11.7119 12.3989 12.0591 12.3989H8.44846C8.10156 12.3989 7.82031 12.6802 7.82031 13.0268V20.6233C7.82031 20.9702 8.10156 21.2512 8.44846 21.2512H12.0591C11.7119 21.2512 11.431 20.9702 11.431 20.6233Z" fill="#4070EA"/>
<path d="M15.7489 30.5293H13.03C12.4604 30.5293 11.9984 30.0673 11.9984 29.4977C11.9984 28.9278 12.4604 28.4661 13.03 28.4661H15.7489C16.3188 28.4661 16.7805 28.9278 16.7805 29.4977C16.7805 30.0673 16.3188 30.5293 15.7489 30.5293Z" fill="#A5C013"/>
<path d="M14.1957 29.4977C14.1957 28.9278 14.6577 28.4661 15.2273 28.4661H13.03C12.4604 28.4661 11.9984 28.9278 11.9984 29.4977C11.9984 30.0673 12.4604 30.5293 13.03 30.5293H15.2273C14.6574 30.5293 14.1957 30.0673 14.1957 29.4977Z" fill="#8DAE16"/>
<path d="M7.82031 14.3572H20.9586V16.825H7.82031V14.3572Z" fill="#6244BD"/>
<path d="M7.82031 14.3572H11.431V16.825H7.82031V14.3572Z" fill="#4E2AA5"/>
<path d="M20.0951 7.68115H10.9443C10.3747 7.68115 9.91272 7.21945 9.91272 6.64954C9.91272 6.0799 10.3744 5.61792 10.9443 5.61792H20.0951C20.665 5.61792 21.1267 6.0799 21.1267 6.64954C21.1267 7.21945 20.6648 7.68115 20.0951 7.68115Z" fill="#CCEBFF"/>
<path d="M14.3075 6.64954C14.3075 6.0799 14.7692 5.61792 15.3391 5.61792H10.9443C10.3747 5.61792 9.91272 6.0799 9.91272 6.64954C9.91272 7.21945 10.3744 7.68115 10.9443 7.68115H15.3391C14.7692 7.68115 14.3075 7.21945 14.3075 6.64954Z" fill="#B8DFF4"/>
<path d="M10.9443 7.68115H8.68384C8.1142 7.68115 7.65222 7.21945 7.65222 6.64954C7.65222 6.0799 8.1142 5.61792 8.68384 5.61792H10.9443C11.5139 5.61792 11.9759 6.0799 11.9759 6.64954C11.9759 7.21945 11.5139 7.68115 10.9443 7.68115Z" fill="#FE4675"/>
<path d="M9.89728 6.64954C9.89728 6.0799 10.359 5.61792 10.9289 5.61792H8.68384C8.1142 5.61792 7.65222 6.0799 7.65222 6.64954C7.65222 7.21945 8.1142 7.68115 8.68384 7.68115H10.9289C10.359 7.68115 9.89728 7.21945 9.89728 6.64954Z" fill="#EC3969"/>
<path d="M19.9143 12.399V10.5843C19.9143 10.2926 19.6778 10.0562 19.3861 10.0562H9.3927C9.10101 10.0562 8.86426 10.2926 8.86426 10.5843V12.399H19.9143Z" fill="#4070EA"/>
<path d="M13.0034 10.0562H9.3927C9.10101 10.0562 8.86426 10.2926 8.86426 10.5843V12.399H12.4749V10.5843C12.4749 10.2926 12.7114 10.0562 13.0034 10.0562Z" fill="#205DD9"/>
<path d="M11.7939 24.6198H10.9787C10.6623 24.6198 10.4058 24.3633 10.4058 24.0466C10.4058 23.7302 10.6623 23.4736 10.9787 23.4736H11.7939C12.1103 23.4736 12.3671 23.7302 12.3671 24.0466C12.3671 24.3633 12.1103 24.6198 11.7939 24.6198Z" fill="#CCEBFF"/>
<path d="M14.7971 24.6198H13.9821C13.6655 24.6198 13.4089 24.3633 13.4089 24.0466C13.4089 23.7302 13.6655 23.4736 13.9821 23.4736H14.7971C15.1137 23.4736 15.3703 23.7302 15.3703 24.0466C15.3703 24.3633 15.1137 24.6198 14.7971 24.6198Z" fill="#CCEBFF"/>
<path d="M17.8004 24.6198H16.9852C16.6685 24.6198 16.412 24.3633 16.412 24.0466C16.412 23.7302 16.6685 23.4736 16.9852 23.4736H17.8004C18.1168 23.4736 18.3733 23.7302 18.3733 24.0466C18.3733 24.3633 18.1168 24.6198 17.8004 24.6198Z" fill="#CCEBFF"/>
<path d="M31.3794 25.1674C29.3857 21.7141 24.97 20.5309 21.5167 22.5246C18.0637 24.5187 16.8805 28.9341 18.8743 32.3873C20.868 35.8406 25.2837 37.0236 28.737 35.0298C32.19 33.0361 33.3732 28.6204 31.3794 25.1674Z" fill="#A5C013"/>
<path d="M26.0005 32.6934C25.262 31.4141 25.396 29.8713 26.217 28.7518L25.8585 28.1305C24.4787 28.2819 22.9551 27.4186 22.2166 26.1392C21.4398 24.794 21.6277 23.1565 22.5654 22.0273C22.2089 22.163 21.8584 22.3284 21.5173 22.5253C18.064 24.519 16.8811 28.9347 18.8748 32.388C20.8686 35.8413 25.2842 37.0245 28.7375 35.0307C29.0308 34.8616 29.3071 34.6742 29.5672 34.4721C28.1731 34.6429 26.7471 33.9865 26.0005 32.6934Z" fill="#8DAE16"/>
<path d="M24.3776 32.1019C24.104 32.1019 23.8414 31.9932 23.6481 31.7998L21.4538 29.6053C21.0512 29.2026 21.0512 28.5492 21.4538 28.1466C21.8568 27.7437 22.5102 27.7437 22.9128 28.1466L24.3776 29.6113L27.5554 26.4335C27.9583 26.0306 28.6114 26.0306 29.0144 26.4335C29.4173 26.8365 29.4173 27.4896 29.0144 27.8925L25.1071 31.7998C24.9137 31.9932 24.6511 32.1019 24.3776 32.1019Z" fill="#E6FCFF"/>
</g>
<defs>
<clipPath id="clip0">
<rect width="36" height="36" fill="white"/>
</clipPath>
</defs>
</svg>
