<svg width="36" height="36" viewBox="0 0 36 36" fill="none" xmlns="http://www.w3.org/2000/svg">
<g clip-path="url(#clip0)">
<path d="M18 32.3025L8.97349 32.9353L0 32.3025V26.8269C0 22.9937 3.10746 19.8862 6.94069 19.8862H11.0592C14.8925 19.8862 17.9999 22.9937 17.9999 26.8269L18.6327 29.513L18 32.3025Z" fill="#55AFD9"/>
<path d="M0.363234 33.6102H3.0105L3.55542 32.9773L4.10034 33.6102H13.8996L14.4445 32.9773L14.9894 33.6102H18L18.6328 32.9563L18 32.3025H0V33.2469C0 33.4475 0.162633 33.6102 0.363234 33.6102Z" fill="#2F89B3"/>
<path d="M9.00017 22.6461C11.3739 22.6461 11.3168 19.9914 11.3137 19.891C11.2322 19.8882 11.1506 19.8862 11.0684 19.8862H6.94986C6.86168 19.8862 6.77401 19.8884 6.68661 19.8917C6.6833 20.0058 6.63289 22.6461 9.00017 22.6461Z" fill="#FF906D"/>
<path d="M4.10059 27.6847V32.3025L3.55566 32.9353L3.01074 32.3025V27.6847C3.01074 27.3839 3.25487 27.1399 3.55566 27.1399C3.85646 27.1398 4.10059 27.3839 4.10059 27.6847Z" fill="#225763"/>
<path d="M14.9897 27.6847V32.3025L14.4448 32.9353L13.8999 32.3025V27.6847C13.8999 27.3839 14.144 27.1399 14.4448 27.1399C14.7456 27.1398 14.9897 27.3839 14.9897 27.6847Z" fill="#225763"/>
<path d="M3.01074 32.3022H4.10052V33.61H3.01074V32.3022Z" fill="#225763"/>
<path d="M13.8999 32.3022H14.9897V33.61H13.8999V32.3022Z" fill="#225763"/>
<path d="M1.55553 12.252C-0.192366 8.26681 -0.522061 4.4681 3.36706 3.29515C12.2885 0.604572 12.7447 4.76876 12.7447 4.76876C12.7447 4.76876 19.0637 5.04839 16.6726 12.8533L1.55553 12.252Z" fill="#225763"/>
<path d="M3.1725 11.3313C2.4852 11.3313 1.88262 11.7011 1.55518 12.2519C1.66866 12.5081 1.82138 12.8411 1.94597 13.0987L3.36671 13.1434V11.3413C3.30286 11.3347 3.23804 11.3313 3.1725 11.3313Z" fill="#2F89B3"/>
<path d="M16.4406 13.5551C16.5256 13.3143 16.6025 13.0812 16.6723 12.8533C16.5057 11.9865 15.7429 11.3313 14.8275 11.3313C14.7619 11.3313 14.6971 11.3347 14.6333 11.3413V13.4982L16.4406 13.5551Z" fill="#2F89B3"/>
<path d="M2.97354 15.63L3.36982 15.0778L3.88901 14.7451L3.36701 12.6491C3.30317 12.6426 3.23834 12.6392 3.17281 12.6392C2.36541 12.6392 1.67712 13.1486 1.41162 13.8637C1.41155 14.576 2.16614 15.63 2.97354 15.63Z" fill="#FFA589"/>
<path d="M3.17276 15.088C2.36536 15.088 1.67707 14.5785 1.41157 13.8635C1.33592 14.0672 1.29443 14.2874 1.29443 14.5174C1.29443 15.5548 2.13537 16.3957 3.17276 16.3957C3.30396 16.3957 3.43207 16.3821 3.55568 16.3565L3.88889 15.5641L3.36971 15.0776C3.30502 15.0844 3.23928 15.088 3.17276 15.088Z" fill="#FF906D"/>
<path d="M15.0268 15.63L14.6305 15.0778L14.1113 14.7451L14.6333 12.6491C14.6972 12.6426 14.762 12.6392 14.8275 12.6392C15.6349 12.6392 16.3232 13.1486 16.5887 13.8637C16.5887 14.576 15.8342 15.63 15.0268 15.63Z" fill="#FFA589"/>
<path d="M14.8275 15.088C15.6349 15.088 16.3231 14.5785 16.5886 13.8635C16.6643 14.0672 16.7058 14.2874 16.7058 14.5174C16.7058 15.5548 15.8649 16.3957 14.8275 16.3957C14.6962 16.3957 14.5681 16.3821 14.4445 16.3565L14.1113 15.5641L14.6305 15.0776C14.6952 15.0844 14.7609 15.088 14.8275 15.088Z" fill="#FF906D"/>
<path d="M8.99986 19.865C13.1437 19.865 14.6331 16.7101 14.6331 13.5989V11.3752C14.6331 11.2446 14.5625 11.1249 14.4491 11.06C13.0866 10.2811 12.1205 8.48618 11.7335 7.66507C11.6347 7.4554 11.3659 7.39071 11.1833 7.53351C7.85482 10.1371 4.76247 10.3738 3.73 10.372C3.52912 10.3717 3.3667 10.5343 3.3667 10.7352V13.599C3.36663 16.7101 5.09287 19.865 8.99986 19.865Z" fill="#FFB997"/>
<path d="M8.99993 19.2321C5.88881 19.2321 3.3667 16.7101 3.3667 13.5989V14.9066C3.3667 18.0178 5.88881 20.5398 8.99993 20.5398C12.111 20.5398 14.6332 18.0178 14.6332 14.9066V13.5989C14.6332 16.7101 12.111 19.2321 8.99993 19.2321Z" fill="#FFA589"/>
<path d="M8.97318 16.9118C9.51585 17.9528 10.6887 17.8976 11.2409 17.805C11.4227 17.7745 11.5524 17.6104 11.5407 17.4264C11.4991 16.7687 11.1609 15.3025 8.97339 15.3025C6.78583 15.3025 6.4477 16.7687 6.406 17.4264C6.39433 17.6104 6.52399 17.7745 6.70582 17.805C7.25812 17.8976 8.43051 17.9528 8.97318 16.9118Z" fill="#225763"/>
<path d="M35.7717 19.8534C35.3408 19.6159 34.4727 18.9453 34.7249 17.4813C36.5813 6.70639 31.9104 2.71313 27.0001 2.71313C22.0899 2.71313 17.4189 6.70639 19.2753 17.4813C19.5275 18.9453 18.6594 19.6159 18.2285 19.8534C18.0852 19.9322 18.0133 20.0959 18.05 20.2552C18.1238 20.5755 18.3029 21.1108 18.7289 21.6297C18.729 21.6295 18.7291 21.6293 18.7292 21.6292C18.7289 21.6297 35.271 21.6292 35.271 21.6292C35.2711 21.6293 35.2712 21.6295 35.2713 21.6297C35.6973 21.1108 35.8764 20.5755 35.9502 20.2552C35.9869 20.0959 35.9149 19.9323 35.7717 19.8534Z" fill="#225763"/>
<path d="M29.821 19.2324H24.1788C22.0218 19.2324 20.0808 20.1562 18.729 21.6294C19.0178 21.9813 19.4194 22.3256 19.9797 22.5901H34.0201C34.5804 22.3255 34.982 21.9813 35.2708 21.6294C33.9191 20.1562 31.978 19.2324 29.821 19.2324Z" fill="#2F89B3"/>
<path d="M36 32.3025L26.991 32.9353L18 32.3025V26.8269C18 22.9937 21.1075 19.8862 24.9407 19.8862H29.0592C32.8925 19.8862 35.9999 22.9937 35.9999 26.8269V32.3025H36Z" fill="#63EBD4"/>
<path d="M18 33.6102H21.0106L21.5555 32.9773L22.1004 33.6102H31.8997L32.4446 32.9773L32.9894 33.6102H35.6367C35.8373 33.6102 35.9999 33.4475 35.9999 33.2469V32.3025H18V33.6102Z" fill="#41D8BF"/>
<path d="M26.9909 22.6461C29.3646 22.6461 29.3075 19.9914 29.3044 19.891C29.2229 19.8882 29.1413 19.8862 29.0591 19.8862H24.9406C24.8524 19.8862 24.7647 19.8884 24.6773 19.8917C24.6741 20.0058 24.6237 22.6461 26.9909 22.6461Z" fill="#FF906D"/>
<path d="M22.1005 27.6847V32.3025L21.5556 32.9353L21.0107 32.3025V27.6847C21.0107 27.3839 21.2549 27.1399 21.5556 27.1399C21.8564 27.1398 22.1005 27.3839 22.1005 27.6847Z" fill="#2EBEA6"/>
<path d="M32.9897 27.6847V32.3025L32.4448 32.9353L31.8999 32.3025V27.6847C31.8999 27.3839 32.144 27.1399 32.4448 27.1399C32.7456 27.1398 32.9897 27.3839 32.9897 27.6847Z" fill="#2EBEA6"/>
<path d="M21.0107 32.3022H22.1005V33.61H21.0107V32.3022Z" fill="#2EBEA6"/>
<path d="M31.8999 32.3022H32.9897V33.61H31.8999V32.3022Z" fill="#2EBEA6"/>
<path d="M26.9999 19.8652C31.3177 19.8652 32.6332 16.7103 32.6332 13.5991V12.2264C32.6332 12.0888 32.555 11.9637 32.432 11.9019C30.7527 11.0585 29.6942 9.20334 29.2425 8.2563C29.1258 8.01133 28.7924 7.9759 28.627 8.19105C26.4976 10.9604 22.7358 11.8538 21.661 12.0587C21.4899 12.0914 21.3667 12.2412 21.3667 12.4154V13.5992C21.3667 16.7103 22.6588 19.8652 26.9999 19.8652Z" fill="#FFB997"/>
<path d="M26.9999 19.2321C23.8888 19.2321 21.3667 16.7101 21.3667 13.5989V14.9066C21.3667 18.0178 23.8888 20.5398 26.9999 20.5398C30.111 20.5398 32.6332 18.0178 32.6332 14.9066V13.5989C32.6332 16.7101 30.111 19.2321 26.9999 19.2321Z" fill="#FFA589"/>
<path d="M28.7536 16.9145C29.0605 16.2369 28.0869 15.7848 27.7635 16.4479C27.7467 16.4821 27.5826 16.7814 27.0262 16.7814C26.4698 16.7814 26.3057 16.4821 26.2888 16.4479C25.9655 15.7848 24.992 16.2369 25.2988 16.9145C25.4689 17.2875 26.0052 17.8764 27.0262 17.8764C28.0473 17.8763 28.5835 17.2875 28.7536 16.9145Z" fill="#FF906D"/>
</g>
<defs>
<clipPath id="clip0">
<rect width="36" height="36" fill="white"/>
</clipPath>
</defs>
</svg>
