<svg width="36" height="36" viewBox="0 0 36 36" fill="none" xmlns="http://www.w3.org/2000/svg">
<path d="M31.561 30.5825L22.0605 34.6653C20.9221 35.0971 19.7051 35.2542 18.4881 35.0579L9.02686 33.6839V24.8115H14.2482C15.1904 24.8115 16.0933 25.2826 16.6037 26.107C16.8785 26.5389 17.2318 26.8922 17.6636 27.167C18.0955 27.4418 18.5666 27.5596 19.0769 27.5596H21.2754C22.2568 27.5596 23.042 28.3448 23.042 29.3262L30.7366 27.8737C31.3254 27.7559 31.9536 28.0307 32.2676 28.541C32.3462 28.6981 32.4247 28.8551 32.4639 29.0514C32.5817 29.6795 32.1891 30.3469 31.561 30.5825Z" fill="#FFB997"/>
<path d="M21.1971 31.7602H13.581C13.1885 31.7602 12.8744 31.4461 12.8744 31.0535C12.8744 30.661 13.1885 30.3469 13.581 30.3469H21.1578C21.7467 30.3469 22.2571 29.8758 22.2571 29.2477C22.2571 28.8551 22.5711 28.541 22.9637 28.541C23.3563 28.541 23.6704 28.8551 23.6704 29.2477C23.6311 30.661 22.5319 31.7602 21.1971 31.7602Z" fill="#FF7F6D"/>
<path d="M2 22.6521H9.06645V35.9998H2V22.6521Z" fill="#2EBEA6"/>
<path d="M33.8774 17.3524V25.047C33.8774 26.3818 33.2886 27.6773 32.2679 28.5017C31.9145 27.9913 31.3257 27.7165 30.7368 27.8343L23.0029 29.3261C23.0029 28.3447 22.2178 27.5595 21.2363 27.5595H19.0379C18.5275 27.5595 18.0564 27.4417 17.6246 27.1669C17.1928 26.8921 16.8394 26.5388 16.5646 26.107C16.0543 25.2825 15.1906 24.8114 14.2091 24.8114H11.9322V17.3524C11.8929 14.9184 12.9921 12.6414 14.8765 11.1104L18.449 8.3623C18.606 8.44082 18.7631 8.48008 18.9594 8.48008H26.8502C27.0073 8.48008 27.2036 8.44082 27.3606 8.3623L30.9331 11.1104C32.8175 12.6022 33.9167 14.9184 33.8774 17.3524Z" fill="#E85B48"/>
<path d="M29.8733 0L27.2823 4.94652C27.1252 4.90726 27.0075 4.868 26.8504 4.868H18.9988C18.8418 4.868 18.724 4.90726 18.567 4.94652L15.976 0H29.8733Z" fill="#E85B48"/>
<path d="M28.381 6.51818V6.75373C28.381 7.42112 27.9885 8.04925 27.3996 8.32406C27.2425 8.40257 27.0855 8.44183 26.8892 8.40257H18.9984C18.8413 8.40257 18.645 8.36331 18.488 8.32406C17.8599 8.04925 17.4673 7.42112 17.4673 6.75373V6.51818C17.4673 5.81153 17.8991 5.1834 18.5665 4.90859C18.7235 4.86934 18.8413 4.83008 18.9984 4.83008H26.8892C27.0463 4.83008 27.164 4.86934 27.3211 4.90859C27.9885 5.1834 28.4203 5.81153 28.381 6.51818Z" fill="#FEB546"/>
<path d="M17.2712 16.4495H16.172C15.7794 16.4495 15.4653 16.7635 15.4653 17.1561C15.4653 17.5487 15.7794 17.8627 16.172 17.8627H17.2712C17.5068 17.8627 17.703 18.059 17.703 18.2946V18.4124C17.703 18.6086 17.546 18.8049 17.3497 18.8442C16.2898 18.962 15.5046 19.8649 15.5046 20.9249V21.6315C15.5046 22.0241 15.8187 22.3382 16.2112 22.3382H18.4097C18.8023 22.3382 19.1163 22.0241 19.1163 21.6315C19.1163 21.2389 18.8023 20.9249 18.4097 20.9249H16.8786V20.8856C16.8786 20.5323 17.1534 20.2182 17.5068 20.179C18.4097 20.0612 19.0771 19.3153 19.0771 18.4124V18.2946C19.0771 17.2346 18.2919 16.4495 17.2712 16.4495Z" fill="#FFF7ED"/>
<path d="M24.3376 17.8239C24.7302 17.8239 25.0442 17.5099 25.0442 17.1173C25.0442 16.7247 24.7302 16.4106 24.3376 16.4106H22.1391C21.7466 16.4106 21.4325 16.7247 21.4325 17.1173V19.3157C21.4325 19.7083 21.7466 20.0224 22.1391 20.0224H23.3561C23.5132 20.0224 23.6309 20.1402 23.6309 20.2972V20.572C23.6309 20.729 23.5132 20.8468 23.3561 20.8468H22.1391C21.7466 20.8468 21.4325 21.1609 21.4325 21.5535C21.4325 21.946 21.7466 22.2601 22.1391 22.2601H23.3561C24.2591 22.2601 25.005 21.5142 25.005 20.6113V20.3365C25.005 19.4335 24.2591 18.6876 23.3561 18.6876H22.8065V17.8632H24.3376V17.8239Z" fill="#FFF7ED"/>
<path d="M29.3627 16.6069C29.0094 16.4891 28.6168 16.6461 28.4991 17.0387L27.0072 21.2001C26.8895 21.5534 27.0465 21.946 27.4391 22.0637C27.5176 22.103 27.5961 22.103 27.6746 22.103C27.9494 22.103 28.2242 21.946 28.3028 21.6319L29.7946 17.4705C29.9123 17.1565 29.716 16.7639 29.3627 16.6069Z" fill="#FFF7ED"/>
<path d="M20.3332 20.8855C19.9407 20.8855 19.6266 21.1996 19.6266 21.5921V21.9847C19.6266 22.3773 19.9407 22.6914 20.3332 22.6914C20.7258 22.6914 21.0399 22.3773 21.0399 21.9847V21.5921C21.0399 21.1603 20.7258 20.8855 20.3332 20.8855Z" fill="#FFF7ED"/>
<path d="M27.7924 17.5494V17.1568C27.7924 16.7643 27.4783 16.4502 27.0857 16.4502C26.6931 16.4502 26.4183 16.8035 26.4183 17.1568V17.5494C26.4183 17.942 26.7324 18.2561 27.125 18.2561C27.5176 18.2561 27.7924 17.942 27.7924 17.5494Z" fill="#FFF7ED"/>
<path d="M29.6767 20.4536C29.2842 20.4536 28.9701 20.7677 28.9701 21.1603V21.5528C28.9701 21.9454 29.2842 22.2595 29.6767 22.2595C30.0693 22.2595 30.3834 21.9454 30.3834 21.5528V21.1603C30.3834 20.7677 30.0693 20.4536 29.6767 20.4536Z" fill="#FFF7ED"/>
</svg>
