<svg width="36" height="36" viewBox="0 0 36 36" fill="none" xmlns="http://www.w3.org/2000/svg">
<g clip-path="url(#clip0)">
<path d="M11.6258 11.4815C10.1769 11.4815 9.00269 10.3065 9.00269 8.85769C9.00269 7.40886 10.1769 6.23462 11.6258 6.23462L11.9879 8.90934L11.6258 11.4815Z" fill="#FED2A4"/>
<path d="M10.3142 6.58636V11.1296C10.7001 11.353 11.1478 11.4815 11.6257 11.4815L11.9879 8.90934L11.6257 6.23462C11.1478 6.23462 10.7001 6.36305 10.3142 6.58636Z" fill="#FFBD86"/>
<path d="M24.3742 11.4815C25.8231 11.4815 26.9973 10.3065 26.9973 8.85769C26.9973 7.40886 25.8231 6.23462 24.3742 6.23462L23.9637 8.85806L24.3742 11.4815Z" fill="#FED2A4"/>
<path d="M24.3744 6.23462L24.2295 6.40129L24.3744 6.58636C25.1582 7.03987 25.6859 7.88685 25.6859 8.85769C25.6859 9.82861 25.1582 10.6759 24.3744 11.1296L24.2295 11.2906L24.3744 11.4815C25.8232 11.4815 26.9974 10.3065 26.9974 8.85769C26.9974 7.40886 25.8233 6.23462 24.3744 6.23462Z" fill="#FFBD86"/>
<path d="M6.01798 35.9999H10.3161L10.8652 27.8148L10.3161 19.3145L8.56181 19.8613C6.31214 20.5626 4.77979 22.6454 4.77979 25.0019V34.7618C4.77986 35.4456 5.3342 35.9999 6.01798 35.9999Z" fill="#FED2A4"/>
<path d="M8.69592 27.7845V36H10.3161V26.8167C10.3161 26.5105 10.0192 26.2921 9.72689 26.3832C9.11365 26.5743 8.69592 27.1421 8.69592 27.7845Z" fill="#FFBD86"/>
<path d="M19.0211 17.6703C21.9776 17.6703 24.3743 15.2735 24.3743 12.317V11.3035V4.56328L17.795 4.16504L11.6257 4.56328V11.3035V12.317C11.6257 15.2735 14.0224 17.6703 16.9789 17.6703H19.0211Z" fill="#FED2A4"/>
<path d="M22.7541 4.56328V11.3035V12.317C22.7541 15.2735 20.3574 17.6703 17.4009 17.6703H19.0211C21.9776 17.6703 24.3743 15.2735 24.3743 12.317V11.3035V4.56328L23.5051 4.16504L22.7541 4.56328Z" fill="#FFBD86"/>
<path d="M24.3743 3.81376V4.56331H11.7206C10.7965 4.56331 10.0475 3.81426 10.0475 2.89021V1.67317C10.0475 0.700589 10.8739 -0.0670009 11.8438 0.00463689L21.4982 0.717393C23.1197 0.837055 24.3743 2.18767 24.3743 3.81376Z" fill="#B87D72"/>
<path d="M21.4981 0.717363L11.8438 0.00460616C11.6244 -0.0116192 11.4125 0.0155438 11.2157 0.0778375L19.8779 0.71729C21.4995 0.837025 22.7541 2.18764 22.7541 3.81365V4.56321H24.3743V3.81372C24.3743 2.18764 23.1197 0.837025 21.4981 0.717363Z" fill="#AB695D"/>
<path d="M25.6846 19.3147V36.0001H10.3154V19.3147L14.5666 18.334H21.4334L25.6846 19.3147Z" fill="#FED2A4"/>
<path d="M24.0642 19.3147V36.0001H10.3154V29.1905L19.3813 18.334H19.8131L24.0642 19.3147Z" fill="#FFBD86"/>
<path d="M25.684 36H29.9821C30.6659 36 31.2203 35.4456 31.2203 34.7618V25.0019C31.2203 22.6454 29.688 20.5626 27.4383 19.8613L25.684 19.3145L24.9177 27.8511L25.684 36Z" fill="#FED2A4"/>
<path d="M27.4383 19.8613L25.684 19.3145L25.4125 19.5513L25.684 19.8195L25.818 19.8613C28.0677 20.5626 29.6001 22.6454 29.6001 25.0019V34.7618C29.6001 35.4456 29.0457 36 28.3619 36H29.9821C30.6659 36 31.2203 35.4456 31.2203 34.7618V25.0018C31.2202 22.6454 29.6879 20.5626 27.4383 19.8613Z" fill="#FFBD86"/>
<path d="M25.6846 19.3147V36.0001H10.3154V31.1303L21.0017 18.334H21.4334L22.2201 18.5151L23.3232 18.77L23.8433 18.8896L24.9038 19.1344L25.6846 19.3147Z" fill="#FFF3DE"/>
<path d="M21.4336 18.3335H21.0019L20.8098 18.5635L24.0641 19.3145V36H25.6843V19.3145L21.4336 18.3335Z" fill="#FFE5C2"/>
<path d="M21.0053 18.8584L18.6206 19.4728C18.2136 19.5776 17.7865 19.5776 17.3793 19.4728L14.9946 18.8584C13.8201 18.5557 12.9993 17.4967 12.9993 16.2838V15.8975L14.6041 16.3205C15.0842 16.447 15.5958 16.3206 15.9616 15.9849L17.2142 14.8355C17.3243 14.7345 17.4682 14.6785 17.6176 14.6785H18.4307C18.5752 14.6785 18.7149 14.7309 18.8237 14.8261L20.1701 16.0042C20.5404 16.3283 21.0493 16.4437 21.5232 16.311L23.0006 15.8975V16.2838C23.0007 17.4966 22.1799 18.5557 21.0053 18.8584Z" fill="#B87D72"/>
<path d="M18.55 16.0041C18.9204 16.3281 19.4293 16.4435 19.9032 16.3108L20.4041 16.1706C20.3217 16.1232 20.2432 16.0679 20.1703 16.004L18.8239 14.8258C18.7151 14.7307 18.5755 14.6782 18.4309 14.6782H17.6178C17.4684 14.6782 17.3245 14.7343 17.2144 14.8353L18.55 16.0041Z" fill="#AB695D"/>
<path d="M21.5233 16.311C21.4756 16.3243 21.4275 16.3345 21.3793 16.3429C21.353 17.5309 20.5405 18.5607 19.3851 18.8584L17.1899 19.4239L17.3794 19.4728C17.7865 19.5777 18.2136 19.5777 18.6207 19.4728L21.0054 18.8584C22.18 18.5557 23.0008 17.4967 23.0008 16.2838V15.8975L21.5233 16.311Z" fill="#AB695D"/>
<path d="M17.3859 11.2856C17.3467 11.2856 17.3071 11.2813 17.2674 11.2725C16.9745 11.2073 16.7899 10.917 16.8551 10.6241L17.2745 8.74C17.3397 8.44714 17.6297 8.26265 17.9228 8.32777C18.2157 8.39296 18.4002 8.68321 18.335 8.97613L17.9156 10.8602C17.8594 11.1133 17.6348 11.2856 17.3859 11.2856Z" fill="#FFBD86"/>
<path d="M24.9038 19.1342C24.9009 19.1473 24.8973 19.161 24.8929 19.1748L21.0749 31.3663C21.0025 31.5988 20.7881 31.7473 20.5563 31.7473C20.5027 31.7473 20.4483 31.7393 20.394 31.7227C20.1079 31.6328 19.9485 31.3279 20.0384 31.0418L23.8433 18.8894L24.9038 19.1342Z" fill="#FFE5C2"/>
<path d="M23.3233 18.7699L18.1717 27.9234C18.0718 28.1009 17.8878 28.2008 17.6973 28.2008C17.6075 28.2008 17.5162 28.1777 17.4314 28.1306C17.1699 27.9835 17.0772 27.6518 17.225 27.391L22.2201 18.5149L23.3233 18.7699Z" fill="#FFE5C2"/>
</g>
<defs>
<clipPath id="clip0">
<rect width="36" height="36" fill="white"/>
</clipPath>
</defs>
</svg>
