<svg xmlns="http://www.w3.org/2000/svg" data-name="Layer 1" viewBox="0 0 32 32"><path fill="#ffdaa7" d="M.62443,10v5.19a7.04969,7.04969,0,0,0,.47,2.53l2.4,6.2a2.18353,2.18353,0,0,1,.13.72V27.5l10.26-.92.94-5.36a20.1269,20.1269,0,0,0,.3-3.46V5a1.498,1.498,0,0,0-1.5-1.5,1.38583,1.38583,0,0,0-.5.09,1.47256,1.47256,0,0,0-.88.83c-.02.06-.04.11-.06.18a1.43333,1.43333,0,0,0-.04.22.5531.5531,0,0,0-.02.18V3a1.498,1.498,0,0,0-1.5-1.5,1.40784,1.40784,0,0,0-.54.11,1.48171,1.48171,0,0,0-.96,1.39V2a1.5,1.5,0,0,0-3,0V4a1.5,1.5,0,0,0-3,0V8.89a1.46779,1.46779,0,0,0-1-.39A1.498,1.498,0,0,0,.62443,10Z"/><path fill="#fdc475" d="M10.12445 2V3a1.48171 1.48171 0 0 1 .96-1.39c.01612-.00666.03351-.00934.04987-.01545A1.491 1.491 0 0 0 10.62445 1.5a1.40791 1.40791 0 0 0-.54.11l-.015.00775A1.4906 1.4906 0 0 1 10.12445 2zM13.12445 5a.5531.5531 0 0 1 .02-.18 1.43331 1.43331 0 0 1 .04-.22c.02-.07.04-.12.06-.18a1.472 1.472 0 0 1 .87805-.8291A1.491 1.491 0 0 0 13.62445 3.5a1.38586 1.38586 0 0 0-.5.09zM4.62445 27.41034V24.64a2.18378 2.18378 0 0 0-.13-.72l-2.4-6.2a7.04969 7.04969 0 0 1-.47-2.53V10a1.49344 1.49344 0 0 1 .9917-1.40594A1.45835 1.45835 0 0 0 2.12445 8.5a1.498 1.498 0 0 0-1.5 1.5v5.19a7.04969 7.04969 0 0 0 .47 2.53l2.4 6.2a2.18378 2.18378 0 0 1 .13.72V27.5zM7.12445 4V2a1.49321 1.49321 0 0 1 1-1.40851A1.48645 1.48645 0 0 0 6.12445 2v.59149A1.49321 1.49321 0 0 1 7.12445 4zM4.12445 4a1.49321 1.49321 0 0 1 1-1.40851A1.48645 1.48645 0 0 0 3.12445 4V8.5a1.46777 1.46777 0 0 1 1 .39z"/><path fill="#fdc475" d="M12.12443 5.09v7.5a.5.5 0 0 0 1 0v-9a1.47256 1.47256 0 0 0-.88.83c-.02.06-.04.11-.06.18a1.43333 1.43333 0 0 0-.04.22A2.44858 2.44858 0 0 0 12.12443 5.09zM9.12443 3v7.5a.5.5 0 0 0 1 0V2a1.724 1.724 0 0 0-.04-.39 1.48171 1.48171 0 0 0-.96 1.39zM6.15975 2.02174v7.5a.5.5 0 0 0 1 0v-8.5a1.72413 1.72413 0 0 0-.04-.39 1.48173 1.48173 0 0 0-.96 1.39zM3.12307 7.94772v.82a.53168.53168 0 0 0 .12.33c.01 0 .01.01.02.02a.26929.26929 0 0 1 .08.07l.01.01a.98638.98638 0 0 1 .27.68v4.5a.51182.51182 0 0 0 .28.45l1.31.66a4.31432 4.31432 0 0 1 2.41 3.89.5.5 0 0 0 1 0 5.31718 5.31718 0 0 0-2.96-4.79l-1.04-.52v-4.19a1.97393 1.97393 0 0 0-.5-1.31A1.89932 1.89932 0 0 0 3.12307 7.94772z"/><rect width="12" height="5" x="3.124" y="26.5" fill="#3f6db4" rx="1"/><path fill="#1f53a4" d="M4.12445,30.5v-3a1,1,0,0,1,1-1h-1a1,1,0,0,0-1,1v3a1,1,0,0,0,1,1h1A1,1,0,0,1,4.12445,30.5Z"/><path fill="#ffdaa7" d="M31.5,10v5.19a7.04969,7.04969,0,0,1-.47,2.53l-2.4,6.2a2.18378,2.18378,0,0,0-.13.72V27.5l-10.26-.92-.94-5.36a20.1269,20.1269,0,0,1-.3-3.46V5a1.498,1.498,0,0,1,1.5-1.5,1.38586,1.38586,0,0,1,.5.09,1.47254,1.47254,0,0,1,.88.83c.02.06.04.11.06.18a1.43331,1.43331,0,0,1,.04.22A.5531.5531,0,0,1,20,5V3a1.498,1.498,0,0,1,1.5-1.5,1.40787,1.40787,0,0,1,.54.11A1.48171,1.48171,0,0,1,23,3V2a1.5,1.5,0,0,1,3,0V4a1.5,1.5,0,0,1,3,0V8.89a1.46779,1.46779,0,0,1,1-.39A1.498,1.498,0,0,1,31.5,10Z"/><path fill="#fdc475" d="M22 2V3a1.48171 1.48171 0 0 0-.96-1.39c-.01611-.00666-.0335-.00934-.04986-.01545A1.491 1.491 0 0 1 21.5 1.5a1.40782 1.40782 0 0 1 .54.11l.015.00775A1.4906 1.4906 0 0 0 22 2zM19 5a.5531.5531 0 0 0-.02-.18 1.43331 1.43331 0 0 0-.04-.22c-.02-.07-.04-.12-.06-.18a1.472 1.472 0 0 0-.878-.8291A1.4909 1.4909 0 0 1 18.5 3.5a1.3859 1.3859 0 0 1 .5.09zM25 4V2A1.49321 1.49321 0 0 0 24 .59149 1.48645 1.48645 0 0 1 26 2v.59149A1.49321 1.49321 0 0 0 25 4zM28 4a1.49321 1.49321 0 0 0-1-1.40851A1.48645 1.48645 0 0 1 29 4V8.5a1.46777 1.46777 0 0 0-1 .39z"/><path fill="#fdc475" d="M20 5.09v7.5a.5.5 0 1 1-1 0v-9a1.47254 1.47254 0 0 1 .88.83c.02.06.04.11.06.18a1.43331 1.43331 0 0 1 .04.22A2.44858 2.44858 0 0 1 20 5.09zM23 3v7.5a.5.5 0 0 1-1 0V2a1.724 1.724 0 0 1 .04-.39A1.48171 1.48171 0 0 1 23 3zM25.96467 2.02174v7.5a.5.5 0 0 1-1 0v-8.5a1.72413 1.72413 0 0 1 .04-.39 1.48173 1.48173 0 0 1 .96 1.39zM29.00136 7.94772v.82a.53163.53163 0 0 1-.12.33c-.01 0-.01.01-.02.02a.26937.26937 0 0 0-.08.07l-.01.01a.98633.98633 0 0 0-.27.68v4.5a.51184.51184 0 0 1-.28.45l-1.31.66a4.31431 4.31431 0 0 0-2.41 3.89.5.5 0 1 1-1 0 5.31716 5.31716 0 0 1 2.96-4.79l1.04-.52v-4.19a1.97393 1.97393 0 0 1 .5-1.31A1.89928 1.89928 0 0 1 29.00136 7.94772z"/><rect width="12" height="5" x="17" y="26.5" fill="#3f6db4" rx="1" transform="rotate(180 23 29)"/><path fill="#1f53a4" d="M18,30.5v-3a1,1,0,0,1,1-1H18a1,1,0,0,0-1,1v3a1,1,0,0,0,1,1h1A1,1,0,0,1,18,30.5Z"/></svg>