<svg width="37" height="36" viewBox="0 0 37 36" fill="none" xmlns="http://www.w3.org/2000/svg">
<path d="M2.31421 26.3964C1.872 26.3964 1.52051 26.0449 1.52051 25.6026V19.4911C1.52051 19.2984 1.58854 19.117 1.71326 18.9696L3.30067 17.1441C3.58413 16.8152 4.09437 16.7812 4.42318 17.0647C4.752 17.3482 4.78602 17.8584 4.50255 18.1872L3.10791 19.786V25.6026C3.10791 26.0335 2.75641 26.3964 2.31421 26.3964Z" fill="#225763"/>
<path d="M34.6858 26.3961C34.2436 26.3961 33.8921 26.0446 33.8921 25.6024V19.7857L32.4974 18.1869C32.214 17.8581 32.248 17.3592 32.5768 17.0644C32.9056 16.7696 33.4045 16.815 33.6993 17.1438L35.2867 18.9693C35.4115 19.1167 35.4795 19.2981 35.4795 19.4909V25.6024C35.4908 26.0332 35.128 26.3961 34.6858 26.3961C34.6971 26.3961 34.6858 26.3961 34.6858 26.3961Z" fill="#225763"/>
<path d="M16.9637 17.6428H20.0478C26.3067 17.6428 31.3864 22.7225 31.3864 28.9814H5.61377C5.62511 22.7225 10.6935 17.6428 16.9637 17.6428Z" fill="#5885EB"/>
<path d="M14.5144 16.4751L12.3374 18.6181L15.6029 22.836L18.5056 18.9923L14.5144 16.4751Z" fill="#3B50B2"/>
<path d="M22.4968 16.4751L24.6738 18.6181L21.4083 22.836L18.5056 18.9923L22.4968 16.4751Z" fill="#3B50B2"/>
<path d="M11.0789 11.0327C11.0789 12.1892 12.02 13.1303 13.1765 13.1303V8.93506C12.02 8.93506 11.0789 9.87616 11.0789 11.0327Z" fill="#FF7F6D"/>
<path d="M25.9211 11.0327C25.9211 9.87616 24.98 8.93506 23.8235 8.93506V13.1303C24.98 13.1303 25.9211 12.1892 25.9211 11.0327Z" fill="#FF7F6D"/>
<path d="M13.1765 6.84863H23.8234V13.6631C23.8234 16.5998 21.4423 18.9809 18.5056 18.9809C15.569 18.9809 13.1879 16.5998 13.1879 13.6631V6.84863H13.1765Z" fill="#FFB997"/>
<path d="M20.9094 0C18.4943 0 16.3967 1.66677 15.8524 4.01386C14.4918 2.98205 12.5529 3.24283 11.5211 4.60346C10.4893 5.96409 10.75 7.90299 12.1107 8.9348C13.4713 9.96661 15.4102 9.70583 16.442 8.3452C16.4987 8.26583 16.5554 8.19779 16.6008 8.11842C18.2108 10.4995 21.4423 11.1231 23.8234 9.51307C26.2045 7.90299 26.8282 4.6715 25.2181 2.29039C24.2543 0.861732 22.6329 0 20.9094 0Z" fill="#FED23B"/>
<path d="M34.2323 30.365H2.76772L0.5 25.6028H36.5L34.2323 30.365Z" fill="#41D8BF"/>
<path d="M5.0127 30.3647H31.9985V36.0114H5.0127V30.3647Z" fill="#2EBEA6"/>
<path d="M7.30307 13.7424C6.66811 13.1868 5.69299 13.2548 5.14874 13.8898L3.75409 15.4998C3.1985 16.1348 3.26653 17.1099 3.90149 17.6542C4.53645 18.2098 5.51157 18.1417 6.06716 17.4954L7.46181 15.8854C8.0174 15.2617 7.94937 14.298 7.30307 13.7424Z" fill="#FFDA7A"/>
<path d="M29.6968 13.7424C30.3318 13.1868 31.3069 13.2548 31.8511 13.8898L33.2458 15.4998C33.8013 16.1348 33.7333 17.1099 33.087 17.6542C32.4407 18.1984 31.4769 18.1417 30.9327 17.4954L29.5381 15.8854C28.9938 15.2617 29.0618 14.298 29.6968 13.7424Z" fill="#FFDA7A"/>
</svg>
