<svg width="37" height="37" viewBox="0 0 37 37" fill="none" xmlns="http://www.w3.org/2000/svg">
<g clip-path="url(#clip0)">
<path d="M18.5 9.38753C17.9175 9.38753 17.4453 8.91531 17.4453 8.33284V5.0188C17.4453 4.43633 17.9175 3.96411 18.5 3.96411C19.0825 3.96411 19.5547 4.43633 19.5547 5.0188V8.33284C19.5547 8.91538 19.0825 9.38753 18.5 9.38753Z" fill="#225763"/>
<path d="M25.2781 6.07346H18.5C17.9175 6.07346 17.4453 5.60124 17.4453 5.01877V1.55469C17.4453 0.972219 17.9175 0.5 18.5 0.5H25.2781C25.8606 0.5 26.3328 0.972219 26.3328 1.55469V5.01877C26.3328 5.60124 25.8606 6.07346 25.2781 6.07346Z" fill="#41D8BF"/>
<path d="M11.7219 36.5H2.68439C2.10192 36.5 1.6297 36.0278 1.6297 35.4453V19.6296C1.6297 19.0472 2.10192 18.575 2.68439 18.575H11.7219C12.3043 18.575 12.7766 19.0472 12.7766 19.6296V35.4453C12.7766 36.0278 12.3043 36.5 11.7219 36.5Z" fill="#FFC823"/>
<path d="M11.7219 20.6844H1.55474C1.12815 20.6844 0.743541 20.4274 0.580346 20.0333C0.417151 19.6392 0.507362 19.1855 0.809002 18.8839L5.32771 14.3651C5.52549 14.1673 5.79374 14.0562 6.07344 14.0562H11.7219C12.3044 14.0562 12.7766 14.5284 12.7766 15.1108V19.6296C12.7766 20.2122 12.3044 20.6844 11.7219 20.6844Z" fill="#FF4B4B"/>
<path d="M7.20312 31.9812C6.62066 31.9812 6.14844 31.509 6.14844 30.9265V29.7969C6.14844 29.2144 6.62066 28.7422 7.20312 28.7422C7.78559 28.7422 8.25781 29.2144 8.25781 29.7969V30.9265C8.25781 31.5091 7.78566 31.9812 7.20312 31.9812Z" fill="#FFA400"/>
<path d="M7.20312 26.3328C6.62066 26.3328 6.14844 25.8606 6.14844 25.2781V24.1484C6.14844 23.566 6.62066 23.0938 7.20312 23.0938C7.78559 23.0938 8.25781 23.566 8.25781 24.1484V25.2781C8.25781 25.8607 7.78566 26.3328 7.20312 26.3328Z" fill="#FFA400"/>
<path d="M34.3156 36.5H25.2781C24.6957 36.5 24.2234 36.0278 24.2234 35.4453V19.6296C24.2234 19.0472 24.6957 18.575 25.2781 18.575H34.3156C34.8981 18.575 35.3703 19.0472 35.3703 19.6296V35.4453C35.3703 36.0278 34.8981 36.5 34.3156 36.5Z" fill="#FFA400"/>
<path d="M35.4453 20.6845H25.2781C24.6956 20.6845 24.2234 20.2123 24.2234 19.6298V15.1111C24.2234 14.5286 24.6956 14.0564 25.2781 14.0564H30.9265C31.2062 14.0564 31.4744 14.1675 31.6722 14.3654L36.1909 18.8841C36.4926 19.1858 36.5828 19.6394 36.4196 20.0335C36.2564 20.4276 35.8719 20.6845 35.4453 20.6845Z" fill="#DF2635"/>
<path d="M29.7969 31.9812C29.2144 31.9812 28.7422 31.509 28.7422 30.9265V29.7969C28.7422 29.2144 29.2144 28.7422 29.7969 28.7422C30.3793 28.7422 30.8516 29.2144 30.8516 29.7969V30.9265C30.8516 31.5091 30.3793 31.9812 29.7969 31.9812Z" fill="#FD8900"/>
<path d="M29.7969 26.3328C29.2144 26.3328 28.7422 25.8606 28.7422 25.2781V24.1484C28.7422 23.566 29.2144 23.0938 29.7969 23.0938C30.3793 23.0938 30.8516 23.566 30.8516 24.1484V25.2781C30.8516 25.8607 30.3793 26.3328 29.7969 26.3328Z" fill="#FD8900"/>
<path d="M25.2782 36.4998H11.7219C11.1395 36.4998 10.6672 36.0275 10.6672 35.4451V15.1107C10.6672 14.831 10.7784 14.5627 10.9762 14.365L17.7543 7.58694C18.1661 7.17512 18.834 7.17512 19.2459 7.58694L26.024 14.365C26.2218 14.5628 26.3329 14.831 26.3329 15.1107V35.4451C26.3329 36.0275 25.8606 36.4998 25.2782 36.4998Z" fill="#FFEB64"/>
<path d="M25.2781 36.5001C25.8606 36.5001 26.3328 36.0278 26.3328 35.4454V15.111C26.3328 14.8312 26.2216 14.563 26.0239 14.3653L19.2457 7.5872C19.0398 7.38126 18.7699 7.27832 18.5 7.27832V36.5001H25.2781Z" fill="#FFC823"/>
<path d="M16.2407 26.3328C15.6583 26.3328 15.186 25.8606 15.186 25.2781V24.1484C15.186 23.566 15.6583 23.0938 16.2407 23.0938C16.8232 23.0938 17.2954 23.566 17.2954 24.1484V25.2781C17.2954 25.8607 16.8232 26.3328 16.2407 26.3328Z" fill="#FFC823"/>
<path d="M20.7593 26.3328C20.1768 26.3328 19.7046 25.8606 19.7046 25.2781V24.1484C19.7046 23.566 20.1768 23.0938 20.7593 23.0938C21.3417 23.0938 21.814 23.566 21.814 24.1484V25.2781C21.814 25.8607 21.3417 26.3328 20.7593 26.3328Z" fill="#FFA400"/>
<path d="M20.7594 36.5H16.2406C15.6581 36.5 15.1859 36.0278 15.1859 35.4453V29.7969C15.1859 29.2144 15.6581 28.7422 16.2406 28.7422H20.7594C21.3418 28.7422 21.8141 29.2144 21.8141 29.7969V35.4453C21.8141 36.0278 21.3418 36.5 20.7594 36.5Z" fill="#A0583E"/>
<path d="M18.5001 20.6845C16.6727 20.6845 15.186 19.1978 15.186 17.3704C15.186 15.5431 16.6727 14.0564 18.5001 14.0564C20.3274 14.0564 21.8141 15.5432 21.8141 17.3705C21.8141 19.1979 20.3274 20.6845 18.5001 20.6845Z" fill="#FFA400"/>
<path d="M21.814 17.3705C21.814 15.5432 20.3274 14.0564 18.5 14.0564V20.6846C20.3274 20.6845 21.814 19.1979 21.814 17.3705Z" fill="#FD8900"/>
<path d="M21.814 35.4453V29.7969C21.814 29.2144 21.3418 28.7422 20.7594 28.7422H18.5V36.5H20.7594C21.3418 36.5 21.814 36.0278 21.814 35.4453Z" fill="#84442E"/>
</g>
<defs>
<clipPath id="clip0">
<rect width="36" height="36" fill="white" transform="translate(0.5 0.5)"/>
</clipPath>
</defs>
</svg>
