<svg width="37" height="37" viewBox="0 0 37 37" fill="none" xmlns="http://www.w3.org/2000/svg">
<g clip-path="url(#clip0)">
<path d="M36.2433 22.0917C36.5175 22.4081 36.5806 22.8508 36.3909 23.2303C36.2222 23.61 35.8638 23.8419 35.442 23.8419H29.0318L22.7901 20.6156L9.09785 13.5938C9.03464 13.1509 9.01355 12.7081 9.01355 12.2443C9.01355 5.85499 15.2411 0.506104 22.7901 0.506104C30.3392 0.506104 36.4964 5.85499 36.4964 12.2443C36.4964 14.7747 35.5263 17.1996 33.7551 19.2029L36.2433 22.0917Z" fill="#63EBD4"/>
<path d="M36.2434 22.0917L33.7551 19.2029C35.5263 17.1996 36.4964 14.7748 36.4964 12.2443C36.4964 5.85499 30.3391 0.506104 22.7902 0.506104C22.7791 0.506104 22.7679 0.506455 22.7568 0.506455V20.5985L22.7902 20.6156L29.0318 23.8419H35.4421C35.8638 23.8419 36.2223 23.6099 36.391 23.2303C36.5807 22.8508 36.5175 22.4081 36.2434 22.0917Z" fill="#2EBEA6"/>
<path d="M15.3396 11.5486C7.20018 11.5486 0.50874 17.1366 0.50874 24.0107C0.50874 26.7731 1.58417 29.4299 3.5241 31.5808L0.761725 34.7437C0.487576 35.0601 0.424435 35.5028 0.592975 35.8823C0.782819 36.262 1.1412 36.4939 1.56301 36.4939H16.3938C22.4035 36.4939 30.1704 31.4542 30.1704 24.0106C30.1705 17.1365 23.4789 11.5486 15.3396 11.5486Z" fill="#FFDA7A"/>
<path d="M15.3395 11.5486C15.338 11.5486 15.3366 11.5486 15.3351 11.5486V36.494H16.3938C22.4035 36.494 30.1704 31.4543 30.1704 24.0106C30.1704 17.1365 23.4788 11.5486 15.3395 11.5486Z" fill="#EA9B26"/>
<path d="M9.01358 25.9505C7.85117 25.9505 6.90491 25.0043 6.90491 23.8418C6.90491 22.6793 7.8511 21.7332 9.01358 21.7332C10.1761 21.7332 11.1223 22.6793 11.1223 23.8418C11.1223 25.0043 10.176 25.9505 9.01358 25.9505Z" fill="#55AFD9"/>
<path d="M15.3396 21.7334C14.1798 21.7334 13.2309 22.6823 13.2309 23.8421C13.2309 25.0019 14.1798 25.9507 15.3396 25.9507C16.4994 25.9507 17.4482 25.0019 17.4482 23.8421C17.4482 22.6823 16.4992 21.7334 15.3396 21.7334Z" fill="#55AFD9"/>
<path d="M21.7358 25.9505C20.5734 25.9505 19.6271 25.0043 19.6271 23.8418C19.6271 22.6793 20.5733 21.7332 21.7358 21.7332C22.8983 21.7332 23.8445 22.6793 23.8445 23.8418C23.8445 25.0043 22.8982 25.9505 21.7358 25.9505ZM21.7358 23.8398C21.7358 23.8408 21.7358 23.8418 21.7358 23.8418V23.8398Z" fill="#2F89B3"/>
<path d="M17.4482 23.8427C17.4482 25.0025 16.4993 25.9514 15.3395 25.9514V21.7341C16.4992 21.7341 17.4482 22.6829 17.4482 23.8427Z" fill="#2F89B3"/>
</g>
<defs>
<clipPath id="clip0">
<rect width="36" height="36" fill="white" transform="translate(0.5 0.5)"/>
</clipPath>
</defs>
</svg>
