<svg width="37" height="37" viewBox="0 0 37 37" fill="none" xmlns="http://www.w3.org/2000/svg">
<g clip-path="url(#clip0)">
<path d="M32.0937 32.8695L24.776 29.6118V15.818L32.0937 12.5602C33.9581 11.7301 36.1182 12.8486 36.5 14.8533V30.5763C36.1181 32.5811 33.9581 33.6995 32.0937 32.8695Z" fill="#FF7F6D"/>
<path d="M32.7186 12.3562C34.413 11.9887 36.1602 13.0694 36.4999 14.853V30.576C36.1602 32.3597 34.413 33.4405 32.7186 33.0729V12.3562Z" fill="#CE4634"/>
<path d="M22.0908 33.2421H4.75979C2.40715 33.2421 0.5 31.3349 0.5 28.9823V16.4466C0.5 14.0939 2.40715 12.1868 4.75979 12.1868H22.0908C24.4434 12.1868 26.3506 14.0939 26.3506 16.4466V28.9823C26.3506 31.3349 24.4434 33.2421 22.0908 33.2421Z" fill="#FFDA7A"/>
<path d="M4.7598 12.1868C3.74004 12.1868 2.80433 12.5455 2.07099 13.1432C2.06347 13.3125 2.05896 13.4827 2.05896 13.6539C2.05896 19.9214 7.1579 25.0203 13.4254 25.0203C19.6928 25.0203 24.7917 19.9214 24.7917 13.6539C24.7917 13.4827 24.7872 13.3125 24.7797 13.1432C24.0463 12.5456 23.1106 12.1868 22.0908 12.1868H4.7598Z" fill="#EA9B26"/>
<path d="M13.4253 22.8078C18.4809 22.8078 22.5792 18.7095 22.5792 13.6539C22.5792 8.59835 18.4809 4.5 13.4253 4.5C8.36971 4.5 4.27136 8.59835 4.27136 13.6539C4.27136 18.7095 8.36971 22.8078 13.4253 22.8078Z" fill="#41D8BF"/>
<path d="M20.456 19.5152C7.76632 19.9907 8.03606 8.99831 9.7354 5.27441C6.5177 6.69349 4.27136 9.9109 4.27136 13.6535C4.27136 18.7091 8.36973 22.8075 13.4253 22.8075C16.2507 22.8074 18.7769 21.527 20.456 19.5152Z" fill="#2EBEA6"/>
<path d="M10.4443 16.6351C11.1651 17.3559 11.9456 17.9346 12.8126 18.3842C14.5833 19.3024 16.7337 19.0603 18.2618 17.7782C18.8235 17.307 18.8606 16.4557 18.3422 15.9373L17.4612 15.0563C17.0669 14.6621 16.4591 14.5767 15.9716 14.8471L14.771 15.5128C14.441 15.6958 14.0364 15.6872 13.7178 15.4849C13.3032 15.2217 12.9172 14.9076 12.5445 14.5348C12.1718 14.1621 11.8576 13.7762 11.5944 13.3615C11.3922 13.0429 11.3835 12.6383 11.5665 12.3083L12.2322 11.1077C12.5026 10.6201 12.4173 10.0124 12.023 9.61813L11.1419 8.73711C10.6235 8.21868 9.77226 8.2559 9.30108 8.8175C8.01902 10.3456 7.77691 12.4959 8.69509 14.2667C9.14466 15.1336 9.72344 15.9143 10.4443 16.6351Z" fill="#EDF5FF"/>
</g>
<defs>
<clipPath id="clip0">
<rect width="36" height="36" fill="white" transform="translate(0.5 0.5)"/>
</clipPath>
</defs>
</svg>
