<svg width="37" height="37" viewBox="0 0 37 37" fill="none" xmlns="http://www.w3.org/2000/svg">
<path d="M33.125 18.5C33.125 21.3926 32.2673 24.2201 30.6602 26.6252C29.0532 29.0303 26.7691 30.9048 24.0967 32.0117C21.4244 33.1187 18.4838 33.4083 15.6468 32.844C12.8098 32.2797 10.2039 30.8868 8.15857 28.8414C6.11323 26.7961 4.72033 24.1902 4.15602 21.3532C3.59171 18.5162 3.88134 15.5756 4.98827 12.9033C6.0952 10.2309 7.96972 7.94677 10.3748 6.33976C12.7799 4.73274 15.6075 3.875 18.5 3.875C22.3788 3.875 26.0987 5.41584 28.8414 8.15856C31.5842 10.9013 33.125 14.6212 33.125 18.5Z" fill="#EDF5FF"/>
<path d="M33.125 18.4999C33.124 15.4035 32.1403 12.3873 30.3156 9.88575C28.4909 7.38417 25.9193 5.52628 22.9712 4.57964C20.0231 3.633 16.8506 3.64648 13.9106 4.61812C10.9706 5.58977 8.41491 7.46944 6.61151 9.98643C9.42802 7.96819 12.8697 7.01577 16.3231 7.29895C19.7765 7.58213 23.0171 9.08251 25.4672 11.5326C27.9173 13.9827 29.4177 17.2233 29.7009 20.6767C29.9841 24.1301 29.0316 27.5718 27.0134 30.3883C28.9049 29.0363 30.4463 27.2522 31.5093 25.1844C32.5723 23.1166 33.1262 20.8249 33.125 18.4999Z" fill="#D5E8FE"/>
<path d="M18.5 1.0625C21.9488 1.0625 25.3202 2.08519 28.1878 4.00125C31.0553 5.91731 33.2903 8.64067 34.6101 11.827C35.93 15.0132 36.2753 18.5193 35.6024 21.9019C34.9296 25.2844 33.2689 28.3915 30.8302 30.8302C28.3915 33.2689 25.2844 34.9296 21.9019 35.6024C18.5193 36.2753 15.0132 35.93 11.827 34.6101C8.64067 33.2903 5.91731 31.0553 4.00125 28.1878C2.08519 25.3202 1.0625 21.9488 1.0625 18.5C1.0625 13.8753 2.89966 9.43999 6.16983 6.16983C9.43999 2.89966 13.8753 1.0625 18.5 1.0625ZM18.5 33.125C21.3926 33.125 24.2201 32.2673 26.6252 30.6602C29.0303 29.0532 30.9048 26.7691 32.0117 24.0967C33.1187 21.4244 33.4083 18.4838 32.844 15.6468C32.2797 12.8098 30.8868 10.2039 28.8414 8.15856C26.7961 6.11322 24.1902 4.72032 21.3532 4.15602C18.5162 3.59171 15.5756 3.88133 12.9033 4.98826C10.2309 6.09519 7.94677 7.96972 6.33976 10.3748C4.73274 12.7799 3.875 15.6074 3.875 18.5C3.875 22.3788 5.41584 26.0987 8.15856 28.8414C10.9013 31.5842 14.6212 33.125 18.5 33.125Z" fill="#FFDA7A"/>
<path d="M19.625 10.1751V18.2076C19.6269 18.469 19.5351 18.7225 19.3662 18.922L15.8337 23.2195C15.7281 23.3389 15.5959 23.4318 15.4478 23.4907C15.2997 23.5496 15.1399 23.5729 14.9811 23.5587C14.8224 23.5444 14.6692 23.4931 14.5339 23.4088C14.3987 23.3245 14.2851 23.2095 14.2025 23.0733C14.0521 22.8262 13.9871 22.5365 14.0176 22.2488C14.0481 21.9611 14.1723 21.6915 14.3712 21.4814L17.24 18.0951C17.3285 17.9941 17.3766 17.8639 17.375 17.7295V10.1751C17.3601 10.0184 17.3781 9.86035 17.4279 9.71101C17.4776 9.56168 17.558 9.42438 17.664 9.30793C17.7699 9.19148 17.899 9.09845 18.0429 9.03478C18.1869 8.97112 18.3426 8.93823 18.5 8.93823C18.6574 8.93823 18.813 8.97112 18.957 9.03478C19.101 9.09845 19.23 9.19148 19.336 9.30793C19.4419 9.42438 19.5223 9.56168 19.5721 9.71101C19.6218 9.86035 19.6398 10.0184 19.625 10.1751Z" fill="#41D8BF"/>
<path d="M14.2025 23.0731C14.0521 22.826 13.9871 22.5363 14.0176 22.2487C14.0481 21.961 14.1723 21.6913 14.3712 21.4813L17.24 18.095C17.3285 17.9939 17.3766 17.8637 17.375 17.7294V10.175C17.3749 9.94492 17.435 9.71882 17.5493 9.51913C17.4918 9.50791 17.4335 9.50152 17.375 9.5C17.0619 9.51559 16.7678 9.65456 16.557 9.88648C16.3461 10.1184 16.2357 10.4244 16.25 10.7375V18.2919C16.2516 18.4262 16.2035 18.5564 16.115 18.6575L13.2462 22.0438C13.0473 22.2538 12.9231 22.5235 12.8926 22.8112C12.8621 23.0988 12.9271 23.3885 13.0775 23.6356C13.1601 23.7719 13.2737 23.8868 13.4089 23.9711C13.5442 24.0555 13.6974 24.1068 13.8561 24.121C14.0149 24.1353 14.1747 24.112 14.3228 24.0531C14.4709 23.9942 14.6031 23.9013 14.7087 23.7819L14.9056 23.5423C14.7624 23.5168 14.626 23.462 14.505 23.3812C14.384 23.3005 14.281 23.1956 14.2025 23.0731Z" fill="#D5E8FE"/>
<path d="M18.5 2.75C15.385 2.75 12.3398 3.67372 9.74977 5.40435C7.1597 7.13499 5.14098 9.5948 3.9489 12.4727C2.75682 15.3507 2.44492 18.5175 3.05264 21.5727C3.66036 24.6279 5.1604 27.4343 7.36307 29.6369C9.56575 31.8396 12.3721 33.3397 15.4273 33.9474C18.4825 34.5551 21.6493 34.2432 24.5273 33.0511C27.4052 31.859 29.865 29.8403 31.5957 27.2502C33.3263 24.6602 34.25 21.6151 34.25 18.5C34.25 14.3228 32.5906 10.3168 29.6369 7.36307C26.6832 4.40937 22.6772 2.75 18.5 2.75ZM18.5 33.125C15.6075 33.125 12.7799 32.2673 10.3748 30.6602C7.96972 29.0532 6.0952 26.7691 4.98827 24.0967C3.88134 21.4244 3.59171 18.4838 4.15602 15.6468C4.72033 12.8098 6.11323 10.2039 8.15857 8.15856C10.2039 6.11322 12.8098 4.72032 15.6468 4.15602C18.4838 3.59171 21.4244 3.88133 24.0967 4.98826C26.7691 6.09519 29.0532 7.96972 30.6602 10.3748C32.2673 12.7799 33.125 15.6074 33.125 18.5C33.125 22.3788 31.5842 26.0987 28.8414 28.8414C26.0987 31.5842 22.3788 33.125 18.5 33.125Z" fill="#EA9B26"/>
<path d="M19.0625 6.6875V3.88906C18.8758 3.88231 18.6884 3.875 18.5 3.875C18.3116 3.875 18.1242 3.88231 17.9375 3.88906V6.6875H19.0625Z" fill="#555FA3"/>
<path d="M17.9375 30.3125V33.1109C18.1242 33.1177 18.3116 33.125 18.5 33.125C18.6884 33.125 18.8758 33.1177 19.0625 33.1109V30.3125H17.9375Z" fill="#555FA3"/>
<path d="M33.1109 17.9375H30.3125V19.0625H33.1109C33.1177 18.8758 33.125 18.6884 33.125 18.5C33.125 18.3116 33.1177 18.1242 33.1109 17.9375Z" fill="#555FA3"/>
<path d="M6.6875 17.9375H3.88906C3.88231 18.1242 3.875 18.3116 3.875 18.5C3.875 18.6884 3.88231 18.8758 3.88906 19.0625H6.6875V17.9375Z" fill="#555FA3"/>
</svg>
