<svg width="36" height="36" viewBox="0 0 36 36" fill="none" xmlns="http://www.w3.org/2000/svg">
<path d="M30.8044 16.159V10.8408C30.8044 10.2986 30.3648 9.85898 29.8225 9.85898H21.4959L17.855 13.5L21.4959 17.1409H29.8226C30.3648 17.1409 30.8044 16.7013 30.8044 16.159Z" fill="#FFDA7A"/>
<path d="M29.8226 17.1409C30.3648 17.1409 30.8044 16.7013 30.8044 16.159V13.5H17.855L21.4959 17.1409H29.8226Z" fill="#EA9B26"/>
<path d="M5.19531 10.8408V16.159C5.19531 16.7013 5.63491 17.1409 6.17716 17.1409H14.4313L18.0723 13.5L14.4313 9.85907H6.17716C5.63491 9.85907 5.19531 10.2987 5.19531 10.8408Z" fill="#FFAA00"/>
<path d="M5.19531 16.159C5.19531 16.7013 5.63491 17.1409 6.17716 17.1409H14.4313L18.0723 13.5H5.19531V16.159Z" fill="#E85B48"/>
<path d="M14.3589 17.1409V35.0181C14.3589 35.5603 14.7985 36 15.3408 36H20.6589C21.2011 36 21.6407 35.5603 21.6407 35.0181V17.1409L17.9998 13.5L14.3589 17.1409Z" fill="#FEB546"/>
<path d="M14.3589 35.018C14.3589 35.5602 14.7986 35.9999 15.3408 35.9999H17.9998V13.5L14.3589 17.1409V35.018Z" fill="#E85B48"/>
<path d="M21.6407 9.85908V0.981844C21.6407 0.439664 21.201 0 20.6589 0H15.3408C14.7986 0 14.3589 0.439664 14.3589 0.981844V9.85908L17.9998 13.5L21.6407 9.85908Z" fill="#FEB546"/>
<path d="M15.3408 0C14.7985 0 14.3589 0.439664 14.3589 0.981844V9.85908L17.9999 13.5V0H15.3408Z" fill="#E85B48"/>
</svg>
