<svg width="37" height="37" viewBox="0 0 37 37" fill="none" xmlns="http://www.w3.org/2000/svg">
<g clip-path="url(#clip0)">
<path d="M32.5516 23.9774C32.5516 25.5167 31.3037 26.7645 29.7645 26.7645H3.28707C1.74782 26.7645 0.5 25.5167 0.5 23.9774V7.25484C0.5 5.7156 1.74782 4.46777 3.28707 4.46777H27.9258L29.0614 4.50493L32.5516 7.25484V23.9774Z" fill="#63EBD4"/>
<path d="M8.94821 12.8293H4.59332C3.87175 12.8293 3.28687 12.2445 3.28687 11.5229V8.56158C3.28687 7.84001 3.87175 7.25513 4.59332 7.25513H8.94813C9.66969 7.25513 10.2546 7.84001 10.2546 8.56158V11.5229C10.2547 12.2445 9.66969 12.8293 8.94821 12.8293Z" fill="#FFD23B"/>
<path d="M10.2547 9.4111H7.40168V7.25488H6.13989V12.829H7.40168V10.6729H10.2547V9.4111Z" fill="#FFB24A"/>
<path d="M29.1113 11.4353H19.2694C18.9087 11.4353 18.6162 11.1428 18.6162 10.782V9.30142C18.6162 8.94068 18.9087 8.64819 19.2694 8.64819H29.1113C29.4721 8.64819 29.7646 8.94068 29.7646 9.30142V10.782C29.7646 11.1428 29.4721 11.4353 29.1113 11.4353Z" fill="#F7F8FA"/>
<path d="M11.6484 19.0342H3.2871C2.93869 19.0342 2.65625 18.7517 2.65625 18.4033C2.65625 18.0549 2.93869 17.7725 3.2871 17.7725H11.6484C11.9968 17.7725 12.2792 18.0549 12.2792 18.4033C12.2792 18.7517 11.9968 19.0342 11.6484 19.0342Z" fill="#435D7A"/>
<path d="M20.0098 19.0342H14.4355C14.0871 19.0342 13.8047 18.7517 13.8047 18.4033C13.8047 18.0549 14.0871 17.7725 14.4355 17.7725H20.0098C20.3582 17.7725 20.6406 18.0549 20.6406 18.4033C20.6406 18.7517 20.3582 19.0342 20.0098 19.0342Z" fill="#435D7A"/>
<path d="M26.9775 19.0342H22.7969C22.4485 19.0342 22.166 18.7517 22.166 18.4033C22.166 18.0549 22.4485 17.7725 22.7969 17.7725H26.9775C27.3259 17.7725 27.6084 18.0549 27.6084 18.4033C27.6084 18.7517 27.3259 19.0342 26.9775 19.0342Z" fill="#435D7A"/>
<path d="M8.20786 23.9777H3.94009C3.57935 23.9777 3.28687 23.6853 3.28687 23.3245V21.8439C3.28687 21.4832 3.57935 21.1907 3.94009 21.1907H8.20786C8.5686 21.1907 8.86108 21.4832 8.86108 21.8439V23.3245C8.86108 23.6853 8.5686 23.9777 8.20786 23.9777Z" fill="#F7F8FA"/>
<path d="M15.1759 23.9777H12.3017C11.9409 23.9777 11.6484 23.6853 11.6484 23.3245V21.8439C11.6484 21.4832 11.9409 21.1907 12.3017 21.1907H15.1759C15.5366 21.1907 15.8291 21.4832 15.8291 21.8439V23.3245C15.8291 23.6853 15.5367 23.9777 15.1759 23.9777Z" fill="#F7F8FA"/>
<path d="M32.5518 7.25484C32.5518 5.7156 31.304 4.46777 29.7648 4.46777H27.8301C29.3693 4.46777 30.6171 5.7156 30.6171 7.25484V23.9774C30.6171 25.5167 29.3693 26.7645 27.8301 26.7645H29.7648C31.304 26.7645 32.5518 25.5167 32.5518 23.9774V7.25484Z" fill="#2EBEA6"/>
<path d="M29.0914 8.64819H27.1567C27.5284 8.64819 27.8296 8.94949 27.8296 9.3211V10.7623C27.8296 11.134 27.5283 11.4352 27.1567 11.4352H29.0914C29.4631 11.4352 29.7643 11.1339 29.7643 10.7623V9.3211C29.7643 8.94949 29.463 8.64819 29.0914 8.64819Z" fill="#E9EEF2"/>
<path d="M15.1559 21.1897H13.2212C13.5929 21.1897 13.8941 21.491 13.8941 21.8626V23.3038C13.8941 23.6755 13.5928 23.9767 13.2212 23.9767H15.1559C15.5276 23.9767 15.8289 23.6754 15.8289 23.3038V21.8626C15.8288 21.491 15.5275 21.1897 15.1559 21.1897Z" fill="#E9EEF2"/>
<path d="M8.18819 21.1897H6.25342C6.6251 21.1897 6.92632 21.491 6.92632 21.8626V23.3038C6.92632 23.6755 6.62502 23.9767 6.25342 23.9767H8.18811C8.55979 23.9767 8.86101 23.6754 8.86101 23.3038V21.8626C8.86109 21.491 8.55979 21.1897 8.18819 21.1897Z" fill="#E9EEF2"/>
<path d="M36.4998 27.1132C36.4998 30.6406 33.6401 33.5003 30.1127 33.5003C26.5853 33.5003 23.7256 30.6406 23.7256 27.1132C23.7256 23.5857 26.5853 20.7261 30.1127 20.7261C33.6401 20.7261 36.4998 23.5857 36.4998 27.1132Z" fill="#EB4200"/>
<path d="M28.6495 29.8474L26.6433 27.8405C26.3663 27.5633 26.3663 27.114 26.6433 26.837C26.9204 26.5599 27.3696 26.5599 27.6469 26.837L28.7375 27.9269L31.9517 25.248C32.2528 24.9968 32.7007 25.0375 32.9516 25.3388C33.2028 25.6399 33.1621 26.0878 32.8608 26.3387L28.6495 29.8474Z" fill="white"/>
</g>
<defs>
<clipPath id="clip0">
<rect width="36" height="36" fill="white" transform="translate(0.5 0.5)"/>
</clipPath>
</defs>
</svg>
