<svg width="35" height="36" viewBox="0 0 35 36" fill="none" xmlns="http://www.w3.org/2000/svg">
<path d="M16.7501 7.95039V4.80039C16.7501 3.41289 18.2501 3.41289 18.2501 4.80039V7.95039C18.2501 9.33789 16.7501 9.33789 16.7501 7.95039Z" fill="#FFDE76"/>
<path d="M31.7501 6.75024C30.8351 6.75024 31.0001 8.07774 31.0001 3.75024C31.0001 3.55133 31.0791 3.36057 31.2197 3.21991C31.3604 3.07926 31.5511 3.00024 31.7501 3.00024C31.949 3.00024 32.1397 3.07926 32.2804 3.21991C32.421 3.36057 32.5 3.55133 32.5 3.75024C32.5 8.07774 32.665 6.75024 31.7501 6.75024Z" fill="#FFDE76"/>
<path d="M3.25006 6.75024C2.33506 6.75024 2.50006 8.07774 2.50006 3.75024C2.50006 3.55133 2.57907 3.36057 2.71973 3.21991C2.86038 3.07926 3.05115 3.00024 3.25006 3.00024C3.44897 3.00024 3.63974 3.07926 3.78039 3.21991C3.92104 3.36057 4.00006 3.55133 4.00006 3.75024C4.00006 8.07774 4.16506 6.75024 3.25006 6.75024Z" fill="#FFDE76"/>
<path d="M5.50006 20.25H29.5001V23.25H5.50006V20.25Z" fill="#41D8BF"/>
<path d="M29.5 20.25V21.75H8.5C8.10218 21.75 7.72064 21.592 7.43934 21.3107C7.15804 21.0294 7 20.6478 7 20.25H29.5Z" fill="#63EBD4"/>
<path d="M5.50006 23.2501H29.5001V35.2501H5.50006V23.2501Z" fill="#D5E8FE"/>
<path d="M29.5 23.2501V33.7501H10C9.20435 33.7501 8.44129 33.4341 7.87868 32.8714C7.31607 32.3088 7 31.5458 7 30.7501V23.2501H29.5Z" fill="#EDF5FF"/>
<path d="M8.5 17.2504H26.5V20.2504H8.5V17.2504Z" fill="#D5E8FE"/>
<path d="M26.5 17.2504V18.7504H11.5001C11.1022 18.7504 10.7207 18.5923 10.4394 18.311C10.1581 18.0297 10.0001 17.6482 10.0001 17.2504H26.5Z" fill="#EDF5FF"/>
<path d="M1.00006 12.7504H5.50006V35.2504H1.00006V12.7504Z" fill="#D5E8FE"/>
<path d="M5.5 12.7504C5.5 34.5979 5.425 33.7504 5.5 33.7504C4.70435 33.7504 3.94129 33.4343 3.37868 32.8717C2.81607 32.3091 2.5 31.546 2.5 30.7504V12.7504H5.5Z" fill="#EDF5FF"/>
<path d="M0.25 9.75024H6.25V12.7502H0.25V9.75024Z" fill="#41D8BF"/>
<path d="M6.24994 9.75024V11.2502H3.24994C2.85211 11.2502 2.47058 11.0922 2.18928 10.8109C1.90797 10.5296 1.74994 10.1481 1.74994 9.75024H6.24994Z" fill="#63EBD4"/>
<path d="M5.50006 9.75013H1.00006L2.22256 6.69763C2.30595 6.49359 2.44821 6.31899 2.6312 6.1961C2.81419 6.0732 3.02963 6.00757 3.25006 6.00757C3.47049 6.00757 3.68593 6.0732 3.86892 6.1961C4.05191 6.31899 4.19417 6.49359 4.27756 6.69763C5.35756 9.40513 5.10256 8.75263 5.50006 9.75013Z" fill="#FFCC66"/>
<path d="M5.20004 9.00033C3.28754 9.00033 2.38004 7.43283 2.95004 6.05283C3.21393 5.97301 3.49816 5.99496 3.74667 6.11436C3.99518 6.23376 4.18994 6.44193 4.29254 6.69783L5.20004 9.00033Z" fill="#FFDE76"/>
<path d="M29.5 9.75043H34L32.7775 6.69793C32.697 6.49091 32.5558 6.31304 32.3724 6.18763C32.1891 6.06222 31.9721 5.99512 31.75 5.99512C31.5279 5.99512 31.3109 6.06222 31.1276 6.18763C30.9442 6.31304 30.803 6.49091 30.7225 6.69793L29.5 9.75043Z" fill="#FFCC66"/>
<path d="M34 35.2504H29.5V12.7504H34V35.2504Z" fill="#D5E8FE"/>
<path d="M34.7501 12.7504H28.7501V9.75037H34.7501V12.7504Z" fill="#41D8BF"/>
<path d="M25.75 14.7527C25.7612 15.2381 25.6545 15.7189 25.4389 16.1539C25.2234 16.5889 24.9055 16.9652 24.5125 17.2502H10.4875C10.0945 16.9652 9.77665 16.5889 9.5611 16.1539C9.34555 15.7189 9.2388 15.2381 9.25001 14.7527C9.25001 11.1227 14.26 8.45274 17.5 7.50024C17.5 7.50024 25.75 9.95274 25.75 14.7527Z" fill="#FFCC66"/>
<path d="M25.6 15.7502H12.5725C9.37749 15.7502 10.0825 9.68274 17.5 7.50024C21.37 8.64774 26.815 11.9177 25.6 15.7502Z" fill="#FFDE76"/>
<path d="M19.615 3.75025C19.4897 4.11 19.2751 4.43203 18.9913 4.68617C18.7075 4.9403 18.3638 5.11822 17.9924 5.20324C17.6211 5.28826 17.2342 5.2776 16.8681 5.17226C16.502 5.06692 16.1687 4.87036 15.8993 4.60098C15.6299 4.3316 15.4334 3.99824 15.328 3.63214C15.2227 3.26604 15.212 2.87919 15.297 2.50784C15.3821 2.13649 15.56 1.79281 15.8141 1.50901C16.0683 1.22522 16.3903 1.01059 16.75 0.885254C16.7831 1.63449 17.0955 2.34418 17.6258 2.87448C18.1561 3.40478 18.8658 3.71723 19.615 3.75025Z" fill="#EA9B26"/>
<path d="M19.6151 3.75025C19.566 3.89841 19.4979 4.03958 19.4126 4.17025C18.9835 4.419 18.4842 4.51899 17.9924 4.45469C17.5006 4.39038 17.0438 4.16538 16.6931 3.81467C16.3424 3.46396 16.1174 3.00719 16.0531 2.5154C15.9888 2.02361 16.0888 1.52435 16.3375 1.09525C16.4655 1.00786 16.6041 0.937286 16.75 0.885254C16.7831 1.63449 17.0955 2.34418 17.6258 2.87448C18.1561 3.40479 18.8658 3.71723 19.6151 3.75025Z" fill="#FFDA7A"/>
<path d="M20.5001 30.0904V35.2504H14.5001V30.0904C14.5005 29.2075 14.7959 28.35 15.3395 27.6543C15.883 26.9585 16.6435 26.4644 17.5001 26.2504C18.3573 26.4632 19.1185 26.957 19.6622 27.653C20.206 28.3491 20.5009 29.2071 20.5001 30.0904Z" fill="#7C7D7D"/>
<path d="M20.5 30.0904V33.7504H19C18.2043 33.7504 17.4413 33.4343 16.8787 32.8717C16.3161 32.3091 16 31.546 16 30.7504C16 28.5979 15.8725 27.7504 16.5175 26.6479C16.8245 26.4695 17.1553 26.3357 17.5 26.2504C18.3572 26.4632 19.1184 26.957 19.6622 27.653C20.2059 28.3491 20.5009 29.2071 20.5 30.0904Z" fill="#919191"/>
<path d="M11.5 31.5H8.50001C8.50001 29.4825 8.20001 27.9675 10 27C11.7925 27.8925 11.5 29.6175 11.5 31.5Z" fill="#2F89B3"/>
<path d="M11.5 30.75C9.38499 30.75 8.68749 28.6725 9.71499 27.165L10.1275 27.0675C11.7175 27.9675 11.5 29.55 11.5 30.75Z" fill="#55AFD9"/>
<path d="M23.5 31.5H26.5C26.5 29.5875 26.7925 27.8925 25 27C23.2 27.9 23.5 29.61 23.5 31.5Z" fill="#2F89B3"/>
<path d="M26.5 30.75C24.385 30.75 23.6875 28.6725 24.715 27.165L25.1275 27.0675C26.7175 27.9675 26.5 29.55 26.5 30.75Z" fill="#55AFD9"/>
<path d="M34 12.7504C34 34.5979 33.925 33.7504 34 33.7504C33.2044 33.7504 32.4413 33.4343 31.8787 32.8717C31.3161 32.3091 31 31.546 31 30.7504V12.7504H34Z" fill="#EDF5FF"/>
<path d="M34.7501 9.75024V11.2502H31.7501C31.3522 11.2502 30.9707 11.0922 30.6894 10.8109C30.4081 10.5296 30.2501 10.1481 30.2501 9.75024H34.7501Z" fill="#63EBD4"/>
<path d="M33.7 9.00033C31.7875 9.00033 30.88 7.43283 31.45 6.05283C31.7139 5.97301 31.9981 5.99496 32.2466 6.11436C32.4951 6.23376 32.6899 6.44193 32.7925 6.69783L33.7 9.00033Z" fill="#FFDE76"/>
</svg>
